#N canvas 963 511 350 350 10;
#X text 111 102 -0dB;
#X text 117 168 -40;
#X text 117 123 - 5;
#X text 117 80 + 5;
#X text 117 70 +12;
#X text 117 57 +22;
#X text 117 138 -12;
#X text 117 155 -24;
#X text 131 186 0;
#X text 16 312 (c) GPL \, acre - winfried ritsch;
#X text 131 4 mx/master/ctl <master id>;
#X obj 60 10 mxr/master/vol_ctl \$1;
#X text 13 233 Master VOL with id and general controls;
#X text 13 254 for backwards compatibility - deprecated;
#X text 14 277 use mmxr/master/ctl_dsp once and mxr/master/vol_ctl
<id> for each master, f 40;
#X obj 10 10 mxr/master/dsp_ctl \$1;
#X coords 0 -1 1 1 100 200 2 10 10;
