#N canvas 1246 496 450 392 10;
#X obj 44 223 cputime;
#X obj 44 165 metro 1000;
#X obj 44 194 t b b;
#X obj 44 281 * 0.1;
#X obj 44 252 int;
#X msg 82 127 \; pd dsp \$1;
#X obj 202 281 del 3990;
#X obj 146 367 outlet;
#X obj 44 363 outlet;
#X text 43 8 master/dsp;
#X text 42 22 controls dsp-state and cpu-usage;
#X text 48 344 cpu average;
#X text 150 342 peak;
#X obj 277 108 r pd;
#X obj 277 137 route dsp;
#X obj 277 166 route float;
#X obj 277 247 i 0;
#X text 325 251 record dsp_state;
#X obj 277 218 r /mxr/dsp/state/get;
#X obj 277 281 s /mxr/dsp/state;
#X text 277 81 to retrieve dsp state;
#X text 234 338 (c) GPL - acre \, ritsch;
#X obj 145 223 max 0;
#X obj 145 281 t f b;
#X msg 202 310 0;
#X obj 145 252 change;
#X obj 43 101 r /mxr/dsp;
#X obj 43 54 inlet;
#X obj 43 79 s /mxr/dsp;
#X obj 69 305 pack 0 0;
#X obj 69 327 s /mxr/dsp/load;
#X text 158 48 Only use one per project !!!;
#X connect 0 0 4 0;
#X connect 1 0 2 0;
#X connect 2 0 0 0;
#X connect 2 1 0 1;
#X connect 3 0 8 0;
#X connect 3 0 22 0;
#X connect 3 0 29 0;
#X connect 4 0 3 0;
#X connect 6 0 24 0;
#X connect 13 0 14 0;
#X connect 14 0 15 0;
#X connect 15 0 16 1;
#X connect 16 0 19 0;
#X connect 18 0 16 0;
#X connect 22 0 25 0;
#X connect 23 0 22 1;
#X connect 23 0 7 0;
#X connect 23 0 29 1;
#X connect 23 1 6 0;
#X connect 24 0 22 1;
#X connect 25 0 23 0;
#X connect 26 0 1 0;
#X connect 26 0 5 0;
#X connect 27 0 28 0;
#X connect 29 0 30 0;
