#N canvas 779 749 462 141 10;
#X text 46 94 (c) GPL - acre \, ritsch;
#X obj 50 76 ds/register_map \$1 /mxr/dsp;
#X text 27 25 mxr/master/dsp_ds <domain>;
#X text 43 49 Storage for the masters DSP section;
