#N canvas 965 552 422 377 10;
#X obj 11 11 cnv 30 48 198 empty empty \$1 2 8 0 10 #b8b8b8 #404040
0;
#X obj 16 165 nbx 3 14 -1e+37 1e+37 0 0 \$0-avg \$0-avg avg 0 -6 0
10 #dcdcdc #000000 #000000 0 256;
#X obj 16 137 nbx 3 14 -1e+37 1e+37 0 0 \$0-peak \$0-peak peak 0 -6
0 10 #dcdcdc #000000 #000000 0 256;
#X obj 16 82 tgl 40 0 /mxr/dsp /mxr/dsp DSP 5 20 0 16 #00fc04 #000000
#000000 0 1;
#X obj 93 109 unpack 0 0;
#N canvas 592 607 192 218 \$0-master-par 0;
#X obj 19 8 cnv 30 98 198 empty empty master_parameter 0 8 0 10 #b8b8b8
#404040 0;
#X obj 22 99 nbx 4 14 -1e+37 1e+37 0 0 /mxr/fadetime /mxr/fadetime
fadetime 0 -8 0 10 #fcfcfc #000000 #000000 0 256;
#X obj 19 27 acre/init_ctl;
#X restore 105 287 pd \$0-master-par;
#X obj 12 187 tgl 15 0 \$0-vis \$0-vis extra 17 7 0 10 #fcfcfc #000000
#000000 0 1;
#X obj 21 41 bng 30 250 50 0 /mxr/reset_vu /mxr/reset_vu vu 8 15 0
12 #dcdcdc #000000 #000000;
#X text 16 312 (c) GPL \, acre - winfried ritsch;
#X text 88 17 mx/master/dsp_ctl <master id>;
#X text 88 37 only global parameter used to control dsp;
#X text 20 22 reset;
#X obj 93 82 r /mxr/dsp/load;
#X obj 105 211 r \$0-vis;
#X msg 105 234 vis \$1;
#X obj 105 257 s pd-\$0-master-par;
#X obj 93 132 s \$0-avg;
#X obj 150 131 s \$0-peak;
#X connect 4 0 16 0;
#X connect 4 1 17 0;
#X connect 12 0 4 0;
#X connect 13 0 14 0;
#X connect 14 0 15 0;
#X coords 0 -1 1 1 50 200 2 10 10;
