#N canvas 965 552 422 377 10;
#X obj 11 11 cnv 30 48 198 empty empty empty 2 8 0 10 -191407 -66577
0;
#X obj 16 165 nbx 3 14 -1e+37 1e+37 0 0 empty empty avg 0 -8 0 10 -228856
-1 -1 4 256;
#X obj 16 138 nbx 3 14 -1e+37 1e+37 0 0 empty empty peak 0 -8 0 10
-228856 -1 -1 5 256;
#X obj 16 82 tgl 40 0 /mxr/dsp /mxr/dsp DSP 5 20 0 16 -4034 -1 -1 1
1;
#X obj 93 109 unpack 0 0;
#X obj 105 229 pack 0 \$0;
#N canvas 592 577 192 218 \$0-master-par 0;
#X obj 19 8 cnv 30 98 198 empty empty master_parameter 0 8 0 10 -191407
-66577 0;
#X obj 22 99 nbx 4 14 -1e+37 1e+37 0 0 /mxr/fadetime /mxr/fadetime
fadetime 0 -8 0 10 -262144 -1 -1 0 256;
#X obj 19 27 acre/init_ctl;
#X restore 105 287 pd \$0-master-par;
#X msg 105 252 \; pd-\$2-master-par vis \$1;
#X obj 12 187 tgl 15 0 empty empty extra 17 7 0 10 -262144 -1 -1 0
1;
#X obj 18 28 bng 30 250 50 0 /mxr/reset_vu /mxr/reset_vu vu 8 15 0
12 -228856 -1 -1;
#X text 16 312 (c) GPL \, acre - winfried ritsch;
#X text 88 17 mx/master/dsp_ctl <master id>;
#X text 88 37 only global parameter used to control dsp;
#X text 15 11 reset;
#X obj 93 82 r /mxr/dsp/load;
#X connect 4 0 1 0;
#X connect 4 1 2 0;
#X connect 5 0 7 0;
#X connect 8 0 5 0;
#X connect 14 0 4 0;
#X coords 0 -1 1 1 50 200 2 10 10;
