#N canvas 690 623 450 283 10;
#X obj 30 95 *~;
#X obj 48 73 r~ /master/fade~;
#X text 49 51 apply a master_fade;
#X obj 29 34 inlet~;
#X obj 30 117 outlet~;
#X text 27 145 (c)algorythmics \, winfried ritsch;
#X text 29 10 master/gain~;
#X connect 0 0 4 0;
#X connect 1 0 0 1;
#X connect 3 0 0 0;
