#N canvas 800 247 436 282 10;
#X obj 20 192 line~;
#X obj 20 129 pack 0 50;
#X obj 137 102 r /mxr/fadetime;
#X msg 123 190 0 3;
#X obj 261 88 r /mxr/dsp;
#X obj 261 157 s /mxr/load;
#X obj 99 168 sel 0 1;
#X obj 20 216 s~ /master/fade~;
#X obj 261 113 dsp;
#X obj 261 135 pack 0 0;
#X text 37 45 master generates the Mastervolume signal and MUTE functionality
;
#N canvas 650 436 450 300 init 0;
#X obj 52 51 loadbang;
#X msg 52 73 \; /mxr/fadetime 50;
#X text 172 79 50ms is 20Hz \, as default;
#X connect 0 0 1 0;
#X restore 233 15 pd init;
#X obj 19 104 dbtorms;
#X obj 19 82 r \$1/master;
#X obj 96 139 r \$1/mute;
#X text 34 8 master/master~ <id>;
#X text 31 25 <id> .. master id;
#X text 141 218 (c) GPL - acre \, ritsch;
#X connect 0 0 7 0;
#X connect 1 0 0 0;
#X connect 2 0 1 1;
#X connect 3 0 0 0;
#X connect 4 0 8 0;
#X connect 6 0 1 0;
#X connect 6 1 3 0;
#X connect 8 0 9 0;
#X connect 8 1 9 1;
#X connect 9 0 5 0;
#X connect 12 0 1 0;
#X connect 13 0 12 0;
#X connect 14 0 6 0;
