#N canvas 402 139 561 310 10;
#X obj 24 156 s /mxr/load;
#X obj 24 134 pack 0 0;
#X obj 24 112 mxr/master/dsp;
#X text 19 221 Note compatibility: if not used in master/gain~ then
choose '0';
#X text 33 8 master/master~ <master id>;
#X text 17 193 Note: only one master~ object with same id is healthy
for project (until now);
#X obj 30 73 mxr/master/vol~ \$1;
#X text 30 39 master/vol~ generates the Mastervolume signal and provides
MUTE functionality;
#X text 18 249 Note deprecated: If you need more than one master then
use mxr/master/dsp once and more msr/master/vol~ with <IDs>;
#X connect 1 0 0 0;
#X connect 2 0 1 0;
#X connect 2 1 1 1;
