#N canvas 398 131 561 341 10;
#X obj 17 226 line~;
#X obj 17 163 pack 0 50;
#X obj 134 136 r /mxr/fadetime;
#X msg 120 224 0 3;
#X obj 96 202 sel 0 1;
#X text 37 75 master generates the Mastervolume signal and MUTE functionality
;
#N canvas 650 436 450 300 init 0;
#X obj 52 51 loadbang;
#X msg 52 73 \; /mxr/fadetime 50;
#X text 172 79 50ms is 20Hz \, as default;
#X connect 0 0 1 0;
#X restore 342 18 pd init;
#X obj 16 138 dbtorms;
#X obj 16 116 r \$1/master;
#X obj 93 173 r \$1/mute;
#X text 161 255 (c) GPL - acre \, ritsch;
#X obj 258 191 s /mxr/load;
#X obj 258 169 pack 0 0;
#X obj 258 147 mxr/master/dsp;
#X text 25 306 Note: only one master~ per patch is healthy (until now)
;
#X obj 17 250 s~ /master/fade~;
#X text 34 47 Note compatibility: if not used in master/gain~ then
choose '0';
#X text 33 8 master/master~ <master id>;
#X connect 0 0 15 0;
#X connect 1 0 0 0;
#X connect 2 0 1 1;
#X connect 3 0 0 0;
#X connect 4 0 1 0;
#X connect 4 1 3 0;
#X connect 7 0 1 0;
#X connect 8 0 7 0;
#X connect 9 0 4 0;
#X connect 12 0 11 0;
#X connect 13 0 12 0;
#X connect 13 1 12 1;
