#N canvas 902 502 417 226 10;
#X obj 33 114 outlet~;
#X obj 201 114 outlet~;
#X text 24 32 simple stereo out without sub;
#X obj 191 139 mxr/mo/send~ /out/2;
#X obj 23 139 mxr/mo/send~ /out/1;
#X obj 22 63 mxr/master/fade~ \$1;
#X obj 191 89 mxr/out/ch~ /out/2 \$1;
#X text 20 170 (c) GPL \, acre - winfried ritsch;
#X text 24 10 mxr/master/stereo~ <master id>;
#X obj 23 89 mxr/out/ch~ /out/1 \$1;
#X connect 6 0 1 0;
#X connect 6 0 3 0;
#X connect 9 0 0 0;
#X connect 9 0 4 0;
