#N canvas 902 490 417 297 10;
#X obj 33 114 outlet~;
#X obj 201 114 outlet~;
#X text 24 32 simple stereo out without sub;
#X text 24 10 master_stereo~;
#X obj 191 139 mxr/mo/send~ /out/2;
#X obj 23 139 mxr/mo/send~ /out/1;
#X obj 22 63 mxr/master/fade~ 0;
#X obj 23 89 mxr/out/ch~ /out/1 0;
#X obj 191 89 mxr/out/ch~ /out/2 0;
#X connect 7 0 0 0;
#X connect 7 0 5 0;
#X connect 8 0 1 0;
#X connect 8 0 4 0;
