#N canvas 801 780 417 181 10;
#X obj 33 114 outlet~;
#X obj 201 114 outlet~;
#X text 24 32 simple stereo out without sub;
#X text 24 10 master_stereo~;
#X obj 23 89 mxr/out/ch~ /out/1;
#X obj 191 89 mxr/out/ch~ /out/2;
#X obj 191 139 mxr/mo/send~ /out/2;
#X obj 23 139 mxr/mo/send~ /out/1;
#X obj 21 63 mxr/master/fade~;
#X connect 4 0 0 0;
#X connect 4 0 7 0;
#X connect 5 0 1 0;
#X connect 5 0 6 0;
