#N canvas 697 444 432 180 10;
#X text 27 45 Storage for the master section;
#X text 29 87 NEVER STORE MAIN (until you know what you do) !;
#X text 251 143 (c) GPL - acre \, ritsch;
#X obj 29 68 # ds/register \$1 /mxr/master/\$2/master;
#X obj 29 121 ds/register_map \$1 /mxr/master/\$2/mute;
#X obj 30 143 ds/register_map \$1 /mxr/\$1/fadetime;
#X text 27 25 mxr/master/vol_ds <domain> <master-id>;
