#N canvas 1141 722 380 267 10;
#X obj 11 11 cnv 30 48 198 empty empty empty 2 7 0 8 -191407 -66577
0;
#X obj 16 194 nbx 3 14 -1e+37 1e+37 0 0 /mxr/master/\$1/master /mxr/master/\$1/master
empty 0 -8 0 11 -258113 -1 -1 0 256;
#X obj 15 11 tgl 40 0 \$1/mute \$1/mute MUTE 2 16 0 12 -258113 -1 -1
0 1;
#X msg 131 70 set \$1;
#X text 59 100 -0dB;
#X text 65 166 -40;
#X text 65 121 - 5;
#X text 65 78 + 5;
#X text 65 68 +12;
#X text 65 55 +22;
#X text 65 136 -12;
#X text 65 153 -24;
#X text 79 184 0;
#X obj 131 48 mxr/fader/db2;
#X obj 130 147 mxr/fader/db;
#X text 16 222 (c) GPL \, acre - winfried ritsch;
#X obj 132 26 r /mxr/master/\$1/master;
#X obj 130 170 s /mxr/master/\$1/master;
#X obj 131 100 s \$0/master/fad;
#X obj 130 122 r \$0/master/fad;
#X obj 11 109 cnv 15 48 2 empty empty empty 20 12 0 14 -1 -66577 0
;
#X obj 15 64 vsl 40 128 0 127 0 0 \$0/master/fad \$0/master/fad MASTER-\$1
-4 -6 0 8 -258113 -1 -1 0 1;
#X text 131 4 mx/master/vol_ctl <master id>;
#X connect 3 0 18 0;
#X connect 13 0 3 0;
#X connect 14 0 17 0;
#X connect 16 0 13 0;
#X connect 19 0 14 0;
#X coords 0 -1 1 1 50 200 2 10 10;
