#N canvas 618 108 450 300 10;
#X text 74 139 COMMENTED OUT \$1;
#X text 27 19 acre/#.pd [] or #.pd [];
#X text 23 43 placeholder function to comment out function without
loosing arguments;
#X text 32 228 (c) GPL \, acre winfried ritsch;
