#N canvas 527 313 351 287 10;
#X obj 11 11 cnv 15 98 198 empty empty empty 2 8 0 10 -191407 -66577
0;
#X text 69 158 mon;
#X obj 70 172 tgl 15 0 \$1/monitor/pre \$1/monitor/pre pre 17 7 0 8
-257985 -1 -1 0 1;
#X obj 70 187 tgl 15 0 \$1/monitor/post \$1/monitor/post post 17 7
0 8 -257985 -1 -1 0 1;
#X obj 65 36 vu 10 120 \$1/vu empty -1 -8 0 10 -66577 -1 1 0;
#X text 133 43 in/bus_ctl <bus id>;
#X obj 10 10 mxr/fader/ctl \$1 \$1;
#X text 118 63 (c) GPL \, acre - winfried ritsch;
#X coords 0 -1 1 1 100 200 2 10 10;
