#N canvas 4 390 512 344 10;
#X obj 41 6 inlet~;
#X obj 55 134 outlet~;
#X obj 140 14 prvu~;
#X text 34 -17 eq und hilo ... now in pickups;
#X text 246 -20 (c)algorythmics \, winfried ritsch;
#X text 38 -28 in/bus~ <bus name>;
#X text 149 154 bus signal;
#X obj 262 127 outlet~;
#X text 261 144 live_out;
#X text 225 6 a combination for historic reasons;
#X text 246 19 Note:deprecated use 2 buses now;
#X obj 50 93 mxr/fader/fader~ \$1;
#X obj 140 35 s \$1/vu;
#X obj 262 103 mxr/fader/fader~ \$1/live;
#X obj 19 225 mxr/mo/prepost~ \$1;
#X obj 98 69 r /mxr/fadetime;
#X obj 309 74 r /mxr/fadetime;
#X connect 0 0 2 0;
#X connect 0 0 11 0;
#X connect 0 0 13 0;
#X connect 0 0 14 0;
#X connect 2 0 12 0;
#X connect 11 0 1 0;
#X connect 11 0 14 1;
#X connect 13 0 7 0;
#X connect 15 0 11 1;
#X connect 16 0 13 1;
