#N canvas 140 412 443 234 10;
#X obj 11 11 cnv 15 98 198 empty empty empty 2 8 0 10 -191407 -66577
0;
#X text 157 40 Bus master with vu;
#X obj 10 10 mxr/fader/vu_ctl \$1 \$1;
#X obj 60 10 mxr/fader/vu_ctl \$1/live live;
#X text 118 63 (c) GPL \, acre - winfried ritsch;
#X obj 61 194 tgl 15 0 \$1/monitor/post \$1/monitor/post post 17 7
0 8 -257985 -1 -1 0 1;
#X obj 11 194 tgl 15 0 \$1/monitor/pre \$1/monitor/pre pre 17 7 0 8
-257985 -1 -1 0 1;
#X text 144 15 mxr/in/buslive_ctl <bus id>;
#X coords 0 -1 1 1 100 200 2 10 10;
