#N canvas 1226 496 512 344 10;
#X obj 41 6 inlet~;
#X obj 55 134 outlet~;
#X obj 140 14 prvu~;
#X text 34 -17 eq und hilo ... now in pickups;
#X text 246 -20 (c)algorythmics \, winfried ritsch;
#X text 38 -28 in/bus~ <bus name>;
#X text 149 154 bus signal;
#X obj 50 93 mxr/fader/fader~ \$1;
#X obj 98 69 r /mxr/fadetime;
#X obj 140 35 s \$1/vu;
#X obj 19 225 mxr/mo/prepost~ \$1;
#X connect 0 0 2 0;
#X connect 0 0 7 0;
#X connect 0 0 10 0;
#X connect 2 0 9 0;
#X connect 7 0 1 0;
#X connect 7 0 10 1;
#X connect 8 0 7 1;
