#N canvas 889 319 496 275 10;
#X text 185 13 channel_ctl <ch id>;
#X obj 11 11 cnv 15 98 198 empty empty empty 2 7 0 10 #b8b8b8 #404040
0;
#X obj 66 43 vu 15 120 \$1/meter vu_limit -1 -8 0 8 #404040 #000000
1 0;
#X obj 65 183 tgl 20 0 \$1/monitor/pre \$1/monitor/pre pre 3 10 0 8
#f8fc00 #000000 #000000 0 1;
#X obj 65 166 nbx 3 12 -1e+37 1e+37 0 0 empty \$0-vu empty 0 -8 0 10
#dcdcdc #000000 #000000 0 256;
#X obj 10 10 mxr/fader/ctl \$1 \$1;
#X text 123 122 (c) GPL \, acre - winfried ritsch;
#X obj 246 166 tgl 15 0 \$0-vis \$0-vis extra 17 7 0 10 #fcfcfc #000000
#000000 0 1;
#N canvas 621 392 147 286 \$0-ch-par 0;
#X obj 16 12 mxr/in/in_ctl \$1;
#X obj 16 62 mxr/limiter/ctl \$1;
#X obj 16 112 mxr/eq/ctl \$1/eq;
#X restore 117 93 pd \$0-ch-par;
#X msg 117 58 \; pd-\$2-ch-par vis \$1;
#X obj 117 12 r \$0-vis;
#X obj 66 13 bng 15 250 50 0 \$0-vis empty extra 5 7 0 10 #fcfcfc #000000
#000000;
#X obj 117 35 pack 0 \$0;
#X obj 128 181 unpack f f;
#X obj 185 203 s \$0-vu;
#X obj 128 160 r \$1/meter;
#X connect 10 0 12 0;
#X connect 12 0 9 0;
#X connect 13 1 14 0;
#X connect 15 0 13 0;
#X coords 0 -1 1 1 100 200 2 10 10;
