#N canvas 866 193 498 544 10;
#X obj 13 57 inlet~;
#X obj 34 414 outlet~;
#X obj 305 420 pvu~;
#X obj 314 449 pack;
#X obj 339 179 pvu~;
#X text 7 507 (c)algorythmics \, winfried ritsch;
#X text 144 272 high and low cut;
#X text 135 302 eq (is controlled for bus);
#X text 47 165 pre_gain before limiter !;
#N canvas 1333 412 403 140 init 0;
#X obj 16 17 loadbang;
#X msg 16 38 0;
#X obj 16 65 s \$1/mute;
#X connect 0 0 1 0;
#X connect 1 0 2 0;
#X restore 128 62 pd init;
#X obj 47 325 s~ /in/\$1, f 10;
#X text 50 240 --- EQ ---;
#X text 307 213 measure before limit;
#X text 17 463 --- Monitoring ---;
#X text 11 28 in/channel~ <ch id>;
#X text 303 490 meter means no peak VU;
#X text 303 507 view: peak is pre \, vu is post;
#X obj 306 129 switch~;
#X obj 13 85 throw~ \$1~;
#X obj 11 108 catch~ \$1~;
#X obj 33 143 in~ \$1;
#X obj 32 218 mxr/limiter/dsp~ \$1;
#X obj 33 298 mxr/eq/dsp~ \$1;
#X obj 211 348 r /mxr/fadetime;
#X obj 10 484 mxr/mo/prepost~ \$1;
#X obj 314 470 s \$1/meter;
#X obj 306 41 r \$1/mute;
#X obj 34 386 mxr/fader/fader~ \$1 50;
#X obj 306 85 del 50;
#X obj 358 86 r /mxr/fadetime;
#X msg 306 107 0;
#X obj 306 63 sel 1 0;
#X msg 374 65 stop;
#X msg 338 106 1;
#X text 96 108 optionaly receice by catch;
#X text 306 19 Mute logic to switch;
#X connect 0 0 18 0;
#X connect 2 0 3 0;
#X connect 3 0 25 0;
#X connect 4 0 3 1;
#X connect 19 0 4 0;
#X connect 19 0 20 0;
#X connect 19 0 24 0;
#X connect 20 0 21 0;
#X connect 21 0 22 0;
#X connect 22 0 10 0;
#X connect 22 0 27 0;
#X connect 23 0 27 1;
#X connect 26 0 31 0;
#X connect 27 0 1 0;
#X connect 27 0 2 0;
#X connect 27 0 24 1;
#X connect 28 0 30 0;
#X connect 29 0 28 1;
#X connect 30 0 17 0;
#X connect 31 0 28 0;
#X connect 31 1 32 0;
#X connect 31 1 33 0;
#X connect 32 0 28 0;
#X connect 33 0 17 0;
