#N canvas 1083 416 498 599 10;
#X obj 13 65 inlet~;
#X obj 30 459 outlet~;
#X obj 314 409 pvu~;
#X obj 314 457 pack;
#X obj 338 166 pvu~;
#X text 141 238 high and low cut;
#X text 132 268 eq (is controlled for bus);
#X text 47 173 pre_gain before limiter !;
#N canvas 357 386 229 146 init 0;
#X obj 16 17 loadbang;
#X msg 16 38 0;
#X obj 16 65 s \$1/mute;
#X connect 0 0 1 0;
#X connect 1 0 2 0;
#X restore 128 70 pd init;
#X text 50 223 --- EQ ---;
#X text 307 288 measure before limit;
#X text 18 477 --- Monitoring ---;
#X text 11 7 in/channel~ <ch id>;
#X text 303 498 meter means no peak VU;
#X text 303 515 view: peak is pre \, vu is post;
#X obj 201 430 switch~;
#X obj 13 93 throw~ \$1~;
#X obj 11 116 catch~ \$1~;
#X obj 33 151 in~ \$1;
#X obj 32 201 mxr/limiter/dsp~ \$1;
#X obj 31 264 mxr/eq/dsp~ \$1;
#X obj 180 301 r /mxr/fadetime;
#X obj 10 492 mxr/mo/prepost~ \$1;
#X obj 314 478 s \$1/meter;
#X obj 30 328 mxr/fader/fader~ \$1 50;
#X text 96 116 optionaly receice by catch;
#X text 190 544 Mute logic to switch;
#X text 7 515 (c)GPL \, algorythmics \, winfried ritsch;
#X text 9 22 In signal is collected from other throws named <id>~;
#X obj 45 291 s~ \$1~, f 10;
#X text 9 37 and distributed after signal conditioning with "s~ <id>~"
;
#X obj 78 385 r \$1/mute;
#X obj 77 431 line~;
#X obj 30 432 *~;
#X obj 78 410 mxr/fader/muteswitch \$1;
#X obj 314 432 change;
#X connect 0 0 16 0;
#X connect 2 0 35 0;
#X connect 3 0 23 0;
#X connect 4 0 3 1;
#X connect 17 0 4 0;
#X connect 17 0 18 0;
#X connect 17 0 22 0;
#X connect 18 0 19 0;
#X connect 19 0 20 0;
#X connect 20 0 24 0;
#X connect 20 0 29 0;
#X connect 21 0 24 1;
#X connect 24 0 2 0;
#X connect 24 0 33 0;
#X connect 31 0 34 0;
#X connect 32 0 33 1;
#X connect 33 0 1 0;
#X connect 33 0 22 1;
#X connect 34 0 32 0;
#X connect 34 1 15 0;
#X connect 35 0 3 0;
