#N canvas 970 439 393 291 10;
#X obj 26 115 hip~ 10;
#X text 178 85 Prepare input;
#X obj 25 51 inlet~;
#X obj 26 231 outlet~;
#X text 35 19 in/in~ <in id>;
#X obj 26 209 *~;
#X obj 111 233 line~;
#X obj 111 190 * 1;
#X obj 111 167 dbtorms;
#X obj 298 47 sel 1;
#X msg 298 70 -1;
#X obj 330 70 t b;
#X msg 330 92 1;
#N canvas 315 414 347 156 init 0;
#X obj 64 12 loadbang;
#X obj 44 126 s \$1/ingain;
#X msg 45 104 100;
#X obj 80 105 s \$1/hip;
#X msg 81 83 10;
#X msg 115 59 0;
#X obj 114 81 s \$1/inv;
#X connect 0 0 2 0;
#X connect 0 0 5 0;
#X connect 0 0 4 0;
#X connect 2 0 1 0;
#X connect 4 0 3 0;
#X connect 5 0 6 0;
#X restore 129 53 pd init;
#X text 90 113 suppress DC with 10 or without with 0;
#X obj 68 84 r \$1/in/hip;
#X obj 111 143 r \$1/in/gain;
#X obj 298 25 r \$1/in/inv;
#X obj 111 212 pack 0 50;
#X obj 172 167 t b f;
#X obj 205 194 r /mxr/fadetime;
#X connect 0 0 5 0;
#X connect 2 0 0 0;
#X connect 5 0 3 0;
#X connect 6 0 5 1;
#X connect 7 0 18 0;
#X connect 8 0 7 0;
#X connect 9 0 10 0;
#X connect 9 1 11 0;
#X connect 10 0 19 0;
#X connect 11 0 12 0;
#X connect 12 0 19 0;
#X connect 15 0 0 1;
#X connect 16 0 8 0;
#X connect 17 0 9 0;
#X connect 18 0 6 0;
#X connect 19 0 7 0;
#X connect 19 1 7 1;
#X connect 20 0 18 1;
