#N canvas 480 74 441 241 10;
#X text 25 8 eq~ <ch/eq id>;
#X obj 24 56 inlet~;
#X obj 23 84 demux~;
#X obj 23 182 outlet~;
#X obj 163 111 s \$1/eq_para/off;
#X text 160 132 Note: off means no signal passes;
#X text 202 148 and no dsp done;
#X obj 163 53 r \$1/eq/bypass;
#X obj 175 88 s \$1/eq/hilo/off;
#X obj 23 107 hilo~ \$1/eq;
#X obj 23 129 para~ \$1/eq;
#X connect 1 0 2 0;
#X connect 2 0 9 0;
#X connect 2 1 3 0;
#X connect 7 0 2 0;
#X connect 7 0 4 0;
#X connect 7 0 8 0;
#X connect 9 0 10 0;
#X connect 10 0 3 0;
