#N canvas 1565 550 474 438 10;
#X obj 12 19 inlet~;
#X obj 11 302 outlet~;
#X obj 11 188 +~;
#X obj 10 279 +~;
#X obj 10 247 mull~ 1 50;
#X obj 11 156 mull~ 1 50;
#X obj 43 123 == 0;
#X obj 36 222 == 0;
#N canvas 350 79 322 232 lowcut 0;
#X obj 50 24 inlet~;
#X obj 50 121 outlet~;
#X obj 49 56 hp3_bess~ 75 300;
#X obj 49 89 mull~ 0 50;
#X obj 104 25 inlet;
#X obj 155 27 inlet;
#X text 105 9 freq;
#X text 154 11 on_off;
#X obj 176 126 switch~;
#X obj 178 56 sel 0 1;
#X msg 177 100 0;
#X msg 219 102 1;
#X obj 178 80 del 50;
#X connect 0 0 2 0;
#X connect 2 0 3 0;
#X connect 3 0 1 0;
#X connect 4 0 2 1;
#X connect 5 0 3 1;
#X connect 5 0 9 0;
#X connect 9 0 12 0;
#X connect 9 1 11 0;
#X connect 10 0 8 0;
#X connect 11 0 8 0;
#X connect 12 0 10 0;
#X restore 91 156 pd lowcut;
#N canvas 28 269 367 215 highcut 0;
#X obj 52 25 inlet~;
#X obj 52 144 outlet~;
#X obj 51 108 mull~ 0 50;
#X obj 113 27 inlet;
#X obj 227 19 inlet;
#X text 114 11 freq;
#X text 226 3 on_off;
#X obj 227 144 switch~;
#X obj 227 63 sel 0 1;
#X msg 227 113 0;
#X msg 273 111 1;
#X obj 227 87 del 50;
#X obj 52 62 lp3_bess~ 8000 300;
#X connect 0 0 12 0;
#X connect 2 0 1 0;
#X connect 3 0 12 1;
#X connect 4 0 2 1;
#X connect 4 0 8 0;
#X connect 8 0 11 0;
#X connect 8 1 10 0;
#X connect 9 0 7 0;
#X connect 10 0 7 0;
#X connect 11 0 9 0;
#X connect 12 0 2 0;
#X restore 90 245 pd highcut;
#X text 233 154 8000;
#X text 251 240 75;
#X text 7 -13 in/hilo~ <hilo name> (like "bus/3" or "in"9);
#X text 10 339 see also help of filters;
#X text 8 362 (c) algorythmics \, winfried ritsch;
#X text 9 325 derived from IEM cubemixer done by Thomas Musil;
#X text 77 23 hilo~ <prefix of name>;
#X text 213 47 Note: off means no signal passes;
#X obj 254 85 == 0;
#X obj 254 63 r \$1/hilo/off;
#X obj 43 89 r \$1/lowcut/on;
#X obj 116 134 r \$1/lowcut/freq;
#X obj 60 188 r \$1/highcut/on;
#X obj 118 222 r \$1/highcut/freq;
#X obj 256 107 switch~;
#X obj 341 88 loadbang;
#X msg 341 110 0;
#X obj 343 134 s \$1/hilo/off;
#X connect 0 0 5 0;
#X connect 0 0 8 0;
#X connect 2 0 4 0;
#X connect 2 0 9 0;
#X connect 3 0 1 0;
#X connect 4 0 3 0;
#X connect 5 0 2 0;
#X connect 6 0 5 1;
#X connect 7 0 4 1;
#X connect 8 0 2 1;
#X connect 9 0 3 1;
#X connect 18 0 24 0;
#X connect 19 0 18 0;
#X connect 20 0 8 2;
#X connect 20 0 6 0;
#X connect 21 0 8 1;
#X connect 22 0 7 0;
#X connect 22 0 9 2;
#X connect 23 0 9 1;
#X connect 25 0 26 0;
#X connect 26 0 27 0;
