#N canvas 1303 454 435 510 10;
#X obj 10 14 inlet~;
#X obj 11 421 outlet~;
#X obj 11 155 hml_shelf~ 0 100 0 4000 0 300;
#X obj 11 270 para_bp2~ 440 1 0 300;
#X obj 11 388 para_bp2~ 1200 1 0 300;
#X text 152 47 100;
#X text 180 73 100;
#X text 262 97 4000;
#X text 290 124 100;
#X text 162 197 440;
#X text 179 220 1;
#X text 224 244 100;
#X text 163 304 1200;
#X text 180 329 1;
#X text 235 359 100;
#X text 76 429 see also help of filters;
#X text 146 450 (c) algorythmics \, winfried ritsch;
#X text 74 412 derived from IEM cubemixer done by Thomas Musil;
#X obj 303 36 == 0;
#X obj 44 46 r \$1/low/gain;
#X obj 79 71 r \$1/low/freq;
#X obj 148 97 r \$1/high/freq;
#X obj 181 124 r \$1/high/gain;
#X obj 47 196 r \$1/mid2/freq;
#X obj 84 220 r \$1/mid2/q;
#X obj 121 244 r \$1/mid2/gain;
#X obj 49 305 r \$1/mid1/freq;
#X obj 88 329 r \$1/mid1/q;
#X obj 128 356 r \$1/mid1/gain;
#X text 8 -14 in/eq_para~ <eq name> (like "bus/3" or "in"9);
#X obj 303 14 r \$1/para/off;
#X obj 303 60 switch~;
#X obj 338 98 loadbang;
#X msg 338 120 0;
#X obj 338 142 s \$1/para/off;
#X connect 0 0 2 0;
#X connect 2 0 3 0;
#X connect 3 0 4 0;
#X connect 4 0 1 0;
#X connect 18 0 31 0;
#X connect 19 0 2 1;
#X connect 20 0 2 2;
#X connect 21 0 2 4;
#X connect 22 0 2 5;
#X connect 23 0 3 1;
#X connect 24 0 3 2;
#X connect 25 0 3 3;
#X connect 26 0 4 1;
#X connect 27 0 4 2;
#X connect 28 0 4 3;
#X connect 30 0 18 0;
#X connect 32 0 33 0;
#X connect 33 0 34 0;
