#N canvas 931 205 435 464 10;
#X obj 49 390 outlet~;
#X obj 47 201 *~;
#X obj 47 224 lp1~ 90;
#X text 101 228 Crossover can be set also here;
#X text 101 248 Note: many poeple think the must be sharp;
#X text 101 262 I think they should be smooth so 1st order;
#X obj 95 183 line~;
#X obj 95 137 fadtorms;
#X obj 95 160 pack 0 50;
#X obj 158 136 r /mxr/fadetime;
#X text 47 46 master for subwoofer with filter;
#X obj 47 67 catch~ \$1~;
#X obj 57 90 s~ \$1~;
#X obj 95 114 r \$1/vol;
#X obj 96 204 r \$1/lp;
#X obj 71 288 r \$1/hp;
#X obj 66 341 mxr/prvu/send~ \$1/vu;
#X text 118 393 (c) GPL \, acre - winfried ritsch;
#X obj 49 367 mxr/master/gain~ \$2;
#X text 45 22 mixer/sub/master~ <sub_id> [master id];
#X obj 133 283 r /mxr/fadetime;
#X obj 48 313 hp1~ 10 50;
#X connect 1 0 2 0;
#X connect 2 0 21 0;
#X connect 6 0 1 1;
#X connect 7 0 8 0;
#X connect 8 0 6 0;
#X connect 9 0 8 1;
#X connect 11 0 1 0;
#X connect 11 0 12 0;
#X connect 13 0 7 0;
#X connect 14 0 2 1;
#X connect 15 0 21 1;
#X connect 18 0 0 0;
#X connect 20 0 21 2;
#X connect 21 0 16 0;
#X connect 21 0 18 0;
