#N canvas 245 344 490 336 10;
#X obj 7 43 inlet~;
#X obj 7 147 outlet~;
#X obj 82 43 r \$1/vol;
#X obj 97 71 r \$1/mute;
#X obj 203 43 inlet;
#X text 209 20 fadetime;
#X obj 203 153 loadbang;
#X obj 203 175 \$2;
#X obj 203 197 sel 0;
#X msg 203 219 50;
#X text 234 178 if not used default;
#X text 5 238 fader~ is dsp part of the fader with variable space set
using fadergain;
#X obj 8 113 mxr/fader/gain~ \$2;
#X text 248 40 overwrite with inlet;
#X obj 204 88 r /mxr/fadetime;
#X obj 204 109 s \$1/fadetime;
#X obj 205 65 r \$1/fadetime;
#X text 320 89 global;
#X text 7 4 mxr/fader/fader~ <prefix> [fadetime];
#X text 4 272 (c)GPL \, algorythmics \, winfried ritsch;
#X connect 0 0 12 0;
#X connect 2 0 12 1;
#X connect 3 0 12 2;
#X connect 4 0 12 3;
#X connect 6 0 7 0;
#X connect 7 0 8 0;
#X connect 8 0 9 0;
#X connect 9 0 12 3;
#X connect 12 0 1 0;
#X connect 14 0 15 0;
#X connect 16 0 12 3;
