#N canvas 585 385 450 300 10;
#X obj 67 53 inlet~;
#X obj 66 157 outlet~;
#X obj 142 53 r \$1/vol;
#X obj 157 81 r \$1/mute;
#X obj 263 53 inlet;
#X text 269 30 fadetime;
#X obj 266 107 loadbang;
#X obj 266 129 \$2;
#X obj 266 151 sel 0;
#X msg 266 173 50;
#X text 268 85 if not used default;
#X text 67 14 fader~ <prefix> [fadetime];
#X text 65 229 fader~ is dsp part of the fader with variable space
set using fadergain;
#X obj 69 123 mxr/fader/gain~ \$2;
#X connect 0 0 13 0;
#X connect 2 0 13 1;
#X connect 3 0 13 2;
#X connect 4 0 13 3;
#X connect 6 0 7 0;
#X connect 7 0 8 0;
#X connect 8 0 9 0;
#X connect 9 0 13 3;
#X connect 13 0 1 0;
