#N canvas 512 516 418 280 10;
#X obj 51 191 *~;
#X obj 92 160 line~;
#X obj 40 85 inlet~;
#X obj 52 219 outlet~;
#X obj 92 87 inlet;
#X text 47 36 simple gain with fader and line;
#X obj 245 87 inlet;
#X text 98 64 gain;
#X text 232 71 fadetime;
#X text 40 64 signal;
#X obj 179 108 sel 0 1;
#X obj 180 87 inlet;
#X text 185 69 mute;
#X obj 92 110 dbtorms;
#X obj 327 25 loadbang;
#X obj 327 47 i \$1;
#X obj 327 69 sel 0;
#X obj 92 139 pack 0 50;
#X obj 187 139 pack 0 50;
#X text 36 14 fader/gain~ [fadetime];
#X connect 0 0 3 0;
#X connect 1 0 0 1;
#X connect 2 0 0 0;
#X connect 4 0 13 0;
#X connect 6 0 17 1;
#X connect 10 0 17 0;
#X connect 10 1 18 0;
#X connect 11 0 10 0;
#X connect 13 0 17 0;
#X connect 14 0 15 0;
#X connect 15 0 16 0;
#X connect 16 1 17 1;
#X connect 16 1 18 1;
#X connect 17 0 1 0;
#X connect 18 0 1 0;
