#N canvas 314 61 450 349 10;
#X obj 96 187 del 50;
#X obj 188 134 r /mxr/fadetime;
#X msg 96 209 0;
#X obj 96 79 sel 1 0;
#X msg 120 162 stop;
#X msg 205 189 1;
#X obj 216 270 outlet;
#X text 253 192 to switch~;
#X text 71 292 (c) GPL \, acre winfried ritsch;
#X obj 96 37 inlet;
#X text 102 17 acre/mutefade;
#X obj 166 164 + 50;
#X obj 74 267 outlet;
#X msg 52 188 0;
#X obj 74 240 pack 0 50;
#X obj 237 17 loadbang;
#X msg 237 39 0;
#X obj 96 133 t b f;
#X text 188 98 add at least one block size;
#X text 190 113 for line~ to finish;
#X obj 96 111 f 1.5;
#X connect 0 0 2 0;
#X connect 1 0 11 1;
#X connect 1 0 14 1;
#X connect 2 0 6 0;
#X connect 3 0 13 0;
#X connect 3 0 20 0;
#X connect 3 1 4 0;
#X connect 3 1 5 0;
#X connect 4 0 0 0;
#X connect 5 0 6 0;
#X connect 5 0 14 0;
#X connect 9 0 3 0;
#X connect 11 0 0 1;
#X connect 13 0 14 0;
#X connect 14 0 12 0;
#X connect 15 0 16 0;
#X connect 16 0 3 0;
#X connect 17 0 0 0;
#X connect 17 1 11 0;
#X connect 20 0 17 0;
