#N canvas 841 484 450 349 10;
#X obj 96 187 del 50;
#X obj 213 158 r /mxr/fadetime;
#X msg 96 209 0;
#X obj 96 79 sel 1 0;
#X msg 120 162 stop;
#X msg 216 193 1;
#X obj 216 270 outlet;
#X text 253 192 to switch~;
#X text 71 292 (c) GPL \, acre winfried ritsch;
#X obj 166 146 + 1;
#X obj 96 126 acre/blockms;
#X obj 96 37 inlet;
#X text 102 17 acre/mutefade;
#X obj 166 168 + 50;
#X text 126 97 add at least one block size \, to really get a zero
buf in the switch~;
#X obj 74 267 outlet;
#X msg 52 188 0;
#X obj 74 240 pack 0 50;
#X obj 237 17 loadbang;
#X msg 237 39 0;
#X connect 0 0 2 0;
#X connect 1 0 13 1;
#X connect 1 0 17 1;
#X connect 2 0 6 0;
#X connect 3 0 10 0;
#X connect 3 0 16 0;
#X connect 3 1 4 0;
#X connect 3 1 5 0;
#X connect 4 0 0 0;
#X connect 5 0 6 0;
#X connect 5 0 17 0;
#X connect 9 0 13 0;
#X connect 10 0 9 0;
#X connect 10 0 0 0;
#X connect 11 0 3 0;
#X connect 13 0 0 1;
#X connect 16 0 17 0;
#X connect 17 0 15 0;
#X connect 18 0 19 0;
#X connect 19 0 3 0;
