#N canvas 62 133 556 536 10;
#X text 223 488 (c)algorythmics \, winfried ritsch;
#X obj 21 352 outlet~;
#X obj 85 351 outlet~;
#X obj 144 351 outlet~;
#X obj 206 351 outlet~;
#X obj 268 350 outlet~;
#X text 18 -5 master_bus4_sub1~;
#X obj 15 56 mxr/out~ 1;
#X obj 15 78 mxr/out_sub~ 1 1;
#X obj 272 311 mxr/sub~ 1;
#X obj 88 146 mxr/out_sub~ 2 1;
#X obj 154 206 mxr/out_sub~ 3 1;
#X obj 225 275 mxr/out_sub~ 4 1;
#X obj 166 55 mxr/master~;
#X obj 46 378 mxr/monitor_send~ /out/bus/1;
#X obj 99 406 mxr/monitor_send~ /out/bus/2;
#X obj 164 433 mxr/monitor_send~ /out/bus/3;
#X obj 228 459 mxr/monitor_send~ /out/bus/4;
#X obj 260 376 mxr/monitor_send~ /out/sub/1;
#X obj 88 126 mxr/out~ 2;
#X obj 154 187 mxr/out~ 3;
#X obj 225 255 mxr/out~ 4;
#X connect 8 0 1 0;
#X connect 8 0 14 0;
#X connect 9 0 5 0;
#X connect 9 0 18 0;
#X connect 10 0 2 0;
#X connect 10 0 15 0;
#X connect 11 0 3 0;
#X connect 11 0 16 0;
#X connect 12 0 4 0;
#X connect 12 0 17 0;
