#N canvas 220 138 607 550 10;
#X obj 52 322 r _ds/remote/\$1;
#X obj 50 432 spigot 0;
#X text 49 307 collect messages;
#X obj 50 461 outlet;
#X text 228 12 collect distribute messages;
#X obj 58 52 inlet;
#X msg 93 137 0;
#X obj 69 182 list split 1;
#X obj 69 205 t b s;
#X obj 69 231 list;
#X obj 69 260 s;
#X text 82 166 send to first name as receiver;
#X text 100 261 send to system;
#X obj 170 100 spigot;
#X obj 115 463 spigot;
#X text 57 18 ds/remote <connection id>;
#X obj 107 52 r /ds/remote/\$1/on;
#X obj 58 73 spigot 0;
#X msg 29 145 1;
#X obj 154 406 r /ds/remote/\$1/on;
#X obj 387 87 r /ds/remote/\$1/v;
#X obj 213 73 r /ds/remote/\$1/v/in;
#X obj 149 444 r /ds/remote/\$1/v/out;
#X obj 58 102 t b a b b;
#X obj 385 184 i 0;
#X obj 418 181 + 1;
#X obj 387 117 metro 250;
#X msg 387 158 0;
#X obj 387 138 t b b;
#X obj 373 248 * 4;
#X obj 373 227 i 0;
#X obj 372 273 s /ds/remote/\$1/v/rate;
#X text 378 60 show messages/second;
#X obj 52 383 mux 1;
#X obj 64 344 r _ds/remote/_DEFAULT_;
#X text 335 293 cannot set receive name so no use;
#X obj 232 295 loadbang;
#X obj 229 336 ../../acre/arg_default _DEFAULT_ \$1;
#X msg 229 378 1;
#X obj 229 357 route _DEFAULT_;
#X obj 115 514 print remote-out;
#X obj 167 149 print remote-in;
#X obj 119 485 list prepend;
#X obj 170 121 list prepend;
#X connect 0 0 33 0;
#X connect 1 0 3 0;
#X connect 1 0 14 0;
#X connect 5 0 17 0;
#X connect 6 0 1 1;
#X connect 7 0 8 0;
#X connect 7 1 9 1;
#X connect 8 0 9 0;
#X connect 8 1 10 1;
#X connect 9 0 10 0;
#X connect 13 0 43 0;
#X connect 14 0 42 0;
#X connect 16 0 17 1;
#X connect 17 0 23 0;
#X connect 17 0 13 0;
#X connect 18 0 1 1;
#X connect 19 0 1 1;
#X connect 20 0 26 0;
#X connect 21 0 13 1;
#X connect 22 0 14 1;
#X connect 23 0 18 0;
#X connect 23 1 7 0;
#X connect 23 2 6 0;
#X connect 23 3 24 0;
#X connect 24 0 25 0;
#X connect 24 0 30 1;
#X connect 25 0 24 1;
#X connect 26 0 28 0;
#X connect 27 0 24 0;
#X connect 28 0 27 0;
#X connect 28 1 30 0;
#X connect 29 0 31 0;
#X connect 30 0 29 0;
#X connect 33 0 1 0;
#X connect 34 0 33 1;
#X connect 36 0 37 0;
#X connect 37 0 39 0;
#X connect 37 0 42 1;
#X connect 37 0 43 1;
#X connect 38 0 33 2;
#X connect 39 0 38 0;
#X connect 42 0 40 0;
#X connect 43 0 41 0;
