#N canvas 353 428 450 300 10;
#X obj 101 101 cnv 15 98 48 empty \$0-canvas CON1 2 8 0 12 -204800
-66577 0;
#X obj 106 116 tgl 30 0 /ds/remote/\$1/on /ds/remote/\$1/on ON 5 15
0 18 -4034 -1 -1 0 1;
#X obj 182 102 tgl 15 0 /ds/remote/\$1/v /ds/remote/\$1/v V 4 8 0 12
-257985 -1 -1 0 1;
#X obj 168 117 tgl 15 0 /ds/remote/\$1/v/in /ds/remote/\$1/v/in in
1 8 0 10 -257985 -1 -1 0 1;
#X obj 182 117 tgl 15 0 /ds/remote/\$1/v/out /ds/remote/\$1/v/out out
0 8 0 10 -257985 -1 -1 0 1;
#X obj 144 134 nbx 5 14 -1e+37 1e+37 0 0 /ds/remote/\$1/v/rate /ds/remote/\$1/v/rate
m/s 0 -8 0 10 -204800 -1 -1 0 256;
#X obj 228 39 loadbang;
#X text 39 6 remote_osc_ctl [connection id];
#X obj 290 37 bng 15 250 50 0 empty empty empty 17 7 0 10 -262144 -1
-1;
#X obj 228 80 symbol;
#X obj 228 130 s \$0-canvas;
#X msg 228 108 label \$1;
#X obj 228 59 ../../acre/arg_default _DEFAULT_ \$1;
#X connect 6 0 12 0;
#X connect 8 0 12 0;
#X connect 9 0 11 0;
#X connect 11 0 10 0;
#X connect 12 0 9 0;
#X coords 0 -1 1 1 100 50 2 100 100;
