#N canvas 192 120 559 500 10;
#X obj 124 73 inlet~;
#X obj 26 65 inlet~;
#X text 119 56 original;
#X text 26 48 delayed;
#X obj 125 187 rfft~;
#X obj 25 188 rfft~;
#X obj 43 337 *~ 1;
#X obj 36 253 rifft~;
#N canvas 292 210 534 396 compl-div 0;
#X obj 25 103 inlet~;
#X obj 76 103 inlet~;
#X obj 162 112 inlet~;
#X obj 213 112 inlet~;
#X obj 109 350 outlet~;
#X obj 173 352 outlet~;
#X obj 25 198 *~;
#X obj 77 195 *~;
#X text 38 86 a;
#X text 80 87 b;
#X text 173 95 c;
#X text 219 94 d;
#X text 47 70 a + jb;
#X text 182 75 c + jd;
#X text 120 367 x;
#X obj 53 231 +~;
#X obj 149 204 *~;
#X obj 176 204 *~;
#X obj 149 227 -~;
#X obj 244 203 *~;
#X obj 280 203 *~;
#X obj 244 224 +~;
#X obj 231 264 /~;
#X obj 231 245 sig~ 1;
#X obj 173 329 *~;
#X obj 109 327 *~;
#X obj 279 151 sig~ 1.5e-20;
#X text 38 -1 complex division of signals:;
#X text 264 265 1/c²+d²;
#X text 70 252 ac+db;
#X text 163 250 bc-ad;
#X text 186 367 jy;
#X text 26 19 (a + jb)/(c + jd) = (ac + bd)/(c^2 + d^2) + j(bc - ad)/(c^2
+ d^2);
#X text 282 133 prevent division through zero;
#X connect 0 0 6 0;
#X connect 0 0 17 0;
#X connect 1 0 7 0;
#X connect 1 0 16 0;
#X connect 2 0 6 1;
#X connect 2 0 16 1;
#X connect 2 0 19 1;
#X connect 2 0 19 0;
#X connect 3 0 7 1;
#X connect 3 0 17 1;
#X connect 3 0 20 0;
#X connect 3 0 20 1;
#X connect 6 0 15 0;
#X connect 7 0 15 1;
#X connect 15 0 25 0;
#X connect 16 0 18 0;
#X connect 17 0 18 1;
#X connect 18 0 24 0;
#X connect 19 0 21 0;
#X connect 20 0 21 1;
#X connect 21 0 22 1;
#X connect 22 0 25 1;
#X connect 22 0 24 1;
#X connect 23 0 22 0;
#X connect 24 0 5 0;
#X connect 25 0 4 0;
#X connect 26 0 21 0;
#X restore 36 226 pd compl-div;
#X obj 40 370 abs~;
#X obj 345 63 block~ \$1 1;
#X obj 99 329 /;
#X msg 107 304 1 \$1;
#X obj 107 285 f \$1;
#X obj 107 266 loadbang;
#X obj 62 104 tabreceive~ \$0_hann;
#X obj 125 168 *~;
#X obj 25 147 *~;
#N canvas 603 142 450 300 myhanning 0;
#X obj 241 101 table \$0_hann;
#X msg 96 154 resize \$1;
#X obj 50 245 -~;
#X obj 50 227 sig~ 1;
#X msg 125 213 0;
#X text 52 21 CALCULATE HANNING;
#X text 53 37 WINDOW TABLE;
#X text 197 153 sample rate / window size;
#X msg 45 149 bang;
#X obj 94 196 samplerate~;
#X obj 94 213 /;
#X obj 50 264 *~ 0.5;
#X obj 94 230 osc~ 0;
#X obj 45 333 tabwrite~ \$0_hann;
#X obj 45 110 f \$1;
#X obj 45 128 t b f f;
#X obj 45 92 loadbang;
#X msg 120 89 bang;
#X obj 96 174 s \$0_hann;
#X text 58 64 argument 1: windowsize;
#X obj 196 258 f \$0;
#X floatatom 196 279 4 0 0 0 - - -, f 4;
#X msg 196 236 bang;
#X msg 196 320 \; \$1 write hann.dat;
#X obj 196 299 makefilename %d_hann;
#X connect 1 0 18 0;
#X connect 2 0 11 0;
#X connect 3 0 2 0;
#X connect 4 0 12 1;
#X connect 8 0 4 0;
#X connect 8 0 13 0;
#X connect 9 0 10 0;
#X connect 10 0 12 0;
#X connect 11 0 13 0;
#X connect 12 0 2 1;
#X connect 14 0 15 0;
#X connect 15 0 9 0;
#X connect 15 0 8 0;
#X connect 15 1 10 1;
#X connect 15 2 1 0;
#X connect 16 0 14 0;
#X connect 17 0 14 0;
#X connect 20 0 21 0;
#X connect 21 0 24 0;
#X connect 22 0 20 0;
#X connect 24 0 23 0;
#X restore 208 69 pd myhanning;
#X text 22 8 Complex division in frequency domain is correlation in
time domain;
#X text 369 45 eg.: 16384;
#N canvas 484 94 639 581 snapshot 1;
#X obj 44 67 bng 15 250 50 0 /corr/trigger /corr/trigger /corr/trigger
17 7 0 10 -257985 -1 -1;
#X obj 42 92 tgl 15 0 /corr/v /corr/v /corr/v 17 7 0 10 -257985 -1
-1 1 1;
#X obj 24 133 inlet~;
#X obj 349 224 pack 0 \$0;
#X floatatom 21 276 5 0 0 0 - - -, f 5;
#X obj 21 304 pack 0 \$0 \$1;
#X obj 23 255 dbtorms;
#X obj 53 36 nbx 3 14 -1e+37 1e+37 0 0 /corr/y /corr/y corr_y 0 -8
0 10 -257985 -1 -1 80 256;
#X obj 347 57 loadbang;
#X obj 346 100 pack \$0 \$1;
#X obj 446 96 bng 15 250 50 0 empty empty empty 17 7 0 10 -262144 -1
-1;
#X obj 23 164 tabwrite~ \$0-corr;
#X obj 208 54 table \$0-corr;
#X obj 25 231 r /corr/y;
#X obj 75 133 r /corr/trigger;
#X msg 19 335 \; \$2-corr bounds 0 \$1 \$3 0;
#X obj 350 201 r /corr/v;
#X msg 208 495 \; 1005-corr ylabel 0 0 0.1 0.025 0.05 0.075 \;;
#X obj 210 401 t b l;
#X obj 208 370 pack 0 \$0 \$1 0.25 0.5 0.75;
#X obj 216 308 t f f f f;
#X obj 262 334 * 0.25;
#X obj 324 332 * 0.5;
#X obj 369 334 * 0.75;
#X msg 244 432 set \, add \, add \$2-corr ylabel 0 0 \$1 \$4 \$5 \$6
;
#X obj 222 128 inlet~;
#X obj 205 84 table \$0-sample;
#X obj 198 207 tabwrite~ \$0-sample;
#X msg 348 127 \; \$1-corr resize \$2 \; \$1-sample resize \$2 \; /corr/y
90;
#X msg 348 253 \; pd-\$2-corr vis \$1 \; pd-\$2-sample vis \$1;
#X obj 213 158 *~;
#X connect 2 0 11 0;
#X connect 3 0 29 0;
#X connect 4 0 5 0;
#X connect 4 0 20 0;
#X connect 5 0 15 0;
#X connect 6 0 4 0;
#X connect 8 0 9 0;
#X connect 9 0 28 0;
#X connect 10 0 9 0;
#X connect 13 0 6 0;
#X connect 14 0 11 0;
#X connect 14 0 27 0;
#X connect 16 0 3 0;
#X connect 18 0 17 0;
#X connect 18 1 24 0;
#X connect 19 0 18 0;
#X connect 20 0 19 0;
#X connect 20 1 21 0;
#X connect 20 2 22 0;
#X connect 20 3 23 0;
#X connect 21 0 19 3;
#X connect 22 0 19 4;
#X connect 23 0 19 5;
#X connect 24 0 17 0;
#X connect 25 0 30 0;
#X connect 25 0 30 1;
#X connect 30 0 27 0;
#X restore 42 400 pd snapshot;
#N canvas 556 52 455 544 mess 0;
#X obj 39 108 array max \$0-corr;
#X floatatom 39 151 5 0 0 0 - - -, f 5;
#X floatatom 156 150 5 0 0 0 - - -, f 5;
#X obj 31 44 bng 15 250 50 0 empty empty empty 17 7 0 10 -262144 -1
-1;
#X obj 237 117 samplerate~;
#X floatatom 236 137 9 0 0 0 - - -, f 9;
#X obj 247 70 bng 15 250 50 0 empty empty empty 17 7 0 10 -262144 -1
-1;
#X msg 237 158 1 \$1;
#X obj 237 180 /;
#X floatatom 235 209 9 0 0 0 - - -, f 9;
#X obj 233 243 * 441;
#X floatatom 233 265 5 0 0 0 - - -, f 5;
#X obj 233 284 * 1000;
#X floatatom 233 306 5 0 0 0 - - -, f 5;
#X obj 234 378 * 0.34;
#X floatatom 234 400 5 0 0 0 - - -, f 5;
#X obj 301 345 f 28.54;
#X obj 235 350 - 28.54;
#X obj 302 308 bng 15 250 50 0 empty empty empty 17 7 0 10 -262144
-1 -1;
#X text 324 307 set 0 distanz;
#X text 279 403 m distanz;
#X obj 155 171 t b f f;
#X obj 83 259 t f b;
#X floatatom 40 438 5 0 0 0 - - -, f 5;
#X text 33 453 Summation of amplitude;
#X obj 59 38 r /corr/measurement;
#X obj 85 230 - 1, f 5;
#X obj 74 345 / 3;
#X obj 20 342 * 0.5;
#X obj 31 368 + 0;
#X text 57 419 value: 3 samples gewichtet;
#X obj 77 486 s /corr/amp;
#X obj 339 376 s /corr/delay;
#X obj 249 38 loadbang;
#X obj 77 316 array sum \$0-sample;
#X msg 113 285 3;
#X connect 0 0 1 0;
#X connect 0 1 2 0;
#X connect 1 0 28 0;
#X connect 2 0 21 0;
#X connect 3 0 0 0;
#X connect 4 0 5 0;
#X connect 5 0 7 0;
#X connect 6 0 4 0;
#X connect 7 0 8 0;
#X connect 8 0 9 0;
#X connect 9 0 10 0;
#X connect 10 0 11 0;
#X connect 11 0 12 0;
#X connect 12 0 13 0;
#X connect 13 0 17 0;
#X connect 13 0 16 1;
#X connect 13 0 32 0;
#X connect 14 0 15 0;
#X connect 16 0 17 1;
#X connect 17 0 14 0;
#X connect 18 0 16 0;
#X connect 21 0 10 0;
#X connect 21 1 10 1;
#X connect 21 2 26 0;
#X connect 22 0 34 0;
#X connect 22 1 35 0;
#X connect 23 0 31 0;
#X connect 25 0 0 0;
#X connect 26 0 22 0;
#X connect 27 0 29 1;
#X connect 28 0 29 0;
#X connect 29 0 23 0;
#X connect 33 0 6 0;
#X connect 34 0 27 0;
#X connect 35 0 34 1;
#X restore 237 310 pd mess;
#X obj 251 208 env~ \$1;
#X obj 245 236 s /corr/amplitude;
#X connect 0 0 16 0;
#X connect 1 0 17 0;
#X connect 1 0 23 0;
#X connect 4 0 8 2;
#X connect 4 1 8 3;
#X connect 5 0 8 0;
#X connect 5 1 8 1;
#X connect 6 0 9 0;
#X connect 7 0 6 0;
#X connect 8 0 7 0;
#X connect 8 1 7 1;
#X connect 9 0 21 0;
#X connect 11 0 6 1;
#X connect 12 0 11 0;
#X connect 13 0 12 0;
#X connect 14 0 13 0;
#X connect 15 0 17 1;
#X connect 15 0 16 1;
#X connect 16 0 4 0;
#X connect 17 0 5 0;
#X connect 23 0 24 0;
