#N canvas 742 342 560 392 10;
#N canvas 672 82 569 444 read 0;
#X obj 15 21 inlet;
#X obj 59 201 msgfile;
#X msg 171 128 next;
#X obj 61 254 outlet;
#X obj 127 305 print testsamplefile:;
#X msg 39 117 goto \$1 \, this;
#X obj 76 139 t b;
#X msg 231 128 prev;
#X msg 116 257 no more testsample;
#X obj 113 231 route bang;
#X obj 69 26 r /ts/\$1/nr;
#X obj 9 56 t b a;
#X msg 10 91 where;
#X obj 227 227 s /ts/\$1/setnr;
#X msg 347 121 print;
#X msg 301 117 this;
#X msg 340 160 bang;
#X obj 179 14 loadbang;
#X obj 171 40 t b b;
#X msg 107 58 0;
#X obj 61 87 route float load next prev reload this print step filename
;
#X msg 422 142 set read \$1 cr;
#X msg 400 167 read \$1 cr;
#X msg 77 164 read samples.txt cr;
#X connect 0 0 11 0;
#X connect 1 0 3 0;
#X connect 1 0 4 0;
#X connect 1 1 9 0;
#X connect 2 0 1 0;
#X connect 5 0 1 0;
#X connect 6 0 23 0;
#X connect 7 0 1 0;
#X connect 8 0 4 0;
#X connect 9 0 8 0;
#X connect 9 1 4 0;
#X connect 9 1 13 0;
#X connect 10 0 5 0;
#X connect 11 0 12 0;
#X connect 11 1 20 0;
#X connect 12 0 1 0;
#X connect 14 0 1 0;
#X connect 15 0 1 0;
#X connect 16 0 1 0;
#X connect 17 0 18 0;
#X connect 18 0 19 0;
#X connect 18 1 6 0;
#X connect 19 0 5 0;
#X connect 20 1 6 0;
#X connect 20 2 2 0;
#X connect 20 3 7 0;
#X connect 20 4 6 0;
#X connect 20 5 15 0;
#X connect 20 6 14 0;
#X connect 20 7 16 0;
#X connect 20 8 22 0;
#X connect 20 8 21 0;
#X connect 21 0 23 0;
#X connect 22 0 1 0;
#X connect 23 0 1 0;
#X restore 120 136 pd read testsampleslist;
#X obj 118 372 outlet~;
#X obj 208 213 spigot;
#X obj 53 100 route bang;
#X obj 119 339 *~;
#X obj 152 290 dbtorms;
#X obj 152 338 line~;
#X obj 152 315 pack 0 50;
#X obj 396 296 switch~;
#X msg 120 161 read symbol \$1;
#X text 128 102 float load reload next prev print this step;
#N canvas 3 52 604 367 sampleplay 0;
#X obj 66 53 inlet;
#X obj 236 55 table \$0-sample;
#X obj 64 302 outlet~;
#X obj 219 211 soundfiler;
#X msg 219 188 read -resize \$1 \$2-sample;
#X obj 219 160 pack s \$0;
#X obj 66 241 tabplay~ \$0-sample;
#X obj 124 303 outlet;
#X obj 314 211 select 0;
#X msg 313 252 const 0;
#X obj 313 276 s \$0-sample;
#X text 65 32 play with bang or read a new sample with read in table
;
#X obj 184 301 outlet;
#X text 181 322 sampleend;
#X obj 219 235 t f f;
#X obj 67 80 route bang read;
#X text 159 99 maybe stop;
#X text 123 323 filesize;
#X text 363 232 clear sample;
#X text 67 324 signal;
#X text 218 143 symbol filename or bang for reread;
#X obj 315 230 t b b;
#X msg 379 249 resize 1;
#X connect 0 0 15 0;
#X connect 3 0 14 0;
#X connect 4 0 3 0;
#X connect 5 0 4 0;
#X connect 6 0 2 0;
#X connect 6 1 12 0;
#X connect 8 0 21 0;
#X connect 9 0 10 0;
#X connect 14 0 7 0;
#X connect 14 1 8 0;
#X connect 15 0 6 0;
#X connect 15 1 5 0;
#X connect 15 2 6 0;
#X connect 21 0 9 0;
#X connect 21 1 22 0;
#X connect 22 0 10 0;
#X restore 120 188 pd sampleplay;
#X obj 208 235 del 0;
#X text 199 365 (c) GPL \, acre winfried ritsch;
#X text 48 4 mxr/test/ts <id>;
#X text 49 21 play a list of testsamples \, with simple control interfaces
;
#X text 47 38 There should be a filname "samples.txt" in the directory
;
#X text 48 53 it should contain sample files as wav in the search path
;
#X text 220 334 NOTE: supercedes the ts in /acre/acre;
#X obj 396 246 del 50;
#X obj 396 224 sel 0 1;
#X msg 431 268 1;
#X msg 396 268 0 50;
#X obj 247 192 r \$1/loop;
#X obj 396 202 r \$1/on;
#X obj 152 269 r \$1/vol;
#X obj 50 312 s \$1/vu;
#X obj 53 74 r \$1/ctl;
#X obj 50 278 prvu~;
#X connect 0 0 9 0;
#X connect 2 0 12 0;
#X connect 3 0 11 0;
#X connect 3 1 0 0;
#X connect 4 0 1 0;
#X connect 5 0 7 0;
#X connect 6 0 4 1;
#X connect 7 0 6 0;
#X connect 9 0 11 0;
#X connect 11 0 4 0;
#X connect 11 0 28 0;
#X connect 11 2 2 0;
#X connect 12 0 11 0;
#X connect 19 0 22 0;
#X connect 20 0 19 0;
#X connect 20 1 21 0;
#X connect 20 1 7 0;
#X connect 21 0 8 0;
#X connect 22 0 8 0;
#X connect 22 0 6 0;
#X connect 23 0 2 1;
#X connect 24 0 20 0;
#X connect 25 0 5 0;
#X connect 27 0 3 0;
#X connect 28 0 26 0;
