#N canvas 68 147 322 324 10;
#X obj 11 11 cnv 30 98 198 empty empty ts_\$1 0 8 0 12 -191407 -66577
0;
#X obj 17 192 nbx 3 14 -1e+37 1e+37 0 0 \$1/vol \$1/vol empty 0 -8
0 10 -260097 -1 -1 90 256;
#X obj 39 60 vu 10 120 \$1/vu empty -1 -8 0 10 -66577 -1 1 0;
#X obj 17 59 vsl 15 128 0 127 0 0 \$1/vol \$1/vol Vol 0 -9 0 10 -260097
-1 -1 9000 1;
#X obj 44 28 bng 15 250 50 0 empty empty load 17 7 0 10 -13381 -1 -1
;
#X obj 83 177 bng 15 250 50 0 empty empty next 0 -7 0 10 -262144 -1
-1;
#X obj 83 63 bng 15 250 50 0 empty empty play 0 -7 0 10 -262144 -1
-1;
#X obj 83 120 bng 15 250 50 0 empty empty prev 0 -7 0 10 -262144 -1
-1;
#X obj 83 35 tgl 15 0 \$1/loop \$1/loop loop 0 -7 0 10 -262144 -1 -1
1 1;
#X msg 161 189 next;
#X msg 138 141 prev;
#X msg 81 228 reload;
#X msg 118 102 bang;
#X obj 71 194 nbx 3 14 -1e+37 1e+37 0 0 \$1/nr \$1/nr nr -12 8 0 10
-262144 -1 -1 0 256;
#X obj 84 150 bng 15 250 50 0 empty empty this 0 -7 0 10 -262144 -1
-1;
#X msg 149 163 this;
#X obj 83 94 bng 15 250 50 0 empty empty step 0 -7 0 10 -262144 -1
-1;
#X msg 138 115 step;
#X text 18 285 (c) GPL \, acre winfried ritsch;
#X text 128 13 mxr/test/ts_ctl <id>;
#X obj 13 26 tgl 20 0 \$1/on \$1/on ON 3 12 0 12 -260097 -1 -1 1 1
;
#X obj 23 255 r \$1/setnr;
#X obj 142 256 s \$1/ctl;
#X connect 4 0 11 0;
#X connect 5 0 9 0;
#X connect 6 0 12 0;
#X connect 7 0 10 0;
#X connect 9 0 22 0;
#X connect 10 0 22 0;
#X connect 11 0 22 0;
#X connect 12 0 22 0;
#X connect 14 0 15 0;
#X connect 15 0 22 0;
#X connect 16 0 17 0;
#X connect 17 0 22 0;
#X connect 21 0 13 0;
#X coords 0 -1 1 1 100 200 2 10 10;
