#N canvas 748 355 535 292 10;
#X obj 35 112 sel 0;
#X obj 35 227 outlet;
#X obj 35 40 inlet;
#X text 103 232 (c) GPL algorythmics \, acre \, winfried ritsch;
#X text 27 7 acre/arg_default <default> <arg>;
#X text 28 20 if arg is empty or zero use default;
#X obj 35 135 list append \$1;
#X obj 35 160 list trim;
#X obj 35 62 t b;
#X obj 35 91 list append \$2;
#X obj 242 98 symbol test-\$2;
#X obj 242 119 sel test-0;
#X msg 242 140 0;
#X text 237 56 Note: Trick to get 0 as arg below does not work as abstraction
, f 29;
#X connect 0 0 6 0;
#X connect 0 1 1 0;
#X connect 2 0 8 0;
#X connect 6 0 7 0;
#X connect 7 0 1 0;
#X connect 8 0 9 0;
#X connect 9 0 0 0;
#X connect 10 0 11 0;
#X connect 11 0 12 0;
