#N canvas 1019 434 450 300 10;
#X obj 85 105 bng 15 250 50 0 empty empty empty 17 7 0 10 -262144 -1
-1;
#X obj 105 125 sel 0;
#X text 67 48 if arg is empty use default;
#X obj 105 149 any \$1;
#X obj 105 175 outlet;
#X obj 107 76 inlet;
#X text 78 206 (c) GPL algorythmics \, acre \, winfried ritsch;
#X obj 105 103 list append \$2;
#X text 67 27 acre/arg_default <default> <arg>;
#X connect 0 0 7 0;
#X connect 1 0 3 0;
#X connect 1 1 4 0;
#X connect 3 0 4 0;
#X connect 5 0 7 0;
#X connect 7 0 1 0;
