#N canvas 698 319 417 244 10;
#X obj 35 107 sel 0;
#X obj 34 179 outlet;
#X obj 35 40 inlet;
#X text 103 212 (c) GPL algorythmics \, acre \, winfried ritsch;
#X obj 35 83 list append \$2;
#X text 27 7 acre/arg_default <default> <arg>;
#X text 28 20 if arg is empty or zero use default;
#X obj 35 130 list append \$1;
#X obj 35 155 list trim;
#X obj 35 62 t b;
#X connect 0 0 7 0;
#X connect 0 1 1 0;
#X connect 2 0 9 0;
#X connect 4 0 0 0;
#X connect 7 0 8 0;
#X connect 8 0 1 0;
#X connect 9 0 4 0;
