#N canvas 809 592 403 257 10;
#X obj 101 126 bang~;
#X obj 101 148 t b b;
#X obj 38 206 switch~;
#X obj 40 150 t b b;
#X msg 38 178 1;
#X msg 69 178 0;
#X obj 102 178 timer;
#X obj 21 58 inlet;
#X obj 102 204 outlet;
#X text 40 233 (c) GPL \, acre winfried ritsch;
#X text 10 13 acre/blockms;
#X text 8 37 hack to get block-delay;
#X obj 140 55 r pd;
#X obj 140 99 sel 1;
#X obj 140 77 route dsp audio-dialog;
#X obj 211 100 t b;
#X obj 70 57 initbang;
#X connect 0 0 1 0;
#X connect 1 0 5 0;
#X connect 1 1 6 1;
#X connect 3 0 4 0;
#X connect 3 1 6 0;
#X connect 4 0 2 0;
#X connect 5 0 2 0;
#X connect 6 0 8 0;
#X connect 7 0 3 0;
#X connect 12 0 14 0;
#X connect 13 0 3 0;
#X connect 14 0 13 0;
#X connect 14 1 15 0;
#X connect 15 0 3 0;
#X connect 16 0 3 0;
