#N canvas 521 239 403 358 10;
#X obj 74 186 bang~;
#X obj 74 208 t b b;
#X obj 43 299 switch~;
#X msg 43 271 1;
#X msg 74 271 0;
#X obj 107 250 timer;
#X obj 21 58 inlet;
#X obj 107 297 outlet;
#X text 29 324 (c) GPL \, acre winfried ritsch;
#X text 10 13 acre/blockms;
#X text 8 37 hack to get block-delay;
#X obj 140 55 r pd;
#X obj 140 99 sel 1;
#X obj 211 100 t b;
#X obj 70 57 initbang;
#X obj 107 272 spigot;
#X obj 40 150 t b b b;
#X msg 173 214 1;
#X msg 140 214 0;
#X obj 140 77 route dsp audio-dialog ping;
#X text 132 146 NOTE: Does not work with parent switch~;
#X text 170 162 comment;
#X connect 0 0 1 0;
#X connect 1 0 4 0;
#X connect 1 0 18 0;
#X connect 1 1 5 1;
#X connect 3 0 2 0;
#X connect 4 0 2 0;
#X connect 5 0 15 0;
#X connect 6 0 16 0;
#X connect 11 0 19 0;
#X connect 12 0 16 0;
#X connect 13 0 16 0;
#X connect 14 0 16 0;
#X connect 15 0 7 0;
#X connect 16 0 3 0;
#X connect 16 1 5 0;
#X connect 16 2 17 0;
#X connect 17 0 15 1;
#X connect 18 0 15 1;
#X connect 19 0 12 0;
#X connect 19 1 13 0;
#X connect 19 2 13 0;
