#N canvas 772 437 590 300 10;
#X obj 32 217 + 1;
#X obj 33 195 i 0;
#X obj 30 144 max 1;
#X obj 30 116 t f b;
#X msg 79 147 0;
#X obj 30 61 inlet;
#X obj 32 239 outlet;
#X obj 32 173 until;
#X obj 32 89 i \$1;
#X text 30 27 acre/count_until [default count];
#X obj 114 60 inlet;
#X text 31 43 count;
#X text 110 45 set count;
#X connect 0 0 1 1;
#X connect 0 0 6 0;
#X connect 1 0 0 0;
#X connect 2 0 7 0;
#X connect 3 0 2 0;
#X connect 3 1 4 0;
#X connect 4 0 1 1;
#X connect 5 0 8 0;
#X connect 7 0 1 0;
#X connect 8 0 3 0;
#X connect 10 0 8 1;
