#N canvas 1067 611 450 300 10;
#X obj 32 173 until 2;
#X obj 32 217 + 1;
#X obj 33 195 i 0;
#X obj 30 144 max 1;
#X obj 31 99 t f b;
#X msg 79 147 0;
#X obj 30 61 inlet;
#X obj 32 239 outlet;
#X text 30 27 acre/count_until;
#X connect 0 0 2 0;
#X connect 1 0 2 1;
#X connect 1 0 7 0;
#X connect 2 0 1 0;
#X connect 3 0 0 0;
#X connect 4 0 3 0;
#X connect 4 1 5 0;
#X connect 5 0 2 1;
#X connect 6 0 4 0;
