#N canvas 1193 651 755 326 10;
#X declare -path ../;
#X declare -lib iemlib1;
#X declare -lib iemlib2;
#X declare -lib zexy;
#X declare -stdpath iemlib;
#N canvas 673 90 604 551 GUI 1;
#X obj 115 118 vu 15 120 A/vu A -1 -8 0 10 -66577 -1 1 0;
#X obj 32 95 acre/fader_ctl A;
#X restore 90 23 pd GUI;
#X obj 21 73 declare -path ../;
#X obj 21 96 declare -lib iemlib1;
#X obj 21 115 declare -lib iemlib2;
#X obj 21 149 declare -lib zexy;
#X obj 21 132 declare -stdpath iemlib;
#X text 22 53 inlcudes and libs needed;
#N canvas 617 555 592 388 init 1;
#X obj 45 32 loadbang;
#X msg 45 54 \; /out/dsp 1 \; /out/fadetime 30 \;;
#X msg 27 125 \; /test/program/load symbol test.txt \; /test/program/nr
0 \; /test/program/recall bang;
#X connect 0 0 1 0;
#X connect 0 0 2 0;
#X restore 23 22 pd init;
#X text 287 37 fader to behave more like on a mixer;
#X obj 311 95 noise~;
#X obj 310 141 prvu~;
#X obj 310 119 acre/fader~ A 50;
#X obj 310 164 s A/vu;
#X obj 385 144 env~;
#X floatatom 385 166 5 0 0 0 - - -, f 5;
#X connect 9 0 11 0;
#X connect 10 0 12 0;
#X connect 11 0 10 0;
#X connect 11 0 13 0;
#X connect 13 0 14 0;
