#N canvas 420 389 688 303 10;
#X declare -path ../;
#X declare -lib iemlib1;
#X declare -lib iemlib2;
#X declare -lib zexy;
#X declare -stdpath iemlib;
#X obj 373 33 declare -path ../;
#X obj 16 99 declare -lib iemlib1;
#X obj 16 150 declare -lib iemlib2;
#X obj 16 174 declare -lib zexy;
#X obj 18 125 declare -stdpath iemlib;
#X text 12 76 inlcudes and libs needed;
#N canvas 545 167 733 559 conversions 1;
#X floatatom 28 160 5 0 0 0 - - -;
#X floatatom 28 207 5 0 0 0 - - -;
#X floatatom 28 251 5 0 0 0 - - -;
#X obj 29 79 loadbang;
#X text 70 208 factor;
#X floatatom 184 122 5 0 0 0 - - -;
#X floatatom 184 169 5 0 0 0 - - -;
#X floatatom 184 213 5 0 0 0 - - -;
#X obj 185 81 loadbang;
#X text 173 30 time and samples;
#X obj 28 185 acre/m2fakt;
#X obj 28 229 acre/fakt2m;
#X obj 184 191 acre/ms2samples;
#X obj 184 147 acre/samples2ms;
#X msg 185 103 441;
#X text 223 102 samples;
#X text 227 168 ms;
#X text 11 30 interval and factors;
#X text 328 32 time and Frequency;
#X floatatom 320 122 5 0 0 0 - - -;
#X floatatom 320 165 5 0 0 0 - - -;
#X floatatom 320 209 5 0 0 0 - - -;
#X obj 321 77 loadbang;
#X text 363 164 ms;
#X obj 320 143 acre/Hz2ms;
#X obj 320 187 acre/ms2Hz;
#X msg 321 99 100;
#X text 362 123 Hz;
#X msg 353 99 0;
#X msg 387 98 30000;
#X text 329 46 within samplerate/2;
#X obj 496 94 acre/samplerate;
#X floatatom 496 116 9 0 0 0 - - -;
#X text 490 37 track samplerate changes;
#X obj 494 70 bng 15 250 50 0 empty empty empty 17 7 0 10 -262144 -1
-1;
#X obj 28 270 * 100;
#X floatatom 28 292 7 0 0 0 - - -;
#X text 65 250 midinote offset;
#X text 83 293 Cent;
#X obj 29 134 / 100;
#X msg 29 109 1200;
#X text 68 109 oktave in Cent;
#X text 67 160 midinote offset;
#X text 225 213 samples;
#X text 364 210 Hz;
#X obj 486 222 acre/blockms;
#X floatatom 486 244 9 0 0 0 - - -;
#X obj 487 191 bng 15 250 50 0 empty empty empty 17 7 0 10 -262144
-1 -1;
#X text 485 168 measure blocksize in ms;
#X text 511 190 needs dsp to be switched on;
#X msg 593 228 \; pd dsp 1;
#X msg 595 264 \; pd dsp 0;
#X obj 664 258 tgl 15 0 empty empty empty 17 7 0 10 -262144 -1 -1 1
1;
#X obj 664 278 switch~;
#X obj 664 213 loadbang;
#X msg 664 235 1;
#X obj 34 336 loadbang;
#X obj 191 342 bng 15 250 50 0 empty empty empty 17 7 0 10 -262144
-1 -1;
#X symbolatom 33 486 16 0 0 0 - - -;
#X obj 35 361 ip2list 192.168.1.11;
#X obj 35 384 unpack 0 0 0 0;
#X floatatom 34 411 5 0 0 0 - - -;
#X floatatom 70 411 5 0 0 0 - - -;
#X floatatom 105 410 5 0 0 0 - - -;
#X floatatom 141 410 5 0 0 0 - - -;
#X obj 34 460 list2ip;
#X text 123 319 IP processing;
#X text 336 405 TODO: integer2ip \, ip2integer for OSC but Pd only
has 24Bit integer \, any hint ... hmmm, f 24;
#X symbolatom 222 398 16 0 0 0 - - -;
#X obj 222 330 loadbang;
#X obj 222 460 unpack 0 0 0 0;
#X floatatom 221 487 5 0 0 0 - - -;
#X floatatom 257 487 5 0 0 0 - - -;
#X floatatom 292 486 5 0 0 0 - - -;
#X floatatom 328 486 5 0 0 0 - - -;
#X msg 284 344 192 168 3 33;
#X obj 222 428 ip2list;
#X obj 221 372 list2ip 192 168 2 22;
#X connect 0 0 10 0;
#X connect 1 0 11 0;
#X connect 2 0 35 0;
#X connect 3 0 40 0;
#X connect 5 0 13 0;
#X connect 6 0 12 0;
#X connect 8 0 14 0;
#X connect 10 0 1 0;
#X connect 11 0 2 0;
#X connect 12 0 7 0;
#X connect 13 0 6 0;
#X connect 14 0 5 0;
#X connect 19 0 24 0;
#X connect 20 0 25 0;
#X connect 22 0 26 0;
#X connect 24 0 20 0;
#X connect 25 0 21 0;
#X connect 26 0 19 0;
#X connect 28 0 19 0;
#X connect 29 0 19 0;
#X connect 31 0 32 0;
#X connect 34 0 31 0;
#X connect 35 0 36 0;
#X connect 39 0 0 0;
#X connect 40 0 39 0;
#X connect 45 0 46 0;
#X connect 47 0 45 0;
#X connect 52 0 53 0;
#X connect 54 0 55 0;
#X connect 55 0 52 0;
#X connect 56 0 59 0;
#X connect 57 0 59 0;
#X connect 57 0 77 0;
#X connect 59 0 60 0;
#X connect 60 0 61 0;
#X connect 60 1 62 0;
#X connect 60 2 63 0;
#X connect 60 3 64 0;
#X connect 61 0 65 0;
#X connect 62 0 65 1;
#X connect 63 0 65 2;
#X connect 64 0 65 3;
#X connect 65 0 58 0;
#X connect 68 0 76 0;
#X connect 69 0 77 0;
#X connect 70 0 71 0;
#X connect 70 1 72 0;
#X connect 70 2 73 0;
#X connect 70 3 74 0;
#X connect 75 0 77 0;
#X connect 76 0 70 0;
#X connect 77 0 68 0;
#X restore 260 134 pd conversions;
#N canvas 554 419 594 486 filenames 0;
#X obj 49 34 loadbang;
#X obj 45 360 acre/filename_split;
#X msg 45 382 set \$1;
#X msg 45 404 ;
#X msg 176 383 set \$1;
#X msg 176 405 ;
#X msg 78 100 symbol /home/pd/sound/a.wav;
#X msg 48 55 symbol;
#X msg 61 77 symbol b.wav;
#X text 59 184 -> shorten to 8 characters;
#X text 52 314 split filename and path;
#X text 46 14 filname manipulation for better display in guis;
#X obj 292 285 acre/filename_clean;
#X msg 292 309 set \$1;
#X msg 292 331 ;
#X obj 292 263 r \$0-name;
#X obj 45 337 r \$0-name;
#X obj 50 225 acre/filename_shorten 8;
#X msg 50 251 set \$1;
#X msg 50 273 ;
#X obj 52 204 r \$0-name;
#X obj 48 147 s \$0-name;
#X text 293 230 remove unwanted chars;
#X msg 94 122 symbol /home/pd/lets_go:in:there;
#X connect 0 0 7 0;
#X connect 1 0 2 0;
#X connect 1 1 4 0;
#X connect 2 0 3 0;
#X connect 4 0 5 0;
#X connect 6 0 21 0;
#X connect 7 0 21 0;
#X connect 8 0 21 0;
#X connect 12 0 13 0;
#X connect 13 0 14 0;
#X connect 15 0 12 0;
#X connect 16 0 1 0;
#X connect 17 0 18 0;
#X connect 18 0 19 0;
#X connect 20 0 17 0;
#X connect 23 0 21 0;
#X restore 261 106 pd filenames;
#N canvas 453 289 548 323 inits 0;
#X obj 40 40 acre/initbang;
#X obj 40 70 bng 15 250 50 0 empty empty empty 17 7 0 10 -262144 -1
-1;
#X obj 55 98 print ACRE:acre/initbang;
#X obj 277 65 acre/init_ctl;
#X msg 145 37 \; /acre/init bang;
#X text 276 46 acre/init_ctl;
#X obj 38 154 acre/arg_default 100 \$1;
#X floatatom 38 176 5 0 0 0 - - -;
#X obj 211 152 acre/arg_default Hallo \$1;
#X obj 211 174 print arg_default:;
#X text 39 6 Init acre library by hand or loadbang;
#X obj 42 237 # acre/instance_once_test a \$0;
#X text 39 129 If argument is empty use default value for optional
args;
#X text 39 270 (c) \, GPL - acre \, winfried ritsch;
#X connect 0 0 1 0;
#X connect 1 0 2 0;
#X connect 1 0 6 0;
#X connect 1 0 8 0;
#X connect 6 0 7 0;
#X connect 8 0 9 0;
#X restore 261 80 pd inits;
#N canvas 725 457 379 271 debug 0;
#X obj 49 92 osc~ 220;
#X msg 52 23 \; pd dsp 1;
#X obj 178 142 spectroscope;
#X obj 152 100 noise~;
#X text 45 63 --- simple signal view helper ---;
#X floatatom 49 75 5 0 0 0 - - -;
#X obj 48 145 acre/scope;
#X obj 101 144 acre/scope_threshold;
#X connect 0 0 2 0;
#X connect 0 0 6 0;
#X connect 0 0 7 0;
#X connect 3 0 2 0;
#X connect 5 0 0 0;
#X restore 261 189 pd debug;
#X text 17 11 ACRE acre - Examples and test of objects of the base
module;
#X text 331 81 general init functions for reinit;
#X text 367 107 split \, shorten \, ...;
#X text 370 131 commonly used conversions;
#X text 333 188 simple osciloscope and spectroscope;
#N canvas 866 337 450 300 misc 0;
#X obj 27 127 count_until 3;
#X obj 27 149 print count_until;
#X obj 28 96 bng 15 250 50 0 empty empty empty 17 7 0 10 -262144 -1
-1;
#X msg 54 96 2;
#X msg 144 95 4;
#X floatatom 93 98 5 0 0 0 - - -;
#X text 28 63 nomen est omen;
#X text 26 44 count_until;
#X connect 0 0 1 0;
#X connect 2 0 0 0;
#X connect 3 0 0 0;
#X connect 4 0 0 1;
#X connect 5 0 0 0;
#X restore 259 161 pd misc;
#X text 327 163 count_until \, ...;
#X text 16 34 to get example work also in the parent directory:;
#X text 11 202 get sure these library are loaded;
#X text 11 218 see console;
#X text 16 253 (c) GPL \, acre \, winfried ritsch \, 2010+;
#X text 264 227 Note: acre/ts ... testsamples is now in mxr lib;
