#N canvas 1144 332 688 303 10;
#X declare -path ../;
#X declare -lib iemlib1;
#X declare -lib iemlib2;
#X declare -lib zexy;
#X declare -stdpath iemlib;
#X obj 21 73 declare -path ../;
#X obj 21 96 declare -lib iemlib1;
#X obj 21 115 declare -lib iemlib2;
#X obj 21 149 declare -lib zexy;
#X obj 21 132 declare -stdpath iemlib;
#X text 22 53 inlcudes and libs needed;
#X text 181 19 ACRE acre - Example and test of functions in this module
;
#X text 273 107 common conversions to behave more like on a mixer;
#N canvas 220 387 468 270 conversions 0;
#X floatatom 28 120 5 0 0 0 - - -, f 5;
#X floatatom 28 167 5 0 0 0 - - -, f 5;
#X floatatom 28 211 5 0 0 0 - - -, f 5;
#X obj 29 79 loadbang;
#X msg 29 101 12;
#X text 67 100 oktave;
#X text 70 171 factor;
#X text 27 60 note interval;
#X floatatom 175 123 5 0 0 0 - - -, f 5;
#X floatatom 175 170 5 0 0 0 - - -, f 5;
#X floatatom 175 214 5 0 0 0 - - -, f 5;
#X obj 176 82 loadbang;
#X text 174 63 time and samples;
#X obj 28 145 acre/m2fakt;
#X obj 28 189 acre/fakt2m;
#X obj 175 192 acre/ms2samples;
#X obj 175 148 acre/samples2ms;
#X msg 176 104 441;
#X text 214 103 samples;
#X text 218 169 ms;
#X connect 0 0 13 0;
#X connect 1 0 14 0;
#X connect 3 0 4 0;
#X connect 4 0 0 0;
#X connect 8 0 16 0;
#X connect 9 0 15 0;
#X connect 11 0 17 0;
#X connect 13 0 1 0;
#X connect 14 0 2 0;
#X connect 15 0 10 0;
#X connect 16 0 9 0;
#X connect 17 0 8 0;
#X restore 267 136 pd conversions;
#N canvas 361 546 450 300 filenames 0;
#X obj 75 124 acre/filename_shorten 8;
#X msg 76 150 set \$1;
#X msg 76 172 ...a.wav;
#X obj 49 34 loadbang;
#X obj 57 201 acre/filename_split;
#X msg 57 223 set \$1;
#X msg 57 245 home/pd/sound;
#X msg 188 224 set \$1;
#X msg 188 246 a.wav;
#X msg 78 100 symbol /home/pd/sound/a.wav;
#X msg 48 55 symbol;
#X msg 61 77 symbol b.wav;
#X text 46 14 filname manipulation for display;
#X connect 0 0 1 0;
#X connect 1 0 2 0;
#X connect 3 0 10 0;
#X connect 4 0 5 0;
#X connect 4 1 7 0;
#X connect 5 0 6 0;
#X connect 7 0 8 0;
#X connect 9 0 0 0;
#X connect 9 0 4 0;
#X connect 10 0 0 0;
#X connect 10 0 4 0;
#X connect 11 0 0 0;
#X connect 11 0 4 0;
#X restore 266 161 pd filenames;
#N canvas 1072 627 471 159 inits 0;
#X obj 40 40 acre/initbang;
#X obj 40 70 bng 15 250 50 0 empty empty empty 17 7 0 10 -262144 -1
-1;
#X obj 40 90 print ACRE:acre/initbang;
#X obj 277 65 acre/init_ctl;
#X msg 145 37 \; /acre/init bang;
#X text 276 46 acre/init_ctl;
#X connect 0 0 1 0;
#X connect 1 0 2 0;
#X restore 261 72 pd inits;
#N canvas 751 472 641 285 debug 0;
#X obj 49 122 osc~ 220;
#X obj 50 167 scope;
#X msg 52 23 \; pd dsp 1;
#X obj 150 174 spectroscope;
#X obj 152 130 noise~;
#X obj 152 152 *~ 1;
#X text 45 93 --- simple signal view helper ---;
#X connect 0 0 1 0;
#X connect 0 0 3 0;
#X connect 4 0 3 0;
#X connect 4 0 5 0;
#X restore 264 190 pd debug;
#N canvas 1156 357 660 410 testsampleplayer 0;
#X obj 166 170 s /ts/X/ctl;
#X msg 168 147 filename symbol samples.txt;
#X obj 526 80 acre/ts_ctl X;
#X obj 184 202 acre/ts X;
#X obj 184 224 env~;
#X floatatom 184 246 5 0 0 0 - - -, f 5;
#X text 85 44 Play samples from a text list;
#X text 84 83 1.) make list of samplefile names with path;
#X text 82 124 2.) load the file:;
#X text 106 100 (Hint: eg. on a shell use `ls *.wav > samples.txt`)
;
#X text 87 275 3 control (see ctl);
#X obj 194 328 s /ts/X/ctl;
#X text 124 294 commands: float load next prev reload this print step
filename;
#X text 130 360 also receives with /ts/<id>/on \, /ts/<id>/volm /ts/<id>/loop
are implemented;
#X text 528 53 acre/ts_ctl <id>;
#X connect 1 0 0 0;
#X connect 3 0 4 0;
#X connect 4 0 5 0;
#X restore 262 214 pd testsampleplayer;
