#N canvas 506 436 356 253 10;
#X obj 51 191 *~;
#X obj 92 152 line~;
#X obj 40 85 inlet~;
#X obj 52 219 outlet~;
#X obj 92 87 inlet;
#X text 47 36 simple gain with fader and line;
#X obj 92 131 pack 0 \$1;
#X obj 268 90 inlet;
#X text 36 14 fader_gain~ <fadertime>;
#X text 98 64 gain;
#X text 255 74 fadetime;
#X text 40 64 signal;
#X msg 230 141 0 3;
#X obj 202 111 sel 0 1;
#X obj 203 90 inlet;
#X text 208 72 mute;
#X obj 92 110 dbtorms;
#X connect 0 0 3 0;
#X connect 1 0 0 1;
#X connect 2 0 0 0;
#X connect 4 0 16 0;
#X connect 6 0 1 0;
#X connect 7 0 6 1;
#X connect 12 0 1 0;
#X connect 13 0 6 0;
#X connect 13 1 12 0;
#X connect 14 0 13 0;
#X connect 16 0 6 0;
