#N canvas 1740 662 367 242 10;
#X obj 64 110 inlet;
#X obj 65 173 t b a b;
#X msg 118 173 0;
#X obj 64 212 outlet;
#X obj 64 134 spigot 1;
#X msg 36 174 1;
#X text 26 14 acre/feedback_supressor;
#X text 21 49 The trick is to disable input during outlet;
#X text 21 67 so a received message is send without received again
;
#X text 21 85 usefull for remote controls or the like;
#X text 151 216 (c) GPL \, winfried ritsch;
#X connect 0 0 4 0;
#X connect 1 0 5 0;
#X connect 1 1 3 0;
#X connect 1 2 2 0;
#X connect 2 0 4 1;
#X connect 4 0 1 0;
#X connect 5 0 4 1;
