#N canvas 161 130 411 345 10;
#X obj 30 59 symbol2list /;
#X obj 85 84 list length;
#X obj 30 81 t l l;
#X obj 24 167 list split;
#X obj 21 193 list2symbol /;
#X obj 28 34 inlet;
#X obj 23 241 outlet;
#X obj 129 241 outlet;
#X text 26 9 filename_split;
#X text 72 31 filename with path as symbol;
#X text 22 281 acre lib \, (c) atelier algorythmics;
#X text 23 259 path;
#X text 126 258 filename;
#X obj 130 195 route bang;
#X msg 130 217 symbol;
#X obj 83 113 - 1;
#X obj 83 135 max 0;
#X connect 0 0 2 0;
#X connect 1 0 15 0;
#X connect 2 0 3 0;
#X connect 2 1 1 0;
#X connect 3 0 4 0;
#X connect 3 1 13 0;
#X connect 4 0 6 0;
#X connect 5 0 0 0;
#X connect 13 0 14 0;
#X connect 13 1 7 0;
#X connect 14 0 7 0;
#X connect 15 0 16 0;
#X connect 16 0 3 1;
