#N canvas 6 79 387 599 10;
#X obj 27 185 t l l;
#X obj 84 207 list length;
#X obj 27 424 list split;
#X obj 27 123 t s b;
#X msg 90 117 symbol;
#X obj 27 164 symbol2list;
#X obj 55 496 list2symbol;
#X obj 55 473 t a;
#X obj 27 103 symbol;
#X obj 84 231 t f f;
#X obj 84 282 -;
#X obj 84 307 * -1;
#X msg 168 397 ...;
#X obj 55 447 list prepend;
#X obj 55 517 outlet;
#X obj 184 87 inlet maxsize;
#X text 17 543 filename with maxsize characters;
#X text 12 34 mostly to make a nice view in a symbol on a GUI;
#X obj 84 257 min \$1;
#X text 11 9 filename_shorten <maxsize>;
#X msg 84 400 0;
#X obj 141 375 t f b;
#X text 130 334 cut and prepend ...;
#X obj 84 330 max 3;
#X obj 141 397 + 3;
#X text 207 5 (c) GPL \, acre winfried ritsch;
#X obj 27 80 inlet filename;
#X obj 90 140 t s s;
#X obj 84 374 t b b;
#X obj 84 351 select 3;
#X connect 0 0 2 0;
#X connect 0 1 1 0;
#X connect 1 0 9 0;
#X connect 2 1 13 0;
#X connect 2 2 7 0;
#X connect 3 0 5 0;
#X connect 3 1 4 0;
#X connect 4 0 27 0;
#X connect 5 0 0 0;
#X connect 6 0 14 0;
#X connect 7 0 6 0;
#X connect 8 0 3 0;
#X connect 9 0 18 0;
#X connect 9 1 10 1;
#X connect 10 0 11 0;
#X connect 11 0 23 0;
#X connect 12 0 13 1;
#X connect 13 0 7 0;
#X connect 15 0 18 1;
#X connect 18 0 10 0;
#X connect 20 0 2 1;
#X connect 21 0 24 0;
#X connect 21 1 12 0;
#X connect 23 0 29 0;
#X connect 24 0 2 1;
#X connect 26 0 8 0;
#X connect 27 0 5 1;
#X connect 27 1 6 1;
#X connect 28 0 20 0;
#X connect 28 1 13 1;
#X connect 29 0 28 0;
#X connect 29 1 21 0;
