#N canvas 7 53 307 569 10;
#X obj 27 185 t l l;
#X obj 59 207 list length;
#X obj 31 404 list split;
#X obj 27 143 t s b;
#X msg 95 137 symbol;
#X obj 27 164 symbol2list;
#X obj 60 474 list2symbol;
#X obj 59 453 t a;
#X obj 22 113 symbol;
#X obj 60 231 t f f;
#X obj 60 282 -;
#X obj 61 307 * -1;
#X msg 163 386 ...;
#X obj 59 427 list prepend;
#X obj 24 80 inlet;
#X obj 61 499 outlet;
#X obj 134 87 inlet maxsize;
#X text 69 84 filname;
#X text 17 513 filename with maxsize characters;
#X text 12 34 mostly to make a nice view in a symbol on a GUI;
#X text 14 529 acre lib \, (c) atelier algorythmics;
#X obj 60 257 min \$1;
#X text 11 9 filename_shorten <maxsize>;
#X msg 61 380 0;
#X obj 60 351 sel 3;
#X obj 141 355 t f b;
#X text 130 334 cut and prepend ...;
#X obj 62 330 max 3;
#X obj 138 379 + 3;
#X connect 0 0 2 0;
#X connect 0 1 1 0;
#X connect 1 0 9 0;
#X connect 2 1 13 0;
#X connect 2 2 7 0;
#X connect 3 0 5 0;
#X connect 3 1 4 0;
#X connect 4 0 5 1;
#X connect 4 0 6 1;
#X connect 5 0 0 0;
#X connect 6 0 15 0;
#X connect 7 0 6 0;
#X connect 8 0 3 0;
#X connect 9 0 21 0;
#X connect 9 1 10 1;
#X connect 10 0 11 0;
#X connect 11 0 27 0;
#X connect 12 0 13 1;
#X connect 13 0 7 0;
#X connect 14 0 8 0;
#X connect 16 0 21 1;
#X connect 21 0 10 0;
#X connect 23 0 2 1;
#X connect 24 0 13 1;
#X connect 24 0 23 0;
#X connect 24 1 25 0;
#X connect 25 0 28 0;
#X connect 25 1 12 0;
#X connect 27 0 24 0;
#X connect 28 0 2 1;
