#N canvas 252 195 320 233 10;
#X obj 29 73 inlet;
#X obj 163 152 /;
#X obj 29 96 moses 1e-10;
#X obj 29 187 outlet;
#X obj 29 118 t b;
#X text 32 40 acre/Hz2ms;
#X msg 163 121 1000 \$1;
#X text 88 190 (c) GPL \, acre winfried ritsch;
#X msg 29 150 inf;
#X connect 0 0 2 0;
#X connect 1 0 3 0;
#X connect 2 0 4 0;
#X connect 2 1 6 0;
#X connect 4 0 8 0;
#X connect 6 0 1 0;
#X connect 8 0 3 0;
