#N canvas 250 131 320 233 10;
#X obj 29 73 inlet;
#X obj 103 152 /;
#X obj 29 96 moses 1e-10;
#X obj 29 187 outlet;
#X obj 29 118 t b;
#X text 32 40 acre/Hz2ms;
#X msg 29 150 0;
#X msg 103 121 1000 \$1;
#X connect 0 0 2 0;
#X connect 1 0 3 0;
#X connect 2 0 4 0;
#X connect 2 1 7 0;
#X connect 4 0 6 0;
#X connect 6 0 3 0;
#X connect 7 0 1 0;
