#N canvas 807 240 450 383 10;
#X text 53 52 Identify;
#X obj 50 144 loadbang;
#X obj 50 70 r \$1/get;
#X obj 50 114 s \$1/id;
#X obj 50 166 s \$1/get;
#X obj 53 190 r \$1/id;
#X obj 86 279 symbol \$1;
#X obj 53 354 outlet;
#X obj 86 256 sel 0;
#X text 119 352 (c) GPL - acre \, ritsch;
#X text 53 18 acre/instance_one_test <object name> <\$0>;
#X obj 50 92 i \$2;
#X obj 53 212 == \$2;
#X obj 53 235 t f f;
#X obj 86 325 print Error;
#X msg 86 303 Only one \$1 should exist (doubled warning) !;
#X connect 1 0 4 0;
#X connect 2 0 11 0;
#X connect 5 0 12 0;
#X connect 6 0 15 0;
#X connect 8 0 6 0;
#X connect 11 0 3 0;
#X connect 12 0 13 0;
#X connect 13 0 7 0;
#X connect 13 1 8 0;
#X connect 15 0 14 0;
