#N canvas 1324 717 390 332 12;
#X obj 33 224 pack s f;
#X msg 33 252 connect \$1 \$2;
#X msg 165 252 disconnect;
#X obj 33 189 t s b;
#X text 33 1 ip_port <id>;
#X obj 34 41 inlet;
#X obj 33 278 outlet;
#X obj 33 160 spigot;
#X obj 138 41 inlet;
#X text 31 18 feed a netsend with connection data;
#X obj 63 67 r \$1/ip;
#X obj 166 71 r \$1/port;
#X obj 138 99 t b f f;
#X obj 33 130 symbol;
#X connect 0 0 1 0;
#X connect 1 0 6 0;
#X connect 2 0 6 0;
#X connect 3 0 0 0;
#X connect 3 1 2 0;
#X connect 5 0 13 0;
#X connect 7 0 3 0;
#X connect 8 0 12 0;
#X connect 10 0 13 0;
#X connect 11 0 12 0;
#X connect 12 1 7 1;
#X connect 12 2 0 1;
#X connect 13 0 7 0;
