#N canvas 1324 447 390 275 12;
#X obj 34 197 pack s f;
#X msg 34 225 connect \$1 \$2;
#X msg 166 225 disconnect;
#X obj 34 98 symbol;
#X obj 34 162 t s b;
#X text 33 1 ip_port <id>;
#X obj 34 41 inlet;
#X obj 34 251 outlet;
#X obj 34 128 spigot;
#X obj 138 99 t f f;
#X obj 138 41 inlet;
#X text 31 18 feed a netsend with connection data;
#X obj 46 69 r \$1/ip;
#X obj 152 69 r \$1/port;
#X connect 0 0 1 0;
#X connect 1 0 7 0;
#X connect 2 0 7 0;
#X connect 3 0 8 0;
#X connect 4 0 0 0;
#X connect 4 1 2 0;
#X connect 6 0 3 0;
#X connect 8 0 4 0;
#X connect 9 0 8 1;
#X connect 9 1 0 1;
#X connect 10 0 9 0;
#X connect 12 0 3 0;
#X connect 13 0 9 0;
