#N canvas 553 535 390 319 12;
#X obj 33 216 pack s f;
#X text 33 1 ip_port <id>;
#X obj 34 41 inlet;
#X obj 33 247 outlet;
#X obj 33 190 spigot;
#X obj 138 41 inlet;
#X text 31 18 feed a netsend with connection data;
#X obj 63 67 r \$1/ip;
#X obj 166 71 r \$1/port;
#X obj 138 99 t b f f;
#X obj 33 130 symbol none;
#X obj 34 160 sel none;
#X connect 0 0 3 0;
#X connect 2 0 10 0;
#X connect 4 0 0 0;
#X connect 5 0 9 0;
#X connect 7 0 10 0;
#X connect 8 0 9 0;
#X connect 9 0 10 0;
#X connect 9 1 4 1;
#X connect 9 2 0 1;
#X connect 10 0 11 0;
#X connect 11 1 4 0;
