#N canvas 921 330 450 300 10;
#X text 25 44 m2fakt;
#X text 40 66 calculates a midinote offset to a faktor of transpose
;
#X obj 194 156 t b f;
#X msg 194 177 1;
#X obj 194 198 /;
#X obj 80 167 * 0.122312;
#X obj 194 94 loadbang;
#X msg 194 114 0;
#X obj 194 136 mtof;
#X obj 80 110 inlet;
#X obj 80 132 mtof;
#X obj 80 191 outlet;
#X text 224 200 more exact than number input;
#X connect 2 0 3 0;
#X connect 2 1 4 1;
#X connect 3 0 4 0;
#X connect 4 0 5 1;
#X connect 5 0 11 0;
#X connect 6 0 7 0;
#X connect 7 0 8 0;
#X connect 8 0 2 0;
#X connect 9 0 10 0;
#X connect 10 0 5 0;
