#N canvas 285 224 320 233 10;
#X obj 29 53 inlet;
#X obj 102 139 /;
#X obj 29 193 outlet;
#X obj 29 98 t b;
#X text 32 20 ms2Hz;
#X obj 189 48 acre/samplerate;
#X obj 29 163 float 22050;
#X text 81 194 (c) GPL \, acre winfried ritsch;
#X msg 103 117 1000 \$1;
#X obj 189 119 /;
#X obj 29 76 moses 0.04535;
#X text 196 71 SR/2 in ms;
#X msg 189 97 2000 \$1;
#X connect 0 0 10 0;
#X connect 1 0 2 0;
#X connect 3 0 6 0;
#X connect 5 0 12 0;
#X connect 6 0 2 0;
#X connect 8 0 1 0;
#X connect 9 0 10 1;
#X connect 10 0 3 0;
#X connect 10 1 8 0;
#X connect 12 0 9 0;
