#N canvas 250 131 320 233 10;
#X obj 29 73 inlet;
#X msg 103 137 0.001 \$1;
#X obj 102 159 /;
#X obj 29 96 moses 1e-10;
#X obj 29 213 outlet;
#X obj 29 118 t b;
#X text 32 40 ms2Hz;
#X obj 184 97 acre/samplerate;
#X obj 184 119 * 0.5;
#X obj 29 183 float 22050;
#X connect 0 0 3 0;
#X connect 1 0 2 0;
#X connect 2 0 4 0;
#X connect 3 0 5 0;
#X connect 3 1 1 0;
#X connect 5 0 9 0;
#X connect 7 0 8 0;
#X connect 8 0 9 1;
#X connect 9 0 4 0;
