#N canvas 456 383 468 279 10;
#X obj 83 106 inlet;
#X obj 133 134 samplerate~;
#X obj 133 156 * 0.001;
#X obj 83 188 * 44.1;
#X obj 83 236 outlet;
#X text 82 65 Note: if samplerate changes during operation it only
respected after a init bang;
#X obj 133 106 initbang;
#X text 80 23 ms2samples;
#X text 78 44 calculates number of samples from time in ms;
#X connect 0 0 3 0;
#X connect 1 0 2 0;
#X connect 2 0 3 1;
#X connect 3 0 4 0;
#X connect 6 0 1 0;
