#N canvas 764 69 450 300 10;
#X text 110 5 (c) GPL \, acre winfried ritsch;
#X text 18 41 samplerate;
#X obj 77 185 samplerate~;
#X obj 77 114 r pd;
#X obj 77 158 sel 1;
#X obj 77 136 route dsp audio-dialog;
#X obj 148 159 t b;
#X text 21 78 outputs samplerate also on samplerate change !;
#X obj 30 114 inlet;
#X obj 76 213 outlet;
#X obj 254 111 initbang;
#X connect 2 0 9 0;
#X connect 3 0 5 0;
#X connect 4 0 2 0;
#X connect 5 0 4 0;
#X connect 5 1 6 0;
#X connect 6 0 2 0;
#X connect 8 0 2 0;
#X connect 10 0 2 0;
