#N canvas 155 390 468 319 10;
#X obj 83 106 inlet;
#X obj 160 148 samplerate~;
#X obj 83 188 * 44.1;
#X obj 83 236 outlet;
#X text 82 65 Note: if samplerate changes during operation it only
respected after a init bang;
#X obj 160 120 initbang;
#X text 80 23 samples2ms;
#X obj 160 170 t b f;
#X msg 160 192 1000;
#X obj 160 212 / 44100;
#X text 78 44 calculates time in ms from number of samples;
#X text 170 5 (c) GPL \, acre winfried ritsch;
#X connect 0 0 2 0;
#X connect 1 0 7 0;
#X connect 2 0 3 0;
#X connect 5 0 1 0;
#X connect 7 0 8 0;
#X connect 7 1 9 1;
#X connect 8 0 9 0;
#X connect 9 0 2 1;
