#N canvas 1131 390 736 459 10;
#X obj 101 101 cnv 15 48 48 \$0-gain \$0-gain empty 20 12 0 14 -204786
-66577 0;
#X msg 230 160 const 0;
#X obj 230 62 loadbang;
#X obj 230 96 t b b b;
#X obj 106 132 tgl 15 0 \$0-on \$0-on on 1 -4 0 10 -262144 -1 -1 0
1;
#X obj 126 132 tgl 15 0 \$0-vis \$0-vis view -1 -4 0 10 -262144 -1
-1 0 1;
#X obj 378 330 pack 0 \$0;
#X text 311 73 draw notes in table;
#X obj 165 85 inlet;
#X text 159 66 clear;
#X obj 56 14 inlet~;
#X obj 76 265 switch~;
#X obj 55 100 *~ 1;
#X obj 85 75 dbtorms;
#X floatatom 107 105 5 0 0 0 - #0-gain_ #0-gain;
#X obj 94 335 bng 15 250 50 0 empty empty empty 17 7 0 10 -262144 -1
-1;
#X obj 103 301 metro 500;
#X obj 223 336 table \$0-scope;
#X obj 54 362 tabwrite~ \$0-scope;
#X msg 378 353 \; pd-\$2-scope vis \$1;
#X obj 230 224 s \$0-scope;
#X msg 356 195 resize 512 \, bounds 0 1 512 -1;
#X msg 285 140 xticks 512 64 128 \, xlabel -1.05 0 128 256 384 512
\, yticks 1 0.1 2 \, ylabel -10 0 -0.2 0.2 -0.4 0.4 0.6 -0.6 0.8 -0.8
0 1 -1;
#X text 379 51 (c) GPL \, acre winfried ritsch;
#X obj 76 219 r \$0-on;
#X obj 76 242 t f f;
#X obj 378 304 r \$0-vis;
#X obj 85 54 r \$0-gain;
#X connect 1 0 20 0;
#X connect 2 0 3 0;
#X connect 3 0 1 0;
#X connect 3 1 22 0;
#X connect 3 2 21 0;
#X connect 6 0 19 0;
#X connect 8 0 1 0;
#X connect 10 0 12 0;
#X connect 12 0 18 0;
#X connect 13 0 12 1;
#X connect 15 0 18 0;
#X connect 16 0 18 0;
#X connect 21 0 20 0;
#X connect 22 0 20 0;
#X connect 24 0 25 0;
#X connect 25 0 11 0;
#X connect 25 1 16 0;
#X connect 26 0 6 0;
#X connect 27 0 13 0;
#X coords 0 -1 1 1 50 50 2 100 100;
