#N canvas 543 408 736 459 10;
#X obj 101 101 cnv 15 48 48 empty empty empty 20 12 0 14 -204786 -66577
0;
#X msg 190 110 const 0;
#X obj 188 12 loadbang;
#X obj 190 46 t b b b;
#X obj 106 129 tgl 15 0 empty empty on 1 -4 0 10 -262144 -1 -1 0 1
;
#X text 148 -11 (c)algorythmics \, winfried ritsch;
#X obj 126 129 tgl 15 0 empty empty view -1 -4 0 10 -262144 -1 -1 0
1;
#X obj 150 200 pack 0 \$0;
#X text 271 23 draw notes in table;
#X obj 125 35 inlet;
#X text 119 16 clear;
#X obj 16 -16 inlet~;
#X obj 36 165 switch~;
#X obj 5 60 *~ 1;
#X obj 35 35 dbtorms;
#X floatatom 107 105 5 0 0 0 - - -, f 5;
#X obj 64 285 bng 15 250 50 0 empty empty empty 17 7 0 10 -262144 -1
-1;
#X obj 55 251 metro 500;
#X obj 323 154 table \$0-scope;
#X obj 24 312 tabwrite~ \$0-scope;
#X msg 148 228 \; pd-\$2-scope vis \$1;
#X obj 199 154 s \$0-scope;
#X msg 286 115 resize 512 \, bounds 0 1 512 -1;
#X msg 265 60 xticks 512 64 128 \, xlabel -1.05 0 128 256 384 512 \,
yticks 1 0.1 2 \, ylabel -10 0 -0.2 0.2 -0.4 0.4 0.6 -0.6 0.8 -0.8
0 1 -1;
#X connect 1 0 21 0;
#X connect 2 0 3 0;
#X connect 3 0 1 0;
#X connect 3 1 23 0;
#X connect 3 2 22 0;
#X connect 4 0 12 0;
#X connect 4 0 17 0;
#X connect 6 0 7 0;
#X connect 7 0 20 0;
#X connect 9 0 1 0;
#X connect 11 0 13 0;
#X connect 13 0 19 0;
#X connect 14 0 13 1;
#X connect 15 0 14 0;
#X connect 16 0 19 0;
#X connect 17 0 19 0;
#X connect 22 0 21 0;
#X connect 23 0 21 0;
#X coords 0 -1 1 1 50 50 2 100 100;
