#N canvas 939 112 718 459 10;
#X obj 101 101 cnv 15 48 98 empty empty empty 20 12 0 14 -204786 -66577
0;
#X msg 207 173 const 0;
#X obj 205 75 loadbang;
#X obj 207 109 t b b b;
#X obj 106 172 tgl 15 0 empty empty on 1 -4 0 10 -262144 -1 -1 0 1
;
#X obj 128 174 tgl 15 0 empty empty view -1 -4 0 10 -262144 -1 -1 1
1;
#X obj 201 258 pack 0 \$0;
#X text 288 86 draw notes in table;
#X obj 125 35 inlet;
#X text 119 16 clear;
#X obj 6 7 inlet~;
#X obj 129 213 switch~;
#X obj 5 60 *~ 1;
#X obj 35 35 dbtorms;
#X floatatom 107 105 5 0 0 0 - - -;
#X obj 340 217 table \$0-scope;
#X obj 5 416 tabwrite~ \$0-scope;
#X msg 199 286 \; pd-\$2-scope vis \$1;
#X obj 216 217 s \$0-scope;
#X msg 303 178 resize 512 \, bounds 0 1 512 -1;
#X msg 282 123 xticks 512 64 128 \, xlabel -1.05 0 128 256 384 512
\, yticks 1 0.1 2 \, ylabel -10 0 -0.2 0.2 -0.4 0.4 0.6 -0.6 0.8 -0.8
0 1 -1;
#X obj 131 341 spigot;
#X floatatom 106 125 5 0 0 0 - - -;
#X obj 56 226 dbtorms;
#X obj 41 147 sel 0;
#X msg 42 179 0;
#X obj 4 367 z~ 64;
#X obj 57 340 del 900;
#X obj 42 297 threshold~ 0.1 900;
#X obj 107 148 tgl 15 0 empty empty auto 1 -4 0 10 -262144 -1 -1 1
1;
#X obj 56 249 pack 0.1 1500;
#X msg 54 275 set \$1 \$2 \$1 64;
#X obj 58 368 spigot;
#X obj 128 145 bng 15 250 50 0 empty empty C 4 7 0 10 -262144 -1 -1
;
#X msg 111 74 80;
#X msg 142 75 1;
#X text 208 26 acre/scope;
#X text 207 369 (c) GPL \, acre - winfried ritsch;
#X obj 131 377 bng 15 250 50 0 empty empty empty 17 7 0 10 -262144
-1 -1;
#X connect 1 0 18 0;
#X connect 2 0 3 0;
#X connect 3 0 1 0;
#X connect 3 1 20 0;
#X connect 3 1 35 0;
#X connect 3 1 34 0;
#X connect 3 2 19 0;
#X connect 4 0 11 0;
#X connect 4 0 21 1;
#X connect 5 0 6 0;
#X connect 6 0 17 0;
#X connect 8 0 1 0;
#X connect 10 0 12 0;
#X connect 12 0 26 0;
#X connect 12 0 28 0;
#X connect 13 0 12 1;
#X connect 14 0 13 0;
#X connect 19 0 18 0;
#X connect 20 0 18 0;
#X connect 21 0 27 0;
#X connect 22 0 24 0;
#X connect 23 0 30 0;
#X connect 24 0 25 0;
#X connect 24 1 23 0;
#X connect 25 0 23 0;
#X connect 26 0 16 0;
#X connect 27 0 21 0;
#X connect 27 0 32 0;
#X connect 28 0 16 0;
#X connect 28 0 27 0;
#X connect 29 0 32 1;
#X connect 30 0 31 0;
#X connect 31 0 28 0;
#X connect 32 0 16 0;
#X connect 33 0 1 0;
#X connect 34 0 22 0;
#X connect 35 0 29 0;
#X connect 38 0 16 0;
#X coords 0 -1 1 1 50 100 2 100 100;
