#N canvas 257 232 756 459 10;
#X obj 201 151 cnv 15 48 98 empty empty empty 20 12 0 14 -204786 -66577
0;
#X msg 327 173 const 0;
#X obj 327 8 loadbang;
#X obj 206 231 tgl 15 0 \$0-on \$0-on on 1 -4 0 10 -262144 -1 -1 0
1;
#X obj 226 231 tgl 15 0 \$0-vis \$0-vis view -1 -4 0 10 -262144 -1
-1 0 1;
#X obj 509 284 pack 0 \$0;
#X text 431 107 draw notes in table;
#X obj 6 7 inlet~;
#X obj 195 313 switch~;
#X obj 5 80 *~ 1;
#X obj 26 57 dbtorms;
#X floatatom 206 155 5 0 0 0 - #0-gain_ #0-gain;
#X obj 509 360 table \$0-scope;
#X obj 5 376 tabwrite~ \$0-scope;
#X msg 509 306 \; pd-\$2-scope vis \$1;
#X obj 327 213 s \$0-scope;
#X msg 414 185 resize 512 \, bounds 0 1 512 -1;
#X msg 374 123 xticks 512 64 128 \, xlabel -1.05 0 128 256 384 512
\, yticks 1 0.1 2 \, ylabel -10 0 -0.2 0.2 -0.4 0.4 0.6 -0.6 0.8 -0.8
0 1 -1;
#X obj 135 316 spigot;
#X floatatom 206 175 5 0 0 0 - #0-tresh_ #0-tresh;
#X obj 53 156 dbtorms;
#X obj 53 107 sel 0;
#X msg 53 129 0;
#X obj 4 327 z~ 64;
#X obj 93 296 del 900;
#X obj 39 227 threshold~ 0.1 900;
#X obj 206 204 tgl 15 0 \$0-auto \$0-auto auto 1 -4 0 10 -262144 -1
-1 1 1;
#X obj 53 179 pack 0.1 1500;
#X msg 51 205 set \$1 \$2 \$1 64;
#X obj 93 338 spigot;
#X obj 226 204 bng 15 250 50 0 \$0-clear \$0-clear C 4 7 0 10 -262144
-1 -1;
#X msg 411 64 80;
#X msg 498 52 1;
#X text 208 26 acre/scope;
#X text 207 389 (c) GPL \, acre - winfried ritsch;
#X obj 191 357 bng 15 250 50 0 empty empty empty 17 7 0 10 -262144
-1 -1;
#X obj 93 316 t b b;
#X obj 185 45 inlet clear;
#X obj 327 29 t b b b b b;
#X obj 185 68 t b;
#X obj 185 91 s \$0-clear;
#X obj 297 149 r \$0-clear;
#X obj 509 262 r \$0-vis;
#X obj 168 267 r \$0-on;
#X obj 168 289 t f f;
#X obj 137 338 r \$0-auto;
#X obj 53 81 r \$0-tresh;
#X obj 411 87 s \$0-tresh_;
#X obj 26 35 r \$0-gain;
#X obj 39 250 t b b;
#X obj 498 75 s \$0-auto;
#X connect 1 0 15 0;
#X connect 2 0 38 0;
#X connect 5 0 14 0;
#X connect 7 0 9 0;
#X connect 9 0 23 0;
#X connect 9 0 25 0;
#X connect 10 0 9 1;
#X connect 16 0 15 0;
#X connect 17 0 15 0;
#X connect 18 0 24 0;
#X connect 20 0 27 0;
#X connect 21 0 22 0;
#X connect 21 1 20 0;
#X connect 22 0 20 0;
#X connect 23 0 13 0;
#X connect 24 0 36 0;
#X connect 25 0 49 0;
#X connect 27 0 28 0;
#X connect 28 0 25 0;
#X connect 29 0 13 0;
#X connect 31 0 47 0;
#X connect 32 0 50 0;
#X connect 35 0 13 0;
#X connect 36 0 29 0;
#X connect 36 1 18 0;
#X connect 37 0 39 0;
#X connect 38 0 1 0;
#X connect 38 1 17 0;
#X connect 38 2 16 0;
#X connect 38 3 31 0;
#X connect 38 4 32 0;
#X connect 39 0 40 0;
#X connect 41 0 1 0;
#X connect 42 0 5 0;
#X connect 43 0 44 0;
#X connect 44 0 18 1;
#X connect 44 1 8 0;
#X connect 45 0 29 1;
#X connect 46 0 21 0;
#X connect 48 0 10 0;
#X connect 49 0 13 0;
#X connect 49 1 24 0;
#X coords 0 -1 1 1 50 100 2 200 150;
