#N canvas 537 514 712 318 10;
#X obj 101 101 cnv 15 98 48 empty empty spec 2 10 0 14 -204786 -66577
0;
#X msg 145 63 const 0;
#X obj 187 7 loadbang;
#X obj 187 30 t b b b;
#X obj 102 130 tgl 15 0 empty empty on 1 -4 0 10 -262144 -1 -1 0 1
;
#X text 148 -11 (c)algorythmics \, winfried ritsch;
#X obj 126 129 tgl 15 0 empty empty view -1 -4 0 10 -262144 -1 -1 0
1;
#X obj 267 206 pack 0 \$0;
#X obj 85 2 inlet;
#X text 79 -17 clear;
#X msg 265 234 \; pd-\$2-spec vis \$1;
#X obj 227 170 s \$0-spec;
#X obj 22 245 table \$0-spec;
#X obj 25 -5 inlet~;
#X obj 38 178 switch~;
#X obj 20 203 *~ 1;
#X obj 57 202 dbtorms;
#X floatatom 159 106 5 0 0 0 G - -, f 5;
#X msg 253 114 256;
#X msg 245 141 resize \$1 \, bounds 0 1 \$1 0;
#X floatatom 160 128 5 0 0 0 P - -, f 5;
#X msg 207 59 xticks 0.2 32 2 \, xlabel -0.03 0 64 128 192 256 384
512 768 1024 \, yticks 1 0.1 0.2 \, ylabel -0 0 0.1 0.2 0.3 0.4 0.5
0.6 0.7 0.8 0.9 1;
#X obj 129 180 sel 1;
#X obj 129 203 table_hanning \$0 1024;
#X obj 21 225 spectro_fft~ \$0 1024;
#X connect 1 0 11 0;
#X connect 2 0 3 0;
#X connect 3 0 1 0;
#X connect 3 1 21 0;
#X connect 3 2 18 0;
#X connect 4 0 14 0;
#X connect 4 0 22 0;
#X connect 6 0 7 0;
#X connect 7 0 10 0;
#X connect 8 0 1 0;
#X connect 13 0 15 0;
#X connect 15 0 24 0;
#X connect 16 0 15 1;
#X connect 17 0 16 0;
#X connect 18 0 20 0;
#X connect 19 0 11 0;
#X connect 20 0 19 0;
#X connect 21 0 11 0;
#X connect 22 0 23 0;
#X coords 0 -1 1 1 100 50 2 100 100;
