#N canvas 561 468 328 310 10;
#X obj 70 154 *~;
#X obj 37 67 *~;
#X obj 38 4 inlet~;
#X obj 38 116 rfft~;
#X obj 37 154 *~;
#X obj 37 178 +~;
#X obj 37 247 tabsend~ \$1-spec;
#X obj 37 208 sqrt~;
#X obj 76 38 tabreceive~ \$1-hanning;
#X obj 116 72 block~ \$2 1;
#X text 112 2 fftanal~ <id> <fft size>;
#X connect 0 0 5 1;
#X connect 1 0 3 0;
#X connect 2 0 1 0;
#X connect 3 0 4 0;
#X connect 3 0 4 1;
#X connect 3 1 0 0;
#X connect 3 1 0 1;
#X connect 4 0 5 0;
#X connect 5 0 7 0;
#X connect 7 0 6 0;
#X connect 8 0 1 1;
