#N canvas 877 272 712 318 10;
#X obj 101 101 cnv 15 98 48 empty empty spec 2 10 0 14 -204786 -66577
0;
#X msg 257 153 const 0;
#X obj 257 57 loadbang;
#X obj 102 130 tgl 15 0 \$0-on \$0-on on 1 -4 0 10 -262144 -1 -1 0
1;
#X obj 126 129 tgl 15 0 \$0-vis \$0-vis view -1 -4 0 10 -262144 -1
-1 0 1;
#X obj 189 251 pack 0 \$0;
#X msg 189 273 \; pd-\$2-spec vis \$1;
#X obj 257 230 s \$0-spec;
#X obj 22 265 table \$0-spec;
#X obj 21 15 inlet~;
#X obj 527 260 switch~;
#X obj 20 223 *~ 1;
#X obj 41 200 dbtorms;
#X floatatom 159 106 5 0 0 0 G #0-gain_ #0-gain;
#X msg 433 58 256;
#X msg 285 201 resize \$1 \, bounds 0 1 \$1 0;
#X floatatom 160 128 5 0 0 0 P #0-size_ #0-size;
#X msg 274 103 xticks 0.2 32 2 \, xlabel -0.03 0 64 128 192 256 384
512 768 1024 \, yticks 1 0.1 0.2 \, ylabel -0 0 0.1 0.2 0.3 0.4 0.5
0.6 0.7 0.8 0.9 1;
#X obj 480 260 sel 1;
#X obj 480 283 table_hanning \$0 1024;
#X obj 21 245 spectro_fft~ \$0 1024;
#X text 356 35 (c) GPL \, acre winfried ritsch;
#X obj 189 226 r \$0-vis;
#X obj 480 238 t a a;
#X obj 480 217 r \$0-on;
#X obj 41 177 r \$0-gain;
#X obj 257 80 t b b b b;
#X obj 285 174 r \$0-size;
#X obj 433 81 s \$0-size_;
#X obj 185 39 t b;
#X obj 185 15 inlet clear;
#X connect 1 0 7 0;
#X connect 2 0 26 0;
#X connect 5 0 6 0;
#X connect 9 0 11 0;
#X connect 11 0 20 0;
#X connect 12 0 11 1;
#X connect 14 0 28 0;
#X connect 15 0 7 0;
#X connect 17 0 7 0;
#X connect 18 0 19 0;
#X connect 22 0 5 0;
#X connect 23 0 18 0;
#X connect 23 1 10 0;
#X connect 24 0 23 0;
#X connect 25 0 12 0;
#X connect 26 0 1 0;
#X connect 26 1 17 0;
#X connect 26 3 14 0;
#X connect 27 0 15 0;
#X connect 29 0 1 0;
#X connect 30 0 29 0;
#X coords 0 -1 1 1 100 50 2 100 100;
