#N canvas 630 417 367 407 12;
#X obj 32 80 inlet;
#X obj 34 105 t l b;
#X msg 147 166 0;
#X obj 129 252 i 0;
#X obj 36 300 list prepend 0;
#X obj 36 325 outlet;
#X text 104 38 and prepend a block number;
#X obj 38 166 list split \$1;
#X obj 159 253 + \$1;
#X obj 29 135 list;
#X obj 13 195 t b l b;
#X obj 126 217 t l b;
#X obj 126 192 route bang;
#X text 29 15 acre/split_in_blocks <blocksize>;
#X obj 129 275 t f f;
#X connect 0 0 1 0;
#X connect 1 0 7 0;
#X connect 1 1 2 0;
#X connect 2 0 3 1;
#X connect 3 0 14 0;
#X connect 4 0 5 0;
#X connect 7 0 10 0;
#X connect 7 1 9 1;
#X connect 7 2 12 0;
#X connect 8 0 3 1;
#X connect 9 0 7 0;
#X connect 10 0 9 0;
#X connect 10 1 4 0;
#X connect 10 2 3 0;
#X connect 11 0 4 0;
#X connect 11 1 3 0;
#X connect 12 1 11 0;
#X connect 14 0 4 1;
#X connect 14 1 8 0;
