#N canvas 374 161 340 460 10;
#X msg 92 306 0;
#N canvas 4 56 450 300 (subpatch) 0;
#X array \$1-hanning 1024 float 0;
#X coords 0 1 1023 0 100 50 1 0 0;
#X restore 223 84 graph;
#X msg 51 233 bang;
#X obj 137 205 samplerate~;
#X obj 155 100 loadbang;
#X obj 51 178 t b b;
#X msg 164 380 1;
#X msg 203 381 0;
#X obj 203 356 del 10;
#X obj 51 107 r pd;
#X obj 51 128 route dsp;
#X obj 51 150 sel 1;
#X obj 236 333 /;
#X msg 236 311 1000 \$1;
#X msg 182 170 \; \$1-hanning resize \$2;
#X text 39 37 calculate and store hanning window;
#X text 60 6 table_hanning <id> <size>;
#X text 31 21 eg.: table_hanning \$0 1024;
#X obj 51 428 tabwrite~ \$1-hanning;
#X obj 137 233 / \$2;
#X obj 164 404 switch~;
#X obj 182 149 pack \$1 \$2;
#X obj 155 122 t b b;
#X obj 71 327 osc~;
#X obj 71 350 *~ -0.5;
#X obj 71 373 +~ 0.5;
#X obj 137 255 t f f;
#X obj 164 280 t b b f;
#X obj 51 256 t b b;
#X obj 10 86 inlet recalc;
#X connect 0 0 23 1;
#X connect 2 0 28 0;
#X connect 3 0 19 0;
#X connect 4 0 22 0;
#X connect 5 0 2 0;
#X connect 5 1 3 0;
#X connect 6 0 20 0;
#X connect 7 0 20 0;
#X connect 8 0 7 0;
#X connect 9 0 10 0;
#X connect 10 0 11 0;
#X connect 11 0 5 0;
#X connect 12 0 8 1;
#X connect 13 0 12 0;
#X connect 19 0 26 0;
#X connect 21 0 14 0;
#X connect 22 0 5 0;
#X connect 22 1 21 0;
#X connect 23 0 24 0;
#X connect 24 0 25 0;
#X connect 25 0 18 0;
#X connect 26 0 23 0;
#X connect 26 1 27 0;
#X connect 27 0 6 0;
#X connect 27 1 8 0;
#X connect 27 2 13 0;
#X connect 28 0 18 0;
#X connect 28 1 0 0;
#X connect 29 0 5 0;
