#N canvas 963 410 337 324 10;
#X obj 11 11 cnv 30 98 198 empty empty test_\$1 0 8 0 12 -191407 -66577
0;
#X obj 16 28 tgl 15 0 /ts/\$1/on /ts/\$1/on ON 2 8 0 10 -260097 -1
-1 0 1;
#X obj 17 192 nbx 3 14 -1e+37 1e+37 0 0 /ts/\$1/vol /ts/\$1/vol empty
0 -8 0 10 -260097 -1 -1 0 256;
#X obj 39 60 vu 10 120 /ts/\$1/level empty -1 -8 0 10 -66577 -1 1 0
;
#X obj 17 59 vsl 15 128 0 127 0 0 /ts/\$1/vol /ts/\$1/vol Vol 0 -9
0 10 -260097 -1 -1 0 1;
#X obj 35 27 bng 15 250 50 0 empty empty load 17 7 0 10 -13381 -1 -1
;
#X obj 83 165 bng 15 250 50 0 empty empty next 0 -7 0 10 -262144 -1
-1;
#X obj 83 52 bng 15 250 50 0 empty empty play 0 -7 0 10 -262144 -1
-1;
#X obj 83 109 bng 15 250 50 0 empty empty prev 0 -7 0 10 -262144 -1
-1;
#X obj 85 26 tgl 15 0 /ts/\$1/loop /ts/\$1/loop loop 0 -7 0 10 -262144
-1 -1 0 1;
#X obj 142 256 s /ts/\$1/ctl;
#X msg 161 159 next;
#X msg 138 111 prev;
#X msg 123 215 reload;
#X msg 118 54 bang;
#X obj 66 193 nbx 3 14 -1e+37 1e+37 0 0 /ts/\$1/nr /ts/\$1/nr sampnr
0 -8 0 10 -262144 -1 -1 0 256;
#X obj 84 138 bng 15 250 50 0 empty empty this 0 -7 0 10 -262144 -1
-1;
#X msg 149 133 this;
#X obj 83 83 bng 15 250 50 0 empty empty step 0 -7 0 10 -262144 -1
-1;
#X msg 138 85 step;
#X obj 27 233 r /ts/\$1/setnr;
#X text 11 287 (c) GPL \, acre winfried ritsch;
#X text 117 5 acre/ts_ctl <id>;
#X text 114 24 DEPRECATED: use mxr/test/ts_ctl;
#X connect 5 0 13 0;
#X connect 6 0 11 0;
#X connect 7 0 14 0;
#X connect 8 0 12 0;
#X connect 11 0 10 0;
#X connect 12 0 10 0;
#X connect 13 0 10 0;
#X connect 14 0 10 0;
#X connect 16 0 17 0;
#X connect 17 0 10 0;
#X connect 18 0 19 0;
#X connect 19 0 10 0;
#X connect 20 0 15 0;
#X coords 0 -1 1 1 100 200 1 10 10;
