#N canvas 1926 417 658 550 10;
#X obj 50 432 spigot 0;
#X text 49 307 collect messages;
#X obj 50 511 outlet;
#X text 186 48 collect distribute messages;
#X obj 58 52 inlet;
#X msg 93 137 0;
#X obj 69 182 list split 1;
#X obj 69 205 t b s;
#X obj 69 231 list;
#X obj 69 260 s;
#X text 82 166 send to first name as receiver;
#X text 100 261 send to system;
#X obj 170 100 spigot;
#X obj 115 463 spigot;
#X obj 58 73 spigot 0;
#X msg 29 145 1;
#X obj 58 102 t b a b b;
#X obj 385 184 i 0;
#X obj 418 181 + 1;
#X obj 387 117 metro 250;
#X msg 387 158 0;
#X obj 387 138 t b b;
#X obj 373 248 * 4;
#X obj 373 227 i 0;
#X text 378 60 show messages/second;
#X obj 52 383 mux 1;
#X text 335 293 cannot set receive name so no use;
#X obj 232 295 loadbang;
#X msg 229 378 1;
#X obj 229 357 route _DEFAULT_;
#X obj 115 514 print remote-out;
#X obj 167 149 print remote-in;
#X obj 119 485 list prepend;
#X obj 170 121 list prepend;
#X obj 229 336 ../acre/arg_default _DEFAULT_ \$1;
#X obj 107 52 r \$1/on;
#X obj 213 73 r \$1/v/in;
#X obj 387 87 r \$1/v;
#X obj 154 406 r \$1/on;
#X obj 148 438 r \$1/v/out;
#X obj 373 272 s \$1/v/rate;
#X obj 304 438 list append \$1/resend;
#X msg 304 459 \$1;
#X obj 304 386 r \$1/update;
#X text 476 369 trick to not close out;
#X obj 439 371 del 1;
#X obj 439 394 s \$1/up;
#X obj 439 348 r \$1/resend;
#X text 58 2 rc/connection <connection id>;
#X obj 52 322 r _rc/remote/\$1;
#X obj 64 344 r _rc/remote/_DEFAULT_;
#X connect 0 0 2 0;
#X connect 0 0 13 0;
#X connect 4 0 14 0;
#X connect 5 0 0 1;
#X connect 6 0 7 0;
#X connect 6 1 8 1;
#X connect 7 0 8 0;
#X connect 7 1 9 1;
#X connect 8 0 9 0;
#X connect 12 0 33 0;
#X connect 13 0 32 0;
#X connect 14 0 16 0;
#X connect 14 0 12 0;
#X connect 15 0 0 1;
#X connect 16 0 15 0;
#X connect 16 1 6 0;
#X connect 16 2 5 0;
#X connect 16 3 17 0;
#X connect 17 0 18 0;
#X connect 17 0 23 1;
#X connect 18 0 17 1;
#X connect 19 0 21 0;
#X connect 20 0 17 0;
#X connect 21 0 20 0;
#X connect 21 1 23 0;
#X connect 22 0 40 0;
#X connect 23 0 22 0;
#X connect 25 0 0 0;
#X connect 27 0 34 0;
#X connect 28 0 25 2;
#X connect 29 0 28 0;
#X connect 32 0 30 0;
#X connect 33 0 31 0;
#X connect 34 0 29 0;
#X connect 34 0 32 1;
#X connect 34 0 33 1;
#X connect 35 0 14 1;
#X connect 36 0 12 1;
#X connect 37 0 19 0;
#X connect 38 0 0 1;
#X connect 39 0 13 1;
#X connect 41 0 42 0;
#X connect 42 0 0 0;
#X connect 43 0 41 0;
#X connect 45 0 46 0;
#X connect 47 0 45 0;
#X connect 49 0 25 0;
#X connect 50 0 25 1;
