#N canvas 918 61 527 231 10;
#X obj 101 101 cnv 15 98 48 empty \$0-canvas remote 2 8 0 12 -204800
-66577 0;
#X obj 103 117 tgl 30 0 \$1/on \$1/on ON 5 15 0 18 -4034 -1 -1 1 1
;
#X obj 153 119 tgl 15 0 \$1/v \$1/v V 4 8 0 12 -257985 -1 -1 0 1;
#X obj 168 120 tgl 15 0 \$1/v/in \$1/v/in in 1 8 0 10 -257985 -1 -1
0 1;
#X obj 183 120 tgl 15 0 \$1/v/out \$1/v/out out 0 8 0 10 -257985 -1
-1 1 1;
#X obj 138 136 nbx 5 14 -1e+37 1e+37 0 0 \$1/v/rate \$1/v/rate m/s
0 -8 0 10 -204800 -1 -1 0 256;
#X obj 255 39 loadbang;
#X obj 317 37 bng 15 250 50 0 empty empty empty 17 7 0 10 -262144 -1
-1;
#X obj 255 80 symbol;
#X obj 255 130 s \$0-canvas;
#X msg 255 108 label \$1;
#X obj 255 59 ../acre/arg_default _DEFAULT_ \$1;
#X text 36 35 gui for connection;
#X text 20 1 rc/ctl [connection id];
#X obj 146 102 bng 15 250 50 0 \$1/update \$1/update update 17 7 0
10 -4034 -1 -1;
#X connect 6 0 11 0;
#X connect 7 0 11 0;
#X connect 8 0 10 0;
#X connect 10 0 9 0;
#X connect 11 0 8 0;
#X coords 0 -1 1 1 100 50 2 100 100;
