#N canvas 1926 61 800 295 10;
#X obj 293 4 loadbang;
#X text 343 224 (c) GPL \, acre winfried ritsch;
#X obj 386 121 t b;
#X msg 293 119 0;
#X msg 386 142 1;
#X obj 37 149 list prepend \$1;
#X obj 34 127 spigot;
#X obj 32 91 r \$1;
#X obj 37 170 list trim;
#X obj 37 221 s;
#X text 447 118 all on connection on \$2 in;
#X obj 244 53 bng 15 250 50 0 empty empty empty 17 7 0 10 -262144 -1
-1;
#X obj 293 97 route _DEFAULT_;
#X obj 158 154 symbol;
#X obj 293 77 ../acre/arg_default _DEFAULT_ \$2;
#X text 311 30 if no connection is named it is disabled and the default
name is used \, so the parameter can be individual enabled;
#X text 27 8 rc/par <parameter> [connection];
#X msg 158 177 symbol _rc/remote/\$1;
#X text 98 219 default: _rc/remote off;
#X text 29 67 turn on remote for this parameter;
#X obj 71 93 r \$1/on;
#X obj 294 179 s \$1/on;
#X obj 448 138 r \$2/on;
#X obj 447 174 s \$1/on;
#X connect 0 0 14 0;
#X connect 2 0 4 0;
#X connect 3 0 21 0;
#X connect 4 0 21 0;
#X connect 5 0 8 0;
#X connect 6 0 5 0;
#X connect 7 0 6 0;
#X connect 8 0 9 0;
#X connect 11 0 14 0;
#X connect 12 0 3 0;
#X connect 12 1 2 0;
#X connect 13 0 17 0;
#X connect 14 0 12 0;
#X connect 14 0 13 0;
#X connect 17 0 9 1;
#X connect 20 0 6 1;
#X connect 22 0 23 0;
