#N canvas 2726 91 393 323 10;
#X text 85 248 (c) GPL \, acre winfried ritsch;
#X obj 21 194 list trim;
#X obj 21 255 s;
#X obj 158 176 symbol;
#X text 17 8 rc/register <connection> <parameter>;
#X obj 217 121 loadbang;
#X obj 217 144 list append \$1;
#X obj 21 149 spigot 0;
#X text 17 28 register remote for this parameter;
#X text 20 47 default: off \, you have to turn it on;
#X obj 21 173 list prepend \$2;
#X obj 79 115 r \$1/on;
#X obj 40 222 list;
#X obj 129 115 r \$1/up;
#X obj 21 113 iem_r \$2;
#X obj 21 68 inlet;
#X obj 21 89 t a a;
#X obj 108 88 route set;
#X msg 158 199 symbol _rc/remote/\$1;
#X connect 1 0 2 0;
#X connect 3 0 18 0;
#X connect 5 0 6 0;
#X connect 6 0 3 0;
#X connect 7 0 10 0;
#X connect 10 0 1 0;
#X connect 10 0 12 1;
#X connect 11 0 7 1;
#X connect 12 0 2 0;
#X connect 13 0 12 0;
#X connect 14 0 7 0;
#X connect 15 0 16 0;
#X connect 16 0 14 0;
#X connect 16 1 17 0;
#X connect 17 0 10 1;
#X connect 18 0 2 1;
