#N canvas 477 460 601 436 10;
#X obj 323 85 bng 15 250 50 0 empty empty clear 17 7 0 10 -262144 -1
-1;
#X text 310 65 before save !;
#X obj 267 55 bng 15 250 50 0 empty empty empty 17 7 0 10 -262144 -1
-1;
#X obj 30 126 t b b;
#X obj 30 104 sel 1 0;
#X obj 254 81 f \$2;
#X obj 121 110 route bang symbol, f 21;
#X text 33 392 (c) GPL \, acre - winfried ritsch;
#X obj 534 109 switch~;
#N canvas 7 265 250 273 on+gain 0;
#X obj 37 64 t b b;
#X msg 67 84 0;
#X msg 37 154 0;
#X obj 37 43 select 0;
#X obj 88 63 t f f;
#X obj 37 130 del 60;
#X obj 67 108 f;
#X obj 98 178 f 0;
#X obj 98 134 sel 1;
#X obj 139 157 dbtorms;
#X msg 99 210 \$1;
#X obj 37 17 r \$1/on;
#X obj 140 133 r \$1/gain;
#X obj 37 178 outlet;
#X obj 98 237 outlet;
#X connect 0 0 5 0;
#X connect 0 1 1 0;
#X connect 1 0 6 0;
#X connect 2 0 13 0;
#X connect 3 0 0 0;
#X connect 3 1 4 0;
#X connect 4 0 6 0;
#X connect 4 1 13 0;
#X connect 5 0 2 0;
#X connect 6 0 8 0;
#X connect 7 0 10 0;
#X connect 8 0 7 0;
#X connect 8 1 10 0;
#X connect 9 0 7 0;
#X connect 10 0 14 0;
#X connect 11 0 3 0;
#X connect 12 0 9 0;
#X restore 534 33 pd on+gain;
#X obj 568 87 s \$0-gain;
#X obj 378 339 prvu~;
#X obj 378 361 s \$1/vu;
#X obj 120 85 r \$1/open;
#X obj 29 332 s \$1/played;
#X text 32 374 TODO: filename storage \, playlist;
#X obj 376 285 catch~ \$0-ch1;
#X text 465 265 dummy throw;
#X obj 376 263 throw~ \$0-ch1;
#X msg 30 149 start;
#X msg 49 185 stop;
#X obj 29 310 r \$0-to;
#X obj 418 9 loadbang;
#X floatatom 214 33 5 0 0 0 - - -;
#X obj 255 29 r \$1/channels;
#X text 30 5 mxr/sf/player~ <id> <channels> <send sound ID>;
#N canvas 893 149 703 746 \$0-player 0;
#X obj 10 20 r 1326-player;
#X obj 300 60 s 1326-to;
#X obj 300 10 r 1326-gain;
#X obj 160 160 throw~ 1326-ch1;
#X obj 10 60 readsf~ 2, f 40;
#X obj 10 90 multiline~ 0 0 200;
#X obj 10 120 s~ test_sf-1~;
#X obj 25 140 s~ test_sf-2~;
#X connect 0 0 4 0;
#X connect 2 0 5 2;
#X connect 4 0 5 0;
#X connect 4 0 3 0;
#X connect 4 1 5 1;
#X connect 4 1 3 0;
#X connect 4 2 1 0;
#X connect 5 0 6 0;
#X connect 5 1 7 0;
#X restore 30 56 pd \$0-player;
#X obj 120 132 openpanel;
#N canvas 1407 201 788 669 contruct-player 0;
#X msg 220 68 clear;
#X obj 174 261 t f f b;
#X obj 38 295 t f f;
#X obj 41 15 inlet;
#X obj 36 353 pack 0 1;
#X obj 38 127 acre/count_until;
#X obj 40 40 t f f b;
#X obj 38 273 * 1;
#X obj 174 385 pack 70 10 1 s;
#X obj 175 305 t f f;
#X obj 174 282 - 1;
#X obj 209 336 * 20;
#X obj 40 247 + -1;
#X obj 38 150 t f f;
#X obj 322 16 inlet;
#X msg 7 15 24;
#X obj 374 256 t b f f;
#X msg 9 46 5;
#X msg 8 94 48;
#X msg 9 72 16;
#X obj 252 335 symbol \$3;
#X obj 414 448 acre/count_until;
#X msg 414 470 add2 0;
#X msg 397 490 add2 200;
#X obj 70 319 + 6;
#X msg 384 521 obj 10 90 multiline~ 0 0 200;
#X obj 363 359 t f b b f f;
#X obj 443 403 + 60;
#X obj 443 382 * 20;
#X obj 174 336 * 15;
#X obj 500 239 * 20;
#X obj 500 260 + 90;
#X obj 437 227 * 3;
#X obj 540 57 * 20;
#X obj 369 58 t f f b b f;
#X obj 540 78 + 120;
#X obj 174 358 + 10;
#X obj 37 469 s pd-\$0-player;
#X obj 357 597 s pd-\$0-player;
#X obj 220 88 s pd-\$0-player;
#X obj 399 152 pack \$0 60;
#X msg 173 411 obj \$1 \$2 s~ \$4-\$3~;
#X obj 275 230 * 20;
#X obj 275 251 + 90;
#X obj 209 358 + 120;
#X obj 476 129 pack \$0 20;
#X msg 476 154 obj 10 \$2 r \$1-player;
#X msg 432 430 set obj 10 90 multiline~;
#X msg 373 336 obj 10 60 readsf~ 2 \, f 40;
#X msg 407 310 set obj 10 60 readsf~ \$1 \, addcomma \, add2 f \$2
;
#X msg 355 563 connect 0 0 4 0 \, connect 4 \$1 1 0 \, connect 2 0
5 \$1;
#X msg 399 180 obj 300 60 s \$1-to \, obj 300 10 r \$1-gain \, obj
\$2 \$2 throw~ \$1-ch1;
#X msg 37 437 connect 5 \$1 \$2 0 \, connect 4 \$1 5 \$1 \, connect
4 \$1 3 0;
#X obj 409 283 pack 24 40 60;
#X obj 438 254 moses 40;
#X connect 0 0 39 0;
#X connect 1 0 10 0;
#X connect 1 1 8 2;
#X connect 1 2 20 0;
#X connect 2 0 4 0;
#X connect 2 1 24 0;
#X connect 3 0 6 0;
#X connect 4 0 52 0;
#X connect 5 0 13 0;
#X connect 6 0 5 0;
#X connect 6 1 34 0;
#X connect 6 2 0 0;
#X connect 7 0 2 0;
#X connect 8 0 41 0;
#X connect 9 0 29 0;
#X connect 9 1 11 0;
#X connect 10 0 9 0;
#X connect 11 0 44 0;
#X connect 12 0 7 0;
#X connect 13 0 12 0;
#X connect 13 1 1 0;
#X connect 14 0 0 0;
#X connect 15 0 6 0;
#X connect 16 0 48 0;
#X connect 16 1 53 0;
#X connect 16 2 30 0;
#X connect 16 2 32 0;
#X connect 17 0 6 0;
#X connect 18 0 6 0;
#X connect 19 0 6 0;
#X connect 20 0 8 3;
#X connect 21 0 22 0;
#X connect 22 0 25 0;
#X connect 23 0 25 0;
#X connect 24 0 4 1;
#X connect 25 0 38 0;
#X connect 26 0 50 0;
#X connect 26 1 25 0;
#X connect 26 2 23 0;
#X connect 26 3 21 0;
#X connect 26 4 28 0;
#X connect 27 0 47 0;
#X connect 28 0 27 0;
#X connect 29 0 36 0;
#X connect 30 0 31 0;
#X connect 31 0 53 2;
#X connect 32 0 54 0;
#X connect 33 0 35 0;
#X connect 34 0 26 0;
#X connect 34 1 16 0;
#X connect 34 2 40 0;
#X connect 34 3 45 0;
#X connect 34 4 33 0;
#X connect 35 0 40 1;
#X connect 36 0 8 0;
#X connect 40 0 51 0;
#X connect 41 0 37 0;
#X connect 42 0 43 0;
#X connect 44 0 8 1;
#X connect 45 0 46 0;
#X connect 46 0 38 0;
#X connect 47 0 25 0;
#X connect 48 0 38 0;
#X connect 49 0 48 0;
#X connect 50 0 38 0;
#X connect 51 0 38 0;
#X connect 52 0 37 0;
#X connect 53 0 49 0;
#X connect 54 1 53 1;
#X restore 254 109 pd contruct-player;
#X obj 30 286 s \$0-player;
#X obj 30 82 r \$1/play;
#X obj 250 251 r \$0-to;
#X obj 295 371 s \$1/play;
#X obj 252 279 t b b;
#X msg 294 349 0;
#X obj 252 302 spigot 0;
#X msg 252 343 1;
#X obj 294 277 r \$1/loop;
#X obj 119 226 pack symbol f;
#X obj 261 139 r \$1/from;
#X obj 356 160 loadbang;
#X obj 356 183 samplerate~;
#X obj 428 158 bng 15 250 50 0 empty empty empty 17 7 0 10 -262144
-1 -1;
#X obj 261 186 t b f;
#X obj 356 206 * 1;
#X obj 261 162 * 44100;
#X text 358 240 --- Monitoring ---;
#X obj 447 339 mxr/mo/send~ \$1;
#X obj 119 199 symbol /tmp/test.wav;
#X obj 120 154 s \$1/filename;
#X text 32 353 Note: simple implementation...;
#X msg 119 249 open \$1 \$2;
#X obj 119 174 r \$1/filename;
#X obj 398 31 t b b;
#X connect 0 0 28 1;
#X connect 2 0 5 0;
#X connect 3 0 19 0;
#X connect 3 1 48 0;
#X connect 4 0 3 0;
#X connect 4 1 20 0;
#X connect 5 0 28 0;
#X connect 6 0 27 0;
#X connect 6 1 49 0;
#X connect 9 0 8 0;
#X connect 9 1 10 0;
#X connect 11 0 12 0;
#X connect 13 0 6 0;
#X connect 16 0 11 0;
#X connect 16 0 47 0;
#X connect 19 0 29 0;
#X connect 20 0 29 0;
#X connect 21 0 14 0;
#X connect 22 0 53 0;
#X connect 23 0 5 0;
#X connect 24 0 5 0;
#X connect 27 0 49 0;
#X connect 30 0 4 0;
#X connect 31 0 33 0;
#X connect 33 0 35 0;
#X connect 33 1 34 0;
#X connect 34 0 32 0;
#X connect 35 0 36 0;
#X connect 36 0 32 0;
#X connect 37 0 35 1;
#X connect 38 0 51 0;
#X connect 39 0 45 0;
#X connect 40 0 41 0;
#X connect 41 0 44 0;
#X connect 42 0 41 0;
#X connect 43 0 48 0;
#X connect 43 1 38 1;
#X connect 44 0 45 1;
#X connect 45 0 43 0;
#X connect 48 0 38 0;
#X connect 51 0 29 0;
#X connect 52 0 48 0;
#X connect 53 0 48 0;
#X connect 53 1 5 0;
