#N canvas 389 151 363 215 10;
#X obj 34 40 ds/register_map \$1 \$2/gain;
#X text 28 163 (c) GPL \, acre winfried ritsch;
#X obj 30 134 ds/register_map \$1 \$2/on;
#X text 35 2 mxr/sf/player_ds <domain> <id>;
#X text 32 24 Parameter for multichannel player;
#X obj 35 64 ds/register_map \$1 \$2/loop;
#X obj 32 86 ds/register_map \$1 \$2/filename;
#X obj 31 108 ds/register_map \$1 \$2/from;
