#N canvas 422 81 539 342 10;
#X declare -lib iemlib1;
#X declare -lib iemlib2;
#X declare -lib zexy;
#X declare -stdpath iemlib;
#X declare -path ../../;
#N canvas 476 416 529 289 GUI 1;
#X text 23 11 test main patches for out Mixer with 1 sub and 4 outs
;
#X obj 410 58 ds/ctl /test;
#X obj 210 58 mxr/mo/ctl;
#X text 44 38 Master and VU;
#X obj 10 58 mxr/master/stereo_ctl 0;
#X obj 310 58 mxr/test/tones_ctl /tt;
#X restore 430 30 pd GUI;
#N canvas 166 707 696 169 init 0;
#X obj 45 32 loadbang;
#X msg 45 54 \; /mxr/dsp 1 \; /mxr/fadetime 30 \;;
#X msg 215 60 \; /test/program/load symbol ../mxr/examples/test.txt
\; /test/program/nr 0 \; /test/program/recall bang;
#X connect 0 0 1 0;
#X connect 0 0 2 0;
#X restore 38 89 pd init;
#X obj 185 44 ds/storage_logic /test;
#X text 183 23 --- data storage for example ---;
#X text 48 1 example/test patch for out with master \, one sub and
4 outs;
#X text 56 153 --- MIXER Main Section with out channels ...;
#X obj 202 259 dac~ 1 2;
#X obj 32 232 throw~ /out/1~;
#X obj 20 253 throw~ /out/2~;
#X text 326 274 (c) GPL - acre \, ritsch;
#N canvas 346 437 357 174 declares 0;
#X obj 20 81 declare -lib iemlib1;
#X obj 20 100 declare -lib iemlib2;
#X obj 20 134 declare -lib zexy;
#X obj 20 117 declare -stdpath iemlib;
#X text 19 56 path and libs needed for mxr;
#X text 18 5 if in mxr dir;
#X obj 19 27 declare -path ../../;
#X restore 22 58 pd declares;
#X obj 411 83 acre/initbang;
#X msg 411 105 \; pd-GUI vis 1;
#X text 407 62 always show GUI;
#X text 9 19 --- inits and declares;
#X obj 183 69 mxr/master/stereo_ds /test;
#X obj 161 207 mxr/mo/master~ 0;
#X obj 203 231 mxr/master/stereo~ 0;
#X obj 187 95 mxr/test/tones_ds /test /tt;
#X obj 21 204 mxr/test/tones~ /tt;
#X connect 11 0 12 0;
#X connect 16 0 6 0;
#X connect 17 0 6 0;
#X connect 17 1 6 1;
#X connect 19 0 7 0;
#X connect 19 0 8 0;
