#N canvas 596 491 338 165 10;
#X obj 72 96 prvu~;
#X msg 128 101 reset;
#X obj 128 81 bang;
#X obj 129 58 r /out/reset_vu;
#X obj 71 54 inlet~;
#X obj 72 115 s \$1;
#X text 72 15 mxr/prvu/send~ <send name>;
#X text 68 144 (c) GPL \, acre - winfried ritsch;
#X connect 0 0 5 0;
#X connect 1 0 0 0;
#X connect 2 0 1 0;
#X connect 3 0 2 0;
#X connect 4 0 0 0;
