#N canvas 688 109 674 300 10;
#X text 86 24 (c) GPL \, acre - winfried ritsch;
#N canvas 241 336 1043 387 contruct-outs 0;
#X msg 152 67 clear;
#X obj 34 235 pack 10 1 s;
#X obj 95 163 symbol \$3;
#X obj 26 351 s pd-\$0-gui;
#X obj 35 133 t f f b;
#X obj 178 91 s pd-\$0-gui;
#X obj 914 166 symbol \$3;
#X obj 827 28 t f f b;
#X obj 277 43 acre/count_until;
#X obj 827 52 - 1;
#X obj 829 164 + 10;
#X obj 829 142 * 120;
#X obj 827 113 % 8;
#X obj 829 195 pack 10 10 1 s;
#X obj 869 69 / 8;
#X obj 864 107 i;
#X obj 871 165 + 10;
#X obj 827 74 t f f;
#X obj 750 172 symbol \$3;
#X obj 656 37 t f f b;
#X obj 656 61 - 1;
#X obj 658 151 * 120;
#X obj 656 122 % 8;
#X obj 658 204 pack 10 10 1 s;
#X obj 698 78 / 8;
#X obj 693 116 i;
#X obj 656 83 t f f;
#X obj 277 65 t f f f f;
#X obj 700 174 + 30;
#X obj 276 139 t f f;
#X obj 306 165 + 1;
#X obj 278 94 - 1;
#X obj 658 173 + 10;
#X msg 830 216 obj \$1 \$2 r~ \$4-\$3~;
#X obj 830 248 s pd-\$0-dsp;
#X msg 656 240 obj \$1 \$2 prvu~;
#X obj 157 114 s pd-\$0-dsp;
#X obj 654 277 s pd-\$0-dsp;
#X obj 870 136 * 60;
#X obj 699 145 * 60;
#X obj 579 179 symbol \$3;
#X obj 485 44 t f f b;
#X obj 485 68 - 1;
#X obj 487 158 * 120;
#X obj 485 129 % 8;
#X obj 487 211 pack 10 10 1 s;
#X obj 527 85 / 8;
#X obj 522 123 i;
#X obj 485 90 t f f;
#X obj 487 180 + 10;
#X obj 483 284 s pd-\$0-dsp;
#X obj 528 152 * 60;
#X msg 485 247 obj \$1 \$2 s \$4-\$3-vu;
#X obj 529 181 + 50;
#X obj 279 272 s pd-\$0-dsp;
#X obj 276 117 * 3;
#X obj 275 192 pack 0 1 2;
#X obj 344 162 + 2;
#X msg 278 221 connect \$1 0 \$2 0;
#X msg 293 247 connect \$2 0 \$3 0;
#X obj 37 64 t f f b;
#X obj 32 200 * 10;
#X obj 34 113 acre/count_until;
#X msg 128 199 text 10 2 \$1-BUS;
#X msg 28 327 obj \$1 20 vu 10 120 \$3-\$2-vu empty -1 -8 0 10 -66577
-1 0 0;
#X obj 169 158 symbol \$3;
#X obj 40 28 inlet;
#X obj 153 25 inlet;
#X connect 0 0 5 0;
#X connect 0 0 36 0;
#X connect 1 0 64 0;
#X connect 2 0 1 2;
#X connect 4 0 61 0;
#X connect 4 1 1 1;
#X connect 4 2 2 0;
#X connect 6 0 13 3;
#X connect 7 0 9 0;
#X connect 7 1 13 2;
#X connect 7 2 6 0;
#X connect 8 0 27 0;
#X connect 9 0 17 0;
#X connect 10 0 13 0;
#X connect 11 0 10 0;
#X connect 12 0 11 0;
#X connect 13 0 33 0;
#X connect 14 0 15 0;
#X connect 15 0 38 0;
#X connect 16 0 13 1;
#X connect 17 0 12 0;
#X connect 17 1 14 0;
#X connect 18 0 23 3;
#X connect 19 0 20 0;
#X connect 19 1 23 2;
#X connect 19 2 18 0;
#X connect 20 0 26 0;
#X connect 21 0 32 0;
#X connect 22 0 21 0;
#X connect 23 0 35 0;
#X connect 24 0 25 0;
#X connect 25 0 39 0;
#X connect 26 0 22 0;
#X connect 26 1 24 0;
#X connect 27 0 31 0;
#X connect 27 1 41 0;
#X connect 27 2 19 0;
#X connect 27 3 7 0;
#X connect 28 0 23 1;
#X connect 29 0 56 0;
#X connect 29 1 30 0;
#X connect 29 1 57 0;
#X connect 30 0 56 1;
#X connect 31 0 55 0;
#X connect 32 0 23 0;
#X connect 33 0 34 0;
#X connect 35 0 37 0;
#X connect 38 0 16 0;
#X connect 39 0 28 0;
#X connect 40 0 45 3;
#X connect 41 0 42 0;
#X connect 41 1 45 2;
#X connect 41 2 40 0;
#X connect 42 0 48 0;
#X connect 43 0 49 0;
#X connect 44 0 43 0;
#X connect 45 0 52 0;
#X connect 46 0 47 0;
#X connect 47 0 51 0;
#X connect 48 0 44 0;
#X connect 48 1 46 0;
#X connect 49 0 45 0;
#X connect 51 0 53 0;
#X connect 52 0 50 0;
#X connect 53 0 45 1;
#X connect 55 0 29 0;
#X connect 56 0 58 0;
#X connect 56 0 59 0;
#X connect 57 0 56 2;
#X connect 58 0 54 0;
#X connect 59 0 54 0;
#X connect 60 0 62 0;
#X connect 60 1 8 0;
#X connect 60 2 0 0;
#X connect 60 2 65 0;
#X connect 61 0 1 0;
#X connect 62 0 4 0;
#X connect 63 0 3 0;
#X connect 64 0 3 0;
#X connect 65 0 63 0;
#X connect 66 0 60 0;
#X connect 67 0 0 0;
#X restore 275 238 pd contruct-outs;
#X obj 273 148 loadbang;
#X obj 277 185 bng 15 250 50 0 empty empty empty 17 7 0 10 -262144
-1 -1;
#X obj 101 101 cnv 25 48 48 empty empty \$3 2 7 0 8 -191407 -66577
0;
#X msg 134 193 \; pd-\$2-gui vis \$1;
#X obj 134 171 pack 0 \$0;
#X obj 109 116 tgl 25 0 empty empty V 8 13 0 14 -262130 -1 -1 1 1;
#N canvas 133 132 223 170 \$0-gui 0;
#X restore 278 111 pd \$0-gui;
#N canvas 213 647 935 88 \$0-dsp 0;
#X restore 195 110 pd \$0-dsp;
#X obj 278 263 bng 15 250 50 0 empty empty empty 17 7 0 10 -262144
-1 -1;
#X text 298 184 rebuild;
#X text 305 261 clear before save !;
#X obj 276 212 amb/order2chls \$1 \$2;
#X obj 374 181 r /amb/guiinit;
#X text 93 58 amb/bus_ctl~ <type 2D|3D> <order> <Ambibus ID>;
#X connect 3 0 13 0;
#X connect 6 0 5 0;
#X connect 7 0 6 0;
#X connect 10 0 1 1;
#X connect 13 0 1 0;
#X connect 14 0 13 0;
#X coords 0 -1 1 1 50 50 2 100 100;
