#N canvas 775 202 522 162 10;
#N canvas 848 435 621 419 contruct-buses 0;
#X msg 173 71 clear;
#X obj 38 28 inlet;
#X obj 475 310 symbol \$3;
#X obj 383 163 t f f b;
#X obj 38 72 acre/count_until;
#X obj 38 50 t f b;
#X obj 383 185 - 1;
#X obj 383 321 + 10;
#X obj 383 297 * 120;
#X obj 383 274 % 8;
#X msg 383 362 obj \$1 \$2 catch~ \$4-\$3~;
#X obj 383 341 pack 10 10 1 s;
#X obj 424 254 / 8;
#X obj 424 276 i;
#X obj 424 321 + 10;
#X obj 383 207 t f f;
#X obj 302 314 symbol \$3;
#X obj 207 176 t f f b;
#X obj 207 198 - 1;
#X obj 207 293 * 120;
#X obj 207 271 % 8;
#X obj 207 337 pack 10 10 1 s;
#X obj 249 249 / 8;
#X obj 249 271 i;
#X obj 207 220 t f f;
#X obj 38 94 t f f f f;
#X msg 207 359 obj \$1 \$2 s~ \$4-\$3~;
#X obj 249 315 + 30;
#X obj 38 224 pack 0 1;
#X obj 38 138 * 2;
#X obj 38 160 t f f;
#X obj 91 189 + 1;
#X msg 38 246 connect \$1 0 \$2 0;
#X obj 38 380 s pd-\$0-dsp-buses;
#X obj 38 116 - 1;
#X obj 207 315 + 10;
#X obj 249 293 * 40;
#X obj 424 297 * 40;
#X obj 173 34 inlet;
#X connect 0 0 33 0;
#X connect 1 0 5 0;
#X connect 2 0 11 3;
#X connect 3 0 6 0;
#X connect 3 1 11 2;
#X connect 3 2 2 0;
#X connect 4 0 25 0;
#X connect 5 0 4 0;
#X connect 5 1 0 0;
#X connect 6 0 15 0;
#X connect 7 0 11 0;
#X connect 8 0 7 0;
#X connect 9 0 8 0;
#X connect 10 0 33 0;
#X connect 11 0 10 0;
#X connect 12 0 13 0;
#X connect 13 0 37 0;
#X connect 14 0 11 1;
#X connect 15 0 9 0;
#X connect 15 1 12 0;
#X connect 16 0 21 3;
#X connect 17 0 18 0;
#X connect 17 1 21 2;
#X connect 17 2 16 0;
#X connect 18 0 24 0;
#X connect 19 0 35 0;
#X connect 20 0 19 0;
#X connect 21 0 26 0;
#X connect 22 0 23 0;
#X connect 23 0 36 0;
#X connect 24 0 20 0;
#X connect 24 1 22 0;
#X connect 25 0 34 0;
#X connect 25 2 17 0;
#X connect 25 3 3 0;
#X connect 26 0 33 0;
#X connect 27 0 21 1;
#X connect 28 0 32 0;
#X connect 29 0 30 0;
#X connect 30 0 28 0;
#X connect 30 1 31 0;
#X connect 31 0 28 1;
#X connect 32 0 33 0;
#X connect 34 0 29 0;
#X connect 35 0 21 0;
#X connect 36 0 27 0;
#X connect 37 0 14 0;
#X connect 38 0 0 0;
#X restore 207 116 pd contruct-buses;
#N canvas 133 562 977 226 \$0-dsp-buses 0;
#X restore 40 89 pd \$0-dsp-buses;
#X obj 207 87 amb/order2chls \$1 \$2;
#X text 26 21 amb/outs <dimen> <order> <ID ambisonic bus>;
#X obj 349 115 bng 15 250 50 0 empty empty empty 17 7 0 10 -262144
-1 -1;
#X text 366 116 clear before save !;
#X obj 207 63 r /amb/businit;
#X text 21 125 (c) GPL - acre \, ritsch;
#X obj 321 65 bng 15 250 50 0 empty empty empty 17 7 0 10 -262144 -1
-1;
#X text 338 65 reconstruct;
#X connect 2 0 0 0;
#X connect 4 0 0 1;
#X connect 6 0 2 0;
#X connect 8 0 2 0;
