#N canvas 1068 770 522 162 10;
#X text 26 21 amb/outs <ID> <nr channels> <ID out receives>;
#N canvas 1017 435 647 480 contruct-buses 0;
#X msg 154 70 clear;
#X obj 41 15 inlet;
#X obj 477 314 symbol \$3;
#X obj 383 179 t f f b;
#X obj 154 95 s pd-\$0-dsp-buses;
#X obj 386 399 s pd-\$0-dsp-buses;
#X obj 35 93 acre/count_until;
#X obj 37 64 t f b;
#X msg 109 22 16;
#X obj 383 203 - 1;
#X obj 385 315 + 10;
#X obj 385 293 * 120;
#X obj 383 264 % 8;
#X msg 386 367 obj \$1 \$2 catch~ \$4-\$3~;
#X obj 385 346 pack 10 10 1 s;
#X obj 425 220 / 8;
#X obj 420 258 i;
#X obj 427 316 + 10;
#X obj 383 225 t f f;
#X obj 301 313 symbol \$3;
#X obj 207 178 t f f b;
#X obj 210 398 s pd-\$0-dsp-buses;
#X obj 207 202 - 1;
#X obj 209 292 * 120;
#X obj 207 263 % 8;
#X obj 209 345 pack 10 10 1 s;
#X obj 249 219 / 8;
#X obj 244 257 i;
#X obj 207 224 t f f;
#X obj 35 115 t f f f f;
#X msg 210 366 obj \$1 \$2 s~ \$4-\$3~;
#X obj 251 315 + 30;
#X obj 41 224 pack 0 1;
#X obj 34 167 * 2;
#X obj 34 189 t f f;
#X obj 93 193 + 1;
#X msg 36 271 connect \$1 0 \$2 0;
#X obj 39 396 s pd-\$0-dsp-buses;
#X obj 36 144 - 1;
#X obj 209 314 + 10;
#X obj 250 286 * 40;
#X obj 426 287 * 40;
#X connect 0 0 4 0;
#X connect 1 0 7 0;
#X connect 2 0 14 3;
#X connect 3 0 9 0;
#X connect 3 1 14 2;
#X connect 3 2 2 0;
#X connect 6 0 29 0;
#X connect 7 0 6 0;
#X connect 7 1 0 0;
#X connect 8 0 7 0;
#X connect 9 0 18 0;
#X connect 10 0 14 0;
#X connect 11 0 10 0;
#X connect 12 0 11 0;
#X connect 13 0 5 0;
#X connect 14 0 13 0;
#X connect 15 0 16 0;
#X connect 16 0 41 0;
#X connect 17 0 14 1;
#X connect 18 0 12 0;
#X connect 18 1 15 0;
#X connect 19 0 25 3;
#X connect 20 0 22 0;
#X connect 20 1 25 2;
#X connect 20 2 19 0;
#X connect 22 0 28 0;
#X connect 23 0 39 0;
#X connect 24 0 23 0;
#X connect 25 0 30 0;
#X connect 26 0 27 0;
#X connect 27 0 40 0;
#X connect 28 0 24 0;
#X connect 28 1 26 0;
#X connect 29 0 38 0;
#X connect 29 2 20 0;
#X connect 29 3 3 0;
#X connect 30 0 21 0;
#X connect 31 0 25 1;
#X connect 32 0 36 0;
#X connect 33 0 34 0;
#X connect 34 0 32 0;
#X connect 34 1 35 0;
#X connect 35 0 32 1;
#X connect 36 0 37 0;
#X connect 38 0 33 0;
#X connect 39 0 25 0;
#X connect 40 0 31 0;
#X connect 41 0 17 0;
#X restore 202 88 pd contruct-buses;
#N canvas 117 472 977 226 \$0-dsp-buses 0;
#X obj 10 10 catch~ AMB1-1~;
#X obj 10 30 s~ AMB1-1~;
#X obj 130 10 catch~ AMB1-2~;
#X obj 130 30 s~ AMB1-2~;
#X obj 250 10 catch~ AMB1-3~;
#X obj 250 30 s~ AMB1-3~;
#X obj 370 10 catch~ AMB1-4~;
#X obj 370 30 s~ AMB1-4~;
#X obj 490 10 catch~ AMB1-5~;
#X obj 490 30 s~ AMB1-5~;
#X obj 610 10 catch~ AMB1-6~;
#X obj 610 30 s~ AMB1-6~;
#X obj 730 10 catch~ AMB1-7~;
#X obj 730 30 s~ AMB1-7~;
#X obj 850 10 catch~ AMB1-8~;
#X obj 850 30 s~ AMB1-8~;
#X obj 10 50 catch~ AMB1-9~;
#X obj 10 70 s~ AMB1-9~;
#X obj 130 50 catch~ AMB1-10~;
#X obj 130 70 s~ AMB1-10~;
#X obj 250 50 catch~ AMB1-11~;
#X obj 250 70 s~ AMB1-11~;
#X obj 370 50 catch~ AMB1-12~;
#X obj 370 70 s~ AMB1-12~;
#X obj 490 50 catch~ AMB1-13~;
#X obj 490 70 s~ AMB1-13~;
#X obj 610 50 catch~ AMB1-14~;
#X obj 610 70 s~ AMB1-14~;
#X obj 730 50 catch~ AMB1-15~;
#X obj 730 70 s~ AMB1-15~;
#X obj 850 50 catch~ AMB1-16~;
#X obj 850 70 s~ AMB1-16~;
#X connect 0 0 1 0;
#X connect 2 0 3 0;
#X connect 4 0 5 0;
#X connect 6 0 7 0;
#X connect 8 0 9 0;
#X connect 10 0 11 0;
#X connect 12 0 13 0;
#X connect 14 0 15 0;
#X connect 16 0 17 0;
#X connect 18 0 19 0;
#X connect 20 0 21 0;
#X connect 22 0 23 0;
#X connect 24 0 25 0;
#X connect 26 0 27 0;
#X connect 28 0 29 0;
#X connect 30 0 31 0;
#X restore 40 89 pd \$0-dsp-buses;
#X obj 202 59 amb/order2chls \$1 \$2;
#X connect 3 0 1 0;
