#N canvas 551 52 525 574 10;
#X text 26 23 calibrate <Outsection> <nr chls> <out id>;
#X text 29 44 Calibrate in Volume (and delay);
#X obj 37 105 noise~;
#X floatatom 194 133 5 0 0 0 - - -, f 5;
#X obj 194 89 adc~ 1;
#X floatatom 61 222 5 0 0 0 - - -, f 5;
#X obj 91 135 bng 15 250 50 0 empty empty empty 17 7 0 10 -262144 -1
-1;
#X obj 194 111 env~ 32768;
#X obj 144 200 pipe 800;
#X obj 309 172 table volcal;
#X obj 227 275 tabwrite volcal;
#X obj 242 208 t b f;
#X obj 230 243 f 0;
#X obj 37 127 *~ 0.2;
#X obj 316 94 switch~;
#X obj 307 61 tgl 15 0 empty empty empty 17 7 0 10 -262144 -1 -1 0
1;
#X obj 30 195 *~ 0;
#X obj 55 159 tgl 15 0 empty empty empty 17 7 0 10 -262144 -1 -1 0
1;
#X obj 426 369 array get volcal;
#X obj 428 339 bng 15 250 50 0 empty empty empty 17 7 0 10 -262144
-1 -1;
#X obj 426 391 print volcal;
#X msg 338 17 \; volcal write volcal.txt;
#X obj 185 392 bng 15 250 50 0 empty empty empty 17 7 0 10 -262144
-1 -1;
#X obj 206 465 print volcal;
#X obj 37 388 for++ 1 8 100;
#X obj 44 457 - 0;
#X obj 37 362 bng 15 250 50 0 empty empty empty 17 7 0 10 -262144 -1
-1;
#X obj 39 439 tabread volcal;
#X obj 185 421 array min volcal 1 8;
#X obj 45 485 * -1;
#X obj 47 508 + 100;
#X obj 50 542 s;
#X obj 40 415 t f f;
#X msg 143 507 symbol Out-\$1/vol;
#X obj 38 330 t b b;
#X text 54 307 set calibration;
#X obj 35 310 bng 15 250 50 0 empty empty empty 17 7 0 10 -262144 -1
-1;
#X obj 28 287 throw~ \$3-1;
#X msg 59 263 set /out/\$1~;
#X obj 60 241 pack f s;
#X obj 130 241 symbol \$3;
#X obj 78 198 t f b;
#X obj 88 169 for++ 1 \$2 1000;
#X connect 2 0 13 0;
#X connect 3 0 12 1;
#X connect 4 0 7 0;
#X connect 5 0 39 0;
#X connect 6 0 42 0;
#X connect 7 0 3 0;
#X connect 8 0 11 0;
#X connect 11 0 12 0;
#X connect 11 1 10 1;
#X connect 12 0 10 0;
#X connect 13 0 16 0;
#X connect 15 0 14 0;
#X connect 16 0 37 0;
#X connect 17 0 16 1;
#X connect 18 0 20 0;
#X connect 19 0 18 0;
#X connect 22 0 28 0;
#X connect 24 0 32 0;
#X connect 25 0 29 0;
#X connect 26 0 24 0;
#X connect 27 0 25 0;
#X connect 28 0 23 0;
#X connect 28 0 25 1;
#X connect 29 0 30 0;
#X connect 30 0 31 0;
#X connect 32 0 27 0;
#X connect 32 1 33 0;
#X connect 33 0 31 1;
#X connect 34 0 26 0;
#X connect 34 1 22 0;
#X connect 36 0 34 0;
#X connect 38 0 37 0;
#X connect 39 0 38 0;
#X connect 40 0 39 1;
#X connect 41 0 5 0;
#X connect 41 1 40 0;
#X connect 42 0 8 0;
#X connect 42 0 41 0;
