#N canvas 1503 427 468 233 10;
#N canvas 564 338 535 403 contruct-dacs 0;
#X msg 168 93 clear;
#X obj 41 117 t b f f f;
#X obj 87 17 bng 15 250 50 0 empty empty empty 17 7 0 10 -262144 -1
-1;
#X obj 433 206 symbol \$3;
#X obj 325 109 t f f b;
#X obj 177 161 t f f;
#X obj 42 186 * 2;
#X obj 42 208 t f f;
#X obj 74 230 + 1;
#X msg 40 307 connect \$1 0 \$2 0;
#X obj 43 160 - 1;
#X obj 41 15 inlet;
#X obj 42 257 pack 0 1;
#X obj 177 288 pack 10 50 1;
#X msg 177 312 obj \$1 \$2 dac~ \$3;
#X obj 323 287 pack 10 10 1 s;
#X obj 323 220 % 8;
#X obj 358 198 / 8;
#X obj 360 239 * 80;
#X obj 177 234 % 8;
#X obj 226 192 / 8;
#X obj 229 261 + 50;
#X obj 358 220 i;
#X obj 226 214 i;
#X obj 226 236 * 80;
#X obj 323 152 - 1;
#X obj 177 189 - 1;
#X obj 177 211 t f f;
#X obj 177 258 * 80;
#X obj 323 258 * 80;
#X obj 168 54 inlet;
#X obj 361 259 + 0;
#X obj 397 194 % 2;
#X obj 397 238 + 10;
#X obj 323 174 t f f f;
#X obj 397 216 * 20;
#X obj 41 48 i \$2;
#X obj 41 70 t f b;
#X obj 41 95 acre/count_until;
#X obj 34 338 s pd-\$0-dacs;
#X msg 323 312 obj \$1 \$2 r~ \$4-\$3~;
#X text 101 16 reconstruct;
#X text 216 51 clear;
#X text 231 169 dac offset;
#X obj 252 70 loadbang;
#X obj 252 92 i \$4;
#X obj 252 136 - 1;
#X obj 252 114 max 1;
#X obj 254 191 + 0;
#X connect 0 0 39 0;
#X connect 1 1 10 0;
#X connect 1 2 5 0;
#X connect 1 3 4 0;
#X connect 2 0 36 0;
#X connect 3 0 15 3;
#X connect 4 0 25 0;
#X connect 4 1 15 2;
#X connect 4 2 3 0;
#X connect 5 0 26 0;
#X connect 5 1 48 0;
#X connect 6 0 7 0;
#X connect 7 0 12 0;
#X connect 7 1 8 0;
#X connect 8 0 12 1;
#X connect 9 0 39 0;
#X connect 10 0 6 0;
#X connect 11 0 36 0;
#X connect 12 0 9 0;
#X connect 13 0 14 0;
#X connect 14 0 39 0;
#X connect 15 0 40 0;
#X connect 16 0 29 0;
#X connect 17 0 22 0;
#X connect 18 0 31 0;
#X connect 19 0 28 0;
#X connect 20 0 23 0;
#X connect 21 0 13 1;
#X connect 22 0 18 0;
#X connect 23 0 24 0;
#X connect 24 0 21 0;
#X connect 25 0 34 0;
#X connect 26 0 27 0;
#X connect 27 0 19 0;
#X connect 27 1 20 0;
#X connect 28 0 13 0;
#X connect 29 0 15 0;
#X connect 30 0 0 0;
#X connect 31 0 15 1;
#X connect 32 0 35 0;
#X connect 33 0 31 1;
#X connect 34 0 16 0;
#X connect 34 1 17 0;
#X connect 34 2 32 0;
#X connect 35 0 33 0;
#X connect 36 0 37 0;
#X connect 37 0 38 0;
#X connect 37 1 0 0;
#X connect 37 1 45 0;
#X connect 38 0 1 0;
#X connect 40 0 39 0;
#X connect 44 0 45 0;
#X connect 45 0 47 0;
#X connect 46 0 48 1;
#X connect 47 0 46 0;
#X connect 48 0 13 2;
#X restore 16 164 pd contruct-dacs;
#X obj 31 74 bng 15 250 50 0 empty empty empty 17 7 0 10 -262144 -1
-1;
#X obj 126 142 bng 15 250 50 0 empty empty empty 17 7 0 10 -262144
-1 -1;
#X text 145 142 clear before save !;
#X obj 16 54 r /amb/businit;
#X obj 77 116 max 1;
#X text 123 119 dyn set nr of channels;
#N canvas 338 130 680 239 \$0-dacs 0;
#X restore 17 30 pd \$0-dacs;
#X text 13 1 amb/dacs <ID> <nr channels> <ID out receives> [dac offset]
;
#X text 51 71 reconstruct;
#X obj 77 94 r \$1/number;
#X text 21 185 (c) GPL - acre \, ritsch;
#X text 163 97 Be carfully some system go crazy with this;
#X obj 16 97 t b;
#X connect 1 0 13 0;
#X connect 2 0 0 1;
#X connect 4 0 13 0;
#X connect 5 0 0 0;
#X connect 10 0 5 0;
#X connect 13 0 0 0;
