#N canvas 454 239 498 393 10;
#X obj 16 163 mtx;
#X text 29 19 amb/decoder~ <dimen> <order> <ambibus ID> <out-id> <nr
outs>;
#N canvas 173 569 491 402 \$0-decoder 0;
#X restore 28 212 pd \$0-decoder;
#N canvas 883 235 893 552 contruct-decoder 0;
#X msg 266 54 clear;
#X obj 41 15 inlet;
#X obj 428 14 t b l b b;
#X msg 99 3 11 8;
#X obj 266 74 s pd-\$0-decoder;
#X obj 425 151 s pd-\$0-decoder;
#X msg 426 125 connect 0 0 1 0;
#X obj 528 261 t f f b;
#X obj 392 341 t f f;
#X obj 390 399 pack 0 1;
#X obj 391 230 acre/count_until;
#X obj 393 314 * 1;
#X obj 528 431 pack 70 10 1 s;
#X obj 529 305 t f f;
#X obj 528 282 - 1;
#X obj 563 382 * 20;
#X obj 394 293 + -1;
#X obj 391 253 t f f;
#X obj 390 507 s pd-\$0-decoder;
#X obj 40 40 t l l l b;
#X obj 391 203 unpack 11 8;
#X msg 527 457 obj \$1 \$2 r~ \$4-\$3~;
#X obj 621 363 symbol \$3;
#X obj 559 331 % 8;
#X obj 528 382 * 11;
#X obj 563 404 + 10;
#X obj 528 404 + 40;
#X obj 424 365 + 1;
#X msg 392 457 connect \$1 0 1 \$2;
#X obj 394 371 + 2;
#X msg 448 101 obj 10 200 mtx_*~ \$2 \$1 50 _________________________________
;
#X obj 37 100 unpack 11 8;
#X obj 177 235 t f f b;
#X obj 41 291 t f f;
#X obj 41 351 pack 0 1;
#X obj 41 178 acre/count_until;
#X obj 41 269 * 1;
#X obj 177 381 pack 70 10 1 s;
#X obj 177 277 t f f;
#X obj 177 256 - 1;
#X obj 212 332 * 20;
#X obj 41 203 t f f;
#X obj 41 459 s pd-\$0-decoder;
#X obj 212 304 % 8;
#X obj 73 315 + 1;
#X obj 272 351 symbol \$4;
#X obj 177 354 + 10;
#X obj 212 354 + 230;
#X msg 41 407 connect 1 \$1 \$2 0;
#X obj 41 243 + -1;
#X obj 41 321 + 0;
#X obj 106 294 + 2;
#X obj 177 332 * 13;
#X obj 272 10 inlet;
#X msg 467 62 obj 10 180 r \$1-decoder;
#X obj 463 37 i \$0;
#X msg 176 407 obj \$1 \$2 throw~ /amb/\$4/\$3;
#X connect 0 0 4 0;
#X connect 1 0 19 0;
#X connect 2 0 6 0;
#X connect 2 1 30 0;
#X connect 2 2 55 0;
#X connect 3 0 19 0;
#X connect 6 0 5 0;
#X connect 7 0 14 0;
#X connect 7 1 12 2;
#X connect 7 2 22 0;
#X connect 8 0 29 0;
#X connect 8 1 27 0;
#X connect 9 0 28 0;
#X connect 10 0 17 0;
#X connect 10 0 51 0;
#X connect 11 0 8 0;
#X connect 12 0 21 0;
#X connect 13 0 24 0;
#X connect 13 1 23 0;
#X connect 14 0 13 0;
#X connect 15 0 25 0;
#X connect 16 0 11 0;
#X connect 17 0 16 0;
#X connect 17 1 7 0;
#X connect 19 0 31 0;
#X connect 19 1 20 0;
#X connect 19 2 2 0;
#X connect 19 3 0 0;
#X connect 20 0 10 0;
#X connect 21 0 18 0;
#X connect 22 0 12 3;
#X connect 23 0 15 0;
#X connect 24 0 26 0;
#X connect 25 0 12 1;
#X connect 26 0 12 0;
#X connect 27 0 9 1;
#X connect 28 0 18 0;
#X connect 29 0 9 0;
#X connect 30 0 5 0;
#X connect 31 1 35 0;
#X connect 32 0 39 0;
#X connect 32 1 37 2;
#X connect 32 2 45 0;
#X connect 33 0 50 0;
#X connect 33 1 44 0;
#X connect 34 0 48 0;
#X connect 35 0 41 0;
#X connect 36 0 33 0;
#X connect 37 0 56 0;
#X connect 38 0 52 0;
#X connect 38 1 43 0;
#X connect 39 0 38 0;
#X connect 40 0 47 0;
#X connect 41 0 49 0;
#X connect 41 1 32 0;
#X connect 43 0 40 0;
#X connect 44 0 34 1;
#X connect 45 0 37 3;
#X connect 46 0 37 0;
#X connect 47 0 37 1;
#X connect 48 0 42 0;
#X connect 49 0 36 0;
#X connect 50 0 34 0;
#X connect 51 0 44 1;
#X connect 52 0 46 0;
#X connect 53 0 0 0;
#X connect 54 0 5 0;
#X connect 55 0 54 0;
#X connect 56 0 42 0;
#X restore 205 154 pd contruct-decoder;
#X obj 29 187 s \$0-decoder;
#X msg 181 178 zeros \$2 \$1;
#X obj 16 250 mtx_print decoder_matrix_\$1_\$2_\$3;
#X obj 327 124 bng 15 250 50 0 empty empty empty 17 7 0 10 -262144
-1 -1;
#X text 321 107 clear before save !;
#X obj 200 102 order2chls \$1 \$2;
#X obj 200 54 r /amb/decinit;
#X text 29 284 (c) GPL - acre \, ritsch;
#X obj 205 122 pack 13 \$5;
#X obj 14 115 symbol decoder.mtx;
#X msg 16 135 read \$1;
#X obj 177 53 bng 15 250 50 0 empty empty empty 17 7 0 10 -262144 -1
-1;
#X obj 14 51 r /amb/dec/load;
#X obj 29 77 r /amb/dec/file;
#X connect 0 0 4 0;
#X connect 0 0 6 0;
#X connect 5 0 0 0;
#X connect 7 0 3 1;
#X connect 9 0 12 0;
#X connect 10 0 9 0;
#X connect 12 0 5 0;
#X connect 12 0 3 0;
#X connect 13 0 14 0;
#X connect 14 0 0 0;
#X connect 15 0 9 0;
#X connect 16 0 13 0;
#X connect 17 0 13 1;
