#N canvas 705 218 498 300 10;
#X obj 45 212 mtx;
#X text 29 19 amb/decoder~ <dimen> <order> <ambibus ID> <out-id> <nr
outs>;
#N canvas 928 378 1013 430 get_matrix 0;
#X obj 69 386 outlet;
#X msg 90 357 read decoder.mtx;
#X text 48 16 example Decoder matrix calc;
#X obj 61 47 r \$0-dc;
#X obj 398 20 bng 15 250 50 0 empty empty empty 17 7 0 10 -262144 -1
-1;
#X obj 398 40 i \$0;
#X obj 62 254 mtx;
#X msg 105 257 write decoder.mtx;
#X obj 61 279 mtx_print maxtrix;
#X text 70 75 <order> <dimen> loudspeaker> <phantom ls>;
#X obj 68 312 bng 15 250 50 0 empty empty empty 17 7 0 10 -262144 -1
-1;
#X obj 90 310 acre/initbang;
#X obj 68 332 t b b;
#X obj 63 231 round_zero 1e-06;
#X obj 23 272 bng 15 250 50 0 empty empty empty 17 7 0 10 -262144 -1
-1;
#X msg 398 64 \; \$1-dc ambi_weight 1 1 1 1 \; \$1-dc real_ls 1 0 \;
\$1-dc real_ls 2 45 \; \$1-dc real_ls 3 90 \; \$1-dc real_ls 4 135
\; \$1-dc real_ls 5 180 \; \$1-dc real_ls 6 225 \; \$1-dc real_ls 7
270 \; \$1-dc real_ls 8 315 \; \$1-dc begin_pseudo_inverse \; \$1-dc
end_pseudo_inverse \;;
#N canvas 6 70 450 300 construct 1;
#X restore 153 44 pd construct;
#X obj 86 151 demux 0 1;
#X obj 63 198 ambi_decode3 \$2 2 \$5 0;
#X obj 226 198 ambi_decode3 \$2 3 \$5 0;
#N canvas 9 87 450 300 2d|3D 0;
#X obj 60 30 loadbang;
#X obj 40 29 bng 15 250 50 0 empty empty empty 17 7 0 10 -262144 -1
-1;
#X obj 43 72 route 2D 3D;
#X msg 39 93 0;
#X msg 82 93 1;
#X obj 45 122 tgl 15 0 empty empty empty 17 7 0 10 -262144 -1 -1 0
1;
#X obj 43 50 any \$1;
#X obj 46 158 outlet;
#X connect 0 0 6 0;
#X connect 1 0 6 0;
#X connect 2 0 3 0;
#X connect 2 1 4 0;
#X connect 3 0 5 0;
#X connect 4 0 5 0;
#X connect 5 0 7 0;
#X connect 6 0 2 0;
#X restore 146 105 pd 2d|3D;
#X connect 1 0 0 0;
#X connect 3 0 17 0;
#X connect 4 0 5 0;
#X connect 5 0 15 0;
#X connect 6 0 8 0;
#X connect 7 0 6 0;
#X connect 10 0 12 0;
#X connect 11 0 12 0;
#X connect 12 0 0 0;
#X connect 12 1 1 0;
#X connect 13 0 6 0;
#X connect 14 0 6 0;
#X connect 17 0 18 0;
#X connect 17 1 19 0;
#X connect 18 0 13 0;
#X connect 19 0 13 0;
#X connect 20 0 17 1;
#X restore 45 187 pd get_matrix;
#N canvas 454 392 491 402 \$0-decoder 0;
#X restore 32 40 pd \$0-decoder;
#N canvas 1091 263 893 552 contruct-decoder 0;
#X msg 266 54 clear;
#X obj 41 15 inlet;
#X obj 467 37 f \$0;
#X obj 428 14 t b l b b;
#X msg 99 3 11 8;
#X obj 266 74 s pd-\$0-decoder;
#X obj 425 151 s pd-\$0-decoder;
#X msg 426 125 connect 0 0 1 0;
#X obj 528 261 t f f b;
#X obj 392 341 t f f;
#X obj 390 399 pack 0 1;
#X obj 391 230 acre/count_until;
#X obj 393 314 * 1;
#X obj 528 431 pack 70 10 1 s;
#X obj 529 305 t f f;
#X obj 528 282 - 1;
#X obj 563 382 * 20;
#X obj 394 293 + -1;
#X obj 391 253 t f f;
#X obj 390 507 s pd-\$0-decoder;
#X obj 40 40 t l l l b;
#X obj 391 203 unpack 11 8;
#X msg 527 457 obj \$1 \$2 r~ \$4-\$3~;
#X obj 621 363 symbol \$3;
#X obj 559 331 % 8;
#X obj 528 382 * 11;
#X obj 563 404 + 10;
#X msg 467 62 obj 10 180 r \$1-decoder;
#X obj 528 404 + 40;
#X obj 424 365 + 1;
#X msg 392 457 connect \$1 0 1 \$2;
#X obj 394 371 + 2;
#X msg 448 101 obj 10 200 mtx_*~ \$2 \$1 50 _________________________________
;
#X obj 37 100 unpack 11 8;
#X obj 177 235 t f f b;
#X obj 41 291 t f f;
#X obj 41 351 pack 0 1;
#X obj 41 178 acre/count_until;
#X obj 41 269 * 1;
#X obj 177 381 pack 70 10 1 s;
#X obj 177 277 t f f;
#X obj 177 256 - 1;
#X obj 212 332 * 20;
#X obj 41 203 t f f;
#X obj 41 459 s pd-\$0-decoder;
#X obj 212 304 % 8;
#X obj 73 315 + 1;
#X obj 272 351 symbol \$4;
#X msg 176 407 obj \$1 \$2 throw~ \$4-\$3~;
#X obj 177 354 + 10;
#X obj 212 354 + 230;
#X msg 41 407 connect 1 \$1 \$2 0;
#X obj 41 243 + -1;
#X obj 41 321 + 0;
#X obj 106 294 + 2;
#X obj 177 332 * 13;
#X obj 272 10 inlet;
#X connect 0 0 5 0;
#X connect 1 0 20 0;
#X connect 2 0 27 0;
#X connect 3 0 7 0;
#X connect 3 1 32 0;
#X connect 3 2 2 0;
#X connect 4 0 20 0;
#X connect 7 0 6 0;
#X connect 8 0 15 0;
#X connect 8 1 13 2;
#X connect 8 2 23 0;
#X connect 9 0 31 0;
#X connect 9 1 29 0;
#X connect 10 0 30 0;
#X connect 11 0 18 0;
#X connect 11 0 54 0;
#X connect 12 0 9 0;
#X connect 13 0 22 0;
#X connect 14 0 25 0;
#X connect 14 1 24 0;
#X connect 15 0 14 0;
#X connect 16 0 26 0;
#X connect 17 0 12 0;
#X connect 18 0 17 0;
#X connect 18 1 8 0;
#X connect 20 0 33 0;
#X connect 20 1 21 0;
#X connect 20 2 3 0;
#X connect 20 3 0 0;
#X connect 21 0 11 0;
#X connect 22 0 19 0;
#X connect 23 0 13 3;
#X connect 24 0 16 0;
#X connect 25 0 28 0;
#X connect 26 0 13 1;
#X connect 27 0 6 0;
#X connect 28 0 13 0;
#X connect 29 0 10 1;
#X connect 30 0 19 0;
#X connect 31 0 10 0;
#X connect 32 0 6 0;
#X connect 33 1 37 0;
#X connect 34 0 41 0;
#X connect 34 1 39 2;
#X connect 34 2 47 0;
#X connect 35 0 53 0;
#X connect 35 1 46 0;
#X connect 36 0 51 0;
#X connect 37 0 43 0;
#X connect 38 0 35 0;
#X connect 39 0 48 0;
#X connect 40 0 55 0;
#X connect 40 1 45 0;
#X connect 41 0 40 0;
#X connect 42 0 50 0;
#X connect 43 0 52 0;
#X connect 43 1 34 0;
#X connect 45 0 42 0;
#X connect 46 0 36 1;
#X connect 47 0 39 3;
#X connect 48 0 44 0;
#X connect 49 0 39 0;
#X connect 50 0 39 1;
#X connect 51 0 44 0;
#X connect 52 0 38 0;
#X connect 53 0 36 0;
#X connect 54 0 46 1;
#X connect 55 0 49 0;
#X connect 56 0 0 0;
#X restore 148 146 pd contruct-decoder;
#X obj 42 118 pack 8 \$5;
#X obj 45 234 s \$0-decoder;
#X msg 42 152 zeros \$2 \$1;
#X obj 29 262 mtx_print decoder_matrix_\$1_\$2_\$3;
#X obj 280 94 bng 15 250 50 0 empty empty empty 17 7 0 10 -262144 -1
-1;
#X text 303 94 clear before save !;
#X obj 42 94 order2chls \$1 \$2;
#X obj 44 68 r /acre/amb/decinit;
#X text 273 262 (c) GPL - acre \, ritsch;
#X connect 0 0 6 0;
#X connect 0 0 8 0;
#X connect 2 0 0 0;
#X connect 5 0 7 0;
#X connect 5 0 4 0;
#X connect 9 0 4 1;
#X connect 11 0 5 0;
#X connect 12 0 11 0;
