#N canvas 779 388 498 300 10;
#X obj 42 183 mtx;
#X text 29 19 amb/decoder~ <dimen> <order> <ambibus ID> <out-id> <nr
outs>;
#N canvas 606 77 631 265 get_matrix 1;
#X obj 60 263 outlet;
#X msg 95 240 read decoder.mtx;
#X text 48 16 example Decoder matrix calc;
#X obj 61 47 r \$0-dc;
#X obj 382 24 bng 15 250 50 0 empty empty empty 17 7 0 10 -262144 -1
-1;
#X obj 382 44 i \$0;
#X obj 62 146 mtx;
#X msg 105 149 write decoder.mtx;
#X obj 61 171 mtx_print maxtrix;
#X text 70 75 <order> <dimen> loudspeaker> <phantom ls>;
#X obj 25 196 bng 15 250 50 0 empty empty empty 17 7 0 10 -262144 -1
-1;
#X obj 47 194 acre/initbang;
#X obj 25 216 t b b;
#X obj 63 123 round_zero 1e-06;
#X obj 62 102 ambi_decode3 5 2 8 0;
#X msg 382 68 \; \$1-dc ambi_weight 1 1 0.5 0 \; \$1-dc real_ls 1 0
\; \$1-dc real_ls 2 45 \; \$1-dc real_ls 3 90 \; \$1-dc real_ls 4 135
\; \$1-dc real_ls 5 180 \; \$1-dc real_ls 6 225 \; \$1-dc real_ls 7
270 \; \$1-dc real_ls 8 315 \; \$1-dc begin_pseudo_inverse \; \$1-dc
end_pseudo_inverse \;;
#X connect 1 0 0 0;
#X connect 3 0 14 0;
#X connect 4 0 5 0;
#X connect 5 0 15 0;
#X connect 6 0 8 0;
#X connect 7 0 6 0;
#X connect 10 0 12 0;
#X connect 11 0 12 0;
#X connect 12 0 0 0;
#X connect 12 1 1 0;
#X connect 13 0 6 0;
#X connect 14 0 13 0;
#X restore 87 177 pd get_matrix;
#N canvas 208 286 491 402 \$0-decoder 0;
#X obj 10 180 r 1110-decoder;
#X obj 10 200 mtx_*~ 8 11 50 _________________________________;
#X obj 40 10 r~ AMB1-1~;
#X obj 51 30 r~ AMB1-2~;
#X obj 62 50 r~ AMB1-3~;
#X obj 73 70 r~ AMB1-4~;
#X obj 84 90 r~ AMB1-5~;
#X obj 95 110 r~ AMB1-6~;
#X obj 106 130 r~ AMB1-7~;
#X obj 117 150 r~ AMB1-8~;
#X obj 128 10 r~ AMB1-9~;
#X obj 139 30 r~ AMB1-10~;
#X obj 150 50 r~ AMB1-11~;
#X obj 10 230 throw~ Out-1~;
#X obj 23 250 throw~ Out-2~;
#X obj 36 270 throw~ Out-3~;
#X obj 49 290 throw~ Out-4~;
#X obj 62 310 throw~ Out-5~;
#X obj 75 330 throw~ Out-6~;
#X obj 88 350 throw~ Out-7~;
#X obj 101 370 throw~ Out-8~;
#X connect 0 0 1 0;
#X connect 1 0 13 0;
#X connect 1 1 14 0;
#X connect 1 2 15 0;
#X connect 1 3 16 0;
#X connect 1 4 17 0;
#X connect 1 5 18 0;
#X connect 1 6 19 0;
#X connect 1 7 20 0;
#X connect 2 0 1 1;
#X connect 3 0 1 2;
#X connect 4 0 1 3;
#X connect 5 0 1 4;
#X connect 6 0 1 5;
#X connect 7 0 1 6;
#X connect 8 0 1 7;
#X connect 9 0 1 8;
#X connect 10 0 1 9;
#X connect 11 0 1 10;
#X connect 12 0 1 11;
#X restore 32 56 pd \$0-decoder;
#N canvas 384 53 893 552 contruct-decoder 0;
#X msg 151 20 clear;
#X obj 41 15 inlet;
#X obj 467 37 f \$0;
#X obj 428 14 t b l b b;
#X msg 99 3 11 8;
#X obj 151 40 s pd-\$0-decoder;
#X obj 425 151 s pd-\$0-decoder;
#X msg 426 125 connect 0 0 1 0;
#X obj 571 243 t f f b;
#X obj 435 323 t f f;
#X obj 433 381 pack 0 1;
#X obj 434 212 acre/count_until;
#X obj 435 301 * 1;
#X obj 571 413 pack 70 10 1 s;
#X obj 572 287 t f f;
#X obj 571 264 - 1;
#X obj 606 364 * 20;
#X obj 437 275 + -1;
#X obj 434 235 t f f;
#X obj 433 489 s pd-\$0-decoder;
#X obj 40 40 t l l l b;
#X obj 434 185 unpack 11 8;
#X msg 570 439 obj \$1 \$2 r~ \$4-\$3~;
#X obj 664 345 symbol \$3;
#X obj 602 313 % 8;
#X msg -6 7 48 32;
#X obj 571 364 * 11;
#X obj 606 386 + 10;
#X msg 467 62 obj 10 180 r \$1-decoder;
#X obj 571 386 + 40;
#X obj 467 347 + 1;
#X msg 435 439 connect \$1 0 1 \$2;
#X obj 437 353 + 2;
#X msg 448 101 obj 10 200 mtx_*~ \$2 \$1 50 _________________________________
;
#X obj 37 100 unpack 11 8;
#X obj 177 211 t f f b;
#X obj 41 291 t f f;
#X obj 39 349 pack 0 1;
#X obj 40 180 acre/count_until;
#X obj 41 269 * 1;
#X obj 177 381 pack 70 10 1 s;
#X obj 178 255 t f f;
#X obj 177 232 - 1;
#X obj 212 332 * 20;
#X obj 40 203 t f f;
#X obj 39 457 s pd-\$0-decoder;
#X obj 208 281 % 8;
#X obj 73 315 + 1;
#X obj 270 313 symbol \$4;
#X msg 176 407 obj \$1 \$2 throw~ \$4-\$3~;
#X obj 177 354 + 10;
#X obj 212 354 + 230;
#X msg 41 407 connect 1 \$1 \$2 0;
#X obj 43 243 + -1;
#X obj 43 321 + 0;
#X obj 106 294 + 2;
#X obj 177 332 * 13;
#X connect 0 0 5 0;
#X connect 1 0 20 0;
#X connect 2 0 28 0;
#X connect 3 0 7 0;
#X connect 3 1 33 0;
#X connect 3 2 2 0;
#X connect 4 0 20 0;
#X connect 7 0 6 0;
#X connect 8 0 15 0;
#X connect 8 1 13 2;
#X connect 8 2 23 0;
#X connect 9 0 32 0;
#X connect 9 1 30 0;
#X connect 10 0 31 0;
#X connect 11 0 18 0;
#X connect 11 0 55 0;
#X connect 12 0 9 0;
#X connect 13 0 22 0;
#X connect 14 0 26 0;
#X connect 14 1 24 0;
#X connect 15 0 14 0;
#X connect 16 0 27 0;
#X connect 17 0 12 0;
#X connect 18 0 17 0;
#X connect 18 1 8 0;
#X connect 20 0 34 0;
#X connect 20 1 21 0;
#X connect 20 2 3 0;
#X connect 20 3 0 0;
#X connect 21 0 11 0;
#X connect 22 0 19 0;
#X connect 23 0 13 3;
#X connect 24 0 16 0;
#X connect 25 0 20 0;
#X connect 26 0 29 0;
#X connect 27 0 13 1;
#X connect 28 0 6 0;
#X connect 29 0 13 0;
#X connect 30 0 10 1;
#X connect 31 0 19 0;
#X connect 32 0 10 0;
#X connect 33 0 6 0;
#X connect 34 1 38 0;
#X connect 35 0 42 0;
#X connect 35 1 40 2;
#X connect 35 2 48 0;
#X connect 36 0 54 0;
#X connect 36 1 47 0;
#X connect 37 0 52 0;
#X connect 38 0 44 0;
#X connect 39 0 36 0;
#X connect 40 0 49 0;
#X connect 41 0 56 0;
#X connect 41 1 46 0;
#X connect 42 0 41 0;
#X connect 43 0 51 0;
#X connect 44 0 53 0;
#X connect 44 1 35 0;
#X connect 46 0 43 0;
#X connect 47 0 37 1;
#X connect 48 0 40 3;
#X connect 49 0 45 0;
#X connect 50 0 40 0;
#X connect 51 0 40 1;
#X connect 52 0 45 0;
#X connect 53 0 39 0;
#X connect 54 0 37 0;
#X connect 55 0 47 1;
#X connect 56 0 50 0;
#X restore 148 146 pd contruct-decoder;
#X obj 42 118 pack 8 \$5;
#X obj 42 205 s \$0-decoder;
#X msg 42 152 zeros \$2 \$1;
#X obj 26 233 mtx_print decoder_matrix_\$1_\$2_\$3;
#X obj 42 94 order2chls \$1 \$2;
#X connect 0 0 6 0;
#X connect 0 0 8 0;
#X connect 2 0 0 0;
#X connect 5 0 7 0;
#X connect 5 0 4 0;
#X connect 7 0 0 0;
#X connect 9 0 5 0;
