#N canvas 700 213 498 300 10;
#X obj 45 212 mtx;
#X text 29 19 amb/decoder~ <dimen> <order> <ambibus ID> <out-id> <nr
outs>;
#N canvas 175 289 277 156 get_matrix 0;
#X obj 25 100 outlet;
#X msg 46 71 read decoder.mtx;
#X obj 24 26 bng 15 250 50 0 empty empty empty 17 7 0 10 -262144 -1
-1;
#X obj 24 46 t b b;
#X obj 46 24 inlet;
#X connect 1 0 0 0;
#X connect 2 0 3 0;
#X connect 3 0 0 0;
#X connect 3 1 1 0;
#X connect 4 0 3 0;
#X restore 45 187 pd get_matrix;
#N canvas 453 287 491 402 \$0-decoder 0;
#X obj 10 180 r 1364-decoder;
#X obj 10 200 mtx_*~ 13 16 50 _________________________________;
#X obj 40 10 r~ AMB1-1~;
#X obj 51 30 r~ AMB1-2~;
#X obj 62 50 r~ AMB1-3~;
#X obj 73 70 r~ AMB1-4~;
#X obj 84 90 r~ AMB1-5~;
#X obj 95 110 r~ AMB1-6~;
#X obj 106 130 r~ AMB1-7~;
#X obj 117 150 r~ AMB1-8~;
#X obj 128 10 r~ AMB1-9~;
#X obj 139 30 r~ AMB1-10~;
#X obj 150 50 r~ AMB1-11~;
#X obj 161 70 r~ AMB1-12~;
#X obj 172 90 r~ AMB1-13~;
#X obj 183 110 r~ AMB1-14~;
#X obj 194 130 r~ AMB1-15~;
#X obj 205 150 r~ AMB1-16~;
#X obj 10 230 throw~ Out-1~;
#X obj 23 250 throw~ Out-2~;
#X obj 36 270 throw~ Out-3~;
#X obj 49 290 throw~ Out-4~;
#X obj 62 310 throw~ Out-5~;
#X obj 75 330 throw~ Out-6~;
#X obj 88 350 throw~ Out-7~;
#X obj 101 370 throw~ Out-8~;
#X obj 114 230 throw~ Out-9~;
#X obj 127 250 throw~ Out-10~;
#X obj 140 270 throw~ Out-11~;
#X obj 153 290 throw~ Out-12~;
#X obj 166 310 throw~ Out-13~;
#X connect 0 0 1 0;
#X connect 1 0 18 0;
#X connect 1 1 19 0;
#X connect 1 2 20 0;
#X connect 1 3 21 0;
#X connect 1 4 22 0;
#X connect 1 5 23 0;
#X connect 1 6 24 0;
#X connect 1 7 25 0;
#X connect 1 8 26 0;
#X connect 1 9 27 0;
#X connect 1 10 28 0;
#X connect 1 11 29 0;
#X connect 1 12 30 0;
#X connect 2 0 1 1;
#X connect 3 0 1 2;
#X connect 4 0 1 3;
#X connect 5 0 1 4;
#X connect 6 0 1 5;
#X connect 7 0 1 6;
#X connect 8 0 1 7;
#X connect 9 0 1 8;
#X connect 10 0 1 9;
#X connect 11 0 1 10;
#X connect 12 0 1 11;
#X connect 13 0 1 12;
#X connect 14 0 1 13;
#X connect 15 0 1 14;
#X connect 16 0 1 15;
#X connect 17 0 1 16;
#X restore 32 40 pd \$0-decoder;
#N canvas 385 137 893 552 contruct-decoder 0;
#X msg 266 54 clear;
#X obj 41 15 inlet;
#X obj 467 37 f \$0;
#X obj 428 14 t b l b b;
#X msg 99 3 11 8;
#X obj 266 74 s pd-\$0-decoder;
#X obj 425 151 s pd-\$0-decoder;
#X msg 426 125 connect 0 0 1 0;
#X obj 528 261 t f f b;
#X obj 392 341 t f f;
#X obj 390 399 pack 0 1;
#X obj 391 230 acre/count_until;
#X obj 393 314 * 1;
#X obj 528 431 pack 70 10 1 s;
#X obj 529 305 t f f;
#X obj 528 282 - 1;
#X obj 563 382 * 20;
#X obj 394 293 + -1;
#X obj 391 253 t f f;
#X obj 390 507 s pd-\$0-decoder;
#X obj 40 40 t l l l b;
#X obj 391 203 unpack 11 8;
#X msg 527 457 obj \$1 \$2 r~ \$4-\$3~;
#X obj 621 363 symbol \$3;
#X obj 559 331 % 8;
#X obj 528 382 * 11;
#X obj 563 404 + 10;
#X msg 467 62 obj 10 180 r \$1-decoder;
#X obj 528 404 + 40;
#X obj 424 365 + 1;
#X msg 392 457 connect \$1 0 1 \$2;
#X obj 394 371 + 2;
#X msg 448 101 obj 10 200 mtx_*~ \$2 \$1 50 _________________________________
;
#X obj 37 100 unpack 11 8;
#X obj 177 235 t f f b;
#X obj 41 291 t f f;
#X obj 41 351 pack 0 1;
#X obj 41 178 acre/count_until;
#X obj 41 269 * 1;
#X obj 177 381 pack 70 10 1 s;
#X obj 177 277 t f f;
#X obj 177 256 - 1;
#X obj 212 332 * 20;
#X obj 41 203 t f f;
#X obj 41 459 s pd-\$0-decoder;
#X obj 212 304 % 8;
#X obj 73 315 + 1;
#X obj 272 351 symbol \$4;
#X msg 176 407 obj \$1 \$2 throw~ \$4-\$3~;
#X obj 177 354 + 10;
#X obj 212 354 + 230;
#X msg 41 407 connect 1 \$1 \$2 0;
#X obj 41 243 + -1;
#X obj 41 321 + 0;
#X obj 106 294 + 2;
#X obj 177 332 * 13;
#X obj 272 10 inlet;
#X connect 0 0 5 0;
#X connect 1 0 20 0;
#X connect 2 0 27 0;
#X connect 3 0 7 0;
#X connect 3 1 32 0;
#X connect 3 2 2 0;
#X connect 4 0 20 0;
#X connect 7 0 6 0;
#X connect 8 0 15 0;
#X connect 8 1 13 2;
#X connect 8 2 23 0;
#X connect 9 0 31 0;
#X connect 9 1 29 0;
#X connect 10 0 30 0;
#X connect 11 0 18 0;
#X connect 11 0 54 0;
#X connect 12 0 9 0;
#X connect 13 0 22 0;
#X connect 14 0 25 0;
#X connect 14 1 24 0;
#X connect 15 0 14 0;
#X connect 16 0 26 0;
#X connect 17 0 12 0;
#X connect 18 0 17 0;
#X connect 18 1 8 0;
#X connect 20 0 33 0;
#X connect 20 1 21 0;
#X connect 20 2 3 0;
#X connect 20 3 0 0;
#X connect 21 0 11 0;
#X connect 22 0 19 0;
#X connect 23 0 13 3;
#X connect 24 0 16 0;
#X connect 25 0 28 0;
#X connect 26 0 13 1;
#X connect 27 0 6 0;
#X connect 28 0 13 0;
#X connect 29 0 10 1;
#X connect 30 0 19 0;
#X connect 31 0 10 0;
#X connect 32 0 6 0;
#X connect 33 1 37 0;
#X connect 34 0 41 0;
#X connect 34 1 39 2;
#X connect 34 2 47 0;
#X connect 35 0 53 0;
#X connect 35 1 46 0;
#X connect 36 0 51 0;
#X connect 37 0 43 0;
#X connect 38 0 35 0;
#X connect 39 0 48 0;
#X connect 40 0 55 0;
#X connect 40 1 45 0;
#X connect 41 0 40 0;
#X connect 42 0 50 0;
#X connect 43 0 52 0;
#X connect 43 1 34 0;
#X connect 45 0 42 0;
#X connect 46 0 36 1;
#X connect 47 0 39 3;
#X connect 48 0 44 0;
#X connect 49 0 39 0;
#X connect 50 0 39 1;
#X connect 51 0 44 0;
#X connect 52 0 38 0;
#X connect 53 0 36 0;
#X connect 54 0 46 1;
#X connect 55 0 49 0;
#X connect 56 0 0 0;
#X restore 205 154 pd contruct-decoder;
#X obj 45 234 s \$0-decoder;
#X msg 162 187 zeros \$2 \$1;
#X obj 29 262 mtx_print decoder_matrix_\$1_\$2_\$3;
#X obj 280 94 bng 15 250 50 0 empty empty empty 17 7 0 10 -262144 -1
-1;
#X text 303 94 clear before save !;
#X obj 124 99 order2chls \$1 \$2;
#X obj 44 68 r /acre/amb/decinit;
#X text 273 262 (c) GPL - acre \, ritsch;
#X obj 45 154 t b b;
#X obj 129 119 pack 13 \$5;
#X obj 60 125 bng 15 250 50 0 empty empty empty 17 7 0 10 -262144 -1
-1;
#X connect 0 0 5 0;
#X connect 2 0 0 0;
#X connect 6 0 0 0;
#X connect 8 0 4 1;
#X connect 10 0 14 0;
#X connect 11 0 13 0;
#X connect 13 0 2 0;
#X connect 13 1 10 0;
#X connect 14 0 6 0;
#X connect 14 0 4 0;
#X connect 15 0 13 0;
