#N canvas 632 362 486 228 10;
#X obj 57 57 r /amb/\$1/azimuth;
#X obj 277 55 r /amb/\$1/dist;
#X obj 57 207 outlet;
#X obj 57 182 ambi_encode \$2;
#X text 27 37 amb/encode3D <order> <ch-id>;
#X obj 80 90 r /amb/\$1/elevation;
#X obj 80 112 t b f;
#X obj 59 141 pack 0 0;
#X text 276 113 to be implemented;
#X obj 277 81 amb/weight \$1 \$2;
#X connect 0 0 7 0;
#X connect 1 0 9 0;
#X connect 3 0 2 0;
#X connect 5 0 6 0;
#X connect 6 0 7 0;
#X connect 6 1 7 1;
#X connect 7 0 3 0;
#X connect 9 0 3 0;
