#N canvas 835 607 486 228 10;
#X obj 57 57 r /amb/\$1/azimuth;
#X obj 276 33 r /amb/\$1/dist;
#X obj 57 207 outlet;
#X obj 277 81 pp ambi_weight;
#N canvas 4 54 450 300 scale 0;
#X obj 45 36 inlet;
#X obj 42 184 outlet;
#X obj 45 58 min 1;
#X obj 45 80 max 0;
#X text 55 98 0..1;
#X text 47 156 list of weights;
#X connect 0 0 2 0;
#X connect 2 0 3 0;
#X restore 278 59 pd scale;
#X obj 57 182 ambi_encode \$2;
#X text 27 37 amb/encode3D <order> <ch-id>;
#X obj 80 90 r /amb/\$1/elevation;
#X obj 80 112 t b f;
#X obj 59 141 pack 0 0;
#X connect 0 0 9 0;
#X connect 3 0 5 0;
#X connect 5 0 2 0;
#X connect 7 0 8 0;
#X connect 8 0 9 0;
#X connect 8 1 9 1;
#X connect 9 0 5 0;
