#N canvas 828 223 450 300 10;
#X obj 141 93 encode\$2 \$1 \$3;
#X text 32 31 amb/encode~ <ch id> <dimen> <order> <ambisonic bus ID>
;
#N canvas 185 749 491 298 \$0-encode 0;
#X obj 200 5 r~ 1124-encode~;
#X obj 10 5 r 1124-encode;
#X obj 10 30 mtx_*~ 16 1 50 __________________________________;
#X obj 10 50 throw~ AMB1-1~;
#X obj 20 70 throw~ AMB1-2~;
#X obj 30 90 throw~ AMB1-3~;
#X obj 40 110 throw~ AMB1-4~;
#X obj 50 130 throw~ AMB1-5~;
#X obj 60 150 throw~ AMB1-6~;
#X obj 70 170 throw~ AMB1-7~;
#X obj 80 190 throw~ AMB1-8~;
#X obj 90 210 throw~ AMB1-9~;
#X obj 100 230 throw~ AMB1-10~;
#X obj 110 250 throw~ AMB1-11~;
#X obj 120 270 throw~ AMB1-12~;
#X obj 130 290 throw~ AMB1-13~;
#X obj 140 310 throw~ AMB1-14~;
#X obj 150 330 throw~ AMB1-15~;
#X obj 160 350 throw~ AMB1-16~;
#X connect 0 0 2 1;
#X connect 1 0 2 0;
#X connect 2 0 3 0;
#X connect 2 1 4 0;
#X connect 2 2 5 0;
#X connect 2 3 6 0;
#X connect 2 4 7 0;
#X connect 2 5 8 0;
#X connect 2 6 9 0;
#X connect 2 7 10 0;
#X connect 2 8 11 0;
#X connect 2 9 12 0;
#X connect 2 10 13 0;
#X connect 2 11 14 0;
#X connect 2 12 15 0;
#X connect 2 13 16 0;
#X connect 2 14 17 0;
#X connect 2 15 18 0;
#X restore 31 185 pd \$0-encode;
#X floatatom 280 113 5 0 0 0 - - -, f 5;
#N canvas 447 200 835 463 contruct-ambibus 0;
#X msg 151 20 clear;
#X obj 175 204 t f f b;
#X obj 39 238 t f f;
#X obj 41 15 inlet;
#X obj 37 296 pack 0 1;
#X obj 37 404 s pd-\$0-encode;
#X obj 151 40 s pd-\$0-encode;
#X obj 38 127 acre/count_until;
#X obj 282 209 s pd-\$0-encode;
#X obj 40 40 t f f b;
#X msg 305 159 obj 10 30 mtx_*~ \$1 1 50 __________________________________
;
#X obj 39 216 * 1;
#X msg 174 354 obj \$1 \$2 throw~ \$4-\$3~;
#X obj 175 328 pack 70 10 1 s;
#X obj 269 259 symbol \$4;
#X obj 176 248 t f f;
#X obj 175 301 + 10;
#X obj 175 225 - 1;
#X obj 210 301 + 50;
#X obj 210 279 * 20;
#X obj 41 190 + -1;
#X obj 175 279 * 10;
#X obj 38 150 t f f;
#X obj 283 61 t b f b b;
#X obj 71 262 + 3;
#X msg 39 354 connect 2 \$1 \$2 0;
#X msg 283 183 connect 1 0 2 0 \, connect 0 0 2 1;
#X msg 7 15 5;
#X obj 357 80 f \$0;
#X msg 356 101 obj 200 5 r~ \$1-encode~;
#X msg 322 129 obj 10 5 r \$1-encode;
#X obj 321 99 f \$0;
#X obj 322 16 inlet;
#X connect 0 0 6 0;
#X connect 1 0 17 0;
#X connect 1 1 13 2;
#X connect 1 2 14 0;
#X connect 2 0 4 0;
#X connect 2 1 24 0;
#X connect 3 0 9 0;
#X connect 4 0 25 0;
#X connect 7 0 22 0;
#X connect 9 0 7 0;
#X connect 9 1 23 0;
#X connect 9 2 0 0;
#X connect 10 0 8 0;
#X connect 11 0 2 0;
#X connect 12 0 5 0;
#X connect 13 0 12 0;
#X connect 14 0 13 3;
#X connect 15 0 21 0;
#X connect 15 1 19 0;
#X connect 16 0 13 0;
#X connect 17 0 15 0;
#X connect 18 0 13 1;
#X connect 19 0 18 0;
#X connect 20 0 11 0;
#X connect 21 0 16 0;
#X connect 22 0 20 0;
#X connect 22 1 1 0;
#X connect 23 0 26 0;
#X connect 23 1 10 0;
#X connect 23 2 31 0;
#X connect 23 3 28 0;
#X connect 24 0 4 1;
#X connect 25 0 5 0;
#X connect 26 0 8 0;
#X connect 27 0 9 0;
#X connect 28 0 29 0;
#X connect 29 0 8 0;
#X connect 30 0 8 0;
#X connect 31 0 30 0;
#X connect 32 0 0 0;
#X restore 280 134 pd contruct-ambibus;
#X obj 32 102 inlet~;
#X msg 169 135 zeros \$1 1;
#X obj 140 162 mtx;
#X obj 32 124 s~ \$0-encode~;
#X obj 140 184 s \$0-encode;
#X obj 265 175 bng 15 250 50 0 empty empty clear 17 7 0 10 -262144
-1 -1;
#X text 322 177 before save !;
#X obj 279 67 r /acre/amb/encinit;
#X obj 280 91 amb/order2chls \$2 \$3;
#X connect 0 0 7 0;
#X connect 3 0 4 0;
#X connect 3 0 6 0;
#X connect 5 0 8 0;
#X connect 6 0 7 0;
#X connect 7 0 9 0;
#X connect 10 0 4 1;
#X connect 12 0 13 0;
#X connect 13 0 3 0;
