#N canvas 212 274 486 228 10;
#X text 37 16 amb/encode2D <order> <ch-id>;
#X obj 35 93 r /amb/\$1/azimuth;
#X obj 190 52 r /amb/\$1/dist;
#X obj 35 154 outlet;
#X obj 35 129 ambi_encode \$2;
#X text 307 113 To Be implemented !;
#X obj 185 111 amb/weight \$1 \$2;
#X connect 1 0 4 0;
#X connect 2 0 6 0;
#X connect 4 0 3 0;
#X connect 6 0 4 0;
