#N canvas 833 605 486 228 10;
#X text 27 37 amb/encode2D <order> <ch-id>;
#X obj 126 71 r /amb/\$1/azimuth;
#X obj 276 33 r /amb/\$1/dist;
#X floatatom 65 72 5 0 0 0 - - -, f 5;
#X obj 126 132 outlet;
#X obj 277 81 pp ambi_weight;
#N canvas 4 54 450 300 scale 0;
#X obj 45 36 inlet;
#X obj 42 184 outlet;
#X obj 45 58 min 1;
#X obj 45 80 max 0;
#X text 55 98 0..1;
#X text 47 156 list of weights;
#X connect 0 0 2 0;
#X connect 2 0 3 0;
#X restore 278 59 pd scale;
#X obj 126 107 ambi_encode \$2;
#X connect 1 0 7 0;
#X connect 3 0 7 0;
#X connect 5 0 7 0;
#X connect 7 0 4 0;
