#N canvas 513 120 450 300 10;
#X declare -lib iemlib1;
#X declare -lib zexy;
#X declare -stdpath iemlib;
#X declare -lib iemlib2;
#X declare -lib iemmatrix;
#X declare -lib iem_ambi;
#X declare -lib iem_bin_ambi;
#X declare -path ../;
#X text 22 8 Example 3.Ordnung Ambisonics Mixer;
#N canvas 177 388 599 300 init 0;
#X obj 45 32 loadbang;
#X msg 45 54 \; /mxr/dsp 1 \; /mxr/fadetime 30 \;;
#X msg 215 60 \; /test/program/load symbol ../mxr/mxr.txt \; /test/program/nr
0 \; /test/program/recall bang;
#X connect 0 0 1 0;
#X restore 23 22 pd init;
#N canvas 680 160 303 273 declares 0;
#X obj 18 58 declare -lib iemlib1;
#X obj 18 111 declare -lib zexy;
#X obj 18 94 declare -stdpath iemlib;
#X text 33 30 for acre;
#X text 38 141 for amb;
#X obj 17 75 declare -lib iemlib2;
#X obj 20 164 declare -lib iemmatrix;
#X text 41 210 for binaural tools;
#X obj 17 190 declare -lib iem_ambi;
#X obj 17 238 declare -lib iem_bin_ambi;
#X restore 22 42 pd declares;
#X obj 18 86 declare -path ../;
#X text 16 66 patch should work in parent dir;
#N canvas 1195 163 450 300 GUI 0;
#X obj 128 16 mxr/test/tones_ctl 1;
#X obj 21 16 mxr/master/ctl;
#X obj 71 219 amb/outs_ctl BOXEN 13 Out;
#X obj 21 219 amb/bus_ctl~ 2D 5 AMB1;
#X restore 294 21 pd GUI;
#X obj 23 125 mxr/test/tones~ 1;
#X obj 21 252 mxr/master/master~;
#X obj 21 226 amb/outs BOXEN 13 Out;
#X obj 22 147 amb/encode~ ch1 2D 5 AMB1;
#X obj 20 172 amb/bus~ 2D 5 AMB1;
#X obj 22 198 amb/decoder~ 2D 5 AMB1 Out 8;
#X obj 290 144 amb/encode3D;
#X connect 6 0 9 0;
