#N canvas 387 79 450 300 10;
#X declare -lib iemlib1;
#X declare -lib zexy;
#X declare -stdpath iemlib;
#X declare -lib iemlib2;
#X declare -lib iemmatrix;
#X declare -lib iem_ambi;
#X declare -lib iem_bin_ambi;
#X declare -path ../;
#X text 22 8 Example 3.Ordnung Ambisonics Mixer;
#N canvas 177 388 599 300 init 0;
#X obj 45 32 loadbang;
#X msg 45 54 \; /mxr/dsp 1 \; /mxr/fadetime 30 \;;
#X msg 215 60 \; /test/program/load symbol ../mxr/mxr.txt \; /test/program/nr
0 \; /test/program/recall bang;
#X connect 0 0 1 0;
#X restore 23 22 pd init;
#N canvas 680 160 303 273 declares 0;
#X obj 18 58 declare -lib iemlib1;
#X obj 18 111 declare -lib zexy;
#X obj 18 94 declare -stdpath iemlib;
#X text 33 30 for acre;
#X text 38 141 for amb;
#X obj 17 75 declare -lib iemlib2;
#X obj 20 164 declare -lib iemmatrix;
#X text 41 210 for binaural tools;
#X obj 17 190 declare -lib iem_ambi;
#X obj 17 238 declare -lib iem_bin_ambi;
#X restore 22 42 pd declares;
#X obj 18 86 declare -path ../;
#X text 16 66 patch should work in parent dir;
#N canvas 841 143 450 300 GUI 1;
#X obj 128 16 mxr/test/tones_ctl 1;
#X obj 129 225 mxr/out/ctl O1;
#X obj 21 16 mxr/master/ctl;
#X restore 294 21 pd GUI;
#X obj 23 125 mxr/test/tones~ 1;
#X obj 38 247 dac~ 3;
#X obj 23 178 mxr/master/master~;
#X obj 23 147 throw~ Out1~;
#X obj 225 128 amb/outs BOXEN 5 Out;
#X obj 22 211 mxr/out/ch~ Out1;
#X connect 6 0 9 0;
#X connect 11 0 7 0;
