#N canvas 286 67 738 334 10;
#X declare -lib iemlib1;
#X declare -lib zexy;
#X declare -stdpath iemlib;
#X declare -lib iemlib2;
#X declare -lib iemmatrix;
#X declare -lib iem_ambi;
#X declare -lib iem_bin_ambi;
#X declare -path iemlib;
#X declare -path ..;
#X text 22 8 Example 3.Ordnung Ambisonics Mixer;
#N canvas 382 100 634 244 init 1;
#X msg 44 115 \; pd-GUI vis 1;
#X obj 45 32 acre/initbang;
#X obj 44 93 r second_init;
#X obj 217 10 acre/initbang;
#X msg 45 54 \; /mxr/fadetime 30 \;;
#X obj 347 17 bng 15 250 50 0 empty empty empty 17 7 0 10 -262144 -1
-1;
#X obj 241 100 amb/initbangs;
#X text 324 61 save inits for multichannels;
#X obj 217 45 t b b;
#X msg 218 137 \; /set/program/load symbol ../amb/example.txt \; /set/program/nr
0 \; /set/program/recall bang;
#X connect 1 0 4 0;
#X connect 2 0 0 0;
#X connect 3 0 8 0;
#X connect 5 0 6 0;
#X connect 8 0 9 0;
#X connect 8 1 6 0;
#X restore 23 22 pd init;
#N canvas 567 198 303 290 declares 0;
#X obj 18 58 declare -lib iemlib1;
#X obj 18 111 declare -lib zexy;
#X obj 18 94 declare -stdpath iemlib;
#X text 33 30 for acre;
#X text 38 141 for amb;
#X obj 17 75 declare -lib iemlib2;
#X obj 20 164 declare -lib iemmatrix;
#X text 41 210 for binaural tools;
#X obj 17 190 declare -lib iem_ambi;
#X obj 17 238 declare -lib iem_bin_ambi;
#X obj 20 8 declare -path iemlib;
#X restore 22 42 pd declares;
#X text 16 66 patch should work in parent dir;
#N canvas 230 111 763 508 GUI 0;
#X obj 250 14 mxr/test/tones_ctl 1;
#X obj 21 16 mxr/master/ctl;
#X obj 121 16 mxr/mo/ctl;
#X obj 512 137 tgl 15 0 /tt/monitor/send /tt/monitor/send TT 17 7 0
10 -257985 -1 -1 0 1;
#X obj 266 231 nbx 3 14 -1e+37 1e+37 0 0 /amb/ch1/azimuth /amb/ch1/azimuth
/amb/ch1/azimuth 0 -8 0 10 -262144 -1 -1 317 256;
#X obj 383 21 ds/ctl /set;
#X obj 514 177 amb/bus_ctl~ 3D 3 AMB1;
#X obj 19 255 amb/out_ctl /out-1;
#X obj 69 255 amb/out_ctl /out-2;
#X obj 119 255 amb/out_ctl /out-3;
#X obj 169 255 amb/out_ctl /out-4;
#X obj 219 255 amb/out_ctl /out-5;
#X obj 269 255 amb/out_ctl /out-6;
#X obj 319 255 amb/out_ctl /out-7;
#X obj 369 255 amb/out_ctl /out-8;
#X obj 419 255 amb/out_ctl /out-9;
#X obj 469 255 amb/out_ctl /out-10;
#X obj 519 255 amb/out_ctl /out-11;
#X obj 569 255 amb/out_ctl /out-12;
#X obj 619 255 amb/out_ctl /out-13;
#X obj 669 255 amb/out_ctl /out-14;
#X obj 361 235 nbx 3 14 -1e+37 1e+37 0 0 /amb/ch1/elevation /amb/ch1/elevation
/amb/ch1/elevation 0 -8 0 10 -262144 -1 -1 28 256;
#X restore 294 21 pd GUI;
#X obj 298 86 mxr/test/tones~ 1;
#X obj 11 287 mxr/master/master~;
#X obj 172 269 mxr/mo/master~;
#X obj 323 113 mxr/mo/send~ /tt;
#X text 162 142 1 Make a bus;
#X text 10 225 --- Out Kanaele (DACs) und Monitor ---;
#X text 18 114 --- Ambisonics Bus AMB1/Decoder ---;
#X obj 18 86 declare -path ..;
#X obj 306 268 ds/storage_logic /set;
#X obj 479 135 amb/encode_ds /set ch1;
#X obj 16 138 amb/bus~ 3D 3 AMB1;
#X obj 499 13 bng 15 250 50 0 /acre/amb/initbang /acre/amb/initbang
REINIT 17 7 0 10 -262144 -1 -1;
#X obj 11 268 amb/outs BOXEN 14 /out;
#X text 15 246 13 Boxen + SUB;
#X obj 306 291 amb/outs_ds BOXEN 14 /out /set;
#X obj 297 135 amb/encode~ ch1 3D 3 AMB1;
#X obj 15 164 amb/decoder~ 3D 3 AMB1 /out 13;
#X obj 172 288 throw~ /out-3~;
#X obj 489 44 calibrate BOXEN 13 /out;
#X connect 5 0 8 0;
#X connect 5 0 20 0;
#X connect 7 0 22 0;
