#N canvas 488 596 738 334 10;
#X declare -lib iemlib1;
#X declare -lib zexy;
#X declare -stdpath iemlib;
#X declare -lib iemlib2;
#X declare -lib iemmatrix;
#X declare -lib iem_ambi;
#X declare -lib iem_bin_ambi;
#X declare -path iemlib;
#X declare -path ..;
#X text 22 8 Example 3.Ordnung Ambisonics Mixer;
#N canvas 1471 279 842 400 init 0;
#X msg 44 115 \; pd-GUI vis 1;
#X obj 45 32 acre/initbang;
#X obj 44 93 r second_init;
#X obj 217 10 acre/initbang;
#X msg 45 54 \; /mxr/fadetime 30 \;;
#X obj 347 17 bng 15 250 50 0 empty empty empty 17 7 0 10 -262144 -1
-1;
#X obj 241 100 amb/initbangs;
#X text 324 61 save inits for multichannels;
#X obj 217 45 t b b;
#X msg 218 137 \; /set/program/load symbol ../amb/example.txt \; /set/program/nr
0 \; /set/program/recall bang;
#X connect 1 0 4 0;
#X connect 2 0 0 0;
#X connect 3 0 8 0;
#X connect 5 0 6 0;
#X connect 8 0 9 0;
#X connect 8 1 6 0;
#X restore 23 22 pd init;
#N canvas 567 198 303 290 declares 0;
#X obj 18 58 declare -lib iemlib1;
#X obj 18 111 declare -lib zexy;
#X obj 18 94 declare -stdpath iemlib;
#X text 33 30 for acre;
#X text 38 141 for amb;
#X obj 17 75 declare -lib iemlib2;
#X obj 20 164 declare -lib iemmatrix;
#X text 41 210 for binaural tools;
#X obj 17 190 declare -lib iem_ambi;
#X obj 17 238 declare -lib iem_bin_ambi;
#X obj 20 8 declare -path iemlib;
#X restore 22 42 pd declares;
#X text 16 66 patch should work in parent dir;
#N canvas 882 181 1029 421 GUI 1;
#X obj 250 14 mxr/test/tones_ctl 1;
#X obj 21 16 mxr/master/ctl;
#X obj 121 16 mxr/mo/ctl;
#X obj 143 244 tgl 15 0 /tt/monitor/send /tt/monitor/send TT 17 7 0
10 -257985 -1 -1 0 1;
#X obj 266 231 nbx 3 14 -1e+37 1e+37 0 0 /amb/ch1/azimuth /amb/ch1/azimuth
/amb/ch1/azimuth 0 -8 0 10 -262144 -1 -1 0 256;
#X obj 19 219 bus_ctl~ 2D 3 AMB1;
#X obj 71 219 amb/outs_ctl BOXEN 13 /out;
#X obj 383 21 ds/ctl /set;
#X restore 294 21 pd GUI;
#X obj 298 86 mxr/test/tones~ 1;
#X obj 11 287 mxr/master/master~;
#X obj 172 269 mxr/mo/master~;
#X obj 171 288 throw~ Out-3~;
#X obj 323 113 mxr/mo/send~ /tt;
#X text 165 166 1 Make a bus;
#X text 7 250 --- Out Kanaele (DACs) und Monitor ---;
#X text 18 114 --- Ambisonics Bus AMB1/Decoder ---;
#X obj 299 57 calibrate BOXEN 8 Out;
#X obj 13 165 amb/bus~ 2D 3 AMB1;
#X obj 17 189 amb/decoder~ 2D 3 AMB1 Out 8;
#X obj 297 135 amb/encode~ ch1 2D 3 AMB1;
#X obj 18 86 declare -path ..;
#X obj 11 268 amb/outs BOXEN 13 /out;
#X obj 306 291 amb/outs_ds BOXEN 13 /out /set;
#X obj 306 268 ds/storage_logic /set;
#X obj 479 135 amb/encode_ds /set ch1;
#X connect 5 0 9 0;
#X connect 5 0 16 0;
#X connect 7 0 8 0;
