#N canvas 828 325 450 364 10;
#X obj 50 187 route 2D 3D;
#X obj 191 242 i 3;
#X obj 53 241 i 5;
#X obj 53 263 * 2;
#X obj 53 285 + 1;
#X obj 53 307 outlet;
#X obj 191 264 + 1;
#X obj 191 286 pow 2;
#X obj 50 75 inlet type;
#X obj 135 74 inlet order;
#X text 50 46 inlet list <type 2D|3D> <order> or only <type>;
#X obj 251 101 symbol \$1;
#X obj 251 127 pack s \$2;
#X obj 253 68 loadbang;
#X text 62 19 amb/order2chls [type 2D|3D] [order];
#X obj 251 153 list trim;
#X text 87 253 2n+1;
#X text 227 253 (n+1)²;
#X connect 0 0 2 0;
#X connect 0 1 1 0;
#X connect 1 0 6 0;
#X connect 2 0 3 0;
#X connect 3 0 4 0;
#X connect 4 0 5 0;
#X connect 6 0 7 0;
#X connect 7 0 5 0;
#X connect 8 0 0 0;
#X connect 9 0 2 1;
#X connect 9 0 1 1;
#X connect 11 0 12 0;
#X connect 12 0 15 0;
#X connect 13 0 11 0;
#X connect 15 0 0 0;
