#N canvas 440 562 450 300 10;
#X msg 73 74 2D 5;
#X msg 186 84 2D;
#X msg 233 86 3D;
#X floatatom 198 151 5 0 0 0 - - -, f 5;
#X msg 129 79 3D 9;
#X obj 80 189 order2chls 2D 4;
#X floatatom 80 211 5 0 0 0 - - -, f 5;
#X text 61 26 calculates channel count from order;
#X connect 0 0 5 0;
#X connect 1 0 5 0;
#X connect 2 0 5 0;
#X connect 3 0 5 1;
#X connect 4 0 5 0;
#X connect 5 0 6 0;
