#N canvas 843 410 450 364 10;
#X obj 49 267 * 2;
#X obj 49 289 + 1;
#X obj 49 311 outlet;
#X obj 128 270 + 1;
#X obj 128 292 pow 2;
#X obj 51 82 inlet type;
#X obj 208 106 inlet order;
#X text 86 282 2n+1;
#X text 164 259 (n+1)²;
#X obj 49 216 route 2D 3D bang;
#X text 50 46 inlet list <type 2D|3D> <order> || <type> || bang;
#X text 68 69 initialize with or bang it;
#X obj 128 248 i \$2;
#X obj 49 245 i \$2;
#X text 62 19 amb/order2chls <type 2D|3D> <order>;
#X msg 62 190 3D;
#X obj 75 112 loadbang;
#X obj 66 136 symbol \$1;
#X msg 59 162 set \$1;
#X connect 0 0 1 0;
#X connect 1 0 2 0;
#X connect 3 0 4 0;
#X connect 4 0 2 0;
#X connect 5 0 9 0;
#X connect 5 0 17 0;
#X connect 6 0 12 1;
#X connect 6 0 13 1;
#X connect 9 0 13 0;
#X connect 9 1 12 0;
#X connect 9 2 15 0;
#X connect 12 0 3 0;
#X connect 13 0 0 0;
#X connect 15 0 9 0;
#X connect 16 0 17 0;
#X connect 17 0 18 0;
#X connect 18 0 15 0;
