#N canvas 745 376 654 300 10;
#X text 86 24 (c) GPL \, acre - winfried ritsch;
#N canvas 182 769 742 247 \$0-gui 0;
#X text 0 10 out;
#X coords 48 85 770 225 0 0 0;
#X restore 195 110 pd \$0-gui;
#N canvas 380 379 668 291 contruct-outs 0;
#X obj 59 40 bng 15 250 50 0 empty empty empty 17 7 0 10 -262144 -1
-1;
#X obj 37 64 t b b;
#X obj 41 15 inlet;
#X obj 40 187 pack 10 1 s;
#X obj 111 158 symbol \$3;
#X obj 36 242 s pd-\$0-gui;
#X obj 36 159 * 50;
#X obj 36 114 t f f b;
#X obj 158 24 inlet;
#X obj 36 137 - 1;
#X obj 38 90 acre/count_until \$2;
#X obj 153 110 symbol \$3;
#X msg 38 215 obj \$1 10 amb/out_ctl /amb/\$3/\$2 \$3/\$2;
#X msg 150 132 clear \, text 0 10 \$1;
#X connect 0 0 1 0;
#X connect 1 0 10 0;
#X connect 1 1 11 0;
#X connect 2 0 1 0;
#X connect 3 0 12 0;
#X connect 4 0 3 2;
#X connect 6 0 3 0;
#X connect 7 0 9 0;
#X connect 7 1 3 1;
#X connect 7 2 4 0;
#X connect 8 0 11 0;
#X connect 9 0 6 0;
#X connect 10 0 7 0;
#X connect 11 0 13 0;
#X connect 12 0 5 0;
#X connect 13 0 5 0;
#X restore 274 199 pd contruct-outs;
#X obj 315 172 bng 15 250 50 0 empty empty empty 17 7 0 10 -262144
-1 -1;
#X obj 101 101 cnv 25 48 48 empty empty \$1 2 7 0 8 -228856 -66577
0;
#X msg 134 193 \; pd-\$2-gui vis \$1;
#X obj 134 171 pack 0 \$0;
#X obj 109 116 tgl 25 0 empty empty V 8 13 0 14 -262130 -1 -1 1 1;
#X text 93 58 amb/outs_ctl <ID> <nr of outs> <out-id>;
#X obj 282 236 bng 15 250 50 0 empty empty empty 17 7 0 10 -262144
-1 -1;
#X text 302 232 Clear before save;
#X obj 273 148 r /amb/guiinit;
#X connect 3 0 2 0;
#X connect 6 0 5 0;
#X connect 7 0 6 0;
#X connect 9 0 2 1;
#X connect 11 0 2 0;
#X coords 0 -1 1 1 50 50 2 100 100;
