#N canvas 728 130 665 320 10;
#X text 33 11 amb/outs <ID> <nr channels> <ID out receives>;
#N canvas 194 566 680 239 \$0-dsp 0;
#X restore 45 103 pd \$0-dsp;
#N canvas 774 466 516 291 contruct-outs 0;
#X msg 154 70 clear;
#X obj 59 40 bng 15 250 50 0 empty empty empty 17 7 0 10 -262144 -1
-1;
#X obj 37 64 t b b;
#X obj 41 15 inlet;
#X obj 154 95 s pd-\$0-dsp-outs;
#X obj 30 258 s pd-\$0-dsp-outs;
#X obj 34 203 pack 10 1 s;
#X obj 105 174 symbol \$3;
#X obj 36 150 t f f b;
#X obj 31 174 * 20;
#X msg 32 231 obj 10 \$1 amb/out~ \$3-\$2;
#X obj 35 93 i \$2;
#X obj 35 115 acre/count_until;
#X obj 179 16 inlet;
#X connect 0 0 4 0;
#X connect 1 0 2 0;
#X connect 2 0 11 0;
#X connect 2 1 0 0;
#X connect 3 0 2 0;
#X connect 6 0 10 0;
#X connect 7 0 6 2;
#X connect 8 0 9 0;
#X connect 8 1 6 1;
#X connect 8 2 7 0;
#X connect 9 0 6 0;
#X connect 10 0 5 0;
#X connect 11 0 12 0;
#X connect 12 0 8 0;
#X connect 13 0 0 0;
#X restore 207 135 pd contruct-outs;
#N canvas 634 166 644 423 contruct-dacs 0;
#X msg 113 43 clear;
#X obj 38 130 t b f f f;
#X obj 59 40 bng 15 250 50 0 empty empty empty 17 7 0 10 -262144 -1
-1;
#X obj 37 64 t b b;
#X obj 116 63 s pd-\$0-dsp;
#X obj 323 337 s pd-\$0-dsp;
#X obj 419 201 symbol \$3;
#X obj 325 109 t f f b;
#X obj 183 323 s pd-\$0-dsp;
#X obj 191 146 t f f;
#X obj 34 338 s pd-\$0-dsp;
#X obj 35 184 * 2;
#X obj 35 206 t f f;
#X obj 56 239 + 1;
#X msg 33 305 connect \$1 0 \$2 0;
#X obj 36 158 - 1;
#X obj 41 15 inlet;
#X obj 33 264 pack 0 1;
#X obj 190 272 pack 10 50 1;
#X msg 185 296 obj \$1 \$2 dac~ \$3;
#X obj 325 283 pack 10 10 1 s;
#X msg 323 310 obj \$1 \$2 r~ \$4-\$3~;
#X obj 323 220 % 8;
#X obj 358 198 / 8;
#X obj 361 259 + 10;
#X obj 360 239 * 80;
#X obj 188 218 % 8;
#X obj 231 176 / 8;
#X obj 234 245 + 50;
#X obj 358 220 i;
#X floatatom 451 280 5 0 0 0 - - -, f 5;
#X obj 231 198 i;
#X obj 231 220 * 80;
#X obj 323 152 - 1;
#X obj 323 174 t f f;
#X obj 182 173 - 1;
#X obj 182 195 t f f;
#X obj 190 241 * 80;
#X obj 323 258 * 80;
#X obj 40 88 i \$2;
#X obj 40 107 acre/count_until;
#X obj 255 23 inlet;
#X connect 0 0 4 0;
#X connect 1 1 15 0;
#X connect 1 2 9 0;
#X connect 1 3 7 0;
#X connect 2 0 3 0;
#X connect 3 0 39 0;
#X connect 3 1 0 0;
#X connect 6 0 20 3;
#X connect 7 0 33 0;
#X connect 7 1 20 2;
#X connect 7 2 6 0;
#X connect 9 0 35 0;
#X connect 9 1 18 2;
#X connect 11 0 12 0;
#X connect 12 0 17 0;
#X connect 12 1 13 0;
#X connect 13 0 17 1;
#X connect 14 0 10 0;
#X connect 15 0 11 0;
#X connect 16 0 3 0;
#X connect 17 0 14 0;
#X connect 18 0 19 0;
#X connect 19 0 8 0;
#X connect 20 0 21 0;
#X connect 21 0 5 0;
#X connect 22 0 38 0;
#X connect 23 0 29 0;
#X connect 24 0 20 1;
#X connect 24 0 30 0;
#X connect 25 0 24 0;
#X connect 26 0 37 0;
#X connect 27 0 31 0;
#X connect 28 0 18 1;
#X connect 29 0 25 0;
#X connect 31 0 32 0;
#X connect 32 0 28 0;
#X connect 33 0 34 0;
#X connect 34 0 22 0;
#X connect 34 1 23 0;
#X connect 35 0 36 0;
#X connect 36 0 26 0;
#X connect 36 1 27 0;
#X connect 37 0 18 0;
#X connect 38 0 20 0;
#X connect 39 0 40 0;
#X connect 40 0 1 0;
#X connect 41 0 0 0;
#X restore 185 164 pd contruct-dacs;
#N canvas 55 526 241 521 \$0-dsp-outs 0;
#X restore 42 65 pd \$0-dsp-outs;
#X obj 251 87 bng 15 250 50 0 empty empty empty 17 7 0 10 -262144 -1
-1;
#X obj 181 108 t b b b;
#X obj 303 83 bng 15 250 50 0 empty empty empty 17 7 0 10 -262144 -1
-1;
#X text 322 83 clear before save !;
#X obj 183 60 r /acre/amb/encinit;
#X obj 117 197 acre/count_until;
#X obj 117 175 i \$2;
#X msg 115 221 \; /out-\$1/vol 100 \; /out-\$1/del 0;
#X connect 5 0 6 0;
#X connect 6 0 3 0;
#X connect 6 0 11 0;
#X connect 6 1 2 0;
#X connect 7 0 2 1;
#X connect 7 0 3 1;
#X connect 9 0 6 0;
#X connect 10 0 12 0;
#X connect 11 0 10 0;
