#N canvas 1426 160 494 246 10;
#N canvas 1409 517 421 296 contruct-outs 0;
#X msg 160 90 clear;
#X obj 81 15 bng 15 250 50 0 empty empty empty 17 7 0 10 -262144 -1
-1;
#X obj 37 15 inlet;
#X obj 160 114 s pd-\$0-dsp-outs;
#X obj 37 239 s pd-\$0-dsp-outs;
#X obj 37 199 pack 10 1 s;
#X obj 111 160 symbol \$3;
#X obj 37 136 t f f b;
#X obj 37 160 * 20;
#X obj 160 16 inlet;
#X obj 37 40 i \$2;
#X obj 37 66 t f b;
#X obj 37 115 acre/count_until;
#X msg 37 219 obj 10 \$1 amb/out~ \$3-\$2~;
#X obj 240 18 loadbang;
#X obj 240 40 i \$4;
#X obj 240 84 - 1;
#X obj 240 62 max 1;
#X obj 74 161 + 0;
#X text 268 86 out offset;
#X connect 0 0 3 0;
#X connect 1 0 10 1;
#X connect 2 0 10 0;
#X connect 5 0 13 0;
#X connect 6 0 5 2;
#X connect 7 0 8 0;
#X connect 7 1 18 0;
#X connect 7 2 6 0;
#X connect 8 0 5 0;
#X connect 9 0 0 0;
#X connect 10 0 11 0;
#X connect 11 0 12 0;
#X connect 11 1 0 0;
#X connect 12 0 7 0;
#X connect 13 0 4 0;
#X connect 14 0 15 0;
#X connect 15 0 17 0;
#X connect 16 0 18 1;
#X connect 17 0 16 0;
#X connect 18 0 5 1;
#X restore 34 169 pd contruct-outs;
#N canvas 81 528 241 521 \$0-dsp-outs 0;
#X restore 33 33 pd \$0-dsp-outs;
#X obj 53 80 bng 15 250 50 0 empty empty empty 17 7 0 10 -262144 -1
-1;
#X obj 135 143 bng 15 250 50 0 empty empty empty 17 7 0 10 -262144
-1 -1;
#X text 154 143 clear before save !;
#X obj 33 61 r /amb/businit;
#X obj 174 86 max 1;
#X text 71 83 reconstruct;
#X obj 174 64 r \$1/channels;
#X text 172 45 dyn set channel count;
#X text 33 11 amb/outs~ <ID> <nr channels> <ID out receives> [out offset]
;
#X text 34 194 (c) GPL - acre \, ritsch;
#X obj 33 100 t b;
#X connect 2 0 12 0;
#X connect 3 0 0 1;
#X connect 5 0 12 0;
#X connect 6 0 0 0;
#X connect 8 0 6 0;
#X connect 12 0 0 0;
