#N canvas 724 110 450 300 10;
#X text 26 21 amb/outs <ID> <nr channels> <ID out receives>;
#N canvas 2 52 1028 131 \$0-dsp 1;
#X obj 70 10 r~ Out-1~;
#X obj 70 50 dac~ 1;
#X obj 140 10 r~ Out-2~;
#X obj 140 50 dac~ 2;
#X obj 210 10 r~ Out-3~;
#X obj 210 50 dac~ 3;
#X obj 280 10 r~ Out-4~;
#X obj 280 50 dac~ 4;
#X obj 350 10 r~ Out-5~;
#X obj 350 50 dac~ 5;
#X connect 0 0 1 0;
#X connect 2 0 3 0;
#X connect 4 0 5 0;
#X connect 6 0 7 0;
#X connect 8 0 9 0;
#X restore 45 103 pd \$0-dsp;
#N canvas 666 398 412 291 contruct-outs 0;
#X msg 154 70 clear;
#X obj 59 40 bng 15 250 50 0 empty empty empty 17 7 0 10 -262144 -1
-1;
#X obj 37 64 t b b;
#X obj 35 93 for++ 1 \$2 100;
#X obj 41 15 inlet;
#X obj 154 95 s pd-\$0-dsp-outs;
#X obj 36 242 s pd-\$0-dsp-outs;
#X obj 40 187 pack 10 1 s;
#X obj 111 158 symbol \$3;
#X obj 42 134 t f f b;
#X obj 37 158 * 20;
#X msg 38 215 obj 10 \$1 mxr/out/ch~ \$3-\$2;
#X connect 0 0 5 0;
#X connect 1 0 2 0;
#X connect 2 0 3 0;
#X connect 2 1 0 0;
#X connect 3 0 9 0;
#X connect 4 0 2 0;
#X connect 7 0 11 0;
#X connect 8 0 7 2;
#X connect 9 0 10 0;
#X connect 9 1 7 1;
#X connect 9 2 8 0;
#X connect 10 0 7 0;
#X connect 11 0 6 0;
#X restore 202 88 pd contruct-outs;
#N canvas 311 256 547 350 contruct-dacs 0;
#X msg 113 43 clear;
#X floatatom 120 120 5 0 0 0 - - -, f 5;
#X obj 35 121 t b f f f;
#X obj 59 40 bng 15 250 50 0 empty empty empty 17 7 0 10 -262144 -1
-1;
#X obj 37 64 t b b;
#X obj 116 63 s pd-\$0-dsp;
#X obj 35 93 for++ 1 \$2 100;
#X obj 287 262 s pd-\$0-dsp;
#X obj 303 177 * 70;
#X obj 306 206 pack 10 1 s;
#X obj 377 177 symbol \$3;
#X obj 308 153 t f f b;
#X obj 143 256 s pd-\$0-dsp;
#X msg 145 229 obj \$1 50 dac~ \$2;
#X obj 147 177 * 70;
#X obj 152 153 t f f;
#X obj 150 205 pack 10 1;
#X obj 33 317 s pd-\$0-dsp;
#X obj 35 184 * 2;
#X obj 35 206 t f f;
#X obj 56 239 + 1;
#X obj 33 264 pack 0 1;
#X msg 32 284 connect \$1 0 \$2 0;
#X obj 36 158 - 1;
#X obj 41 15 inlet;
#X msg 301 233 obj \$1 10 r~ \$3-\$2~;
#X connect 0 0 5 0;
#X connect 2 1 23 0;
#X connect 2 2 15 0;
#X connect 2 3 11 0;
#X connect 3 0 4 0;
#X connect 4 0 6 0;
#X connect 4 1 0 0;
#X connect 6 0 1 0;
#X connect 6 0 2 0;
#X connect 8 0 9 0;
#X connect 9 0 25 0;
#X connect 10 0 9 2;
#X connect 11 0 8 0;
#X connect 11 1 9 1;
#X connect 11 2 10 0;
#X connect 13 0 12 0;
#X connect 14 0 16 0;
#X connect 15 0 14 0;
#X connect 15 1 16 1;
#X connect 16 0 13 0;
#X connect 18 0 19 0;
#X connect 19 0 21 0;
#X connect 19 1 20 0;
#X connect 20 0 21 1;
#X connect 21 0 22 0;
#X connect 22 0 17 0;
#X connect 23 0 18 0;
#X connect 24 0 4 0;
#X connect 25 0 7 0;
#X restore 180 117 pd contruct-dacs;
#N canvas 35 179 241 521 \$0-dsp-outs 1;
#X obj 10 20 mxr/out/ch~ Out-1;
#X obj 10 40 mxr/out/ch~ Out-2;
#X obj 10 60 mxr/out/ch~ Out-3;
#X obj 10 80 mxr/out/ch~ Out-4;
#X obj 10 100 mxr/out/ch~ Out-5;
#X restore 42 65 pd \$0-dsp-outs;
#X obj 176 39 loadbang;
#X obj 176 61 t b b;
#X obj 243 61 bng 15 250 50 0 empty empty empty 17 7 0 10 -262144 -1
-1;
#X connect 5 0 6 0;
#X connect 6 0 3 0;
#X connect 6 1 2 0;
#X connect 7 0 6 0;
