#N canvas 1310 392 497 300 10;
#X obj 303 83 bng 15 250 50 0 empty empty empty 17 7 0 10 -262144 -1
-1;
#X text 322 83 clear before save !;
#X obj 183 60 r /acre/amb/encinit;
#X text 21 205 (c) GPL - acre \, ritsch;
#N canvas 622 631 779 394 contruct-out_ds 0;
#X msg 154 70 clear;
#X obj 59 40 bng 15 250 50 0 empty empty empty 17 7 0 10 -262144 -1
-1;
#X obj 37 64 t b b;
#X obj 41 15 inlet;
#X obj 36 150 t f f b;
#X obj 31 174 * 20;
#X obj 35 93 i \$2;
#X obj 35 115 acre/count_until;
#X obj 179 16 inlet;
#X obj 154 95 s pd-\$0-ds-outs;
#X obj 30 258 s pd-\$0-ds-outs;
#X obj 34 203 pack 10 1 s s s;
#X obj 105 174 symbol \$1;
#X obj 179 176 symbol \$3;
#X obj 255 180 symbol \$4;
#X msg 276 238 obj 10 \$1 amb/out_ds \$5 \$3/\$4-\$2;
#X msg 32 231 obj 10 \$1 amb/out_ds \$5 \$4-\$2;
#X text 278 216 Prefix of \$1 argument is not used until now;
#X connect 0 0 9 0;
#X connect 1 0 2 0;
#X connect 2 0 6 0;
#X connect 2 1 0 0;
#X connect 3 0 2 0;
#X connect 4 0 5 0;
#X connect 4 1 11 1;
#X connect 4 2 12 0;
#X connect 4 2 13 0;
#X connect 4 2 14 0;
#X connect 5 0 11 0;
#X connect 6 0 7 0;
#X connect 7 0 4 0;
#X connect 8 0 0 0;
#X connect 11 0 16 0;
#X connect 12 0 11 2;
#X connect 13 0 11 3;
#X connect 14 0 11 4;
#X connect 16 0 10 0;
#X restore 183 130 pd contruct-out_ds;
#N canvas 67 526 241 521 \$0-ds-outs 0;
#X restore 42 65 pd \$0-ds-outs;
#X text 33 11 amb/out_ds <ID> <nr channels> <ID-prefix out> <storage
domain>;
#X connect 0 0 4 1;
#X connect 2 0 4 0;
