#N canvas 372 251 450 300 10;
#X text 86 24 (c) GPL \, acre - winfried ritsch;
#N canvas 44 52 725 228 \$0-gui 1;
#X obj 50 10 amb/out_ctl Out-1;
#X obj 100 10 amb/out_ctl Out-2;
#X obj 150 10 amb/out_ctl Out-3;
#X obj 200 10 amb/out_ctl Out-4;
#X obj 250 10 amb/out_ctl Out-5;
#X obj 300 10 amb/out_ctl Out-6;
#X obj 350 10 amb/out_ctl Out-7;
#X obj 400 10 amb/out_ctl Out-8;
#X obj 450 10 amb/out_ctl Out-9;
#X obj 500 10 amb/out_ctl Out-10;
#X obj 550 10 amb/out_ctl Out-11;
#X obj 600 10 amb/out_ctl Out-12;
#X obj 650 10 amb/out_ctl Out-13;
#X restore 195 110 pd \$0-gui;
#N canvas 836 398 442 291 contruct-outs 0;
#X msg 168 91 clear;
#X obj 59 40 bng 15 250 50 0 empty empty empty 17 7 0 10 -262144 -1
-1;
#X obj 37 64 t b b;
#X obj 41 15 inlet;
#X obj 40 187 pack 10 1 s;
#X obj 111 158 symbol \$3;
#X obj 36 242 s pd-\$0-gui;
#X obj 38 152 * 50;
#X obj 36 114 t f f b;
#X msg 38 215 obj \$1 10 amb/out_ctl \$3-\$2;
#X obj 35 93 for++ 1 \$2 1;
#X connect 0 0 6 0;
#X connect 1 0 2 0;
#X connect 2 0 10 0;
#X connect 2 1 0 0;
#X connect 3 0 2 0;
#X connect 4 0 9 0;
#X connect 5 0 4 2;
#X connect 7 0 4 0;
#X connect 8 0 7 0;
#X connect 8 1 4 1;
#X connect 8 2 5 0;
#X connect 9 0 6 0;
#X connect 10 0 8 0;
#X restore 274 199 pd contruct-outs;
#X obj 273 148 loadbang;
#X obj 315 172 bng 15 250 50 0 empty empty empty 17 7 0 10 -262144
-1 -1;
#X obj 101 101 cnv 25 48 48 empty empty \$1 2 7 0 8 -228856 -66577
0;
#X msg 134 193 \; pd-\$2-gui vis \$1;
#X obj 134 171 pack 0 \$0;
#X obj 109 116 tgl 25 0 empty empty V 8 13 0 14 -262130 -1 -1 1 1;
#X text 93 58 amb/outs_ctl <ID> <nr of outs> <out-id>;
#X connect 3 0 2 0;
#X connect 4 0 2 0;
#X connect 7 0 6 0;
#X connect 8 0 7 0;
#X coords 0 -1 1 1 50 50 2 100 100;
