#N canvas 80 177 665 381 10;
#N canvas 323 70 680 239 \$0-dsp 0;
#X restore 45 103 pd \$0-dsp;
#N canvas 447 425 516 291 contruct-outs 0;
#X msg 154 70 clear;
#X obj 81 15 bng 15 250 50 0 empty empty empty 17 7 0 10 -262144 -1
-1;
#X obj 37 15 inlet;
#X obj 154 95 s pd-\$0-dsp-outs;
#X obj 30 258 s pd-\$0-dsp-outs;
#X obj 34 203 pack 10 1 s;
#X obj 105 174 symbol \$3;
#X obj 36 150 t f f b;
#X obj 31 174 * 20;
#X obj 179 16 inlet;
#X msg 32 231 obj 10 \$1 amb/out~ /amb/\$3/\$2;
#X obj 37 40 i \$2;
#X obj 37 66 t f b;
#X obj 35 115 acre/count_until;
#X connect 0 0 3 0;
#X connect 1 0 11 1;
#X connect 2 0 11 0;
#X connect 5 0 10 0;
#X connect 6 0 5 2;
#X connect 7 0 8 0;
#X connect 7 1 5 1;
#X connect 7 2 6 0;
#X connect 8 0 5 0;
#X connect 9 0 0 0;
#X connect 10 0 4 0;
#X connect 11 0 12 0;
#X connect 12 0 13 0;
#X connect 12 1 0 0;
#X connect 13 0 7 0;
#X restore 253 168 pd contruct-outs;
#N canvas 558 314 804 423 contruct-dacs 0;
#X msg 101 62 clear;
#X obj 39 130 t b f f f;
#X obj 87 17 bng 15 250 50 0 empty empty empty 17 7 0 10 -262144 -1
-1;
#X obj 100 84 s pd-\$0-dsp;
#X obj 323 331 s pd-\$0-dsp;
#X obj 419 201 symbol \$3;
#X obj 325 109 t f f b;
#X obj 177 339 s pd-\$0-dsp;
#X obj 177 161 t f f;
#X obj 34 338 s pd-\$0-dsp;
#X obj 35 184 * 2;
#X obj 35 206 t f f;
#X obj 56 239 + 1;
#X msg 33 305 connect \$1 0 \$2 0;
#X obj 36 158 - 1;
#X obj 41 15 inlet;
#X obj 33 264 pack 0 1;
#X obj 177 288 pack 10 50 1;
#X msg 177 312 obj \$1 \$2 dac~ \$3;
#X obj 323 283 pack 10 10 1 s;
#X obj 323 220 % 8;
#X obj 358 198 / 8;
#X obj 360 239 * 80;
#X obj 177 234 % 8;
#X obj 226 192 / 8;
#X obj 229 261 + 50;
#X obj 358 220 i;
#X floatatom 451 280 5 0 0 0 - - -, f 5;
#X obj 226 214 i;
#X obj 226 236 * 80;
#X obj 323 152 - 1;
#X obj 177 189 - 1;
#X obj 177 211 t f f;
#X obj 177 258 * 80;
#X obj 323 258 * 80;
#X obj 255 23 inlet;
#X msg 323 310 obj \$1 \$2 r~ /amb/\$4/\$3;
#X obj 361 259 + 0;
#X obj 394 209 % 2;
#X obj 394 253 + 10;
#X obj 323 174 t f f f;
#X obj 394 231 * 20;
#X obj 41 48 i \$2;
#X obj 41 70 t f b;
#X obj 254 191 + \$4;
#X obj 41 107 acre/count_until;
#X connect 0 0 3 0;
#X connect 1 1 14 0;
#X connect 1 2 8 0;
#X connect 1 3 6 0;
#X connect 2 0 42 0;
#X connect 5 0 19 3;
#X connect 6 0 30 0;
#X connect 6 1 19 2;
#X connect 6 2 5 0;
#X connect 8 0 31 0;
#X connect 8 1 44 0;
#X connect 10 0 11 0;
#X connect 11 0 16 0;
#X connect 11 1 12 0;
#X connect 12 0 16 1;
#X connect 13 0 9 0;
#X connect 14 0 10 0;
#X connect 15 0 42 0;
#X connect 16 0 13 0;
#X connect 17 0 18 0;
#X connect 18 0 7 0;
#X connect 19 0 36 0;
#X connect 20 0 34 0;
#X connect 21 0 26 0;
#X connect 22 0 37 0;
#X connect 23 0 33 0;
#X connect 24 0 28 0;
#X connect 25 0 17 1;
#X connect 26 0 22 0;
#X connect 28 0 29 0;
#X connect 29 0 25 0;
#X connect 30 0 40 0;
#X connect 31 0 32 0;
#X connect 32 0 23 0;
#X connect 32 1 24 0;
#X connect 33 0 17 0;
#X connect 34 0 19 0;
#X connect 35 0 0 0;
#X connect 36 0 4 0;
#X connect 37 0 19 1;
#X connect 37 0 27 0;
#X connect 38 0 41 0;
#X connect 39 0 37 1;
#X connect 40 0 20 0;
#X connect 40 1 21 0;
#X connect 40 2 38 0;
#X connect 41 0 39 0;
#X connect 42 0 43 0;
#X connect 43 0 45 0;
#X connect 43 1 0 0;
#X connect 44 0 17 2;
#X connect 45 0 1 0;
#X restore 251 196 pd contruct-dacs;
#N canvas 68 216 241 521 \$0-dsp-outs 0;
#X restore 42 65 pd \$0-dsp-outs;
#X obj 251 87 bng 15 250 50 0 empty empty empty 17 7 0 10 -262144 -1
-1;
#X obj 181 108 t b b b;
#X obj 394 137 bng 15 250 50 0 empty empty empty 17 7 0 10 -262144
-1 -1;
#X text 413 137 clear before save !;
#X obj 183 60 r /amb/businit;
#X obj 118 175 i \$2;
#X msg 115 298 \; /amb/\$2/\$1/vol 100 \; /amb/\$2/\$1/del 0;
#X obj 114 264 pack f s;
#X obj 166 241 symbol \$3;
#X obj 116 231 t f b;
#X obj 296 83 max 1;
#X text 300 40 dyn set nr of channels;
#X obj 287 113 t f f f;
#X obj 296 61 r /amb/outs/\$1/number;
#X text 33 11 amb/outs <ID> <nr channels> <ID out receives> [dac offset]
;
#X obj 118 197 acre/count_until;
#X connect 4 0 5 0;
#X connect 5 0 9 0;
#X connect 5 1 2 0;
#X connect 5 2 1 0;
#X connect 6 0 1 1;
#X connect 6 0 2 1;
#X connect 8 0 5 0;
#X connect 9 0 19 0;
#X connect 11 0 10 0;
#X connect 12 0 11 1;
#X connect 13 0 11 0;
#X connect 13 1 12 0;
#X connect 14 0 16 0;
#X connect 16 0 9 0;
#X connect 16 1 2 0;
#X connect 16 2 1 0;
#X connect 17 0 14 0;
#X connect 19 0 13 0;
