#N canvas 708 386 514 317 10;
#X text 86 24 (c) GPL \, acre - winfried ritsch;
#N canvas 183 58 742 247 \$0-gui 0;
#X text 0 10 out;
#X obj 0 10 amb/out_ctl /amb/out/1 out/1;
#X obj 50 10 amb/out_ctl /amb/out/2 out/2;
#X obj 100 10 amb/out_ctl /amb/out/3 out/3;
#X obj 150 10 amb/out_ctl /amb/out/4 out/4;
#X obj 200 10 amb/out_ctl /amb/out/5 out/5;
#X obj 250 10 amb/out_ctl /amb/out/6 out/6;
#X obj 300 10 amb/out_ctl /amb/out/7 out/7;
#X obj 350 10 amb/out_ctl /amb/out/8 out/8;
#X obj 400 10 amb/out_ctl /amb/out/9 out/9;
#X obj 450 10 amb/out_ctl /amb/out/10 out/10;
#X obj 500 10 amb/out_ctl /amb/out/11 out/11;
#X obj 550 10 amb/out_ctl /amb/out/12 out/12;
#X obj 600 10 amb/out_ctl /amb/out/13 out/13;
#X coords 48 85 770 225 0 0 0;
#X restore 195 110 pd \$0-gui;
#N canvas 382 389 407 291 contruct-outs 1;
#X obj 41 2 inlet;
#X obj 40 187 pack 10 1 s;
#X obj 111 158 symbol \$3;
#X obj 36 242 s pd-\$0-gui;
#X obj 36 159 * 50;
#X obj 36 114 t f f b;
#X obj 158 24 inlet;
#X obj 36 137 - 1;
#X obj 38 85 acre/count_until \$2;
#X obj 153 110 symbol \$3;
#X msg 38 215 obj \$1 10 amb/out_ctl /amb/\$3/\$2 \$3/\$2;
#X msg 150 132 clear \, text 0 10 \$1;
#X obj 39 29 i \$2;
#X obj 40 53 t f b;
#X connect 0 0 12 0;
#X connect 1 0 10 0;
#X connect 2 0 1 2;
#X connect 4 0 1 0;
#X connect 5 0 7 0;
#X connect 5 1 1 1;
#X connect 5 2 2 0;
#X connect 6 0 9 0;
#X connect 7 0 4 0;
#X connect 8 0 5 0;
#X connect 9 0 11 0;
#X connect 10 0 3 0;
#X connect 11 0 3 0;
#X connect 12 0 13 0;
#X connect 13 0 8 0;
#X connect 13 1 9 0;
#X restore 274 199 pd contruct-outs;
#X obj 291 179 bng 15 250 50 0 empty empty empty 17 7 0 10 -262144
-1 -1;
#X obj 101 101 cnv 25 48 48 empty empty \$1 2 7 0 8 -228856 -66577
0;
#X msg 134 193 \; pd-\$2-gui vis \$1;
#X obj 134 171 pack 0 \$0;
#X obj 109 116 tgl 25 0 empty empty V 8 13 0 14 -262130 -1 -1 0 1;
#X text 93 58 amb/outs_ctl <ID> <nr of outs> <out-id>;
#X obj 282 236 bng 15 250 50 0 empty empty empty 17 7 0 10 -262144
-1 -1;
#X text 302 232 Clear before save;
#X obj 274 112 r /amb/guiinit;
#X obj 284 151 r /amb/outs/\$1/number;
#X connect 3 0 2 0;
#X connect 6 0 5 0;
#X connect 7 0 6 0;
#X connect 9 0 2 1;
#X connect 11 0 2 0;
#X connect 12 0 2 0;
#X coords 0 -1 1 1 50 50 2 100 100;
