#N canvas 1491 150 494 314 10;
#N canvas 1408 513 421 296 contruct-outs 0;
#X msg 160 90 clear;
#X obj 81 15 bng 15 250 50 0 empty empty empty 17 7 0 10 -262144 -1
-1;
#X obj 37 15 inlet;
#X obj 160 114 s pd-\$0-dsp-outs;
#X obj 37 239 s pd-\$0-dsp-outs;
#X obj 37 199 pack 10 1 s;
#X obj 111 160 symbol \$3;
#X obj 37 136 t f f b;
#X obj 37 160 * 20;
#X obj 160 16 inlet;
#X obj 37 40 i \$2;
#X obj 37 66 t f b;
#X obj 37 115 acre/count_until;
#X msg 37 219 obj 10 \$1 amb/out~ \$3-\$2~;
#X obj 240 18 loadbang;
#X obj 240 40 i \$4;
#X obj 240 84 - 1;
#X obj 240 62 max 1;
#X obj 74 161 + 0;
#X text 268 86 out offset;
#X connect 0 0 3 0;
#X connect 1 0 10 1;
#X connect 2 0 10 0;
#X connect 5 0 13 0;
#X connect 6 0 5 2;
#X connect 7 0 8 0;
#X connect 7 1 18 0;
#X connect 7 2 6 0;
#X connect 8 0 5 0;
#X connect 9 0 0 0;
#X connect 10 0 11 0;
#X connect 11 0 12 0;
#X connect 11 1 0 0;
#X connect 12 0 7 0;
#X connect 13 0 4 0;
#X connect 14 0 15 0;
#X connect 15 0 17 0;
#X connect 16 0 18 1;
#X connect 17 0 16 0;
#X connect 18 0 5 1;
#X restore 206 158 pd contruct-outs;
#N canvas 76 464 241 521 \$0-dsp-outs 1;
#X obj 10 20 amb/out~ AMBI-1~;
#X obj 10 40 amb/out~ AMBI-2~;
#X obj 10 60 amb/out~ AMBI-3~;
#X obj 10 80 amb/out~ AMBI-4~;
#X obj 10 100 amb/out~ AMBI-5~;
#X obj 10 120 amb/out~ AMBI-6~;
#X obj 10 140 amb/out~ AMBI-7~;
#X obj 10 160 amb/out~ AMBI-8~;
#X obj 10 180 amb/out~ AMBI-9~;
#X obj 10 200 amb/out~ AMBI-10~;
#X obj 10 220 amb/out~ AMBI-11~;
#X obj 10 240 amb/out~ AMBI-12~;
#X obj 10 260 amb/out~ AMBI-13~;
#X obj 10 280 amb/out~ AMBI-14~;
#X obj 10 300 amb/out~ AMBI-15~;
#X obj 10 320 amb/out~ AMBI-16~;
#X obj 10 340 amb/out~ AMBI-17~;
#X obj 10 360 amb/out~ AMBI-18~;
#X obj 10 380 amb/out~ AMBI-19~;
#X obj 10 400 amb/out~ AMBI-20~;
#X obj 10 420 amb/out~ AMBI-21~;
#X obj 10 440 amb/out~ AMBI-22~;
#X obj 10 460 amb/out~ AMBI-23~;
#X obj 10 480 amb/out~ AMBI-24~;
#X obj 10 500 amb/out~ AMBI-25~;
#X restore 33 33 pd \$0-dsp-outs;
#X obj 53 80 bng 15 250 50 0 empty empty empty 17 7 0 10 -262144 -1
-1;
#X obj 33 100 t b b b;
#X obj 242 128 bng 15 250 50 0 empty empty empty 17 7 0 10 -262144
-1 -1;
#X text 261 128 clear before save !;
#X obj 33 61 r /amb/businit;
#X obj 33 131 i \$2;
#X obj 33 220 pack f s;
#X obj 65 197 symbol \$3;
#X obj 33 173 t f b;
#X obj 174 86 max 1;
#X obj 33 153 acre/count_until;
#X text 71 83 reconstruct;
#X obj 174 64 r \$1/channels;
#X text 172 45 dyn set channel count;
#X obj 174 109 t f f;
#X text 149 202 REINIT created objects;
#X msg 33 260 \; \$2/\$1/vol 100 \; \$2/\$1/del 0;
#X text 142 269 now inside [amb/out~];
#X text 33 243 Nothing to do until now;
#X text 33 11 amb/outs~ <ID> <nr channels> <ID out receives> [out offset]
;
#X text 146 288 (c) GPL - acre \, ritsch;
#X connect 2 0 3 0;
#X connect 3 0 7 0;
#X connect 3 2 0 0;
#X connect 4 0 0 1;
#X connect 6 0 3 0;
#X connect 7 0 12 0;
#X connect 8 0 18 0;
#X connect 9 0 8 1;
#X connect 10 0 8 0;
#X connect 10 1 9 0;
#X connect 11 0 16 0;
#X connect 12 0 10 0;
#X connect 14 0 11 0;
#X connect 16 0 7 0;
#X connect 16 1 0 0;
