#N canvas 868 431 558 300 10;
#X obj 334 109 bng 15 250 50 0 empty empty empty 17 7 0 10 -262144
-1 -1;
#X text 334 128 clear before save !;
#X obj 183 60 r /amb/encinit;
#X text 21 205 (c) GPL - acre \, ritsch;
#N canvas 1208 563 754 394 contruct-out_ds 0;
#X msg 154 70 clear;
#X obj 59 40 bng 15 250 50 0 empty empty empty 17 7 0 10 -262144 -1
-1;
#X obj 41 15 inlet;
#X obj 36 150 t f f b;
#X obj 31 174 * 20;
#X obj 35 115 acre/count_until;
#X obj 179 16 inlet;
#X obj 154 95 s pd-\$0-ds-outs;
#X obj 31 269 s pd-\$0-ds-outs;
#X obj 35 214 pack 10 1 s s s;
#X obj 105 174 symbol \$1;
#X obj 179 176 symbol \$3;
#X msg 33 242 obj 10 \$1 amb/out_ds \$5 /amb/\$4/\$2;
#X obj 37 64 i \$2;
#X obj 35 93 t f b;
#X obj 255 180 symbol \$5;
#X obj 68 177 + \$4;
#X connect 0 0 7 0;
#X connect 1 0 13 0;
#X connect 2 0 13 0;
#X connect 3 0 4 0;
#X connect 3 1 16 0;
#X connect 3 2 10 0;
#X connect 3 2 11 0;
#X connect 3 2 15 0;
#X connect 4 0 9 0;
#X connect 5 0 3 0;
#X connect 6 0 0 0;
#X connect 9 0 12 0;
#X connect 10 0 9 2;
#X connect 11 0 9 3;
#X connect 12 0 8 0;
#X connect 13 0 14 0;
#X connect 14 0 5 0;
#X connect 14 1 0 0;
#X connect 15 0 9 4;
#X connect 16 0 9 1;
#X restore 183 130 pd contruct-out_ds;
#N canvas 73 278 241 521 \$0-ds-outs 0;
#X restore 42 65 pd \$0-ds-outs;
#X obj 246 94 max 1;
#X obj 296 61 r /amb/outs/\$1/number;
#X text 33 11 amb/out_ds <ID> <nr channels> <ID-prefix out> <offset>
<storage domain>, f 69;
#X connect 0 0 4 1;
#X connect 2 0 4 0;
#X connect 6 0 4 0;
#X connect 7 0 6 0;
