#N canvas 263 442 424 264 10;
#X obj 6 228 outlet~;
#X obj 137 87 r /mxr/fadetime;
#X obj 8 83 catch~ \$1~;
#X obj 69 228 s~ \$1~;
#N canvas 392 809 327 132 init 1;
#X obj 59 73 s \$1/vol;
#X msg 59 50 100;
#X obj 135 75 s \$1/del;
#X msg 136 51 0;
#X obj 59 29 loadbang;
#X connect 1 0 0 0;
#X connect 3 0 2 0;
#X connect 4 0 1 0;
#X connect 4 0 3 0;
#X restore 153 9 pd init;
#X obj 7 184 mxr/master/gain~;
#X obj 7 111 mxr/fader/fader~ \$1;
#X text 5 247 (c) GPL - acre \, ritsch;
#X obj 127 228 mxr/prvu/send~ \$1/vu;
#X obj 8 162 delread~ \$0-amb_out_del 0;
#X obj 7 137 delwrite~ \$0-amb_out_del 100;
#X text 222 138 time compensation;
#X obj 280 96 r \$1/del;
#X obj 280 118 min 100;
#X text 8 35 Out Channel \, eg used for compensation of time and Amplitude
and master-gain.;
#X text 14 7 amb/out~ <id>;
#X connect 1 0 6 1;
#X connect 2 0 6 0;
#X connect 5 0 0 0;
#X connect 5 0 3 0;
#X connect 5 0 8 0;
#X connect 6 0 10 0;
#X connect 9 0 5 0;
#X connect 12 0 13 0;
#X connect 13 0 9 0;
