#N canvas 613 224 551 300 10;
#X obj 418 126 bng 15 250 50 0 empty empty clear 17 7 0 10 -262144
-1 -1;
#X text 444 139 before save !;
#X obj 345 68 r /acre/amb/encinit;
#N canvas 409 99 835 566 contruct-playbus 0;
#X msg 220 68 clear;
#X obj 174 261 t f f b;
#X obj 38 295 t f f;
#X obj 41 15 inlet;
#X obj 36 353 pack 0 1;
#X obj 38 127 acre/count_until;
#X obj 40 40 t f f b;
#X obj 38 273 * 1;
#X msg 173 411 obj \$1 \$2 throw~ \$4-\$3~;
#X obj 174 385 pack 70 10 1 s;
#X obj 252 335 symbol \$4;
#X obj 175 305 t f f;
#X obj 174 358 + 10;
#X obj 174 282 - 1;
#X obj 209 358 + 50;
#X obj 209 336 * 20;
#X obj 40 247 + -1;
#X obj 174 336 * 10;
#X obj 38 150 t f f;
#X obj 428 230 f \$0;
#X obj 392 249 f \$0;
#X obj 322 16 inlet;
#X msg 454 258 obj 10 5 r \$1-player;
#X obj 40 443 s pd-\$0-player;
#X obj 350 440 s pd-\$0-player;
#X obj 220 88 s pd-\$0-player;
#X msg 369 390 obj 10 30 readsf~ 16 \, f 32;
#X msg 7 15 24;
#X obj 370 310 t b f f;
#X obj 433 312 * 2;
#X obj 405 337 pack 24 48;
#X msg 403 364 set obj 10 30 readsf~ \$1 \, addcomma \, add2 f \$2
;
#X msg 9 46 5;
#X msg 8 94 48;
#X msg 392 282 obj 200 5 s \$1-fromplayer;
#X obj 359 209 t f f b b;
#X obj 70 319 + 3;
#X msg 38 410 connect 2 \$1 \$2 0;
#X msg 351 414 connect 0 0 2 0 \, connect 2 \$1 1 0;
#X msg 9 72 16;
#X connect 0 0 25 0;
#X connect 1 0 13 0;
#X connect 1 1 9 2;
#X connect 1 2 10 0;
#X connect 2 0 4 0;
#X connect 2 1 36 0;
#X connect 3 0 6 0;
#X connect 4 0 37 0;
#X connect 5 0 18 0;
#X connect 6 0 5 0;
#X connect 6 1 35 0;
#X connect 6 2 0 0;
#X connect 7 0 2 0;
#X connect 8 0 23 0;
#X connect 9 0 8 0;
#X connect 10 0 9 3;
#X connect 11 0 17 0;
#X connect 11 1 15 0;
#X connect 12 0 9 0;
#X connect 13 0 11 0;
#X connect 14 0 9 1;
#X connect 15 0 14 0;
#X connect 16 0 7 0;
#X connect 17 0 12 0;
#X connect 18 0 16 0;
#X connect 18 1 1 0;
#X connect 19 0 22 0;
#X connect 20 0 34 0;
#X connect 21 0 0 0;
#X connect 22 0 24 0;
#X connect 26 0 24 0;
#X connect 27 0 6 0;
#X connect 28 0 26 0;
#X connect 28 1 30 0;
#X connect 28 2 29 0;
#X connect 29 0 30 1;
#X connect 30 0 31 0;
#X connect 31 0 26 0;
#X connect 32 0 6 0;
#X connect 33 0 6 0;
#X connect 34 0 24 0;
#X connect 35 0 38 0;
#X connect 35 1 28 0;
#X connect 35 2 20 0;
#X connect 35 3 19 0;
#X connect 36 0 4 1;
#X connect 37 0 23 0;
#X connect 38 0 24 0;
#X connect 39 0 6 0;
#X restore 292 143 pd contruct-playbus;
#X obj 475 91 bng 15 250 50 0 empty empty empty 17 7 0 10 -262144 -1
-1;
#X obj 54 260 s \$0-player;
#N canvas 64 61 467 487 \$0-player 0;
#X restore 38 59 pd \$0-player;
#X obj 174 119 openpanel;
#X msg 174 141 set open \$1;
#X msg 118 168 open /home/iem/tmp/Courville - The Well Tempered Chaos
- ICSA2015 - ambix.wav;
#X obj 6 155 t b b;
#X msg 6 177 1;
#X obj 6 133 sel 1 0;
#X msg 43 190 0;
#X obj 6 111 r /amb/player/\$1/play;
#X obj 177 97 r /amb/player/\$1/open;
#X obj 230 214 r \$0-fromplayer;
#X obj 231 239 s /amb/player/\$1/played;
#X text 38 28 comment;
#X text 26 8 amb/player~ <id> <channels> <bus ID>;
#X obj 342 100 f \$2;
#X obj 300 40 inlet channels;
#X connect 0 0 3 1;
#X connect 2 0 20 0;
#X connect 4 0 20 0;
#X connect 7 0 8 0;
#X connect 8 0 9 0;
#X connect 9 0 5 0;
#X connect 10 0 11 0;
#X connect 10 1 9 0;
#X connect 11 0 5 0;
#X connect 12 0 10 0;
#X connect 12 1 13 0;
#X connect 13 0 5 0;
#X connect 14 0 12 0;
#X connect 15 0 7 0;
#X connect 16 0 17 0;
#X connect 20 0 3 0;
#X connect 21 0 20 0;
