#N canvas 616 245 601 337 10;
#X obj 444 115 bng 15 250 50 0 empty empty clear 17 7 0 10 -262144
-1 -1;
#X text 444 139 before save !;
#X obj 313 66 r /amb/encinit;
#N canvas 823 557 788 523 contruct-playbus 0;
#X msg 220 68 clear;
#X obj 174 261 t f f b;
#X obj 38 295 t f f;
#X obj 41 15 inlet;
#X obj 36 353 pack 0 1;
#X obj 38 127 acre/count_until;
#X obj 40 40 t f f b;
#X obj 38 273 * 1;
#X msg 173 411 obj \$1 \$2 throw~ \$4-\$3~;
#X obj 174 385 pack 70 10 1 s;
#X obj 175 305 t f f;
#X obj 174 358 + 10;
#X obj 174 282 - 1;
#X obj 209 358 + 50;
#X obj 209 336 * 20;
#X obj 40 247 + -1;
#X obj 174 336 * 10;
#X obj 38 150 t f f;
#X obj 428 230 f \$0;
#X obj 392 249 f \$0;
#X obj 322 16 inlet;
#X msg 454 258 obj 10 5 r \$1-player;
#X obj 40 443 s pd-\$0-player;
#X obj 350 440 s pd-\$0-player;
#X obj 220 88 s pd-\$0-player;
#X msg 369 390 obj 10 30 readsf~ 16 \, f 32;
#X msg 7 15 24;
#X obj 370 310 t b f f;
#X obj 433 312 * 2;
#X obj 405 337 pack 24 48;
#X msg 403 364 set obj 10 30 readsf~ \$1 \, addcomma \, add2 f \$2
;
#X msg 9 46 5;
#X msg 8 94 48;
#X msg 392 282 obj 200 5 s \$1-fromplayer;
#X obj 359 209 t f f b b;
#X obj 70 319 + 3;
#X msg 38 410 connect 2 \$1 \$2 0;
#X msg 351 414 connect 0 0 2 0 \, connect 2 \$1 1 0;
#X msg 9 72 16;
#X obj 252 335 symbol \$3;
#X connect 0 0 24 0;
#X connect 1 0 12 0;
#X connect 1 1 9 2;
#X connect 1 2 39 0;
#X connect 2 0 4 0;
#X connect 2 1 35 0;
#X connect 3 0 6 0;
#X connect 4 0 36 0;
#X connect 5 0 17 0;
#X connect 6 0 5 0;
#X connect 6 1 34 0;
#X connect 6 2 0 0;
#X connect 7 0 2 0;
#X connect 8 0 22 0;
#X connect 9 0 8 0;
#X connect 10 0 16 0;
#X connect 10 1 14 0;
#X connect 11 0 9 0;
#X connect 12 0 10 0;
#X connect 13 0 9 1;
#X connect 14 0 13 0;
#X connect 15 0 7 0;
#X connect 16 0 11 0;
#X connect 17 0 15 0;
#X connect 17 1 1 0;
#X connect 18 0 21 0;
#X connect 19 0 33 0;
#X connect 20 0 0 0;
#X connect 21 0 23 0;
#X connect 25 0 23 0;
#X connect 26 0 6 0;
#X connect 27 0 25 0;
#X connect 27 1 29 0;
#X connect 27 2 28 0;
#X connect 28 0 29 1;
#X connect 29 0 30 0;
#X connect 30 0 25 0;
#X connect 31 0 6 0;
#X connect 32 0 6 0;
#X connect 33 0 23 0;
#X connect 34 0 37 0;
#X connect 34 1 27 0;
#X connect 34 2 19 0;
#X connect 34 3 18 0;
#X connect 35 0 4 1;
#X connect 36 0 22 0;
#X connect 37 0 23 0;
#X connect 38 0 6 0;
#X connect 39 0 9 3;
#X restore 299 120 pd contruct-playbus;
#X obj 425 70 bng 15 250 50 0 empty empty empty 17 7 0 10 -262144 -1
-1;
#X obj 30 226 s \$0-player;
#N canvas 67 82 467 487 \$0-player 0;
#X obj 10 5 r 1062-player;
#X obj 200 5 s 1062-fromplayer;
#X obj 10 30 readsf~ 16, f 32;
#X obj 10 50 throw~ AMB1-1~;
#X obj 20 70 throw~ AMB1-2~;
#X obj 30 90 throw~ AMB1-3~;
#X obj 40 110 throw~ AMB1-4~;
#X obj 50 130 throw~ AMB1-5~;
#X obj 60 150 throw~ AMB1-6~;
#X obj 70 170 throw~ AMB1-7~;
#X obj 80 190 throw~ AMB1-8~;
#X obj 90 210 throw~ AMB1-9~;
#X obj 100 230 throw~ AMB1-10~;
#X obj 110 250 throw~ AMB1-11~;
#X obj 120 270 throw~ AMB1-12~;
#X obj 130 290 throw~ AMB1-13~;
#X obj 140 310 throw~ AMB1-14~;
#X obj 150 330 throw~ AMB1-15~;
#X obj 160 350 throw~ AMB1-16~;
#X connect 0 0 2 0;
#X connect 2 0 3 0;
#X connect 2 1 4 0;
#X connect 2 2 5 0;
#X connect 2 3 6 0;
#X connect 2 4 7 0;
#X connect 2 5 8 0;
#X connect 2 6 9 0;
#X connect 2 7 10 0;
#X connect 2 8 11 0;
#X connect 2 9 12 0;
#X connect 2 10 13 0;
#X connect 2 11 14 0;
#X connect 2 12 15 0;
#X connect 2 13 16 0;
#X connect 2 14 17 0;
#X connect 2 15 18 0;
#X connect 2 16 1 0;
#X restore 30 56 pd \$0-player;
#X obj 118 153 openpanel;
#X msg 118 175 set open \$1;
#X msg 118 200 open /media/iem/SONY_16GR/WDCM3 - 12 Channels.wav;
#X obj 30 126 t b b;
#X msg 30 148 1;
#X obj 30 104 sel 1 0;
#X msg 67 161 0;
#X obj 30 82 r /amb/player/\$1/play;
#X obj 118 130 r /amb/player/\$1/open;
#X obj 30 248 r \$0-fromplayer;
#X obj 30 270 s /amb/player/\$1/played;
#X text 39 5 amb/player~ <id> <channels> <bus ID>;
#X obj 299 92 f \$2;
#X obj 300 40 inlet channels;
#X text 38 28 Note: first simple implementation...;
#X text 34 303 comment;
#X connect 0 0 3 1;
#X connect 2 0 19 0;
#X connect 4 0 19 0;
#X connect 7 0 8 0;
#X connect 8 0 9 0;
#X connect 9 0 5 0;
#X connect 10 0 11 0;
#X connect 10 1 9 0;
#X connect 11 0 5 0;
#X connect 12 0 10 0;
#X connect 12 1 13 0;
#X connect 13 0 5 0;
#X connect 14 0 12 0;
#X connect 15 0 7 0;
#X connect 16 0 17 0;
#X connect 19 0 3 0;
#X connect 20 0 19 0;
