#N canvas 1452 354 592 300 10;
#X obj 101 101 cnv 15 98 98 empty empty empty 20 12 0 14 -233017 -66577
0;
#X obj 103 118 nbx 3 14 -1e+37 1e+37 0 0 /amb/\$1/azimuth /amb/\$1/azimuth
azimuth 0 -8 0 10 -262144 -1 -1 292 256;
#X obj 103 147 nbx 3 14 -1e+37 1e+37 0 0 /amb/ch1/elevation /amb/ch1/elevation
elevation 0 -8 0 10 -262144 -1 -1 0 256;
#X obj 105 178 nbx 3 14 -1e+37 1e+37 0 0 /amb/ch1/dist /amb/ch1/dist
dist 0 -8 0 10 -262144 -1 -1 0 256;
#X obj 265 96 metro 100;
#X obj 320 68 r /mx/fadetime;
#X obj 335 112 r /amb/\$1/azimuth;
#X obj 265 141 f 0;
#X obj 335 136 + 1;
#X obj 264 197 s /amb/\$1/azimuth;
#X obj 376 134 r /amb/\$1/azimuth/incr;
#X obj 155 116 tgl 15 0 /amb/\$1/azimuth/rotate /amb/\$1/azimuth/rotate
rotx 17 7 0 10 -262144 -1 -1 1 1;
#X obj 160 148 nbx 3 14 -360 360 0 0 /amb/\$1/azimuth/incr /amb/\$1/azimuth/incr
incx 0 -8 0 10 -262144 -1 -1 1 256;
#X obj 264 42 r /amb/\$1/azimuth/rotate;
#X obj 333 159 mod 360;
#X connect 4 0 7 0;
#X connect 5 0 4 1;
#X connect 6 0 8 0;
#X connect 7 0 9 0;
#X connect 8 0 14 0;
#X connect 10 0 8 1;
#X connect 13 0 4 0;
#X connect 14 0 7 1;
#X coords 0 -1 1 1 100 100 2 100 100;
