#N canvas 554 81 600 358 10;
#X obj 45 36 inlet;
#X obj 50 326 outlet;
#X obj 45 58 min 1;
#X obj 45 80 max 0;
#X text 55 98 0..1;
#X obj 52 302 pp ambi_weight;
#X text 166 300 for encoder;
#X text 65 8 amb/weight <ch.id> order;
#X text 100 130 list of weights dependend on order from 0 to 1;
#X obj 58 191 weight\$2;
#X connect 0 0 2 0;
#X connect 2 0 3 0;
#X connect 3 0 9 0;
#X connect 5 0 1 0;
#X connect 9 0 5 0;
