#N canvas 662 493 526 379 10;
#X obj 32 14 inlet;
#X obj 35 310 outlet;
#X obj 35 280 pack 1 1 1 1;
#X text 90 13 0..1;
#X obj 30 36 min 1;
#X obj 30 58 max 0;
#X obj 56 190 + 1;
#X obj 56 212 * 0.5;
#X obj 87 240 pow 2;
#X obj 134 240 pow 3;
#X obj 36 88 t b f;
#X obj 180 322 print;
#X floatatom 147 26 5 0 0 0 - - -, f 5;
#X floatatom 114 178 9 0 0 0 - - -, f 9;
#X obj 56 168 cos;
#X obj 56 147 * 3.1415;
#X obj 64 125 - 1;
#X connect 0 0 4 0;
#X connect 2 0 1 0;
#X connect 2 0 11 0;
#X connect 4 0 5 0;
#X connect 5 0 10 0;
#X connect 6 0 7 0;
#X connect 7 0 2 1;
#X connect 7 0 8 0;
#X connect 7 0 9 0;
#X connect 8 0 2 2;
#X connect 9 0 2 3;
#X connect 10 0 2 0;
#X connect 10 1 16 0;
#X connect 12 0 10 0;
#X connect 14 0 6 0;
#X connect 14 0 13 0;
#X connect 15 0 14 0;
#X connect 16 0 15 0;
