#N canvas 299 166 294 352 10;
#X obj 32 14 inlet;
#X obj 36 283 outlet;
#X obj 36 253 pack 1 1 1 1;
#X text 90 13 0..1;
#X obj 30 36 min 1;
#X obj 30 58 max 0;
#X obj 57 141 cos;
#X obj 57 120 * 3.1415;
#X obj 57 163 + 1;
#X obj 57 185 * 0.5;
#X obj 88 213 pow 2;
#X obj 135 213 pow 3;
#X obj 36 88 t b f;
#X connect 0 0 4 0;
#X connect 2 0 1 0;
#X connect 4 0 5 0;
#X connect 5 0 12 0;
#X connect 6 0 8 0;
#X connect 7 0 6 0;
#X connect 8 0 9 0;
#X connect 9 0 2 1;
#X connect 9 0 10 0;
#X connect 9 0 11 0;
#X connect 10 0 2 2;
#X connect 11 0 2 3;
#X connect 12 0 2 0;
#X connect 12 1 7 0;
