#N canvas 557 98 600 506 10;
#X obj 45 36 inlet;
#X obj 41 395 outlet;
#X obj 45 58 min 1;
#X obj 45 80 max 0;
#X text 55 98 0..1;
#X obj 43 371 pp ambi_weight;
#X text 65 8 amb/weight <ch.id> order;
#X text 164 87 list of weights dependend on order from 0 to 1;
#X obj 208 182 + 1;
#X obj 236 271 pow 2;
#X floatatom 266 170 9 0 0 0 - - -, f 9;
#X obj 208 160 cos;
#X obj 208 139 * 3.1415;
#X obj 208 115 - 1;
#X obj 224 370 pack 1 1 1 1 1 1 1 1 1 1;
#X obj 255 291 pow 3;
#X obj 274 313 pow 4;
#X obj 224 392 list split \$3;
#X obj 224 414 list append 1;
#X obj 207 230 t f f;
#X obj 210 206 * 0.5;
#X connect 0 0 2 0;
#X connect 2 0 3 0;
#X connect 5 0 1 0;
#X connect 8 0 20 0;
#X connect 9 0 14 1;
#X connect 11 0 8 0;
#X connect 11 0 10 0;
#X connect 12 0 11 0;
#X connect 13 0 12 0;
#X connect 14 0 17 0;
#X connect 15 0 14 2;
#X connect 16 0 14 3;
#X connect 17 0 18 0;
#X connect 19 0 14 0;
#X connect 19 1 9 0;
#X connect 19 1 15 0;
#X connect 19 1 16 0;
#X connect 20 0 19 0;
