#N canvas 293 52 820 334 10;
#X declare -lib iemlib1;
#X declare -lib zexy;
#X declare -stdpath iemlib;
#X declare -lib iemlib2;
#X declare -lib iemmatrix;
#X declare -lib iem_ambi;
#X declare -lib iem_bin_ambi;
#X declare -path iemlib;
#X declare -path ../..;
#X text 22 8 Example 3.Ordnung Ambisonics Mixer;
#N canvas 183 356 966 440 init 0;
#X msg 44 115 \; pd-GUI vis 1;
#X obj 45 32 acre/initbang;
#X obj 44 93 r second_init;
#X obj 217 10 acre/initbang;
#X msg 45 54 \; /mxr/fadetime 30 \;;
#X obj 264 47 bng 15 250 50 0 empty empty empty 17 7 0 10 -262144 -1
-1;
#X obj 248 77 amb/initbangs;
#X obj 217 45 t b b;
#X text 355 78 inits for dynmic patching;
#X text 233 117 load a default calibration;
#X text 481 116 (relative to ds/ lib );
#X text 188 203 load settings for mixer and playback relativ to acre
lib;
#X msg 217 139 \; /cal/program/load symbol amb/examples/mixer3D3O-13.1_cal.txt
\; /cal/program/nr 0 \; /cal/program/recall bang, f 76;
#X msg 179 220 \; /set/program/load symbol amb/examples/mixer3D3O-13.1.txt
/set/program/recall bang;
#X obj 649 273 openpanel;
#X obj 668 250 bng 15 250 50 0 empty empty empty 17 7 0 10 -262144
-1 -1;
#X msg 133 378 /amb/dec/load symbol /home/winfried/repos/acre_wdc3/amb/examples/mixer3D3O-13.1.mtx
;
#X msg 135 318 \; /amb/dec/load symbol examples/mixer3D3O-13.1.mtx
\;;
#X msg 647 294 set \, add \, add /amb/dec/load symbol \$1;
#X connect 1 0 4 0;
#X connect 2 0 0 0;
#X connect 3 0 7 0;
#X connect 5 0 6 0;
#X connect 7 0 13 0;
#X connect 7 0 12 0;
#X connect 7 0 17 0;
#X connect 7 1 6 0;
#X connect 14 0 18 0;
#X connect 15 0 14 0;
#X connect 18 0 17 0;
#X restore 23 22 pd init;
#N canvas 570 242 303 290 declares 0;
#X obj 18 58 declare -lib iemlib1;
#X obj 18 111 declare -lib zexy;
#X obj 18 94 declare -stdpath iemlib;
#X text 33 30 for acre;
#X text 38 141 for amb;
#X obj 17 75 declare -lib iemlib2;
#X obj 20 164 declare -lib iemmatrix;
#X text 41 210 for binaural tools;
#X obj 17 190 declare -lib iem_ambi;
#X obj 17 238 declare -lib iem_bin_ambi;
#X obj 20 8 declare -path iemlib;
#X restore 22 42 pd declares;
#X text 16 66 patch should work in parent dir;
#N canvas 456 102 725 404 GUI 1;
#X obj 219 55 mxr/test/tones_ctl 1;
#X obj 19 55 mxr/master/ctl;
#X obj 119 55 mxr/mo/ctl;
#X obj 529 54 ds/ctl /set;
#X obj 429 54 ds/ctl /cal;
#X obj 338 90 tgl 15 0 /amb/player/A/play /amb/player/A/play play_A
17 7 0 10 -262144 -1 -1 0 1;
#X obj 338 115 bng 15 250 50 0 /amb/player/A/open /amb/player/A/open
open 17 7 0 10 -262144 -1 -1;
#X obj 19 255 amb/bus_ctl~ 3D 3 AMB1;
#X obj 22 34 bng 15 250 50 0 /amb/initbang /amb/initbang REINIT 17
7 0 10 -262144 -1 -1;
#X text 341 67 player;
#X text 327 28 testchannel;
#X obj 69 255 amb/outs_ctl BOXEN 14 out;
#X obj 219 255 amb/spat_ctl ch1;
#X obj 423 305 bng 15 250 50 0 empty empty empty 17 7 0 10 -262144
-1 -1;
#X obj 425 327 openpanel;
#X obj 425 349 s /amb/dec/load;
#X obj 676 333 tgl 15 0 empty empty empty 17 7 0 10 -262144 -1 -1 0
1;
#X obj 436 264 bng 15 250 50 0 /amb/dec/print /amb/dec/print dec 17
7 0 10 -262144 -1 -1;
#X text 442 304 load decoder matrix;
#X connect 13 0 14 0;
#X connect 14 0 15 0;
#X restore 294 21 pd GUI;
#X obj 297 79 mxr/test/tones~ 1;
#X obj 11 287 mxr/master/master~;
#X obj 172 269 mxr/mo/master~;
#X obj 322 106 mxr/mo/send~ /tt;
#X text 162 142 1 Make a bus;
#X text 10 225 --- Out Kanaele (DACs) und Monitor ---;
#X text 18 114 --- Ambisonics Bus AMB1/Decoder ---;
#X obj 16 138 amb/bus~ 3D 3 AMB1;
#X text 9 246 13 Boxen + SUB;
#X obj 306 268 ds/storage_logic /cal;
#X obj 478 77 mxr/test/tones_ds /set 1;
#X text 339 51 --- TEST Channel with encoder ---;
#X text 348 157 --- Ambisonics Player ---;
#X obj 315 222 amb/player A 16 AMB1;
#X obj 112 39 ds/storage_logic /set;
#X obj 315 199 amb/order2chls 3D 3;
#X obj 315 176 r /amb/encinit;
#X obj 18 86 declare -path ../..;
#X obj 11 268 amb/outs BOXEN 14 out;
#X obj 306 291 amb/outs_ds BOXEN 14 out /cal;
#X obj 171 289 throw~ /amb/out/3;
#X text 233 166 13 outs;
#X obj 14 164 amb/decoder~ 3D 3 AMB1 out 13;
#X obj 296 133 amb/spat~ ch1 3D 3 AMB1;
#X obj 478 128 amb/spat_ds /set ch1;
#N canvas 1034 513 450 300 TODO 0;
#X text 10 37 - Distance from 0..1 (has to be discussed);
#X text 12 65 - 3D-Reverb;
#X text 11 51 - distance signal objects with first reflection simulation
;
#X text 11 95 - directional_loudness;
#X text 12 79 - rotate \, mirror;
#X text 12 110 - virtual microphones;
#X text 13 125 - widening on sides;
#X text 13 141 - B-Format encoder for various microphones;
#X text 19 7 Some ideas for next semester;
#X text 17 182 Controller;
#X text 12 158 - Binaural rendering;
#X text 27 202 Headtracker for binaural;
#X text 27 220 Gyroskop for spat;
#X restore 387 19 pd TODO;
#X obj 553 173 env~;
#X floatatom 553 195 5 0 0 0 - - -, f 5;
#X obj 533 285 throw~ /amb/out/2;
#X floatatom 568 226 5 0 0 0 - - -, f 5;
#X msg 568 245 set /amb/out/\$1;
#X obj 603 176 for++ 1 13 300;
#X obj 640 141 bng 15 250 50 0 empty empty empty 17 7 0 10 -262144
-1 -1;
#X connect 5 0 8 0;
#X connect 5 0 28 0;
#X connect 7 0 25 0;
#X connect 20 0 18 0;
#X connect 21 0 20 0;
#X connect 31 0 32 0;
#X connect 34 0 35 0;
#X connect 35 0 33 0;
#X connect 36 0 34 0;
#X connect 37 0 36 0;
