#N canvas 1218 539 699 422 10;
#X declare -path ../;
#X declare -lib iemlib1;
#X declare -lib iemlib2;
#X declare -lib zexy;
#X declare -stdpath iemlib;
#X declare -path /usr/lib/pd/extra/iemlib;
#X obj 21 73 declare -path ../;
#X obj 21 96 declare -lib iemlib1;
#X obj 21 115 declare -lib iemlib2;
#X obj 20 171 declare -lib zexy;
#X obj 21 132 declare -stdpath iemlib;
#X text 22 53 inlcudes and libs needed;
#X text 98 373 use the dac~ ensures you the routing on different setups
;
#N canvas 180 614 599 300 init 0;
#X obj 45 32 loadbang;
#X msg 45 54 \; /mxr/dsp 1 \; /mxr/fadetime 30 \;;
#X msg 215 60 \; /test/program/load symbol ../mxr/mxr.txt \; /test/program/nr
0 \; /test/program/recall bang;
#X connect 0 0 1 0;
#X connect 0 0 2 0;
#X restore 23 22 pd init;
#X obj 234 65 ds/storage_logic /test;
#X text 223 43 --- data storage for example ---;
#X text 233 4 example/test patch for out with master \, one sub and
4 outs;
#X obj 448 235 noise~;
#X obj 447 281 prvu~;
#X obj 447 304 s A/vu;
#X obj 522 284 env~;
#X floatatom 522 306 5 0 0 0 - - -, f 5;
#N canvas 1267 72 650 641 out_mixer 0;
#X obj 19 576 dac~ 1 2 3 4 5 6;
#X obj 30 186 mxr/mo/prepost~ /out/1;
#X text 176 529 --- Monitoring Master ---;
#X text 13 4 Example dsp patch for 4 outs \, Out 1 and 2 with subwoofer
functionality \, out 3-4 without sub and monitoring master;
#X text 10 71 --- Master section with id: "/out" ---;
#X obj 327 84 mxr/master/ds /test /out;
#X obj 326 136 mxr/out/ds /test /out/1;
#X obj 323 226 mxr/out/ds /test /out/2;
#X obj 326 316 mxr/out/ds /test /out/3;
#X obj 324 375 mxr/out/ds /test /out/4;
#X text 216 587 (c) GPL \, acre - winfried ritsch;
#X obj 142 549 mxr/mo/master~;
#X obj 11 88 mxr/master/master~ /out;
#X text 54 36 === signal routing ===;
#X text 85 105 --- out with subout and monitoring pre/post sub ---
, f 58;
#X obj 36 246 mxr/mo/send~ /out/2;
#X text 156 288 --- simple out with monitor ---;
#X text 187 356 --- simple out ---;
#X obj 68 335 mxr/mo/send~ /out/3;
#X text 309 36 === data storage for mixer ===;
#X obj 326 156 mxr/out/sub_ds /test /out/1/sub;
#X obj 325 268 mxr/out/sub_ds /test /out/2/sub;
#X text 161 204 --- out with subout 4-order and monitoring ---;
#X text 137 394 --- sub master and monitoring ---;
#X text 142 460 --- submaster 4th order ---;
#X obj 138 439 mxr/mo/send~ /out/sub/1;
#X obj 337 413 mxr/sub/ds /test /out/sub/1;
#X obj 37 271 mxr/out/sub4~ /out/2/sub /out/2 /out/sub/2;
#X obj 20 156 mxr/out/sub~ /out/1/sub /out/1 /out/sub/1;
#X obj 363 491 mxr/sub/ds /test /out/sub/2;
#X obj 37 224 mxr/out/ch~ /out/2 /out;
#X obj 60 309 mxr/out/ch~ /out/3 /out;
#X obj 83 374 mxr/out/ch~ /out/4 /out;
#X obj 21 130 mxr/out/ch~ /out/1 /out;
#X obj 106 413 mxr/sub/master~ /out/sub/1 /out;
#X obj 129 491 mxr/sub/master4~ /out/sub/2 /out;
#X connect 11 0 0 0;
#X connect 27 0 0 1;
#X connect 28 0 0 0;
#X connect 28 0 1 1;
#X connect 30 0 15 0;
#X connect 31 0 0 2;
#X connect 31 0 18 0;
#X connect 32 0 0 3;
#X connect 33 0 1 0;
#X connect 34 0 0 4;
#X connect 34 0 25 0;
#X connect 35 0 0 5;
#X restore 186 205 pd out_mixer;
#X text 28 188 --- MIXER Main Section with out channels ...;
#X text 445 217 --- general fader unit ...;
#N canvas 7 57 450 300 experimental 0;
#X obj 67 60 mxr/test/recorder~;
#X restore 538 28 pd experimental;
#X text 29 231 --- testone to out buses ---;
#X obj 55 326 throw~ /out/3~;
#X obj 35 346 throw~ /out/4~;
#N canvas 6 52 450 347 GUI 0;
#X obj 133 156 vu 8 120 A/vu A -1 -8 0 8 -66577 -1 1 0;
#X text 77 8 --- fader-guis ---;
#X text 168 103 fader-vu_ctl;
#X text 75 100 fader_ctrl;
#X obj 194 120 mxr/fader/vu_ctl A OUT_A;
#X obj 61 124 mxr/fader/ctl A CH_A;
#X obj 102 43 fader/volvu_ctl A out_A;
#X restore 144 24 pd GUI fader;
#X obj 33 254 mxr/test/tones~ 1;
#X obj 447 259 mxr/fader/fader~ A 50;
#N canvas 1290 105 566 303 in_mixer 0;
#X obj 19 39 adc~ 1;
#X obj 15 139 mxr/in/bus~ /bus/X;
#X obj 18 60 mxr/in/ch~ /in/1;
#X obj 18 82 throw~ /bus/X~;
#X obj 15 117 catch~ /bus/X~;
#X obj 15 169 throw~ /bus/Y~;
#X obj 15 199 catch~ /bus/Y~;
#X obj 153 89 throw~ /bus/X~;
#X obj 154 46 adc~ 2;
#X obj 296 52 mxr/in/ch_ds /test /in/1;
#X obj 296 74 mxr/in/ch_ds /test /in/2;
#X obj 297 105 mxr/in/bus_ds /test /bus/X;
#X obj 297 131 mxr/in/bus_ds /test /bus/Y;
#X obj 15 221 mxr/in/buslive~ /bus/Y;
#X obj 15 247 throw~ /out/1~;
#X obj 137 249 throw~ /out/2~;
#X text 16 4 Two Inchannels from ADC goes to one Bus X \, which goes
into a second BUS Y with livecontrol;
#X text 71 271 to out channels;
#X text 291 31 --- data storages for this ---;
#X text 276 223 (c) GPL \, acre winfried ritsch;
#X obj 153 67 mxr/in/ch~ /in/2;
#X connect 0 0 2 0;
#X connect 1 0 5 0;
#X connect 2 0 3 0;
#X connect 4 0 1 0;
#X connect 6 0 13 0;
#X connect 8 0 20 0;
#X connect 13 0 14 0;
#X connect 13 0 15 0;
#X connect 20 0 7 0;
#X restore 55 206 pd in_mixer;
#X obj 84 288 throw~ /in/1~;
#X obj 72 309 throw~ /in/2~;
#X text 236 88 --- data storage for testtones ---;
#X text 504 388 (c) GPL - acre \, ritsch;
#N canvas 737 464 800 558 GUI-EXAMPLE 1;
#X obj 428 47 ds/ctl /test;
#X text 261 -1 test main patches for out Mixer with 1 sub and 4 outs
;
#X obj 221 368 tgl 15 0 /out/2/monitor/send /out/2/monitor/send mo
1 7 1 10 -257985 -1 -1 0 1;
#X obj 121 368 tgl 15 0 /out/1/monitor/pre /out/1/monitor/pre pre 1
7 1 10 -257985 -1 -1 0 1;
#X obj 139 368 tgl 15 0 /out/1/monitor/post /out/1/monitor/post pst
1 7 1 10 -257985 -1 -1 0 1;
#X text 25 -3 Mixer Main Section with Ctls;
#X obj 324 47 mxr/mo/ctl;
#X obj 121 267 mxr/out/ctl /out/1;
#X obj 120 47 mxr/sub/ctl /out/sub/1;
#N canvas 913 442 450 300 alternative 0;
#X obj 271 87 fader/vol_ctl /out/4 OUT4;
#X obj 160 85 fader/volvu_ctl /out/3 OUT3;
#X text 43 21 instead of out/ctl fader GUIs can be used;
#X text 162 42 fader/volvu_ctl;
#X text 275 63 fader/vol_ctl;
#X text 21 44 mxr/fader/vu_ctl;
#X text 70 64 mxr/fader/ctl;
#X obj 31 79 mxr/fader/vu_ctl /out/1 OUT1;
#X obj 94 82 mxr/fader/ctl /out/2 OUT2;
#X restore 121 482 pd alternative out channels;
#X obj 20 47 mxr/master/ctl /out;
#X obj 14 270 mxr/test/tones_ctl 1;
#X obj 129 65 tgl 15 0 /out/sub/1/monitor/send /out/sub/1/monitor/send
m 4 7 1 10 -257985 -1 -1 0 1;
#X obj 326 267 mxr/in/bus_ctl /bus/X;
#X obj 554 47 mxr/in/ch_ctl /in/1;
#X obj 432 267 mxr/in/buslive_ctl /bus/Y;
#X text 558 28 --- Channel Strips ---;
#X text 568 508 --- Channel Strips ---;
#X text 27 27 ---Master---;
#X text 179 27 - sub-master -;
#X text 328 27 -Monitoring-;
#X text 19 250 - Testtones -;
#X text 427 27 --- Scenes ---;
#X text 334 245 --- bus ---;
#X text 428 244 --- buslive ---;
#X text 122 248 --- out \, subout channels ---;
#X obj 654 47 mxr/in/ch_ctl /in/2;
#X obj 221 267 mxr/out/ctl /out/2;
#X obj 121 417 mxr/out/ctl /out/3;
#X obj 221 417 mxr/out/ctl /out/4;
#X obj 121 402 tgl 15 0 /out/3/monitor/send /out/3/monitor/send mo
1 7 1 10 -257985 -1 -1 0 1;
#X text 153 398 --- simple outs ---;
#X obj 121 317 mxr/out/sub_ctl /out/1/sub;
#X obj 221 317 mxr/out/sub_ctl /out/2/sub;
#X obj 220 47 mxr/sub/ctl /out/sub/2;
#X restore 246 23 pd GUI-EXAMPLE;
#X obj 20 151 declare -path /usr/lib/pd/extra/iemlib;
#X text 297 152 on old debians;
#X connect 11 0 25 0;
#X connect 12 0 13 0;
#X connect 14 0 15 0;
#X connect 24 0 21 0;
#X connect 24 0 22 0;
#X connect 24 0 27 0;
#X connect 24 0 28 0;
#X connect 25 0 12 0;
#X connect 25 0 14 0;
