#N canvas 342 52 786 342 10;
#X declare -path ../;
#X declare -lib iemlib1;
#X declare -lib iemlib2;
#X declare -lib zexy;
#X declare -stdpath iemlib;
#N canvas 1135 52 596 342 GUI 0;
#X text 23 11 test main patches for out Mixer with 1 sub and 4 outs
;
#X obj 410 58 ds/ctl /test;
#X obj 210 58 mxr/mo/ctl;
#X obj 310 58 mxr/test/tones_ctl 1;
#X obj 6 60 master/stereo_ctl;
#X restore 90 23 pd GUI;
#X obj 21 73 declare -path ../;
#X obj 21 96 declare -lib iemlib1;
#X obj 21 115 declare -lib iemlib2;
#X obj 21 149 declare -lib zexy;
#X obj 21 132 declare -stdpath iemlib;
#X text 22 53 inlcudes and libs needed;
#N canvas 68 434 450 300 init 0;
#X obj 45 32 loadbang;
#X msg 45 54 \; /mxr/dsp 1 \; /mxr/fadetime 30 \;;
#X msg 215 60 \; /test/program/load symbol test.txt \; /test/program/nr
0 \; /test/program/recall bang;
#X connect 0 0 1 0;
#X restore 23 22 pd init;
#X obj 234 65 ds/storage_logic /test;
#X text 341 39 --- data storage for example ---;
#X text 225 12 example/test patch for out with master \, one sub and
4 outs;
#X text 28 188 --- MIXER Main Section with out channels ...;
#X obj 254 280 dac~ 1 2;
#X obj 84 288 throw~ /out/1~;
#X obj 72 309 throw~ /out/2~;
#X obj 237 111 mxr/out/ds /test /out/1;
#X obj 236 132 mxr/out/ds /test /out/2;
#X obj 218 232 mxr/mo/master~;
#X obj 33 254 mxr/test/tones~ 1;
#X obj 254 258 master/stereo~;
#X obj 390 269 master/stereo_ds /test;
#X obj 234 85 mxr/master/ds /test;
#X connect 17 0 12 0;
#X connect 18 0 13 0;
#X connect 18 0 14 0;
#X connect 19 0 12 0;
#X connect 19 1 12 1;
