#N canvas 336 52 786 342 10;
#X declare -path ../;
#X declare -lib iemlib1;
#X declare -lib iemlib2;
#X declare -lib zexy;
#X declare -stdpath iemlib;
#N canvas 765 52 596 342 GUI 1;
#X text 23 11 test main patches for out Mixer with 1 sub and 4 outs
;
#X obj 410 58 ds/ctl /test;
#X obj 210 58 mxr/mo/ctl;
#X obj 310 58 mxr/test/tones_ctl 1;
#X obj 6 60 master/stereo_ctl;
#X text 44 38 Master and VU;
#X restore 430 30 pd GUI;
#N canvas 113 321 518 169 init 0;
#X obj 45 32 loadbang;
#X msg 45 54 \; /mxr/dsp 1 \; /mxr/fadetime 30 \;;
#X msg 215 60 \; /test/program/load symbol test.txt \; /test/program/nr
0 \; /test/program/recall bang;
#X connect 0 0 1 0;
#X restore 22 48 pd init;
#X obj 185 44 ds/storage_logic /test;
#X text 183 23 --- data storage for example ---;
#X text 48 1 example/test patch for out with master \, one sub and
4 outs;
#X text 56 153 --- MIXER Main Section with out channels ...;
#X obj 202 259 dac~ 1 2;
#X obj 32 232 throw~ /out/1~;
#X obj 20 253 throw~ /out/2~;
#X obj 161 207 mxr/mo/master~;
#X obj 21 204 mxr/test/tones~ 1;
#X obj 202 237 master/stereo~;
#X obj 183 69 master/stereo_ds /test;
#X text 326 274 (c) GPL - acre \, ritsch;
#X obj 19 115 declare -path ../;
#N canvas 2 79 357 174 declares 0;
#X obj 16 44 declare -lib iemlib1;
#X obj 16 63 declare -lib iemlib2;
#X obj 16 97 declare -lib zexy;
#X obj 15 80 declare -stdpath iemlib;
#X text 15 19 path and libs needed for mxr;
#X restore 19 74 pd declares;
#X text 18 95 if in mxr dir;
#X obj 411 83 acre/initbang;
#X msg 411 105 \; pd-GUI vis 1;
#X text 407 62 always show GUI;
#X text 9 19 --- inits and declares;
#X connect 9 0 6 0;
#X connect 10 0 7 0;
#X connect 10 0 8 0;
#X connect 11 0 6 0;
#X connect 11 1 6 1;
#X connect 17 0 18 0;
