#N canvas 132 52 699 422 10;
#X declare -path ../;
#X declare -lib iemlib1;
#X declare -lib iemlib2;
#X declare -lib zexy;
#X declare -stdpath iemlib;
#N canvas 557 52 805 544 GUI 1;
#X obj 611 47 ds/ctl /test;
#X text 253 11 test main patches for out Mixer with 1 sub and 4 outs
;
#X obj 302 348 tgl 15 0 /out/2/monitor/pre /out/2/monitor/pre pre 1
7 1 10 -257985 -1 -1 0 1;
#X obj 322 348 tgl 15 0 /out/2/monitor/post /out/2/monitor/post pst
1 7 1 10 -257985 -1 -1 0 1;
#X obj 202 348 tgl 15 0 /out/1/monitor/pre /out/1/monitor/pre pre 1
7 1 10 -257985 -1 -1 0 1;
#X obj 220 348 tgl 15 0 /out/1/monitor/post /out/1/monitor/post pst
1 7 1 10 -257985 -1 -1 0 1;
#X text 403 30 Mixer Main Section with Ctls;
#X obj 402 47 mxr/mo/ctl;
#X obj 202 247 mxr/out/ctl /out/1;
#X obj 302 247 mxr/out/ctl /out/2;
#X obj 402 247 mxr/out/ctl /out/3;
#X obj 502 247 mxr/out/ctl /out/4;
#X obj 202 297 mxr/out/sub_ctl /out/1 /out/sub/1;
#X obj 302 297 mxr/out/sub_ctl /out/2 /out/sub/1;
#X obj 302 47 mxr/sub/ctl /out/sub/1;
#N canvas 1131 632 450 300 alternative 0;
#X obj 94 82 mxr/fader/ctl /out/2 OUT2;
#X obj 271 87 fader/vol_ctl /out/4 OUT4;
#X obj 160 85 fader/volvu_ctl /out/3 OUT3;
#X text 43 21 instead of out/ctl fader GUIs can be used;
#X text 162 42 fader/volvu_ctl;
#X text 275 63 fader/vol_ctl;
#X text 21 44 mxr/fader/vu_ctl;
#X text 70 64 mxr/fader/ctl;
#X obj 31 79 mxr/fader/vu_ctl /out/1 OUT1;
#X restore 230 514 pd alternative out channels;
#X obj 202 47 mxr/master/ctl /out;
#X obj 502 47 mxr/test/tones_ctl 1;
#X obj 311 65 tgl 15 0 /out/sub/1/monitor/send /out/sub/1/monitor/send
m 4 7 1 10 -257985 -1 -1 0 1;
#X obj 104 47 mxr/in/ch_ctl /in/2;
#X obj 402 297 mxr/in/bus_ctl /bus/X;
#X obj 4 47 mxr/in/ch_ctl /in/1;
#X obj 502 297 mxr/in/buslive_ctl /bus/Y;
#X restore 90 23 pd GUI;
#X obj 21 73 declare -path ../;
#X obj 21 96 declare -lib iemlib1;
#X obj 21 115 declare -lib iemlib2;
#X obj 21 149 declare -lib zexy;
#X obj 21 132 declare -stdpath iemlib;
#X text 22 53 inlcudes and libs needed;
#X text 98 373 use the dac~ ensures you the routing on different setups
;
#N canvas 180 614 599 300 init 0;
#X obj 45 32 loadbang;
#X msg 45 54 \; /mxr/dsp 1 \; /mxr/fadetime 30 \;;
#X msg 215 60 \; /test/program/load symbol ../mxr/mxr.txt \; /test/program/nr
0 \; /test/program/recall bang;
#X connect 0 0 1 0;
#X connect 0 0 2 0;
#X restore 23 22 pd init;
#X obj 234 65 ds/storage_logic /test;
#X text 223 43 --- data storage for example ---;
#X text 233 4 example/test patch for out with master \, one sub and
4 outs;
#X obj 448 235 noise~;
#X obj 447 281 prvu~;
#X obj 447 304 s A/vu;
#X obj 522 284 env~;
#X floatatom 522 306 5 0 0 0 - - -, f 5;
#N canvas 344 362 860 308 out_mixer 1;
#X obj 184 273 dac~ 1 2 3 4 5 6;
#X text 518 68 --- data storage for mixer ---;
#X obj 13 235 mxr/mo/master~;
#X obj 6 112 mxr/mo/prepost~ /out/1;
#X obj 42 159 mxr/mo/prepost~ /out/2;
#X obj 337 247 mxr/mo/send~ /out/sub/1;
#X obj 6 88 mxr/out/ch~ /out/1;
#X obj 167 89 mxr/out/sub~ /out/1 /out/sub/1;
#X obj 43 137 mxr/out/ch~ /out/2;
#X obj 190 130 mxr/out/sub~ /out/2 /out/sub/1;
#X obj 228 162 mxr/out/ch~ /out/3;
#X obj 278 191 mxr/out/ch~ /out/4;
#X obj 524 132 mxr/out/sub_ds /test /out/1 /out/sub/1;
#X obj 524 175 mxr/out/sub_ds /test /out/2 /out/sub/1;
#X obj 305 221 mxr/sub/master~ /out/sub/1;
#X obj 522 244 mxr/sub/ds /test /out/sub/1;
#X obj 11 55 mxr/master/master~ /out;
#X text 215 65 --- signal routing ---;
#X text 10 213 --- Monitoring Master ---;
#X text 13 4 Example dsp patch for 4 outs \, Out 1 and 2 with subwoofer
functionality \, out 3-4 without sub and monitoring master;
#X text 10 38 --- Master section with id: "/out" ---;
#X obj 526 88 mxr/master/ds /test /out;
#X obj 524 112 mxr/out/ds /test /out/1;
#X obj 524 156 mxr/out/ds /test /out/2;
#X obj 524 199 mxr/out/ds /test /out/3;
#X obj 523 221 mxr/out/ds /test /out/4;
#X connect 2 0 0 0;
#X connect 6 0 3 0;
#X connect 7 0 0 0;
#X connect 7 0 3 1;
#X connect 8 0 4 0;
#X connect 9 0 0 1;
#X connect 9 0 4 1;
#X connect 10 0 0 2;
#X connect 11 0 0 3;
#X connect 14 0 0 4;
#X connect 14 0 0 5;
#X connect 14 0 5 0;
#X restore 186 205 pd out_mixer;
#X text 28 188 --- MIXER Main Section with out channels ...;
#X text 445 217 --- general fader unit ...;
#N canvas 6 52 450 300 experimental 0;
#X obj 67 60 mxr/test/recorder~;
#X restore 538 28 pd experimental;
#X text 29 231 --- testone to out buses ---;
#X obj 55 326 throw~ /out/3~;
#X obj 35 346 throw~ /out/4~;
#N canvas 7 52 450 347 GUI 0;
#X obj 133 156 vu 8 120 A/vu A -1 -8 0 8 -66577 -1 1 0;
#X text 77 8 --- fader-guis ---;
#X text 168 103 fader-vu_ctl;
#X text 75 100 fader_ctrl;
#X obj 102 43 fader/volvu_ctl A out_A;
#X obj 61 124 mxr/fader/ctl A CH_A;
#X obj 194 120 mxr/fader/vu_ctl A OUT_A;
#X restore 144 24 pd GUI fader;
#X obj 33 254 mxr/test/tones~ 1;
#X obj 447 259 mxr/fader/fader~ A 50;
#N canvas 55 578 545 327 in_mixer 0;
#X obj 19 39 adc~ 1;
#X obj 15 139 mxr/in/bus~ /bus/X;
#X obj 18 60 mxr/in/ch~ /in/1;
#X obj 18 82 throw~ /bus/X~;
#X obj 15 117 catch~ /bus/X~;
#X obj 17 169 throw~ /bus/Y~;
#X obj 159 120 catch~ /bus/Y~;
#X obj 153 89 throw~ /bus/X~;
#X obj 153 67 mxr/in/ch~ /in/2;
#X obj 154 46 adc~ 2;
#X obj 330 52 mxr/in/ch_ds /test /in/1;
#X obj 330 74 mxr/in/ch_ds /test /in/2;
#X obj 331 105 mxr/in/bus_ds /test /bus/X;
#X obj 331 131 mxr/in/bus_ds /test /bus/Y;
#X obj 159 142 mxr/in/buslive~ /bus/Y;
#X obj 161 168 throw~ /out/1~;
#X obj 274 164 throw~ /out/2~;
#X connect 0 0 2 0;
#X connect 1 0 5 0;
#X connect 2 0 3 0;
#X connect 4 0 1 0;
#X connect 6 0 14 0;
#X connect 8 0 7 0;
#X connect 9 0 8 0;
#X connect 14 0 15 0;
#X connect 14 0 16 0;
#X restore 55 206 pd in_mixer;
#X obj 84 288 throw~ /in/1~;
#X obj 72 309 throw~ /in/2~;
#X text 236 88 --- data storage for testtones ---;
#X text 504 388 (c) GPL - acre \, ritsch;
#X connect 12 0 26 0;
#X connect 13 0 14 0;
#X connect 15 0 16 0;
#X connect 25 0 22 0;
#X connect 25 0 23 0;
#X connect 25 0 28 0;
#X connect 25 0 29 0;
#X connect 26 0 13 0;
#X connect 26 0 15 0;
