#N canvas 1096 603 614 297 10;
#X obj 11 11 cnv 15 48 198 empty \$1/cnv \$2 2 8 0 12 -162280 -66577
0;
#X obj 11 185 nbx 3 12 -1e+37 1e+37 0 0 \$1/vol \$1/vol empty 0 -8
0 8 -4034 -1 -1 96 256;
#X obj 11 52 vsl 15 128 0 127 0 0 \$1/vol/fad \$1/vol/fad empty 0 -9
0 10 -4034 -1 -1 6600 1;
#X obj 11 30 tgl 15 0 \$1/mute \$1/mute mute 18 7 0 10 -258113 -1 -1
1 1;
#X msg 81 97 set \$1;
#X text 102 12 mxr/fader_ctl <prefix>;
#X obj 81 54 r \$1/vol;
#X obj 81 75 mxr/db2fader;
#X obj 88 217 mxr/fader2db;
#X obj 88 240 s \$1/vol;
#X text 187 120 Note: feedback control could be more enhanced;
#X text 187 43 Idea: volumes are stored in MIDI-dB so they can be edited
in files and init's more intuitivly \, but when controlled ore viewed
with fader more like a real fader for fine control within 0dB;
#X text 186 139 Note: size of fader should be controlled more easily
as parameter;
#X obj 88 192 r \$1/vol/fad;
#X obj 81 127 s \$1/vol/fad;
#X obj 27 61 vu 8 120 \$1/vu empty -1 -8 0 8 -66577 -1 1 0;
#X connect 4 0 14 0;
#X connect 6 0 7 0;
#X connect 7 0 4 0;
#X connect 8 0 9 0;
#X connect 13 0 8 0;
#X coords 0 -1 1 1 50 200 2 10 10;
