#N canvas 686 319 450 300 10;
#X obj 38 214 outlet;
#X text 35 42 to used as a mapping of fader instead linear dbtorms
;
#X text 33 59 can be overwritten with own function;
#X text 98 191 Note: Likely to redone with own mapping to choose from
;
#X text 44 259 acre lib \, (c) atelier algorythmics;
#X obj 38 190 fadtodb;
#X text 34 17 acre/fader2db;
#X msg 99 163 0;
#X obj 38 163 f 0;
#X obj 138 163 t b;
#X obj 238 105 sel 0 1;
#X obj 38 103 route set float mute unmute;
#X obj 238 81 inlet mute;
#X obj 38 78 inlet fad;
#X connect 5 0 0 0;
#X connect 7 0 5 0;
#X connect 8 0 5 0;
#X connect 9 0 8 0;
#X connect 10 0 7 0;
#X connect 10 1 9 0;
#X connect 11 0 8 0;
#X connect 11 2 7 0;
#X connect 11 3 9 0;
#X connect 12 0 10 0;
#X connect 13 0 11 0;
