#N canvas 1072 485 614 297 10;
#X obj 11 11 cnv 15 48 198 empty \$1/cnv \$1 2 8 0 12 -162280 -66577
0;
#X obj 14 185 nbx 3 12 -1e+37 1e+37 0 0 \$1/vol \$1/vol empty 0 -8
0 8 -4034 -1 -1 78.3333 256;
#X obj 14 52 vsl 15 128 0 127 0 0 \$1/vol/fad \$1/vol/fad empty 0 -9
0 10 -4034 -1 -1 3400 1;
#X obj 20 29 tgl 15 0 \$1/mute \$1/mute mute 17 7 0 8 -258113 -1 -1
0 1;
#X text 26 88 -0dB;
#X msg 81 97 set \$1;
#X text 30 154 -40;
#X text 30 109 - 5;
#X text 30 66 + 5;
#X text 102 12 acre/fader_ctl <prefix>;
#X obj 81 54 r \$1/vol;
#X obj 81 75 acre/db2fader;
#X obj 88 217 acre/fader2db;
#X text 30 56 +12;
#X text 30 43 +22;
#X text 30 124 -12;
#X text 30 141 -24;
#X text 30 172 0;
#X obj 88 240 s \$1/vol;
#X text 187 120 Note: feedback control could be more enhanced;
#X text 187 43 Idea: volumes are stored in MIDI-dB so they can be edited
in files and init's more intuitivly \, but when controlled ore viewed
with fader more like a real fader for fine control within 0dB;
#X text 186 139 Note: size of fader should be controlled more easily
as parameter;
#X obj 88 192 r \$1/vol/fad;
#X obj 81 127 s \$1/vol/fad;
#X connect 5 0 23 0;
#X connect 10 0 11 0;
#X connect 11 0 5 0;
#X connect 12 0 18 0;
#X connect 22 0 12 0;
#X coords 0 -1 1 1 50 200 2 10 10;
