#N canvas 798 783 438 257 10;
#X obj 256 63 mxr/master~;
#X obj 33 107 outlet~;
#X obj 140 112 outlet~;
#X obj 24 173 mxr/monitor_send~ /out/1;
#X obj 201 176 mxr/monitor_send~ /out/2;
#X text 19 33 simple stereo out without sub;
#X text 24 10 master_stereo~;
#X obj 23 58 mxr/out~ /out/1;
#X obj 140 59 mxr/out~ /out/2;
#X connect 7 0 1 0;
#X connect 7 0 3 0;
#X connect 8 0 4 0;
#X connect 8 0 2 0;
