#N canvas 687 626 450 283 10;
#X obj 30 95 *~;
#X obj 48 73 r~ /master/fade~;
#X text 29 10 master_fade~;
#X text 49 51 apply a master_fade;
#X obj 29 34 inlet~;
#X obj 30 117 outlet~;
#X text 27 145 (c)algorythmics \, winfried ritsch;
#X connect 0 0 5 0;
#X connect 1 0 0 1;
#X connect 4 0 0 0;
