#N canvas 269 454 436 282 10;
#X text 37 19 master~;
#X obj 20 192 line~;
#X obj 20 129 pack 0 50;
#X obj 137 102 r /mxr/fadetime;
#X obj 96 139 r /out/mute;
#X msg 123 190 0 3;
#X obj 261 88 r /mxr/dsp;
#X obj 261 157 s /mxr/load;
#X obj 19 82 r /out/master;
#X obj 99 168 sel 0 1;
#X obj 20 216 s~ /master/fade~;
#X obj 261 113 dsp;
#X obj 261 135 pack 0 0;
#X text 37 45 master generates the Mastervolume signal and MUTE functionality
;
#N canvas 651 595 450 300 init 0;
#X obj 52 51 loadbang;
#X msg 52 73 \; /mxr/fadetime 50;
#X text 172 79 50ms is 20Hz \, as default;
#X connect 0 0 1 0;
#X restore 180 18 pd init;
#X obj 19 104 dbtorms;
#X connect 1 0 10 0;
#X connect 2 0 1 0;
#X connect 3 0 2 1;
#X connect 4 0 9 0;
#X connect 5 0 1 0;
#X connect 6 0 11 0;
#X connect 8 0 15 0;
#X connect 9 0 2 0;
#X connect 9 1 5 0;
#X connect 11 0 12 0;
#X connect 11 1 12 1;
#X connect 12 0 7 0;
#X connect 15 0 2 0;
