#N canvas 500 186 531 336 10;
#X obj 235 86 r /mxr/fadetime;
#X text 67 44 Note a sub~ master and the out is needed !;
#X obj 194 257 r /mxr/fadetime;
#X obj 65 304 outlet~;
#X text 121 304 hipghpassed output for use with subwoofer;
#X text 70 19 out_sub~ <out id> <sub_id>;
#X obj 66 276 hp1~ 10 50;
#X obj 67 75 r~ \$1~;
#X obj 87 182 throw~ \$2~;
#X obj 90 237 r \$1\$2/hp;
#X obj 86 156 fader~ \$1\$2;
#X connect 0 0 10 1;
#X connect 2 0 6 2;
#X connect 6 0 3 0;
#X connect 7 0 6 0;
#X connect 7 0 10 0;
#X connect 9 0 6 1;
#X connect 10 0 8 0;
