#N canvas 495 191 450 336 10;
#X obj 235 86 r /mxr/fadetime;
#X obj 67 75 r~ /out/\$1;
#X obj 87 182 throw~ /out/sub_\$2;
#X text 67 44 Note a sub~ master and the out is needed !;
#X obj 194 257 r /mxr/fadetime;
#X obj 65 304 outlet~;
#X text 121 304 hipghpassed output for use with subwoofer;
#X obj 90 237 r /out/\$1/sub/\$2/hp;
#X text 70 19 out_sub~ <out id> <sub_id>;
#X obj 66 276 hp1~ 10 50;
#X obj 87 157 fader~ /out/\$1/sub 50;
#X connect 0 0 10 1;
#X connect 1 0 9 0;
#X connect 1 0 10 0;
#X connect 4 0 9 2;
#X connect 7 0 9 1;
#X connect 9 0 5 0;
#X connect 10 0 2 0;
