#N canvas 263 586 413 327 10;
#X obj 9 202 outlet~;
#X text 8 225 (c)algorythmics \, winfried ritsch;
#X text 15 35 out~ <id>;
#X obj 103 101 r /mxr/fadetime;
#X obj 11 158 master_fade~;
#X obj 11 63 catch~ \$1~;
#X obj 10 125 fader~ \$1;
#X obj 72 202 s~ \$1~;
#X obj 158 202 prvu_send \$1/vu;
#N canvas 102 599 327 132 init 0;
#X obj 59 29 loadbang;
#X obj 60 72 s \$1/vol;
#X msg 59 50 100;
#X connect 0 0 2 0;
#X connect 2 0 1 0;
#X restore 134 67 pd init;
#X connect 3 0 6 1;
#X connect 4 0 0 0;
#X connect 4 0 7 0;
#X connect 4 0 8 0;
#X connect 5 0 6 0;
#X connect 6 0 4 0;
