#N canvas 164 449 413 327 10;
#X obj 9 202 outlet~;
#X text 8 225 (c)algorythmics \, winfried ritsch;
#X obj 11 63 catch~ /out/\$1;
#X obj 72 202 s~ /out/\$1;
#X text 15 35 out~ <id>;
#N canvas 4 105 327 132 init 0;
#X obj 59 29 loadbang;
#X obj 59 51 any \$1;
#X msg 59 73 \; /out/\$1/vol 100;
#X connect 0 0 1 0;
#X connect 1 0 2 0;
#X restore 134 67 pd init;
#X obj 103 101 r /mxr/fadetime;
#X obj 11 158 master_fade~;
#X obj 158 202 prvu_send /out/\$1/vu;
#X obj 10 125 fader~ /out/\$1;
#X connect 2 0 9 0;
#X connect 6 0 9 1;
#X connect 7 0 0 0;
#X connect 7 0 3 0;
#X connect 7 0 8 0;
#X connect 9 0 7 0;
