#N canvas 474 416 746 536 10;
#X obj 7 59 inlet~;
#X obj 59 58 inlet~;
#X msg 339 393 open \$1 \, start;
#X obj 347 4 inlet;
#X obj 346 26 select 1 0;
#X msg 447 75 stop;
#X obj 339 422 t a;
#X obj 6 115 *~ 0.5;
#X obj 344 56 t b b;
#X obj 420 52 t b b;
#X obj 417 422 switch~;
#X msg 420 76 0;
#X msg 374 421 1;
#X obj 54 114 *~ 0.5;
#X text 32 14 recorder <name of file in /tmp>;
#X text 344 -18 toggle;
#X text 17 28 first rough draft \, has to be refined;
#X text 252 -33 (c)algorythmics \, winfried ritsch;
#X obj 13 453 writesf~ 2;
#X obj 340 295 pack s s s;
#X obj 396 257 makefilename %03d.wav;
#X obj 342 177 symbol \$1;
#X floatatom 474 206 5 0 0 0 - - -, f 5;
#X obj 363 228 makefilename scene%03d_;
#X obj 349 142 t b b b;
#X floatatom 408 203 5 0 0 0 - - -, f 5;
#X obj 409 175 i \$2;
#X obj 468 178 i \$3;
#X obj 282 114 bng 15 250 50 0 empty empty empty 17 7 0 10 -262144
-1 -1;
#X obj 491 73 inlet scene;
#X obj 574 72 inlet version;
#X msg 337 324 symbol \$1/rec_\$2\$3;
#X obj 477 344 print record:;
#X obj 672 71 inlet pfad;
#X text 469 -8 ctl with toggle 1|0;
#X text 500 45 use scene number version and path for filename;
#X connect 0 0 7 0;
#X connect 1 0 13 0;
#X connect 2 0 6 0;
#X connect 3 0 4 0;
#X connect 4 0 8 0;
#X connect 4 1 9 0;
#X connect 5 0 6 0;
#X connect 6 0 18 0;
#X connect 6 0 32 0;
#X connect 7 0 18 0;
#X connect 8 0 24 0;
#X connect 8 1 12 0;
#X connect 9 0 11 0;
#X connect 9 1 5 0;
#X connect 11 0 10 0;
#X connect 12 0 10 0;
#X connect 13 0 18 1;
#X connect 19 0 31 0;
#X connect 20 0 19 2;
#X connect 21 0 19 0;
#X connect 22 0 20 0;
#X connect 23 0 19 1;
#X connect 24 0 21 0;
#X connect 24 1 26 0;
#X connect 24 2 27 0;
#X connect 25 0 23 0;
#X connect 26 0 25 0;
#X connect 27 0 22 0;
#X connect 28 0 24 0;
#X connect 29 0 26 1;
#X connect 30 0 27 1;
#X connect 31 0 2 0;
#X connect 33 0 21 1;
