#N canvas 1181 193 435 464 10;
#X obj 49 390 outlet~;
#X obj 47 201 *~;
#X obj 47 224 lp1~ 90;
#X text 101 228 Crossover can be set also here;
#X text 101 248 Note: many poeple think the must be sharp;
#X text 101 268 I think they should be smooth so 1st order;
#X obj 95 183 line~;
#X obj 95 137 fadtorms;
#X obj 95 160 pack 0 50;
#X obj 158 136 r /mxr/fadetime;
#X obj 95 114 r /out/sub/\$1/vol;
#X obj 71 288 r /out/sub/\$1/hp;
#X obj 96 204 r /out/sub/\$1/lp;
#X obj 48 313 hp1~ 10;
#X text 45 22 sub~ <sub_id>;
#X text 47 46 master for subwoofer with filter;
#X obj 47 67 catch~ /out/sub_\$1;
#X obj 57 90 s~ /out/sub_\$1;
#X obj 67 341 prvu_send /out/sub/\$1/level;
#X obj 49 367 master_fade~;
#X connect 1 0 2 0;
#X connect 2 0 13 0;
#X connect 6 0 1 1;
#X connect 7 0 8 0;
#X connect 8 0 6 0;
#X connect 9 0 8 1;
#X connect 10 0 7 0;
#X connect 11 0 13 1;
#X connect 12 0 2 1;
#X connect 13 0 18 0;
#X connect 13 0 19 0;
#X connect 16 0 1 0;
#X connect 16 0 17 0;
#X connect 19 0 0 0;
