#N canvas 573 711 344 330 10;
#X obj 101 101 cnv 15 98 198 empty empty testones_\$1 1 7 0 10 -204786
-66577 0;
#X obj 140 123 tgl 15 0 /mxr/testtones/\$1/on /mxr/testtones/\$1/on
ON 2 8 0 10 -4034 -1 -1 0 1;
#X obj 145 154 vradio 15 1 0 3 /mxr/testtones/\$1/sel /mxr/testtones/\$1/sel
empty 0 -8 0 10 -262144 -1 -1 0;
#X text 162 156 pink;
#X text 162 173 sin;
#X text 163 187 saw;
#X obj 144 218 nbx 5 14 -1e+37 1e+37 0 0 /mxr/testtones/\$1/freq /mxr/testtones/\$1/freq
freq 0 -8 0 10 -262144 -1 -1 220 256;
#X obj 144 240 tgl 15 0 /mxr/testtones/\$1/pulse/on /mxr/testtones/\$1/pulse/on
pulse 17 7 0 10 -261682 -1 -1 0 1;
#X obj 144 264 nbx 4 14 -1e+37 1e+37 0 0 /mxr/testtones/\$1/pulse/time
/mxr/testtones/\$1/pulse/time time 20 -8 0 10 -261682 -1 -1 0 256;
#X obj 125 157 vu 10 120 /mxr/testtones/\$1/level empty -1 -8 0 10
-66577 -1 0 0;
#X obj 103 151 vsl 15 128 0 127 0 0 /mxr/testtones/\$1/vol /mxr/testtones/\$1/vol
tt_\$1 0 -9 0 10 -4034 -1 -1 10000 1;
#X obj 103 283 nbx 3 14 -1e+37 1e+37 0 0 /mxr/testtones/\$1/vol /mxr/testtones/\$1/vol
empty 0 -8 0 10 -4034 -1 -1 100 256;
#X coords 0 -1 1 1 100 200 2 100 100;
