#N canvas 803 594 254 324 10;
#X obj 11 11 cnv 30 98 198 empty empty monitor 0 8 0 12 -191407 -66577
0;
#X obj 74 179 tgl 30 0 /mo/mute /mo/mute MUTE 5 17 0 10 -257985 -1
-1 0 1;
#X obj 12 195 nbx 3 14 -1e+37 1e+37 0 0 /mo/vol /mo/vol empty 0 -8
0 10 -257985 -1 -1 62 256;
#X obj 29 72 vu 10 120 /mo/level empty -1 -8 0 10 -66577 -1 1 0;
#X obj 12 63 vsl 15 128 0 127 0 0 /mo/vol /mo/vol MON 0 -9 0 10 -257985
-1 -1 6200 1;
#X obj 72 164 nbx 3 14 0 999 0 0 /mo/del /mo/del delay 0 -4 0 10 -262144
-1 -1 0 256;
#X obj 135 15 r~ /mo/mono~;
#X obj 10 10 acre/spectroscope mo;
#X text 134 37 Dirty: GUI shouldnt have Signals;
#X text 9 221 (c) GPL \, acre - winfried ritsch;
#X obj 60 56 acre/scope_threshold;
#X obj 142 81 env~;
#X floatatom 142 103 5 0 0 0 - - -, f 5;
#X connect 6 0 7 0;
#X connect 6 0 10 0;
#X connect 6 0 11 0;
#X connect 11 0 12 0;
#X coords 0 -1 1 1 100 200 2 10 10;
