#N canvas 489 78 486 375 10;
#X obj 9 240 *~;
#X obj 162 251 line~;
#X obj 162 128 r /mo/vol;
#X obj 9 262 outlet~;
#X obj 162 151 fadtorms;
#X obj 252 127 r /mo/mute;
#X msg 266 175 0 5;
#X obj 162 232 pack 0 50;
#X obj 249 154 sel 0 1;
#X text 137 18 (c)algorythmics \, winfried ritsch;
#X obj 10 35 catch~ /mo/mono~;
#X obj 8 79 delwrite~ \$0-model 1000;
#X obj 8 127 delread~ \$0-model 300;
#X obj 8 106 r /mo/del;
#X obj 27 56 s~ /mo/mono~;
#X text 168 105 mastervol of monitor;
#X text 12 11 mxr/monitor~;
#X obj 225 207 r /mxr/fadetime;
#X obj 17 190 mxr/prvu/send /mo/level;
#X text 184 271 (c) GPL - acre \, ritsch;
#X obj 11 297 acre/instance_once_test /mo/master \$0;
#X obj 177 71 spectro~ mo;
#X obj 178 48 r~ /mo/mono~;
#X obj 277 46 r~ /mo/mono~;
#X obj 277 69 scope~ mo;
#X connect 0 0 3 0;
#X connect 1 0 0 1;
#X connect 2 0 4 0;
#X connect 4 0 7 0;
#X connect 5 0 8 0;
#X connect 6 0 1 0;
#X connect 7 0 1 0;
#X connect 8 0 7 0;
#X connect 8 1 6 0;
#X connect 10 0 11 0;
#X connect 10 0 14 0;
#X connect 12 0 0 0;
#X connect 12 0 18 0;
#X connect 13 0 12 0;
#X connect 17 0 7 1;
#X connect 22 0 21 0;
#X connect 23 0 24 0;
