#N canvas 115 171 368 212 10;
#X obj 55 48 inlet~;
#X obj 208 151 switch~;
#X obj 51 151 throw~ /mo/mono~;
#X obj 52 119 *~ 0;
#X obj 135 122 *~ 0;
#X obj 137 51 inlet~;
#X obj 210 124 ||;
#X text 52 17 monitor_prepost <prefix id>;
#X obj 184 51 r \$1/monitor/pre;
#X obj 213 80 r \$1/monitor/post;
#X obj 217 101 t b f;
#X connect 0 0 3 0;
#X connect 3 0 2 0;
#X connect 4 0 2 0;
#X connect 5 0 4 0;
#X connect 6 0 1 0;
#X connect 8 0 3 1;
#X connect 8 0 6 0;
#X connect 9 0 4 1;
#X connect 9 0 10 0;
#X connect 10 0 6 0;
#X connect 10 1 6 1;
