#N canvas 777 470 762 459 10;
#X msg 233 145 const 0;
#X obj 233 30 loadbang;
#X obj 233 52 t b b b;
#X obj 336 268 tgl 15 0 empty empty view -1 -4 0 10 -262144 -1 -1 0
1;
#X obj 336 291 pack 0 \$0;
#X text 375 213 draw notes in table;
#X obj 188 28 inlet;
#X text 182 9 clear;
#X obj 6 7 inlet~;
#X obj 176 341 switch~;
#X obj 5 60 *~ 1;
#X obj 54 38 dbtorms;
#X obj 335 241 table \$0-scope;
#X obj 5 416 tabwrite~ \$0-scope;
#X msg 336 307 \; pd-\$2-scope vis \$1;
#X obj 233 196 s \$0-scope;
#X msg 272 75 resize 512 \, bounds 0 1 512 -1;
#X msg 252 97 xticks 512 64 128 \, xlabel -1.05 0 128 256 384 512 \,
yticks 1 0.1 2 \, ylabel -10 0 -0.2 0.2 -0.4 0.4 0.6 -0.6 0.8 -0.8
0 1 -1;
#X obj 131 341 spigot;
#X obj 56 226 dbtorms;
#X obj 45 107 sel 0;
#X msg 46 139 0;
#X obj 4 367 z~ 64;
#X obj 57 340 del 900;
#X obj 42 297 threshold~ 0.1 900;
#X obj 56 249 pack 0.1 1500;
#X msg 54 275 set \$1 \$2 \$1 64;
#X obj 58 368 spigot;
#X text 207 369 (c) GPL \, acre - winfried ritsch;
#X obj 176 295 r /scope/\$1/on;
#X obj 54 7 r /scope/\$1/gain;
#X text 261 3 mxr/mo/scope~ <id>;
#X obj 488 257 r /scope/\$1/on;
#X obj 488 280 metro 250;
#X obj 487 366 s /scope/\$1/curve;
#X obj 487 304 array get \$0-scope;
#X obj 140 407 r /scope/\$1/auto;
#X obj 103 108 list append \$1;
#X obj 43 73 r /scope/\$1/tresh;
#X obj 300 33 bng 15 250 50 0 empty empty empty 17 7 0 10 -262144 -1
-1;
#X msg 106 131 \; /scope/\$1/auto 1 \; /scope/\$1/tresh 50 \; /scope/\$1/gain
100;
#X obj 487 334 acre/split_in_blocks 128;
#X connect 0 0 15 0;
#X connect 1 0 2 0;
#X connect 2 0 0 0;
#X connect 2 0 37 0;
#X connect 2 1 17 0;
#X connect 2 2 16 0;
#X connect 3 0 4 0;
#X connect 4 0 14 0;
#X connect 6 0 0 0;
#X connect 8 0 10 0;
#X connect 10 0 22 0;
#X connect 10 0 24 0;
#X connect 11 0 10 1;
#X connect 16 0 15 0;
#X connect 17 0 15 0;
#X connect 18 0 23 0;
#X connect 19 0 25 0;
#X connect 20 0 21 0;
#X connect 20 1 19 0;
#X connect 21 0 19 0;
#X connect 22 0 13 0;
#X connect 23 0 18 0;
#X connect 23 0 27 0;
#X connect 24 0 13 0;
#X connect 24 0 23 0;
#X connect 25 0 26 0;
#X connect 26 0 24 0;
#X connect 27 0 13 0;
#X connect 29 0 18 1;
#X connect 29 0 9 0;
#X connect 30 0 11 0;
#X connect 32 0 33 0;
#X connect 33 0 35 0;
#X connect 35 0 41 0;
#X connect 36 0 27 1;
#X connect 37 0 40 0;
#X connect 38 0 20 0;
#X connect 39 0 2 0;
#X connect 41 0 34 0;
#X coords 0 459 1 458 50 100 0;
