#N canvas 1379 79 503 177 10;
#X text 30 130 (c) GPL - acre \, ritsch;
#X text 26 49 Storage for the monitor section;
#X text 28 24 mxr/mo/scope_ds <domain> <id>;
#X obj 31 92 ds/register_map \$1 /scope/\$2/gain;
#X obj 32 70 # ds/register_map \$1 /scope/\$2/on;
#X obj 30 113 ds/register_map \$1 /scope/\$2/thresh;
