#N canvas 694 395 368 212 10;
#X obj 52 84 inlet~;
#X obj 105 119 switch~;
#X obj 51 151 throw~ /mo/mono~;
#X obj 52 119 *~ 0;
#X obj 103 85 r \$1/monitor/send;
#X text 49 15 monitor_send <prefix id>;
#X text 49 44 send signals to monitoring;
#X text 184 151 (c) GPL - acre \, ritsch;
#X connect 0 0 3 0;
#X connect 3 0 2 0;
#X connect 4 0 3 1;
#X connect 4 0 1 0;
