#N canvas 532 61 1074 339 10;
#X msg 193 113 const 0;
#X obj 187 7 loadbang;
#X obj 187 30 t b b b;
#X obj 341 200 pack 0 \$0;
#X obj 85 2 inlet;
#X text 79 -17 clear;
#X msg 339 228 \; pd-\$2-spec vis \$1;
#X obj 227 170 s \$0-spec;
#X obj 19 260 table \$0-spec;
#X obj 25 -5 inlet~;
#X obj 59 79 switch~;
#X obj 20 203 *~ 1;
#X obj 57 202 dbtorms;
#X msg 245 141 resize \$1 \, bounds 0 1 \$1 0;
#X msg 209 58 xticks 0.2 32 2 \, xlabel -0.03 0 64 128 192 256 384
512 768 1024 \, yticks 1 0.1 0.2 \, ylabel -0 0 0.1 0.2 0.3 0.4 0.5
0.6 0.7 0.8 0.9 1;
#X obj 40 119 sel 1;
#X text 286 5 (c) GPL \, acre winfried ritsch;
#X obj 45 42 r spectro/\$1/on;
#X obj 40 142 acre/table_hanning \$0 1024;
#X obj 19 230 acre/spectro_fft~ \$0 1024;
#X obj 50 165 r /spectro/\$1/gain;
#X msg 250 112 256;
#X obj 338 179 tgl 15 0 empty empty empty 17 7 0 10 -262144 -1 -1 0
1;
#X obj 507 156 r spectro/\$1/on;
#X obj 507 181 metro 250;
#X obj 507 206 array get \$0-spec;
#X obj 508 272 s /spectro/\$1/curve;
#X obj 507 242 rc/split_in_blocks 64;
#X connect 0 0 7 0;
#X connect 1 0 2 0;
#X connect 2 0 0 0;
#X connect 2 1 14 0;
#X connect 2 2 21 0;
#X connect 3 0 6 0;
#X connect 4 0 0 0;
#X connect 9 0 11 0;
#X connect 11 0 19 0;
#X connect 12 0 11 1;
#X connect 13 0 7 0;
#X connect 14 0 7 0;
#X connect 15 0 18 0;
#X connect 17 0 10 0;
#X connect 17 0 15 0;
#X connect 20 0 12 0;
#X connect 21 0 13 0;
#X connect 22 0 3 0;
#X connect 23 0 24 0;
#X connect 24 0 25 0;
#X connect 25 0 27 0;
#X connect 27 0 26 0;
