#N canvas 175 441 640 339 10;
#X msg 193 113 const 0;
#X obj 187 7 loadbang;
#X obj 187 30 t b b b;
#X obj 75 6 inlet;
#X text 79 -17 clear;
#X obj 227 170 s \$0-spec;
#X obj 19 260 table \$0-spec;
#X obj 20 4 inlet~;
#X obj 59 79 switch~;
#X obj 20 203 *~ 1;
#X obj 57 202 dbtorms;
#X msg 245 141 resize \$1 \, bounds 0 1 \$1 0;
#X msg 209 58 xticks 0.2 32 2 \, xlabel -0.03 0 64 128 192 256 384
512 768 1024 \, yticks 1 0.1 0.2 \, ylabel -0 0 0.1 0.2 0.3 0.4 0.5
0.6 0.7 0.8 0.9 1;
#X obj 40 119 sel 1;
#X text 286 5 (c) GPL \, acre winfried ritsch;
#X obj 40 142 acre/table_hanning \$0 1024;
#X obj 19 230 acre/spectro_fft~ \$0 1024;
#X obj 50 165 r /spectro/\$1/gain;
#X msg 250 112 256;
#X obj 427 171 metro 250;
#X obj 427 196 array get \$0-spec;
#X obj 428 262 s /spectro/\$1/curve;
#X obj 45 42 r /spectro/\$1/on;
#X obj 427 146 r /spectro/\$1/on;
#X text 434 123 Send to gui in blocks;
#X obj 427 232 acre/split_in_blocks 128;
#X connect 0 0 5 0;
#X connect 1 0 2 0;
#X connect 2 0 0 0;
#X connect 2 1 12 0;
#X connect 2 2 18 0;
#X connect 3 0 0 0;
#X connect 7 0 9 0;
#X connect 9 0 16 0;
#X connect 10 0 9 1;
#X connect 11 0 5 0;
#X connect 12 0 5 0;
#X connect 13 0 15 0;
#X connect 17 0 10 0;
#X connect 18 0 11 0;
#X connect 19 0 20 0;
#X connect 20 0 25 0;
#X connect 22 0 8 0;
#X connect 22 0 13 0;
#X connect 23 0 19 0;
#X connect 25 0 21 0;
