#N canvas 269 92 535 463 10;
#X obj 101 101 cnv 15 98 198 empty empty \$1 20 12 0 14 -233017 -66577
0;
#X obj 136 135 bng 15 250 50 0 \$1/program/store \$1/program/store
store 17 7 0 10 -258113 -1 -1;
#X obj 115 184 bng 30 250 50 0 \$1/program/recall \$1/program/recall
recall 32 23 0 10 -4034 -1 -1;
#X obj 115 168 nbx 3 16 -1e+37 1e+37 0 0 \$1/program/nr \$1/program/nr
nr 0 -8 0 14 -261682 -1 -1 1 256;
#X obj 104 253 bng 15 250 50 0 empty empty save 17 7 0 10 -163905 -1
-1;
#X obj 103 275 bng 15 250 50 0 empty empty load 17 7 0 10 -13381 -1
-1;
#X text 105 118 -- STORAGE --;
#X obj 230 376 savepanel;
#X obj 147 276 bng 15 250 50 0 \$1/program/load \$1/program/load reload
17 7 0 10 -13381 -1 -1;
#X obj 238 454 openpanel;
#X obj 222 323 route bang;
#X obj 229 351 symbol;
#X obj 257 428 symbol;
#X obj 146 254 bng 15 250 50 0 empty empty resave 17 7 0 10 -163905
-1 -1;
#X obj 233 400 s \$1/program/save;
#X obj 238 475 s \$1/program/load;
#X obj 221 301 r \$1/filename;
#X text 221 284 for panels dir;
#N canvas 46 375 444 383 tools 0;
#X floatatom 2 209 5 0 0 0 - - -, f 5;
#X obj -5 101 bng 15 250 50 0 empty empty empty 17 7 0 10 -262144 -1
-1;
#X obj 9 235 t b f;
#X text -2 87 fill with actual parameter;
#X obj 20 188 for++ 1 99 10;
#X floatatom 49 106 5 0 0 0 from - -, f 5;
#X floatatom 105 106 5 0 0 0 to - -, f 5;
#X obj 20 164 f 1;
#X obj -3 43 route fill;
#X obj 51 65 unpack 0 0;
#X obj -3 64 t b l;
#X obj -2 16 inlet;
#X obj 39 265 s \$1/program/nr;
#X obj 4 285 s \$1/program/store;
#X msg 56 166 0;
#X obj -5 120 t b b;
#X floatatom 193 175 5 0 0 0 - - -, f 5;
#X obj 208 125 bng 15 250 50 0 empty empty empty 17 7 0 10 -262144
-1 -1;
#X msg 206 81 1;
#X obj 191 152 for++ 0 99 10;
#X obj 226 261 s \$1/program/nr;
#X obj 155 354 s \$1/program/store;
#X obj 172 238 t b f b b;
#X obj 206 284 s \$1/program/recall;
#X obj 236 195 r /prg/notes/1/filter;
#X obj 238 225 s /prg/rec/advance/series;
#X connect 0 0 2 0;
#X connect 1 0 15 0;
#X connect 2 0 13 0;
#X connect 2 1 12 0;
#X connect 4 0 0 0;
#X connect 5 0 7 1;
#X connect 6 0 4 1;
#X connect 7 0 4 0;
#X connect 8 0 10 0;
#X connect 9 0 5 0;
#X connect 9 1 6 0;
#X connect 10 0 1 0;
#X connect 10 1 9 0;
#X connect 11 0 8 0;
#X connect 14 0 4 0;
#X connect 15 0 4 0;
#X connect 15 1 7 0;
#X connect 16 0 22 0;
#X connect 17 0 19 0;
#X connect 18 0 19 0;
#X connect 19 0 16 0;
#X connect 22 0 21 0;
#X connect 22 2 23 0;
#X connect 22 3 20 0;
#X restore 339 307 pd tools;
#X text 219 57 (c)algorythmics \, winfried ritsch;
#X text 35 56 ds/storage_ctl <domain>;
#X msg 342 284 fill 0 32;
#X obj 179 225 bng 15 250 50 0 \$1/program/next \$1/program/next next
-25 7 0 10 -262144 -1 -1;
#X obj 105 225 bng 15 250 50 0 \$1/program/prev \$1/program/prev prev
17 7 0 10 -262144 -1 -1;
#X obj 222 241 s \$1/program/next;
#X connect 4 0 11 0;
#X connect 5 0 12 0;
#X connect 7 0 14 0;
#X connect 9 0 15 0;
#X connect 10 1 11 1;
#X connect 10 1 12 1;
#X connect 11 0 7 0;
#X connect 12 0 9 0;
#X connect 13 0 14 0;
#X connect 16 0 10 0;
#X connect 21 0 18 0;
#X coords 0 -1 1 1 100 200 2 100 100;
