#N canvas 265 88 674 421 10;
#X obj 101 101 cnv 15 98 198 empty empty \$1 20 12 0 14 -233017 -66577
0;
#X obj 136 135 bng 15 250 50 0 \$1/program/store \$1/program/store
store 17 7 0 10 -258113 -1 -1;
#X obj 115 184 bng 30 250 50 0 \$0/program/recall/s \$0/program/recall/r
recall 32 23 0 10 -4034 -1 -1;
#X obj 115 168 nbx 3 16 -1e+37 1e+37 0 0 \$1/program/nr \$1/program/nr
nr 0 -8 0 14 -261682 -1 -1 0 256;
#X obj 104 253 bng 15 250 50 0 \$0-save \$0-save save 17 7 0 10 -163905
-1 -1;
#X obj 103 275 bng 15 250 50 0 \$0-load \$0-load load 17 7 0 10 -13381
-1 -1;
#X text 105 118 -- STORAGE --;
#X obj 315 387 savepanel;
#X obj 147 276 bng 15 250 50 0 \$0-reload \$0-reload reload 17 7 0
10 -13381 -1 -1;
#X obj 471 389 openpanel;
#X obj 420 283 route bang;
#X obj 315 364 symbol;
#X obj 471 363 symbol;
#X obj 146 254 bng 15 250 50 0 \$0-resave \$0-resave resave 17 7 0
10 -163905 -1 -1;
#X obj 315 411 s \$1/program/save;
#X obj 471 410 s \$1/program/load;
#X obj 420 261 r \$1/filename;
#X text 419 244 for panels dir;
#N canvas 43 352 444 383 tools 0;
#X floatatom 54 192 5 0 0 0 - - -;
#X obj 27 101 bng 15 250 50 0 empty empty empty 17 7 0 10 -262144 -1
-1;
#X obj 54 215 t b f;
#X text 28 87 fill with actual parameter;
#X obj 54 168 for++ 1 99 10;
#X floatatom 81 106 5 0 0 0 from - -;
#X floatatom 137 106 5 0 0 0 to - -;
#X obj 54 144 f 1;
#X obj 27 43 route fill;
#X obj 81 65 unpack 0 0;
#X obj 27 64 t b l;
#X obj 27 19 inlet;
#X obj 89 245 s \$1/program/nr;
#X obj 54 265 s \$1/program/store;
#X msg 90 146 0;
#X obj 27 120 t b b;
#X floatatom 272 215 5 0 0 0 - - -;
#X obj 289 165 bng 15 250 50 0 empty empty empty 17 7 0 10 -262144
-1 -1;
#X msg 272 141 1;
#X obj 272 192 for++ 0 99 10;
#X obj 326 261 s \$1/program/nr;
#X obj 272 305 s \$1/program/store;
#X obj 272 238 t b f b b;
#X obj 306 284 s \$1/program/recall;
#X obj 268 45 r /prg/notes/1/filter;
#X obj 268 75 s /prg/rec/advance/series;
#X connect 0 0 2 0;
#X connect 1 0 15 0;
#X connect 2 0 13 0;
#X connect 2 1 12 0;
#X connect 4 0 0 0;
#X connect 5 0 7 1;
#X connect 6 0 4 1;
#X connect 7 0 4 0;
#X connect 8 0 10 0;
#X connect 9 0 5 0;
#X connect 9 1 6 0;
#X connect 10 0 1 0;
#X connect 10 1 9 0;
#X connect 11 0 8 0;
#X connect 14 0 4 0;
#X connect 15 0 4 0;
#X connect 15 1 7 0;
#X connect 16 0 22 0;
#X connect 17 0 19 0;
#X connect 18 0 19 0;
#X connect 19 0 16 0;
#X connect 22 0 21 0;
#X connect 22 2 23 0;
#X connect 22 3 20 0;
#X restore 234 55 pd tools;
#X text 35 56 ds/storage_ctl <domain>;
#X msg 234 32 fill 0 32;
#X obj 179 225 bng 15 250 50 0 \$1/program/next \$1/program/next next
-25 7 0 10 -262144 -1 -1;
#X obj 105 225 bng 15 250 50 0 \$1/program/prev \$1/program/prev prev
17 7 0 10 -262144 -1 -1;
#X text 85 394 (c) GPL \, acre winfried ritsch;
#X obj 268 143 r \$1/program/recall;
#X obj 268 190 route bang;
#X obj 361 119 s \$1/program/recall;
#X obj 268 212 s \$0/program/recall/r;
#X obj 342 68 r \$0/program/recall/s;
#X obj 268 166 spigot 1;
#X obj 342 91 t b b b;
#X msg 394 91 0;
#X msg 313 92 1;
#X text 396 145 recall can also be a number \, filter;
#X obj 315 343 r \$0-save;
#X obj 376 387 r \$0-resave;
#X obj 471 339 r \$0-load;
#X obj 534 389 r \$0-reload;
#X obj 313 119 t f;
#X obj 477 306 t a a;
#X connect 7 0 14 0;
#X connect 9 0 15 0;
#X connect 10 1 39 0;
#X connect 11 0 7 0;
#X connect 12 0 9 0;
#X connect 16 0 10 0;
#X connect 20 0 18 0;
#X connect 24 0 29 0;
#X connect 25 0 27 0;
#X connect 28 0 30 0;
#X connect 29 0 25 0;
#X connect 30 0 32 0;
#X connect 30 1 26 0;
#X connect 30 2 31 0;
#X connect 31 0 38 0;
#X connect 32 0 38 0;
#X connect 34 0 11 0;
#X connect 35 0 14 0;
#X connect 36 0 12 0;
#X connect 37 0 15 0;
#X connect 38 0 29 1;
#X connect 39 0 11 1;
#X connect 39 1 12 1;
#X coords 0 -1 1 1 100 200 2 100 100;
