#N canvas 198 75 761 659 10;
#X obj 35 622 outlet data;
#X text 38 599 recalled scene;
#X msg 136 332 info;
#X obj 132 493 route numslots;
#X obj 35 538 list prepend 0;
#X obj 276 258 t s b;
#X obj 276 284 pack s 0;
#X obj 276 238 symbol;
#N canvas 1603 147 645 736 read 0;
#X obj 90 604 outlet data;
#X obj 283 558 outlet cue#;
#X obj 90 217 textfile;
#X obj 90 46 inlet open;
#X obj 90 148 t b s;
#X msg 122 168 read \$1 cr \, rewind;
#X obj 90 190 until;
#X obj 90 525 list prepend add;
#X obj 251 490 t b f;
#X msg 251 518 clear;
#X msg 167 494 clearall;
#X text 171 44 basefilename;
#X obj 90 68 symbol;
#X obj 90 269 route #scene;
#X obj 90 297 i;
#X obj 121 297 + 1;
#X msg 186 267 0;
#X obj 167 472 t b;
#X obj 90 546 list trim;
#X obj 90 575 t a a;
#X floatatom 70 334 5 0 0 0 - - -, f 5;
#X obj 273 436 print msg_pbank;
#X msg 273 396 read \$2 with \$1 slots;
#X obj 273 362 pack 0 s;
#X obj 90 89 t s b b s;
#X obj 143 237 t b b;
#X obj 273 339 i;
#X connect 2 0 13 0;
#X connect 2 1 25 0;
#X connect 3 0 12 0;
#X connect 4 0 6 0;
#X connect 4 1 5 0;
#X connect 5 0 2 0;
#X connect 6 0 2 0;
#X connect 7 0 18 0;
#X connect 8 1 1 0;
#X connect 9 0 19 0;
#X connect 10 0 19 0;
#X connect 12 0 24 0;
#X connect 13 0 14 0;
#X connect 13 1 7 0;
#X connect 14 0 15 0;
#X connect 14 0 8 0;
#X connect 14 0 20 0;
#X connect 14 0 26 1;
#X connect 15 0 14 1;
#X connect 16 0 14 0;
#X connect 17 0 10 0;
#X connect 18 0 19 0;
#X connect 19 0 0 0;
#X connect 22 0 21 0;
#X connect 23 0 22 0;
#X connect 24 0 4 0;
#X connect 24 1 16 0;
#X connect 24 2 17 0;
#X connect 24 3 23 1;
#X connect 25 0 26 0;
#X connect 25 1 6 1;
#X connect 26 0 23 0;
#X restore 251 193 pd read ___;
#N canvas 577 121 585 492 write 0;
#X obj 90 46 inlet open;
#X obj 145 226 until;
#X obj 145 205 t f b;
#X obj 145 246 i;
#X obj 177 246 + 1;
#X msg 186 226 0;
#X obj 113 99 list prepend;
#X obj 145 185 i 100;
#X msg 191 164 100;
#X obj 145 271 t f f;
#X obj 363 55 inlet data;
#X obj 363 179 list prepend add;
#X obj 363 207 list trim;
#X msg 159 351 clear;
#X msg 113 384 write \$1 cr;
#X obj 113 406 t a;
#X obj 113 426 textfile;
#X obj 332 433 outlet query cue#;
#X text 171 44 basefilename #cues;
#X obj 363 84 t a b;
#X obj 113 143 unpack s 0;
#X obj 113 163 t s b;
#X msg 177 294 add #scene \$1;
#X obj 113 123 t l b b;
#X obj 177 322 t a;
#X msg 363 149 symbol bang;
#X obj 363 125 t b;
#X obj 363 105 route bang list;
#X obj 414 128 list prepend list;
#X obj 90 68 t a a a;
#N canvas 0 50 450 300 echo 0;
#X obj 23 216 print msg_pbank;
#X obj 23 41 inlet;
#X msg 23 63 writing '\$1' with '\$2' cues;
#X connect 1 0 2 0;
#X connect 2 0 0 0;
#X restore 24 131 pd echo;
#X connect 0 0 29 0;
#X connect 1 0 3 0;
#X connect 2 0 1 0;
#X connect 2 1 5 0;
#X connect 3 0 4 0;
#X connect 3 0 9 0;
#X connect 4 0 3 1;
#X connect 5 0 3 1;
#X connect 6 0 23 0;
#X connect 7 0 2 0;
#X connect 8 0 7 1;
#X connect 9 0 17 0;
#X connect 9 1 22 0;
#X connect 10 0 19 0;
#X connect 11 0 12 0;
#X connect 12 0 24 0;
#X connect 13 0 15 0;
#X connect 14 0 15 0;
#X connect 15 0 16 0;
#X connect 19 0 27 0;
#X connect 20 0 21 0;
#X connect 20 1 7 1;
#X connect 21 0 14 0;
#X connect 21 1 7 0;
#X connect 22 0 24 0;
#X connect 23 0 20 0;
#X connect 23 1 8 0;
#X connect 23 2 13 0;
#X connect 24 0 15 0;
#X connect 25 0 11 0;
#X connect 26 0 25 0;
#X connect 27 0 26 0;
#X connect 27 1 28 0;
#X connect 27 2 11 0;
#X connect 28 0 11 0;
#X connect 29 1 6 0;
#X connect 29 2 30 0;
#X restore 276 307 pd write __;
#X obj 221 128 route read write;
#X obj 36 43 inlet;
#X text 239 59 recall <slot>;
#X text 239 94 read <basefilename>;
#X text 239 108 write <basefilename>;
#X obj 36 69 route recall add;
#X text 237 76 add <slot> <data...>;
#X obj 90 115 t l f;
#X obj 90 156 list prepend add;
#X obj 90 176 list trim;
#X obj 90 136 list split 1;
#X text 145 460 <-- depends on zexy;
#X obj 37 459 liststorage \$1;
#X obj 436 156 t b;
#X msg 436 178 compress;
#N canvas 434 387 450 300 README 0;
#X text 68 61 cue-file:;
#X text 83 84 #scene 0;
#X text 83 100 msg1 data1 data2;
#X text 83 116 msg2 foo bar;
#X text 83 134 #scene 1;
#X text 83 150 msg 1 2 3;
#X text 82 169 #scene 3;
#X text 82 185 jodl 2 2;
#X text 42 236 scene-messages can be of any length and type \, but
must not have a selector "#scene";
#X restore 439 61 pd README;
#X obj 436 134 route compress clear;
#X obj 504 165 route bang float;
#X obj 558 236 t b f;
#X msg 558 259 clear;
#X obj 132 426 t f;
#X obj 37 430 t a a;
#X msg 504 197 clearall \, compress;
#X obj 577 304 route edit;
#N canvas 203 416 1087 459 edit 0;
#X obj 363 20 inlet data;
#X obj 363 309 outlet data;
#X obj 106 371 outlet slot;
#X obj 106 40 inlet slot;
#N canvas 619 484 565 410 \$0-editor 0;
#X obj 100 100 r 1796-getdata;
#X msg 100 120 szene1: vielleicht blitzt's wenn christine zu kurz am
pedal bleibt(?) \, Szene1: 3x wiederholt \, ablaufplan (morgen programmieren)
\, Szene1 \, Szene1 \, Szene1 \, nullszene \, Szene2 \, Szene3 \, nullszene
\, Szene4 \, in der mitte audio-pause \, Szene5 \, Szene6 \, nullszene
\, Szene7 \, Szene8 \, Szene9 \, nullszene \, Szene10 \, Szene11 \,
1 1 \, 1 2 \, 1 3 \, 0 4 \, 2 5 \, 3 6 \, 0 7 \, 4 8 \, 5 9 \, 6 10
\, 0 11 \, 7 12 \, 8 13 \, 9 14 \, 0 15 \, 10 16 \,;
#X obj 100 100 s 1796-setdata;
#X obj 220 100 bng 15 250 50 0 1796-storeandsend empty store&send 17
7 0 10 -262144 -1 -1;
#X connect 0 0 1 0;
#X connect 1 0 2 0;
#X restore 175 251 pd \$0-editor;
#X obj 175 230 s pd-\$0-editor;
#X msg 175 79 bang;
#X obj 363 130 s \$0-getdata;
#X obj 428 66 list prepend add2;
#X obj 363 41 t b a;
#X msg 363 66 addcomma;
#X obj 363 105 t a;
#X obj 428 86 list trim;
#X obj 363 224 r \$0-setdata;
#X obj 175 106 f \$0;
#X obj 175 132 t f;
#X obj 363 246 list prepend 0;
#X obj 363 266 route 0 1;
#X obj 608 434 outlet slotdata;
#X obj 784 392 outlet slot;
#X obj 724 298 t b b;
#X obj 754 329 i;
#X obj 106 65 t f b f;
#X obj 754 350 t f f;
#X msg 754 371 clear;
#X obj 608 352 list prepend add;
#X obj 608 380 list trim;
#X msg 728 163 1;
#X msg 674 162 0;
#X obj 656 252 s \$0-getdata;
#X obj 674 182 t f;
#X obj 656 113 r \$0-storeandsend;
#X msg 175 159 clear \, obj 100 100 r \$1-getdata \, msg 100 120 \,
obj 100 100 s \$1-setdata \, connect 0 0 1 0 \, connect 1 0 2 0 \,
obj 220 100 bng 15 250 50 0 \$1-storeandsend empty store&send 17 7
0 10 -262144 -1 -1 \, vis 1;
#X obj 656 138 t b b b b b;
#X connect 0 0 9 0;
#X connect 3 0 22 0;
#X connect 6 0 14 0;
#X connect 8 0 12 0;
#X connect 9 0 10 0;
#X connect 9 1 8 0;
#X connect 10 0 11 0;
#X connect 11 0 7 0;
#X connect 12 0 11 0;
#X connect 13 0 16 0;
#X connect 14 0 15 0;
#X connect 15 0 32 0;
#X connect 16 0 17 0;
#X connect 17 0 1 0;
#X connect 17 1 25 0;
#X connect 20 1 21 0;
#X connect 21 0 23 0;
#X connect 22 0 2 0;
#X connect 22 1 14 0;
#X connect 22 2 21 1;
#X connect 23 0 24 0;
#X connect 23 1 19 0;
#X connect 24 0 18 0;
#X connect 25 0 26 0;
#X connect 26 0 18 0;
#X connect 27 0 30 0;
#X connect 28 0 30 0;
#X connect 30 0 16 1;
#X connect 31 0 33 0;
#X connect 32 0 5 0;
#X connect 33 0 29 0;
#X connect 33 1 28 0;
#X connect 33 2 29 0;
#X connect 33 3 20 0;
#X connect 33 4 27 0;
#X restore 577 339 pd edit;
#X obj 35 561 route 0 1 2;
#N canvas 4 57 450 300 recall2 0;
#X obj 96 69 inlet slot prefix;
#X obj 94 256 outlet liststorage;
#X obj 232 256 outlet slot;
#X obj 323 255 outlet prefix;
#X obj 96 150 unpack 0 0;
#X obj 97 191 t b f b;
#X obj 357 233 f;
#X obj 96 99 t l b;
#X msg 374 207 0;
#X msg 323 232 0;
#X obj 119 228 t b f;
#X connect 0 0 7 0;
#X connect 4 0 5 0;
#X connect 4 1 6 1;
#X connect 5 0 9 0;
#X connect 5 1 10 0;
#X connect 5 2 6 0;
#X connect 6 0 3 0;
#X connect 7 0 4 0;
#X connect 7 1 8 0;
#X connect 8 0 6 1;
#X connect 9 0 3 0;
#X connect 10 0 1 0;
#X connect 10 1 2 0;
#X restore 37 324 pd recall2;
#X msg 276 330 \$1 1;
#X obj 36 112 t f;
#X msg 576 373 \$1 2;
#X obj 139 382 moses \$1;
#X obj 132 514 t f f;
#X obj 221 165 t b a;
#X obj 407 612 outlet info;
#X obj 643 346 route size;
#X obj 637 379 t b;
#X obj 407 568 i \$1;
#X msg 407 590 size \$1;
#X text 122 38 derived from msg_pbank zexy from iohannes zmoelnig;
#X text 463 557 (c) GPL \, acre winfried ritsch;
#X text 129 12 msg_pbank - internal object for ds storage logic;
#X connect 2 0 31 0;
#X connect 3 0 41 0;
#X connect 4 0 35 0;
#X connect 5 0 6 0;
#X connect 5 1 2 0;
#X connect 6 0 9 0;
#X connect 7 0 5 0;
#X connect 8 0 31 0;
#X connect 8 1 30 0;
#X connect 9 0 37 0;
#X connect 10 0 42 0;
#X connect 10 1 7 0;
#X connect 10 2 26 0;
#X connect 11 0 15 0;
#X connect 15 0 38 0;
#X connect 15 1 17 0;
#X connect 15 2 10 0;
#X connect 17 0 20 0;
#X connect 17 1 30 0;
#X connect 18 0 19 0;
#X connect 19 0 31 0;
#X connect 20 1 18 0;
#X connect 22 0 4 0;
#X connect 22 1 3 0;
#X connect 23 0 24 0;
#X connect 24 0 31 0;
#X connect 26 0 23 0;
#X connect 26 1 27 0;
#X connect 26 2 33 0;
#X connect 27 0 32 0;
#X connect 27 1 28 0;
#X connect 28 0 29 0;
#X connect 28 1 30 0;
#X connect 29 0 31 0;
#X connect 30 0 22 1;
#X connect 31 0 22 0;
#X connect 32 0 31 0;
#X connect 33 0 34 0;
#X connect 33 1 44 0;
#X connect 34 0 39 0;
#X connect 34 1 0 0;
#X connect 34 2 31 0;
#X connect 34 3 30 0;
#X connect 35 0 0 0;
#X connect 35 1 9 1;
#X connect 35 2 34 1;
#X connect 36 0 31 0;
#X connect 36 1 40 0;
#X connect 36 2 4 1;
#X connect 37 0 36 0;
#X connect 38 0 36 0;
#X connect 39 0 36 0;
#X connect 40 0 30 0;
#X connect 41 0 40 1;
#X connect 41 1 6 1;
#X connect 41 1 46 1;
#X connect 42 0 2 0;
#X connect 42 1 8 0;
#X connect 44 0 45 0;
#X connect 45 0 46 0;
#X connect 46 0 47 0;
#X connect 47 0 43 0;
