#N canvas 156 164 526 332 10;
#X obj 178 232 print x1;
#X obj 177 179 nbx 5 14 -1e+37 1e+37 0 0 vol vol vol 0 -8 0 10 -262144
-1 -1 0 256;
#X msg 120 97 list 11;
#X msg 180 99 list 12;
#X obj 181 121 list trim;
#X obj 77 169 print x2;
#X obj 120 122 s vol;
#X obj 178 207 r vol;
#X obj 182 144 s vol;
#X floatatom 257 103 5 0 0 0 - - -, f 5;
#X obj 257 123 s vol;
#X obj 73 117 s vol;
#X msg 72 94 10;
#X obj 266 65 bng 15 250 50 0 empty empty empty 17 7 0 10 -262144 -1
-1;
#X obj 270 222 route float;
#X obj 244 260 print x3;
#X obj 325 269 print x4;
#X obj 266 186 r vol;
#X msg 329 94 list 13;
#X obj 329 119 route float;
#X obj 329 151 s vol;
#X text 61 37 bug list number triggers numberbox twice \, 13 is a workaround
;
#X connect 2 0 6 0;
#X connect 2 0 5 0;
#X connect 3 0 4 0;
#X connect 3 0 5 0;
#X connect 4 0 8 0;
#X connect 7 0 0 0;
#X connect 9 0 10 0;
#X connect 12 0 11 0;
#X connect 12 0 5 0;
#X connect 13 0 9 0;
#X connect 14 0 15 0;
#X connect 14 1 16 0;
#X connect 17 0 14 0;
#X connect 18 0 19 0;
#X connect 19 0 20 0;
#X connect 19 1 20 0;
