#N canvas 331 58 601 333 10;
#X obj 67 248 list;
#X obj 67 117 r _ds/par/get;
#X obj 67 272 s _ds/par/collect;
#X obj 67 210 route \$1 bang;
#X obj 101 149 r \$2;
#X text 74 80 second arg: name of parameter (within the storage domain)
;
#X obj 168 138 s \$2;
#X text 71 23 first arg is the prepended part of receiver only for
the file \, which stores together with second part \, separeted by
'::' in the file and is used without domain as sender and receiver
;
#X obj 168 117 r \$1::\$2;
#X obj 101 188 list prepend \$1 \$1::\$2;
#X text 172 219 (c) GPL \, acre winfried ritsch;
#X text 74 4 ds/register_map <domain> <subname> [remote connection]
;
#X obj 268 117 remote_par \$2 \$3;
#X connect 0 0 2 0;
#X connect 1 0 3 0;
#X connect 3 0 0 0;
#X connect 3 1 0 0;
#X connect 4 0 9 0;
#X connect 8 0 6 0;
#X connect 9 0 0 1;
