#N canvas 896 335 601 479 10;
#X obj 71 266 list;
#X obj 58 88 r par_get;
#X obj 69 330 s par_stored;
#X obj 67 210 route \$1 bang;
#X obj 101 149 r \$2;
#X text 201 278 (c)algorythmics \, winfried ritsch;
#X text 75 67 second arg: name of parameter (within the storage domain)
;
#X text 74 3 ds/register_map <domain> <subname>;
#X text 74 25 first arg is the prepended part of receiver only for
the file \, which stores together with second part \, is used without
domain as sender and receiver;
#X obj 148 149 s \$2;
#X obj 286 183 # osc/osc_bi \$2 \$2;
#X text 283 162 to be refined;
#X obj 101 188 list prepend \$1 \$1-\$2;
#X obj 148 128 r \$1-\$2;
#X connect 0 0 2 0;
#X connect 1 0 3 0;
#X connect 3 0 0 0;
#X connect 3 1 0 0;
#X connect 4 0 12 0;
#X connect 12 0 0 1;
#X connect 13 0 9 0;
