#N canvas 503 79 601 333 10;
#X obj 67 248 list;
#X obj 67 117 r par_get;
#X obj 67 272 s par_stored;
#X obj 67 210 route \$1 bang;
#X obj 101 149 r \$2;
#X text 74 80 second arg: name of parameter (within the storage domain)
;
#X text 74 3 ds/register_map <domain> <subname>;
#X obj 148 149 s \$2;
#X text 71 23 first arg is the prepended part of receiver only for
the file \, which stores together with second part \, separeted by
'::' in the file and is used without domain as sender and receiver
;
#X obj 148 128 r \$1::\$2;
#X obj 101 188 list prepend \$1 \$1::\$2;
#X text 172 219 (c) GPL \, acre winfried ritsch;
#X connect 0 0 2 0;
#X connect 1 0 3 0;
#X connect 3 0 0 0;
#X connect 3 1 0 0;
#X connect 4 0 10 0;
#X connect 9 0 7 0;
#X connect 10 0 0 1;
