#N canvas 896 335 601 479 10;
#X obj 71 266 list;
#X obj 58 88 r par_get;
#X obj 69 330 s par_stored;
#X obj 67 210 route \$1 bang;
#X obj 101 149 r \$2;
#X text 201 278 (c)algorythmics \, winfried ritsch;
#X text 75 67 second arg: name of parameter (within the storage domain)
;
#X obj 286 183 # osc/osc_bi \$2 \$2;
#X text 283 162 to be refined;
#X text 74 3 ds/register_raw <domain> <subname>;
#X text 74 25 first arg is not prepended \, raw \, in the file. The
domain is used to separete to different storages;
#X obj 101 188 list prepend \$1 \$2;
#X connect 0 0 2 0;
#X connect 1 0 3 0;
#X connect 3 0 0 0;
#X connect 3 1 0 0;
#X connect 4 0 11 0;
#X connect 11 0 0 1;
