#N canvas 505 251 450 433 10;
#X obj 161 313 r /ds/remote/\$1/on;
#X obj 213 73 r /ds/remote/\$1/v;
#X obj 51 339 r _ds/remote/\$1;
#X obj 51 366 spigot 0;
#X text 46 311 collect messages;
#X obj 51 395 outlet;
#X text 73 46 collect distribute messages;
#X obj 58 81 inlet;
#X obj 58 102 t b l b;
#X obj 157 339 i 0;
#X msg 93 137 0;
#X obj 69 182 list split 1;
#X obj 69 205 t b s;
#X obj 69 231 list;
#X obj 69 260 s;
#X text 82 166 send to first name as receiver;
#X text 100 261 send to system;
#X obj 185 111 spigot;
#X obj 185 132 print \$1_in;
#X obj 210 377 spigot;
#X obj 241 351 r /ds/remote/\$1/v;
#X obj 210 398 print \$1_out;
#X connect 0 0 9 0;
#X connect 1 0 17 1;
#X connect 2 0 3 0;
#X connect 3 0 5 0;
#X connect 3 0 19 0;
#X connect 7 0 8 0;
#X connect 7 0 17 0;
#X connect 8 0 9 0;
#X connect 8 1 11 0;
#X connect 8 2 10 0;
#X connect 9 0 3 1;
#X connect 10 0 3 1;
#X connect 11 0 12 0;
#X connect 11 1 13 1;
#X connect 12 0 13 0;
#X connect 12 1 14 1;
#X connect 13 0 14 0;
#X connect 17 0 18 0;
#X connect 19 0 21 0;
#X connect 20 0 19 1;
