#N canvas 480 61 678 674 10;
#X obj 215 490 msg_pbank;
#X msg 312 425 recall \$1;
#X obj 215 529 list split 1;
#X obj 215 552 t b s;
#X obj 17 400 r _ds/par/collect;
#X obj 17 357 s _ds/par/get;
#X obj 17 508 list prepend add 0;
#X msg 122 451 list add \$1;
#X obj 17 531 list trim;
#X obj 215 578 list;
#X obj 17 316 symbol \$1;
#X obj 17 440 route bang;
#X text 35 419 filter empties;
#X text 18 172 store in slot;
#X obj 17 190 r \$1/program/store;
#X obj 245 238 r \$1/program/recall;
#X obj 245 327 i 0;
#X obj 245 261 route float bang;
#X text 244 221 recall from slot [nr];
#X text 280 328 use number for next store/load;
#X obj 17 243 i 0;
#X obj 17 213 route float bang;
#X obj 180 192 r \$1/program/nr;
#X obj 245 377 s \$1/program/nr;
#X text 243 396 for info \, no act;
#X obj 215 625 s;
#X msg 215 461 edit;
#X obj 17 337 list trim;
#X obj 17 465 list trim;
#X obj 17 487 route \$1;
#X text 228 513 send to first name as receiver;
#X text 21 88 receiver names are registered with par_register and domain
is used for retrieving in par_register \, so parameter name starts
with domain/;
#X msg 249 424 clear \$1;
#N canvas 779 62 450 300 file-interface 0;
#X obj 50 248 outlet;
#X obj 23 23 r \$1/program/save;
#X obj 271 51 r \$1/program/load;
#X obj 23 44 t a b;
#X msg 23 176 write \$1;
#X obj 23 66 route bang symbol;
#X obj 271 71 route bang symbol;
#X msg 271 143 read \$1;
#X obj 23 140 symbol ../presets/default.txt;
#X text 149 24 save to file <symbol> or resave;
#X text 398 52 load from file <symbol> or reload;
#X obj 271 101 symbol ../../data\$1.txt;
#X connect 1 0 3 0;
#X connect 2 0 6 0;
#X connect 3 0 5 0;
#X connect 4 0 0 0;
#X connect 5 0 8 0;
#X connect 5 1 8 0;
#X connect 6 0 11 0;
#X connect 6 1 11 0;
#X connect 7 0 0 0;
#X connect 8 0 4 0;
#X connect 11 0 7 0;
#X connect 11 0 8 1;
#X restore 300 462 pd file-interface;
#X text 14 653 (c) GPL \, acre winfried ritsch;
#X text 23 41 messages for a domain are stored within an msg_pbank
\, a wrapper to liststorage from zexy;
#X text 26 16 ds/storage_logic <domain name>;
#X text 19 71 usage with <domain>/program/function see below:;
#X text 187 175 program nr \, store dont recall;
#X text 316 550 Note: sinced used in a lot of submodules;
#X text 314 562 some unhandy naming will stay as they are;
#X text 256 621 send to system;
#X obj 215 600 route float;
#X text 289 599 number2box bug see numberbox-bug.pd;
#X obj 180 215 t f f f;
#X obj 245 289 t f f;
#N canvas 6 61 450 300 prev/next 0;
#X obj 130 86 r \$1/program/nr;
#X obj 115 171 + 1;
#X obj 115 201 t b f;
#X obj 142 223 s \$1/program/nr;
#X obj 115 247 s \$1/program/recall;
#X msg 99 149 1;
#X obj 153 171 + 1;
#X msg 153 149 -1;
#X obj 99 63 r \$1/program/next;
#X obj 153 127 r \$1/program/prev;
#X obj 130 106 t f f;
#X text 71 35 previous/next navigation;
#X connect 0 0 10 0;
#X connect 1 0 2 0;
#X connect 2 0 4 0;
#X connect 2 1 3 0;
#X connect 5 0 1 0;
#X connect 6 0 2 0;
#X connect 7 0 6 0;
#X connect 8 0 5 0;
#X connect 9 0 7 0;
#X connect 10 0 1 1;
#X connect 10 1 6 1;
#X restore 486 119 pd prev/next;
#X obj 245 348 t f f;
#X obj 204 289 t f f;
#X obj 17 265 t b f f f;
#X obj 122 350 t f;
#X connect 0 0 2 0;
#X connect 1 0 0 0;
#X connect 2 0 3 0;
#X connect 2 1 9 1;
#X connect 3 0 9 0;
#X connect 3 1 25 1;
#X connect 4 0 11 0;
#X connect 6 0 8 0;
#X connect 7 0 6 1;
#X connect 8 0 0 0;
#X connect 9 0 42 0;
#X connect 10 0 27 0;
#X connect 11 1 28 0;
#X connect 14 0 21 0;
#X connect 15 0 17 0;
#X connect 16 0 47 0;
#X connect 17 0 45 0;
#X connect 17 1 16 0;
#X connect 20 0 49 0;
#X connect 21 0 20 0;
#X connect 21 1 20 0;
#X connect 22 0 44 0;
#X connect 26 0 0 0;
#X connect 27 0 5 0;
#X connect 28 0 29 0;
#X connect 29 0 6 0;
#X connect 32 0 0 0;
#X connect 33 0 0 0;
#X connect 42 0 25 0;
#X connect 42 1 25 0;
#X connect 44 0 20 1;
#X connect 44 1 50 0;
#X connect 44 2 16 1;
#X connect 45 0 16 0;
#X connect 45 1 50 0;
#X connect 47 0 23 0;
#X connect 47 1 1 0;
#X connect 48 0 23 0;
#X connect 48 1 16 1;
#X connect 49 0 10 0;
#X connect 49 1 48 0;
#X connect 49 2 50 0;
#X connect 49 3 32 0;
#X connect 50 0 7 0;
