#N canvas 98 295 691 442 10;
#X obj 124 73 inlet~;
#X obj 26 65 inlet~;
#X text 119 56 original;
#X text 26 48 delayed;
#X obj 125 187 rfft~;
#X obj 25 188 rfft~;
#X obj 27 327 *~ 1;
#X obj 26 253 rifft~;
#N canvas 293 215 534 396 compl-div 0;
#X obj 25 103 inlet~;
#X obj 76 103 inlet~;
#X obj 162 112 inlet~;
#X obj 213 112 inlet~;
#X obj 109 350 outlet~;
#X obj 173 352 outlet~;
#X obj 25 198 *~;
#X obj 77 195 *~;
#X text 38 86 a;
#X text 80 87 b;
#X text 173 95 c;
#X text 219 94 d;
#X text 47 70 a + jb;
#X text 182 75 c + jd;
#X text 120 367 x;
#X obj 53 231 +~;
#X obj 149 204 *~;
#X obj 176 204 *~;
#X obj 149 227 -~;
#X obj 244 203 *~;
#X obj 280 203 *~;
#X obj 244 224 +~;
#X obj 231 264 /~;
#X obj 231 245 sig~ 1;
#X obj 173 329 *~;
#X obj 109 327 *~;
#X obj 279 151 sig~ 1.5e-20;
#X text 38 -1 complex division of signals:;
#X text 264 265 1/c²+d²;
#X text 70 252 ac+db;
#X text 163 250 bc-ad;
#X text 186 367 jy;
#X text 26 19 (a + jb)/(c + jd) = (ac + bd)/(c^2 + d^2) + j(bc - ad)/(c^2
+ d^2);
#X text 282 133 prevent division through zero;
#X connect 0 0 6 0;
#X connect 0 0 17 0;
#X connect 1 0 7 0;
#X connect 1 0 16 0;
#X connect 2 0 6 1;
#X connect 2 0 16 1;
#X connect 2 0 19 1;
#X connect 2 0 19 0;
#X connect 3 0 7 1;
#X connect 3 0 17 1;
#X connect 3 0 20 0;
#X connect 3 0 20 1;
#X connect 6 0 15 0;
#X connect 7 0 15 1;
#X connect 15 0 25 0;
#X connect 16 0 18 0;
#X connect 17 0 18 1;
#X connect 18 0 24 0;
#X connect 19 0 21 0;
#X connect 20 0 21 1;
#X connect 21 0 22 1;
#X connect 22 0 25 1;
#X connect 22 0 24 1;
#X connect 23 0 22 0;
#X connect 24 0 5 0;
#X connect 25 0 4 0;
#X connect 26 0 21 0;
#X restore 26 226 pd compl-div;
#X obj 27 349 abs~;
#X obj 283 183 block~ \$1 1;
#X obj 62 104 tabreceive~ \$0_hann;
#X obj 125 168 *~;
#X obj 25 147 *~;
#N canvas 606 157 450 432 myhanning 0;
#X obj 211 85 table \$0_hann;
#X msg 91 151 resize \$1;
#X obj 50 245 -~;
#X obj 50 227 sig~ 1;
#X msg 129 219 0;
#X text 46 21 CALCULATE HANNING;
#X text 47 37 WINDOW TABLE;
#X text 197 153 sample rate / window size;
#X msg 45 149 bang;
#X obj 98 196 samplerate~;
#X obj 98 219 /;
#X obj 50 264 *~ 0.5;
#X obj 98 242 osc~ 0;
#X obj 48 333 tabwrite~ \$0_hann;
#X obj 44 107 f \$1;
#X obj 45 128 t b f f;
#X msg 120 110 bang;
#X obj 91 171 s \$0_hann;
#X text 44 62 argument 1: windowsize;
#X obj 196 258 f \$0;
#X floatatom 196 279 4 0 0 0 - - -, f 4;
#X msg 196 236 bang;
#X msg 196 320 \; \$1 write hann.dat;
#X obj 196 299 makefilename %d_hann;
#X obj 44 83 r /corr/window/size;
#X connect 1 0 17 0;
#X connect 2 0 11 0;
#X connect 3 0 2 0;
#X connect 4 0 12 1;
#X connect 8 0 4 0;
#X connect 8 0 13 0;
#X connect 9 0 10 0;
#X connect 10 0 12 0;
#X connect 11 0 13 0;
#X connect 12 0 2 1;
#X connect 14 0 15 0;
#X connect 15 0 9 0;
#X connect 15 0 8 0;
#X connect 15 1 10 1;
#X connect 15 2 1 0;
#X connect 16 0 14 0;
#X connect 19 0 20 0;
#X connect 20 0 23 0;
#X connect 21 0 19 0;
#X connect 23 0 22 0;
#X connect 24 0 14 0;
#X restore 283 207 pd myhanning;
#X text 21 5 Complex division in frequency domain is correlation in
time domain;
#X text 286 164 eg.: 16384;
#N canvas 461 164 590 361 snapshot 0;
#X obj 24 133 inlet~;
#X obj 29 286 pack 0 \$0;
#X obj 281 22 loadbang;
#X obj 281 48 pack \$0 \$1;
#X obj 348 22 bng 15 250 50 0 empty empty empty 17 7 0 10 -262144 -1
-1;
#X obj 23 211 tabwrite~ \$0-corr;
#X obj 29 47 table \$0-corr;
#X obj 75 133 r /corr/trigger;
#X obj 30 263 r /corr/v;
#X obj 199 135 inlet~;
#X obj 198 163 *~;
#X obj 197 284 pack 0 \$0;
#X msg 29 311 \; pd-\$2-corr vis \$1;
#N canvas 9 83 723 336 label-corr 0;
#X floatatom 23 70 5 0 0 0 - - -, f 5;
#X obj 23 94 pack 0 \$0 \$1;
#X obj 23 45 dbtorms;
#X obj 158 150 pack 0 \$0 \$1 0.25 0.5 0.75;
#X obj 158 88 t f f f f;
#X obj 178 119 * 0.25;
#X obj 236 119 * 0.5;
#X obj 288 118 * 0.75;
#X text 90 41 change visualization y range;
#X obj 23 22 r /corr/range/y;
#X obj 158 202 s \$0-corr;
#X msg 158 176 ylabel 0 0 \$1 \$4 \$5 \$6;
#X text 166 67 label y-axis;
#X msg 23 116 bounds 0 \$1 \$3 0;
#X obj 23 139 s \$0-corr;
#X obj 355 89 t f f f f;
#X obj 375 120 * 0.25;
#X obj 433 120 * 0.5;
#X obj 477 121 * 0.75;
#X msg 355 177 xlabel 0 0 \$1 \$4 \$5 \$6;
#X obj 355 151 pack 0 \$0 \$1 128 256 512;
#X obj 165 15 r /corr/window/size;
#X connect 0 0 1 0;
#X connect 0 0 4 0;
#X connect 1 0 13 0;
#X connect 2 0 0 0;
#X connect 3 0 11 0;
#X connect 4 0 3 0;
#X connect 4 1 5 0;
#X connect 4 2 6 0;
#X connect 4 3 7 0;
#X connect 5 0 3 3;
#X connect 6 0 3 4;
#X connect 7 0 3 5;
#X connect 9 0 2 0;
#X connect 11 0 10 0;
#X connect 13 0 14 0;
#X connect 15 0 20 0;
#X connect 15 1 16 0;
#X connect 15 2 17 0;
#X connect 15 3 18 0;
#X connect 16 0 20 3;
#X connect 17 0 20 4;
#X connect 18 0 20 5;
#X connect 19 0 10 0;
#X connect 20 0 19 0;
#X connect 21 0 1 2;
#X connect 21 0 15 0;
#X restore 29 25 pd label-corr;
#X text 97 238 --- show windows ---;
#X obj 197 209 tabwrite~ \$0-amplitudes;
#X obj 24 109 table \$0-amplitudes;
#X msg 197 308 \; pd-\$2-amplitudes vis \$1;
#N canvas 535 73 620 346 label-amplitude 0;
#X floatatom 23 122 5 0 0 0 - - -, f 5;
#X obj 23 146 pack 0 \$0 \$1;
#X obj 158 202 pack 0 \$0 \$1 0.25 0.5 0.75;
#X obj 158 140 t f f f f;
#X obj 178 171 * 0.25;
#X obj 236 171 * 0.5;
#X obj 288 170 * 0.75;
#X text 90 93 change visualization y range;
#X msg 158 228 ylabel 0 0 \$1 \$4 \$5 \$6;
#X text 166 119 label y-axis;
#X msg 23 168 bounds 0 \$1 \$3 0;
#X obj 181 22 r /corr/winsize;
#X obj 22 22 r /corr/amplitudes/y;
#X obj 23 192 s \$0-amplitudes;
#X obj 158 254 s \$0-amplitudes;
#X obj 343 28 r /corr/amplitudes/y/auto;
#X obj 343 51 array max \$0-amplitudes;
#X obj 344 97 s /corr/amplitudes/y;
#X obj 373 176 t f f f f;
#X obj 393 207 * 0.25;
#X obj 451 207 * 0.5;
#X obj 503 206 * 0.75;
#X obj 373 290 s \$0-amplitudes;
#X msg 373 264 xlabel 0 0 \$1 \$4 \$5 \$6;
#X obj 373 238 pack 0 \$0 \$1 128 256 512;
#X obj 22 67 dbtorms;
#X obj 343 73 rmstodb;
#X connect 0 0 1 0;
#X connect 0 0 3 0;
#X connect 1 0 10 0;
#X connect 2 0 8 0;
#X connect 3 0 2 0;
#X connect 3 1 4 0;
#X connect 3 2 5 0;
#X connect 3 3 6 0;
#X connect 4 0 2 3;
#X connect 5 0 2 4;
#X connect 6 0 2 5;
#X connect 8 0 14 0;
#X connect 10 0 13 0;
#X connect 11 0 1 2;
#X connect 11 0 18 0;
#X connect 12 0 25 0;
#X connect 15 0 16 0;
#X connect 16 0 26 0;
#X connect 18 0 24 0;
#X connect 18 1 19 0;
#X connect 18 2 20 0;
#X connect 18 3 21 0;
#X connect 19 0 24 3;
#X connect 20 0 24 4;
#X connect 21 0 24 5;
#X connect 23 0 22 0;
#X connect 24 0 23 0;
#X connect 25 0 0 0;
#X connect 26 0 17 0;
#X restore 23 87 pd label-amplitude;
#X obj 198 261 r /corr/amplitudes/v;
#X msg 280 70 \; \$1-corr resize \$2 \; \$1-amplitudes resize \$2 \;
/corr/range/y 90 \; /corr/amplitudes/y 1;
#X text 29 2 Tables;
#X obj 198 185 sqrt~;
#X text 246 182 make power amplitude;
#X obj 394 295 s /corr/amplitudes/y/auto;
#X obj 395 268 r /corr/measurement;
#X connect 0 0 5 0;
#X connect 1 0 12 0;
#X connect 2 0 3 0;
#X connect 3 0 20 0;
#X connect 4 0 3 0;
#X connect 7 0 5 0;
#X connect 7 0 15 0;
#X connect 8 0 1 0;
#X connect 9 0 10 0;
#X connect 9 0 10 1;
#X connect 10 0 22 0;
#X connect 11 0 17 0;
#X connect 19 0 11 0;
#X connect 22 0 15 0;
#X connect 25 0 24 0;
#X restore 27 369 pd snapshot;
#N canvas 554 119 671 509 meassurement 0;
#X obj 39 108 array max \$0-corr;
#X floatatom 39 151 5 0 0 0 - - -, f 5;
#X floatatom 155 150 5 0 0 0 - - -, f 5;
#X obj 31 44 bng 15 250 50 0 empty empty empty 17 7 0 10 -262144 -1
-1;
#X obj 84 264 t f b;
#X text 45 422 Summation of amplitude;
#X obj 39 80 r /corr/measurement;
#X obj 84 235 - 1, f 5;
#X obj 84 345 / 3;
#X obj 39 345 * 0.5;
#X obj 39 379 + 0;
#X text 43 401 value: 3 samples gewichtet;
#X obj 186 223 s /corr/delay;
#X msg 116 287 3;
#X obj 40 441 s /corr/quality;
#X text 39 461 the quality of the peak;
#X obj 84 316 array sum \$0-corr;
#X obj 376 175 /;
#X text 406 180 scale on window size;
#X msg 376 151 2 \$1;
#X text 419 150 2 times since hanning window;
#X obj 323 197 * 0.0001;
#X obj 323 222 s /corr/amplitude;
#X obj 323 81 r /corr/measurement;
#X obj 323 106 array sum \$0-amplitudes;
#X obj 376 127 r /corr/window/size;
#X obj 185 198 acre/samples2ms;
#X obj 155 171 t f f;
#X text 316 55 --- Amplitude ---;
#X text 58 51 --- delay (quality) ---;
#X connect 0 0 1 0;
#X connect 0 1 2 0;
#X connect 1 0 9 0;
#X connect 2 0 27 0;
#X connect 3 0 0 0;
#X connect 4 0 16 0;
#X connect 4 1 13 0;
#X connect 6 0 0 0;
#X connect 7 0 4 0;
#X connect 8 0 10 1;
#X connect 9 0 10 0;
#X connect 10 0 14 0;
#X connect 13 0 16 1;
#X connect 16 0 8 0;
#X connect 17 0 21 1;
#X connect 19 0 17 0;
#X connect 21 0 22 0;
#X connect 23 0 24 0;
#X connect 24 0 21 0;
#X connect 25 0 19 0;
#X connect 26 0 12 0;
#X connect 27 0 7 0;
#X connect 27 1 26 0;
#X restore 283 257 pd meassurement;
#X text 128 328 scale on window size;
#X msg 70 302 2 \$1;
#X text 113 301 2 times since hanning window;
#X obj 284 71 f \$1;
#X obj 284 50 loadbang;
#X msg 283 143 set \$1;
#X obj 350 50 bng 15 250 50 0 empty empty empty 17 7 0 10 -262144 -1
-1;
#X obj 458 74 acre/samples2ms;
#X obj 458 52 r /corr/window/size;
#X obj 458 99 s /corr/window/time;
#X obj 284 96 s /corr/window/size;
#X obj 283 121 r /corr/window/size;
#X obj 70 278 r /corr/window/size;
#X text 118 369 Use /corr/trigger for record sample;
#X obj 497 198 r /corr/window/time;
#X obj 458 126 r /corr/trigger;
#X obj 458 245 del 342;
#X obj 497 220 + 1;
#X text 28 393 use /core/measurement to extract data meassurement later
;
#X obj 474 151 r /corr/measurement/auto;
#X obj 458 176 spigot 1;
#X obj 458 269 s /corr/measurement;
#X obj 70 326 / 16384;
#X connect 0 0 12 0;
#X connect 1 0 13 0;
#X connect 1 0 17 1;
#X connect 4 0 8 2;
#X connect 4 1 8 3;
#X connect 5 0 8 0;
#X connect 5 1 8 1;
#X connect 6 0 9 0;
#X connect 7 0 6 0;
#X connect 8 0 7 0;
#X connect 8 1 7 1;
#X connect 9 0 17 0;
#X connect 11 0 13 1;
#X connect 11 0 12 1;
#X connect 12 0 4 0;
#X connect 13 0 5 0;
#X connect 20 0 41 0;
#X connect 22 0 29 0;
#X connect 23 0 22 0;
#X connect 24 0 10 0;
#X connect 25 0 22 0;
#X connect 26 0 28 0;
#X connect 27 0 26 0;
#X connect 30 0 24 0;
#X connect 31 0 20 0;
#X connect 33 0 36 0;
#X connect 34 0 39 0;
#X connect 35 0 40 0;
#X connect 36 0 35 1;
#X connect 38 0 39 1;
#X connect 39 0 35 0;
#X connect 41 0 6 1;
